G04 #@! TF.GenerationSoftware,KiCad,Pcbnew,(5.0.0)*
G04 #@! TF.CreationDate,2020-12-16T12:49:42+00:00*
G04 #@! TF.ProjectId,ESP-V,4553502D562E6B696361645F70636200,rev?*
G04 #@! TF.SameCoordinates,Original*
G04 #@! TF.FileFunction,Soldermask,Bot*
G04 #@! TF.FilePolarity,Negative*
%FSLAX46Y46*%
G04 Gerber Fmt 4.6, Leading zero omitted, Abs format (unit mm)*
G04 Created by KiCad (PCBNEW (5.0.0)) date 12/16/20 12:49:42*
%MOMM*%
%LPD*%
G01*
G04 APERTURE LIST*
%ADD10C,1.400000*%
%ADD11R,2.100000X2.100000*%
%ADD12O,2.100000X2.100000*%
%ADD13R,1.150000X1.600000*%
%ADD14O,1.300000X2.400000*%
%ADD15C,1.000000*%
%ADD16C,0.500000*%
%ADD17C,0.100000*%
%ADD18R,1.900000X1.400000*%
G04 APERTURE END LIST*
D10*
G04 #@! TO.C,Y2*
X113080000Y-118640000D03*
X111580000Y-118640000D03*
G04 #@! TD*
D11*
G04 #@! TO.C,J2*
X116200000Y-116850000D03*
D12*
X116200000Y-114310000D03*
X116200000Y-111770000D03*
X116200000Y-109230000D03*
X116200000Y-106690000D03*
X116200000Y-104150000D03*
X116200000Y-101610000D03*
X116200000Y-99070000D03*
X116200000Y-96530000D03*
X116200000Y-93990000D03*
X116200000Y-91450000D03*
X116200000Y-88910000D03*
X116200000Y-86370000D03*
X116200000Y-83830000D03*
X116200000Y-81290000D03*
X116200000Y-78750000D03*
G04 #@! TD*
D13*
G04 #@! TO.C,C15*
X111600000Y-120550000D03*
X111600000Y-122450000D03*
G04 #@! TD*
G04 #@! TO.C,C18*
X113200000Y-122450000D03*
X113200000Y-120550000D03*
G04 #@! TD*
D14*
G04 #@! TO.C,J1*
X100750000Y-82400000D03*
X109400000Y-82400000D03*
X109400000Y-78220000D03*
X100750000Y-78220000D03*
D15*
X102185000Y-81900000D03*
X107965000Y-81900000D03*
G04 #@! TD*
D11*
G04 #@! TO.C,J3*
X90700000Y-78850000D03*
D12*
X90700000Y-81390000D03*
X90700000Y-83930000D03*
X90700000Y-86470000D03*
X90700000Y-89010000D03*
X90700000Y-91550000D03*
X90700000Y-94090000D03*
X90700000Y-96630000D03*
X90700000Y-99170000D03*
X90700000Y-101710000D03*
X90700000Y-104250000D03*
X90700000Y-106790000D03*
X90700000Y-109330000D03*
X90700000Y-111870000D03*
G04 #@! TD*
D16*
G04 #@! TO.C,JP1*
X106900000Y-80500000D03*
D17*
G36*
X105953843Y-79910982D02*
X105965224Y-79873463D01*
X105983706Y-79838886D01*
X106008579Y-79808579D01*
X106038886Y-79783706D01*
X106073463Y-79765224D01*
X106100000Y-79757174D01*
X106100000Y-79600000D01*
X106103843Y-79560982D01*
X106115224Y-79523463D01*
X106133706Y-79488886D01*
X106158579Y-79458579D01*
X106188886Y-79433706D01*
X106223463Y-79415224D01*
X106260982Y-79403843D01*
X106300000Y-79400000D01*
X106700000Y-79400000D01*
X106739018Y-79403843D01*
X106776537Y-79415224D01*
X106811114Y-79433706D01*
X106841421Y-79458579D01*
X106866294Y-79488886D01*
X106884776Y-79523463D01*
X106896157Y-79560982D01*
X106900000Y-79600000D01*
X106903843Y-79560982D01*
X106915224Y-79523463D01*
X106933706Y-79488886D01*
X106958579Y-79458579D01*
X106988886Y-79433706D01*
X107023463Y-79415224D01*
X107060982Y-79403843D01*
X107100000Y-79400000D01*
X107500000Y-79400000D01*
X107539018Y-79403843D01*
X107576537Y-79415224D01*
X107611114Y-79433706D01*
X107641421Y-79458579D01*
X107666294Y-79488886D01*
X107684776Y-79523463D01*
X107696157Y-79560982D01*
X107700000Y-79600000D01*
X107700000Y-79757174D01*
X107726537Y-79765224D01*
X107761114Y-79783706D01*
X107791421Y-79808579D01*
X107816294Y-79838886D01*
X107834776Y-79873463D01*
X107846157Y-79910982D01*
X107850000Y-79950000D01*
X107850000Y-80500000D01*
X107849398Y-80506112D01*
X107849398Y-80524534D01*
X107848435Y-80544140D01*
X107843625Y-80592971D01*
X107840746Y-80612380D01*
X107831174Y-80660505D01*
X107826404Y-80679548D01*
X107812160Y-80726503D01*
X107805549Y-80744980D01*
X107786772Y-80790313D01*
X107778377Y-80808061D01*
X107755246Y-80851334D01*
X107745160Y-80868162D01*
X107717900Y-80908961D01*
X107706205Y-80924730D01*
X107675077Y-80962659D01*
X107661897Y-80977200D01*
X107627200Y-81011897D01*
X107612659Y-81025077D01*
X107574730Y-81056205D01*
X107558961Y-81067900D01*
X107518162Y-81095160D01*
X107501334Y-81105246D01*
X107458061Y-81128377D01*
X107440313Y-81136772D01*
X107394980Y-81155549D01*
X107376503Y-81162160D01*
X107329548Y-81176404D01*
X107310505Y-81181174D01*
X107262380Y-81190746D01*
X107242971Y-81193625D01*
X107194140Y-81198435D01*
X107174534Y-81199398D01*
X107156112Y-81199398D01*
X107150000Y-81200000D01*
X106650000Y-81200000D01*
X106643888Y-81199398D01*
X106625466Y-81199398D01*
X106605860Y-81198435D01*
X106557029Y-81193625D01*
X106537620Y-81190746D01*
X106489495Y-81181174D01*
X106470452Y-81176404D01*
X106423497Y-81162160D01*
X106405020Y-81155549D01*
X106359687Y-81136772D01*
X106341939Y-81128377D01*
X106298666Y-81105246D01*
X106281838Y-81095160D01*
X106241039Y-81067900D01*
X106225270Y-81056205D01*
X106187341Y-81025077D01*
X106172800Y-81011897D01*
X106138103Y-80977200D01*
X106124923Y-80962659D01*
X106093795Y-80924730D01*
X106082100Y-80908961D01*
X106054840Y-80868162D01*
X106044754Y-80851334D01*
X106021623Y-80808061D01*
X106013228Y-80790313D01*
X105994451Y-80744980D01*
X105987840Y-80726503D01*
X105973596Y-80679548D01*
X105968826Y-80660505D01*
X105959254Y-80612380D01*
X105956375Y-80592971D01*
X105951565Y-80544140D01*
X105950602Y-80524534D01*
X105950602Y-80506112D01*
X105950000Y-80500000D01*
X105950000Y-79950000D01*
X105953843Y-79910982D01*
X105953843Y-79910982D01*
G37*
D16*
X106900000Y-77900000D03*
D17*
G36*
X105950602Y-77893888D02*
X105950602Y-77875466D01*
X105951565Y-77855860D01*
X105956375Y-77807029D01*
X105959254Y-77787620D01*
X105968826Y-77739495D01*
X105973596Y-77720452D01*
X105987840Y-77673497D01*
X105994451Y-77655020D01*
X106013228Y-77609687D01*
X106021623Y-77591939D01*
X106044754Y-77548666D01*
X106054840Y-77531838D01*
X106082100Y-77491039D01*
X106093795Y-77475270D01*
X106124923Y-77437341D01*
X106138103Y-77422800D01*
X106172800Y-77388103D01*
X106187341Y-77374923D01*
X106225270Y-77343795D01*
X106241039Y-77332100D01*
X106281838Y-77304840D01*
X106298666Y-77294754D01*
X106341939Y-77271623D01*
X106359687Y-77263228D01*
X106405020Y-77244451D01*
X106423497Y-77237840D01*
X106470452Y-77223596D01*
X106489495Y-77218826D01*
X106537620Y-77209254D01*
X106557029Y-77206375D01*
X106605860Y-77201565D01*
X106625466Y-77200602D01*
X106643888Y-77200602D01*
X106650000Y-77200000D01*
X107150000Y-77200000D01*
X107156112Y-77200602D01*
X107174534Y-77200602D01*
X107194140Y-77201565D01*
X107242971Y-77206375D01*
X107262380Y-77209254D01*
X107310505Y-77218826D01*
X107329548Y-77223596D01*
X107376503Y-77237840D01*
X107394980Y-77244451D01*
X107440313Y-77263228D01*
X107458061Y-77271623D01*
X107501334Y-77294754D01*
X107518162Y-77304840D01*
X107558961Y-77332100D01*
X107574730Y-77343795D01*
X107612659Y-77374923D01*
X107627200Y-77388103D01*
X107661897Y-77422800D01*
X107675077Y-77437341D01*
X107706205Y-77475270D01*
X107717900Y-77491039D01*
X107745160Y-77531838D01*
X107755246Y-77548666D01*
X107778377Y-77591939D01*
X107786772Y-77609687D01*
X107805549Y-77655020D01*
X107812160Y-77673497D01*
X107826404Y-77720452D01*
X107831174Y-77739495D01*
X107840746Y-77787620D01*
X107843625Y-77807029D01*
X107848435Y-77855860D01*
X107849398Y-77875466D01*
X107849398Y-77893888D01*
X107850000Y-77900000D01*
X107850000Y-78450000D01*
X107846157Y-78489018D01*
X107834776Y-78526537D01*
X107816294Y-78561114D01*
X107791421Y-78591421D01*
X107761114Y-78616294D01*
X107726537Y-78634776D01*
X107689018Y-78646157D01*
X107650000Y-78650000D01*
X106150000Y-78650000D01*
X106110982Y-78646157D01*
X106073463Y-78634776D01*
X106038886Y-78616294D01*
X106008579Y-78591421D01*
X105983706Y-78561114D01*
X105965224Y-78526537D01*
X105953843Y-78489018D01*
X105950000Y-78450000D01*
X105950000Y-77900000D01*
X105950602Y-77893888D01*
X105950602Y-77893888D01*
G37*
D18*
X106900000Y-79200000D03*
G04 #@! TD*
G04 #@! TO.C,JP2*
X103400000Y-79200000D03*
D16*
X103400000Y-77900000D03*
D17*
G36*
X102450602Y-77893888D02*
X102450602Y-77875466D01*
X102451565Y-77855860D01*
X102456375Y-77807029D01*
X102459254Y-77787620D01*
X102468826Y-77739495D01*
X102473596Y-77720452D01*
X102487840Y-77673497D01*
X102494451Y-77655020D01*
X102513228Y-77609687D01*
X102521623Y-77591939D01*
X102544754Y-77548666D01*
X102554840Y-77531838D01*
X102582100Y-77491039D01*
X102593795Y-77475270D01*
X102624923Y-77437341D01*
X102638103Y-77422800D01*
X102672800Y-77388103D01*
X102687341Y-77374923D01*
X102725270Y-77343795D01*
X102741039Y-77332100D01*
X102781838Y-77304840D01*
X102798666Y-77294754D01*
X102841939Y-77271623D01*
X102859687Y-77263228D01*
X102905020Y-77244451D01*
X102923497Y-77237840D01*
X102970452Y-77223596D01*
X102989495Y-77218826D01*
X103037620Y-77209254D01*
X103057029Y-77206375D01*
X103105860Y-77201565D01*
X103125466Y-77200602D01*
X103143888Y-77200602D01*
X103150000Y-77200000D01*
X103650000Y-77200000D01*
X103656112Y-77200602D01*
X103674534Y-77200602D01*
X103694140Y-77201565D01*
X103742971Y-77206375D01*
X103762380Y-77209254D01*
X103810505Y-77218826D01*
X103829548Y-77223596D01*
X103876503Y-77237840D01*
X103894980Y-77244451D01*
X103940313Y-77263228D01*
X103958061Y-77271623D01*
X104001334Y-77294754D01*
X104018162Y-77304840D01*
X104058961Y-77332100D01*
X104074730Y-77343795D01*
X104112659Y-77374923D01*
X104127200Y-77388103D01*
X104161897Y-77422800D01*
X104175077Y-77437341D01*
X104206205Y-77475270D01*
X104217900Y-77491039D01*
X104245160Y-77531838D01*
X104255246Y-77548666D01*
X104278377Y-77591939D01*
X104286772Y-77609687D01*
X104305549Y-77655020D01*
X104312160Y-77673497D01*
X104326404Y-77720452D01*
X104331174Y-77739495D01*
X104340746Y-77787620D01*
X104343625Y-77807029D01*
X104348435Y-77855860D01*
X104349398Y-77875466D01*
X104349398Y-77893888D01*
X104350000Y-77900000D01*
X104350000Y-78450000D01*
X104346157Y-78489018D01*
X104334776Y-78526537D01*
X104316294Y-78561114D01*
X104291421Y-78591421D01*
X104261114Y-78616294D01*
X104226537Y-78634776D01*
X104189018Y-78646157D01*
X104150000Y-78650000D01*
X102650000Y-78650000D01*
X102610982Y-78646157D01*
X102573463Y-78634776D01*
X102538886Y-78616294D01*
X102508579Y-78591421D01*
X102483706Y-78561114D01*
X102465224Y-78526537D01*
X102453843Y-78489018D01*
X102450000Y-78450000D01*
X102450000Y-77900000D01*
X102450602Y-77893888D01*
X102450602Y-77893888D01*
G37*
D16*
X103400000Y-80500000D03*
D17*
G36*
X102453843Y-79910982D02*
X102465224Y-79873463D01*
X102483706Y-79838886D01*
X102508579Y-79808579D01*
X102538886Y-79783706D01*
X102573463Y-79765224D01*
X102600000Y-79757174D01*
X102600000Y-79600000D01*
X102603843Y-79560982D01*
X102615224Y-79523463D01*
X102633706Y-79488886D01*
X102658579Y-79458579D01*
X102688886Y-79433706D01*
X102723463Y-79415224D01*
X102760982Y-79403843D01*
X102800000Y-79400000D01*
X103200000Y-79400000D01*
X103239018Y-79403843D01*
X103276537Y-79415224D01*
X103311114Y-79433706D01*
X103341421Y-79458579D01*
X103366294Y-79488886D01*
X103384776Y-79523463D01*
X103396157Y-79560982D01*
X103400000Y-79600000D01*
X103403843Y-79560982D01*
X103415224Y-79523463D01*
X103433706Y-79488886D01*
X103458579Y-79458579D01*
X103488886Y-79433706D01*
X103523463Y-79415224D01*
X103560982Y-79403843D01*
X103600000Y-79400000D01*
X104000000Y-79400000D01*
X104039018Y-79403843D01*
X104076537Y-79415224D01*
X104111114Y-79433706D01*
X104141421Y-79458579D01*
X104166294Y-79488886D01*
X104184776Y-79523463D01*
X104196157Y-79560982D01*
X104200000Y-79600000D01*
X104200000Y-79757174D01*
X104226537Y-79765224D01*
X104261114Y-79783706D01*
X104291421Y-79808579D01*
X104316294Y-79838886D01*
X104334776Y-79873463D01*
X104346157Y-79910982D01*
X104350000Y-79950000D01*
X104350000Y-80500000D01*
X104349398Y-80506112D01*
X104349398Y-80524534D01*
X104348435Y-80544140D01*
X104343625Y-80592971D01*
X104340746Y-80612380D01*
X104331174Y-80660505D01*
X104326404Y-80679548D01*
X104312160Y-80726503D01*
X104305549Y-80744980D01*
X104286772Y-80790313D01*
X104278377Y-80808061D01*
X104255246Y-80851334D01*
X104245160Y-80868162D01*
X104217900Y-80908961D01*
X104206205Y-80924730D01*
X104175077Y-80962659D01*
X104161897Y-80977200D01*
X104127200Y-81011897D01*
X104112659Y-81025077D01*
X104074730Y-81056205D01*
X104058961Y-81067900D01*
X104018162Y-81095160D01*
X104001334Y-81105246D01*
X103958061Y-81128377D01*
X103940313Y-81136772D01*
X103894980Y-81155549D01*
X103876503Y-81162160D01*
X103829548Y-81176404D01*
X103810505Y-81181174D01*
X103762380Y-81190746D01*
X103742971Y-81193625D01*
X103694140Y-81198435D01*
X103674534Y-81199398D01*
X103656112Y-81199398D01*
X103650000Y-81200000D01*
X103150000Y-81200000D01*
X103143888Y-81199398D01*
X103125466Y-81199398D01*
X103105860Y-81198435D01*
X103057029Y-81193625D01*
X103037620Y-81190746D01*
X102989495Y-81181174D01*
X102970452Y-81176404D01*
X102923497Y-81162160D01*
X102905020Y-81155549D01*
X102859687Y-81136772D01*
X102841939Y-81128377D01*
X102798666Y-81105246D01*
X102781838Y-81095160D01*
X102741039Y-81067900D01*
X102725270Y-81056205D01*
X102687341Y-81025077D01*
X102672800Y-81011897D01*
X102638103Y-80977200D01*
X102624923Y-80962659D01*
X102593795Y-80924730D01*
X102582100Y-80908961D01*
X102554840Y-80868162D01*
X102544754Y-80851334D01*
X102521623Y-80808061D01*
X102513228Y-80790313D01*
X102494451Y-80744980D01*
X102487840Y-80726503D01*
X102473596Y-80679548D01*
X102468826Y-80660505D01*
X102459254Y-80612380D01*
X102456375Y-80592971D01*
X102451565Y-80544140D01*
X102450602Y-80524534D01*
X102450602Y-80506112D01*
X102450000Y-80500000D01*
X102450000Y-79950000D01*
X102453843Y-79910982D01*
X102453843Y-79910982D01*
G37*
G04 #@! TD*
D10*
G04 #@! TO.C,TP1*
X101900000Y-97950000D03*
G04 #@! TD*
G04 #@! TO.C,TP2*
X98000000Y-97950000D03*
G04 #@! TD*
M02*
