G04 #@! TF.GenerationSoftware,KiCad,Pcbnew,(5.0.0)*
G04 #@! TF.CreationDate,2020-12-16T12:49:42+00:00*
G04 #@! TF.ProjectId,ESP-V,4553502D562E6B696361645F70636200,rev?*
G04 #@! TF.SameCoordinates,Original*
G04 #@! TF.FileFunction,Soldermask,Top*
G04 #@! TF.FilePolarity,Negative*
%FSLAX46Y46*%
G04 Gerber Fmt 4.6, Leading zero omitted, Abs format (unit mm)*
G04 Created by KiCad (PCBNEW (5.0.0)) date 12/16/20 12:49:42*
%MOMM*%
%LPD*%
G01*
G04 APERTURE LIST*
%ADD10C,0.150000*%
%ADD11C,1.400000*%
%ADD12R,3.900000X1.750000*%
%ADD13R,1.200000X1.750000*%
%ADD14R,3.000000X2.000000*%
%ADD15C,0.100000*%
%ADD16C,3.850000*%
%ADD17C,0.650000*%
%ADD18R,2.100000X2.100000*%
%ADD19O,2.100000X2.100000*%
%ADD20R,1.200000X1.300000*%
%ADD21R,1.000000X1.900000*%
%ADD22C,1.350000*%
%ADD23R,1.900000X1.650000*%
%ADD24R,1.600000X1.150000*%
%ADD25C,1.150000*%
%ADD26C,1.650000*%
%ADD27R,1.650000X1.900000*%
%ADD28C,1.550000*%
%ADD29R,0.850000X1.000000*%
%ADD30O,1.300000X2.400000*%
%ADD31C,1.000000*%
%ADD32R,0.700000X1.540000*%
%ADD33C,1.275000*%
%ADD34C,0.900000*%
%ADD35C,0.800000*%
%ADD36C,0.700000*%
%ADD37C,1.850000*%
G04 APERTURE END LIST*
D10*
G04 #@! TO.C,J4*
G36*
X88775000Y-124650000D02*
X98775000Y-124650000D01*
X98775000Y-117650000D01*
X88775000Y-117650000D01*
X88775000Y-124650000D01*
G37*
X88775000Y-124650000D02*
X98775000Y-124650000D01*
X98775000Y-117650000D01*
X88775000Y-117650000D01*
X88775000Y-124650000D01*
G04 #@! TD*
D11*
G04 #@! TO.C,Y2*
X113080000Y-118640000D03*
X111580000Y-118640000D03*
G04 #@! TD*
D12*
G04 #@! TO.C,J4*
X96750000Y-122300000D03*
D13*
X89400000Y-122300000D03*
G04 #@! TD*
D14*
G04 #@! TO.C,C1*
X94150000Y-80000000D03*
X97750000Y-80000000D03*
G04 #@! TD*
D15*
G04 #@! TO.C,U4*
G36*
X102677345Y-110594542D02*
X102704427Y-110598560D01*
X102730985Y-110605212D01*
X102756763Y-110614436D01*
X102781513Y-110626141D01*
X102804996Y-110640217D01*
X102826987Y-110656526D01*
X102847273Y-110674912D01*
X105175088Y-113002727D01*
X105193474Y-113023013D01*
X105209783Y-113045004D01*
X105223859Y-113068487D01*
X105235564Y-113093237D01*
X105244788Y-113119015D01*
X105251440Y-113145573D01*
X105255458Y-113172655D01*
X105256801Y-113200000D01*
X105255458Y-113227345D01*
X105251440Y-113254427D01*
X105244788Y-113280985D01*
X105235564Y-113306763D01*
X105223859Y-113331513D01*
X105209783Y-113354996D01*
X105193474Y-113376987D01*
X105175088Y-113397273D01*
X102847273Y-115725088D01*
X102826987Y-115743474D01*
X102804996Y-115759783D01*
X102781513Y-115773859D01*
X102756763Y-115785564D01*
X102730985Y-115794788D01*
X102704427Y-115801440D01*
X102677345Y-115805458D01*
X102650000Y-115806801D01*
X102622655Y-115805458D01*
X102595573Y-115801440D01*
X102569015Y-115794788D01*
X102543237Y-115785564D01*
X102518487Y-115773859D01*
X102495004Y-115759783D01*
X102473013Y-115743474D01*
X102452727Y-115725088D01*
X100124912Y-113397273D01*
X100106526Y-113376987D01*
X100090217Y-113354996D01*
X100076141Y-113331513D01*
X100064436Y-113306763D01*
X100055212Y-113280985D01*
X100048560Y-113254427D01*
X100044542Y-113227345D01*
X100043199Y-113200000D01*
X100044542Y-113172655D01*
X100048560Y-113145573D01*
X100055212Y-113119015D01*
X100064436Y-113093237D01*
X100076141Y-113068487D01*
X100090217Y-113045004D01*
X100106526Y-113023013D01*
X100124912Y-113002727D01*
X102452727Y-110674912D01*
X102473013Y-110656526D01*
X102495004Y-110640217D01*
X102518487Y-110626141D01*
X102543237Y-110614436D01*
X102569015Y-110605212D01*
X102595573Y-110598560D01*
X102622655Y-110594542D01*
X102650000Y-110593199D01*
X102677345Y-110594542D01*
X102677345Y-110594542D01*
G37*
D16*
X102650000Y-113200000D03*
D15*
G36*
X102931093Y-115548511D02*
X102946867Y-115550851D01*
X102962336Y-115554726D01*
X102977351Y-115560099D01*
X102991767Y-115566917D01*
X103005445Y-115575115D01*
X103018254Y-115584615D01*
X103030070Y-115595324D01*
X103701822Y-116267076D01*
X103712531Y-116278892D01*
X103722031Y-116291701D01*
X103730229Y-116305379D01*
X103737047Y-116319795D01*
X103742420Y-116334810D01*
X103746295Y-116350279D01*
X103748635Y-116366053D01*
X103749417Y-116381981D01*
X103748635Y-116397909D01*
X103746295Y-116413683D01*
X103742420Y-116429152D01*
X103737047Y-116444167D01*
X103730229Y-116458583D01*
X103722031Y-116472261D01*
X103712531Y-116485070D01*
X103701822Y-116496886D01*
X103472012Y-116726696D01*
X103460196Y-116737405D01*
X103447387Y-116746905D01*
X103433709Y-116755103D01*
X103419293Y-116761921D01*
X103404278Y-116767294D01*
X103388809Y-116771169D01*
X103373035Y-116773509D01*
X103357107Y-116774291D01*
X103341179Y-116773509D01*
X103325405Y-116771169D01*
X103309936Y-116767294D01*
X103294921Y-116761921D01*
X103280505Y-116755103D01*
X103266827Y-116746905D01*
X103254018Y-116737405D01*
X103242202Y-116726696D01*
X102570450Y-116054944D01*
X102559741Y-116043128D01*
X102550241Y-116030319D01*
X102542043Y-116016641D01*
X102535225Y-116002225D01*
X102529852Y-115987210D01*
X102525977Y-115971741D01*
X102523637Y-115955967D01*
X102522855Y-115940039D01*
X102523637Y-115924111D01*
X102525977Y-115908337D01*
X102529852Y-115892868D01*
X102535225Y-115877853D01*
X102542043Y-115863437D01*
X102550241Y-115849759D01*
X102559741Y-115836950D01*
X102570450Y-115825134D01*
X102800260Y-115595324D01*
X102812076Y-115584615D01*
X102824885Y-115575115D01*
X102838563Y-115566917D01*
X102852979Y-115560099D01*
X102867994Y-115554726D01*
X102883463Y-115550851D01*
X102899237Y-115548511D01*
X102915165Y-115547729D01*
X102931093Y-115548511D01*
X102931093Y-115548511D01*
G37*
D17*
X103136136Y-116161010D03*
D15*
G36*
X103284646Y-115194957D02*
X103300420Y-115197297D01*
X103315889Y-115201172D01*
X103330904Y-115206545D01*
X103345320Y-115213363D01*
X103358998Y-115221561D01*
X103371807Y-115231061D01*
X103383623Y-115241770D01*
X104055375Y-115913522D01*
X104066084Y-115925338D01*
X104075584Y-115938147D01*
X104083782Y-115951825D01*
X104090600Y-115966241D01*
X104095973Y-115981256D01*
X104099848Y-115996725D01*
X104102188Y-116012499D01*
X104102970Y-116028427D01*
X104102188Y-116044355D01*
X104099848Y-116060129D01*
X104095973Y-116075598D01*
X104090600Y-116090613D01*
X104083782Y-116105029D01*
X104075584Y-116118707D01*
X104066084Y-116131516D01*
X104055375Y-116143332D01*
X103825565Y-116373142D01*
X103813749Y-116383851D01*
X103800940Y-116393351D01*
X103787262Y-116401549D01*
X103772846Y-116408367D01*
X103757831Y-116413740D01*
X103742362Y-116417615D01*
X103726588Y-116419955D01*
X103710660Y-116420737D01*
X103694732Y-116419955D01*
X103678958Y-116417615D01*
X103663489Y-116413740D01*
X103648474Y-116408367D01*
X103634058Y-116401549D01*
X103620380Y-116393351D01*
X103607571Y-116383851D01*
X103595755Y-116373142D01*
X102924003Y-115701390D01*
X102913294Y-115689574D01*
X102903794Y-115676765D01*
X102895596Y-115663087D01*
X102888778Y-115648671D01*
X102883405Y-115633656D01*
X102879530Y-115618187D01*
X102877190Y-115602413D01*
X102876408Y-115586485D01*
X102877190Y-115570557D01*
X102879530Y-115554783D01*
X102883405Y-115539314D01*
X102888778Y-115524299D01*
X102895596Y-115509883D01*
X102903794Y-115496205D01*
X102913294Y-115483396D01*
X102924003Y-115471580D01*
X103153813Y-115241770D01*
X103165629Y-115231061D01*
X103178438Y-115221561D01*
X103192116Y-115213363D01*
X103206532Y-115206545D01*
X103221547Y-115201172D01*
X103237016Y-115197297D01*
X103252790Y-115194957D01*
X103268718Y-115194175D01*
X103284646Y-115194957D01*
X103284646Y-115194957D01*
G37*
D17*
X103489689Y-115807456D03*
D15*
G36*
X103638200Y-114841404D02*
X103653974Y-114843744D01*
X103669443Y-114847619D01*
X103684458Y-114852992D01*
X103698874Y-114859810D01*
X103712552Y-114868008D01*
X103725361Y-114877508D01*
X103737177Y-114888217D01*
X104408929Y-115559969D01*
X104419638Y-115571785D01*
X104429138Y-115584594D01*
X104437336Y-115598272D01*
X104444154Y-115612688D01*
X104449527Y-115627703D01*
X104453402Y-115643172D01*
X104455742Y-115658946D01*
X104456524Y-115674874D01*
X104455742Y-115690802D01*
X104453402Y-115706576D01*
X104449527Y-115722045D01*
X104444154Y-115737060D01*
X104437336Y-115751476D01*
X104429138Y-115765154D01*
X104419638Y-115777963D01*
X104408929Y-115789779D01*
X104179119Y-116019589D01*
X104167303Y-116030298D01*
X104154494Y-116039798D01*
X104140816Y-116047996D01*
X104126400Y-116054814D01*
X104111385Y-116060187D01*
X104095916Y-116064062D01*
X104080142Y-116066402D01*
X104064214Y-116067184D01*
X104048286Y-116066402D01*
X104032512Y-116064062D01*
X104017043Y-116060187D01*
X104002028Y-116054814D01*
X103987612Y-116047996D01*
X103973934Y-116039798D01*
X103961125Y-116030298D01*
X103949309Y-116019589D01*
X103277557Y-115347837D01*
X103266848Y-115336021D01*
X103257348Y-115323212D01*
X103249150Y-115309534D01*
X103242332Y-115295118D01*
X103236959Y-115280103D01*
X103233084Y-115264634D01*
X103230744Y-115248860D01*
X103229962Y-115232932D01*
X103230744Y-115217004D01*
X103233084Y-115201230D01*
X103236959Y-115185761D01*
X103242332Y-115170746D01*
X103249150Y-115156330D01*
X103257348Y-115142652D01*
X103266848Y-115129843D01*
X103277557Y-115118027D01*
X103507367Y-114888217D01*
X103519183Y-114877508D01*
X103531992Y-114868008D01*
X103545670Y-114859810D01*
X103560086Y-114852992D01*
X103575101Y-114847619D01*
X103590570Y-114843744D01*
X103606344Y-114841404D01*
X103622272Y-114840622D01*
X103638200Y-114841404D01*
X103638200Y-114841404D01*
G37*
D17*
X103843243Y-115453903D03*
D15*
G36*
X103991753Y-114487850D02*
X104007527Y-114490190D01*
X104022996Y-114494065D01*
X104038011Y-114499438D01*
X104052427Y-114506256D01*
X104066105Y-114514454D01*
X104078914Y-114523954D01*
X104090730Y-114534663D01*
X104762482Y-115206415D01*
X104773191Y-115218231D01*
X104782691Y-115231040D01*
X104790889Y-115244718D01*
X104797707Y-115259134D01*
X104803080Y-115274149D01*
X104806955Y-115289618D01*
X104809295Y-115305392D01*
X104810077Y-115321320D01*
X104809295Y-115337248D01*
X104806955Y-115353022D01*
X104803080Y-115368491D01*
X104797707Y-115383506D01*
X104790889Y-115397922D01*
X104782691Y-115411600D01*
X104773191Y-115424409D01*
X104762482Y-115436225D01*
X104532672Y-115666035D01*
X104520856Y-115676744D01*
X104508047Y-115686244D01*
X104494369Y-115694442D01*
X104479953Y-115701260D01*
X104464938Y-115706633D01*
X104449469Y-115710508D01*
X104433695Y-115712848D01*
X104417767Y-115713630D01*
X104401839Y-115712848D01*
X104386065Y-115710508D01*
X104370596Y-115706633D01*
X104355581Y-115701260D01*
X104341165Y-115694442D01*
X104327487Y-115686244D01*
X104314678Y-115676744D01*
X104302862Y-115666035D01*
X103631110Y-114994283D01*
X103620401Y-114982467D01*
X103610901Y-114969658D01*
X103602703Y-114955980D01*
X103595885Y-114941564D01*
X103590512Y-114926549D01*
X103586637Y-114911080D01*
X103584297Y-114895306D01*
X103583515Y-114879378D01*
X103584297Y-114863450D01*
X103586637Y-114847676D01*
X103590512Y-114832207D01*
X103595885Y-114817192D01*
X103602703Y-114802776D01*
X103610901Y-114789098D01*
X103620401Y-114776289D01*
X103631110Y-114764473D01*
X103860920Y-114534663D01*
X103872736Y-114523954D01*
X103885545Y-114514454D01*
X103899223Y-114506256D01*
X103913639Y-114499438D01*
X103928654Y-114494065D01*
X103944123Y-114490190D01*
X103959897Y-114487850D01*
X103975825Y-114487068D01*
X103991753Y-114487850D01*
X103991753Y-114487850D01*
G37*
D17*
X104196796Y-115100349D03*
D15*
G36*
X104345306Y-114134297D02*
X104361080Y-114136637D01*
X104376549Y-114140512D01*
X104391564Y-114145885D01*
X104405980Y-114152703D01*
X104419658Y-114160901D01*
X104432467Y-114170401D01*
X104444283Y-114181110D01*
X105116035Y-114852862D01*
X105126744Y-114864678D01*
X105136244Y-114877487D01*
X105144442Y-114891165D01*
X105151260Y-114905581D01*
X105156633Y-114920596D01*
X105160508Y-114936065D01*
X105162848Y-114951839D01*
X105163630Y-114967767D01*
X105162848Y-114983695D01*
X105160508Y-114999469D01*
X105156633Y-115014938D01*
X105151260Y-115029953D01*
X105144442Y-115044369D01*
X105136244Y-115058047D01*
X105126744Y-115070856D01*
X105116035Y-115082672D01*
X104886225Y-115312482D01*
X104874409Y-115323191D01*
X104861600Y-115332691D01*
X104847922Y-115340889D01*
X104833506Y-115347707D01*
X104818491Y-115353080D01*
X104803022Y-115356955D01*
X104787248Y-115359295D01*
X104771320Y-115360077D01*
X104755392Y-115359295D01*
X104739618Y-115356955D01*
X104724149Y-115353080D01*
X104709134Y-115347707D01*
X104694718Y-115340889D01*
X104681040Y-115332691D01*
X104668231Y-115323191D01*
X104656415Y-115312482D01*
X103984663Y-114640730D01*
X103973954Y-114628914D01*
X103964454Y-114616105D01*
X103956256Y-114602427D01*
X103949438Y-114588011D01*
X103944065Y-114572996D01*
X103940190Y-114557527D01*
X103937850Y-114541753D01*
X103937068Y-114525825D01*
X103937850Y-114509897D01*
X103940190Y-114494123D01*
X103944065Y-114478654D01*
X103949438Y-114463639D01*
X103956256Y-114449223D01*
X103964454Y-114435545D01*
X103973954Y-114422736D01*
X103984663Y-114410920D01*
X104214473Y-114181110D01*
X104226289Y-114170401D01*
X104239098Y-114160901D01*
X104252776Y-114152703D01*
X104267192Y-114145885D01*
X104282207Y-114140512D01*
X104297676Y-114136637D01*
X104313450Y-114134297D01*
X104329378Y-114133515D01*
X104345306Y-114134297D01*
X104345306Y-114134297D01*
G37*
D17*
X104550349Y-114746796D03*
D15*
G36*
X104698860Y-113780744D02*
X104714634Y-113783084D01*
X104730103Y-113786959D01*
X104745118Y-113792332D01*
X104759534Y-113799150D01*
X104773212Y-113807348D01*
X104786021Y-113816848D01*
X104797837Y-113827557D01*
X105469589Y-114499309D01*
X105480298Y-114511125D01*
X105489798Y-114523934D01*
X105497996Y-114537612D01*
X105504814Y-114552028D01*
X105510187Y-114567043D01*
X105514062Y-114582512D01*
X105516402Y-114598286D01*
X105517184Y-114614214D01*
X105516402Y-114630142D01*
X105514062Y-114645916D01*
X105510187Y-114661385D01*
X105504814Y-114676400D01*
X105497996Y-114690816D01*
X105489798Y-114704494D01*
X105480298Y-114717303D01*
X105469589Y-114729119D01*
X105239779Y-114958929D01*
X105227963Y-114969638D01*
X105215154Y-114979138D01*
X105201476Y-114987336D01*
X105187060Y-114994154D01*
X105172045Y-114999527D01*
X105156576Y-115003402D01*
X105140802Y-115005742D01*
X105124874Y-115006524D01*
X105108946Y-115005742D01*
X105093172Y-115003402D01*
X105077703Y-114999527D01*
X105062688Y-114994154D01*
X105048272Y-114987336D01*
X105034594Y-114979138D01*
X105021785Y-114969638D01*
X105009969Y-114958929D01*
X104338217Y-114287177D01*
X104327508Y-114275361D01*
X104318008Y-114262552D01*
X104309810Y-114248874D01*
X104302992Y-114234458D01*
X104297619Y-114219443D01*
X104293744Y-114203974D01*
X104291404Y-114188200D01*
X104290622Y-114172272D01*
X104291404Y-114156344D01*
X104293744Y-114140570D01*
X104297619Y-114125101D01*
X104302992Y-114110086D01*
X104309810Y-114095670D01*
X104318008Y-114081992D01*
X104327508Y-114069183D01*
X104338217Y-114057367D01*
X104568027Y-113827557D01*
X104579843Y-113816848D01*
X104592652Y-113807348D01*
X104606330Y-113799150D01*
X104620746Y-113792332D01*
X104635761Y-113786959D01*
X104651230Y-113783084D01*
X104667004Y-113780744D01*
X104682932Y-113779962D01*
X104698860Y-113780744D01*
X104698860Y-113780744D01*
G37*
D17*
X104903903Y-114393243D03*
D15*
G36*
X105052413Y-113427190D02*
X105068187Y-113429530D01*
X105083656Y-113433405D01*
X105098671Y-113438778D01*
X105113087Y-113445596D01*
X105126765Y-113453794D01*
X105139574Y-113463294D01*
X105151390Y-113474003D01*
X105823142Y-114145755D01*
X105833851Y-114157571D01*
X105843351Y-114170380D01*
X105851549Y-114184058D01*
X105858367Y-114198474D01*
X105863740Y-114213489D01*
X105867615Y-114228958D01*
X105869955Y-114244732D01*
X105870737Y-114260660D01*
X105869955Y-114276588D01*
X105867615Y-114292362D01*
X105863740Y-114307831D01*
X105858367Y-114322846D01*
X105851549Y-114337262D01*
X105843351Y-114350940D01*
X105833851Y-114363749D01*
X105823142Y-114375565D01*
X105593332Y-114605375D01*
X105581516Y-114616084D01*
X105568707Y-114625584D01*
X105555029Y-114633782D01*
X105540613Y-114640600D01*
X105525598Y-114645973D01*
X105510129Y-114649848D01*
X105494355Y-114652188D01*
X105478427Y-114652970D01*
X105462499Y-114652188D01*
X105446725Y-114649848D01*
X105431256Y-114645973D01*
X105416241Y-114640600D01*
X105401825Y-114633782D01*
X105388147Y-114625584D01*
X105375338Y-114616084D01*
X105363522Y-114605375D01*
X104691770Y-113933623D01*
X104681061Y-113921807D01*
X104671561Y-113908998D01*
X104663363Y-113895320D01*
X104656545Y-113880904D01*
X104651172Y-113865889D01*
X104647297Y-113850420D01*
X104644957Y-113834646D01*
X104644175Y-113818718D01*
X104644957Y-113802790D01*
X104647297Y-113787016D01*
X104651172Y-113771547D01*
X104656545Y-113756532D01*
X104663363Y-113742116D01*
X104671561Y-113728438D01*
X104681061Y-113715629D01*
X104691770Y-113703813D01*
X104921580Y-113474003D01*
X104933396Y-113463294D01*
X104946205Y-113453794D01*
X104959883Y-113445596D01*
X104974299Y-113438778D01*
X104989314Y-113433405D01*
X105004783Y-113429530D01*
X105020557Y-113427190D01*
X105036485Y-113426408D01*
X105052413Y-113427190D01*
X105052413Y-113427190D01*
G37*
D17*
X105257456Y-114039689D03*
D15*
G36*
X105405967Y-113073637D02*
X105421741Y-113075977D01*
X105437210Y-113079852D01*
X105452225Y-113085225D01*
X105466641Y-113092043D01*
X105480319Y-113100241D01*
X105493128Y-113109741D01*
X105504944Y-113120450D01*
X106176696Y-113792202D01*
X106187405Y-113804018D01*
X106196905Y-113816827D01*
X106205103Y-113830505D01*
X106211921Y-113844921D01*
X106217294Y-113859936D01*
X106221169Y-113875405D01*
X106223509Y-113891179D01*
X106224291Y-113907107D01*
X106223509Y-113923035D01*
X106221169Y-113938809D01*
X106217294Y-113954278D01*
X106211921Y-113969293D01*
X106205103Y-113983709D01*
X106196905Y-113997387D01*
X106187405Y-114010196D01*
X106176696Y-114022012D01*
X105946886Y-114251822D01*
X105935070Y-114262531D01*
X105922261Y-114272031D01*
X105908583Y-114280229D01*
X105894167Y-114287047D01*
X105879152Y-114292420D01*
X105863683Y-114296295D01*
X105847909Y-114298635D01*
X105831981Y-114299417D01*
X105816053Y-114298635D01*
X105800279Y-114296295D01*
X105784810Y-114292420D01*
X105769795Y-114287047D01*
X105755379Y-114280229D01*
X105741701Y-114272031D01*
X105728892Y-114262531D01*
X105717076Y-114251822D01*
X105045324Y-113580070D01*
X105034615Y-113568254D01*
X105025115Y-113555445D01*
X105016917Y-113541767D01*
X105010099Y-113527351D01*
X105004726Y-113512336D01*
X105000851Y-113496867D01*
X104998511Y-113481093D01*
X104997729Y-113465165D01*
X104998511Y-113449237D01*
X105000851Y-113433463D01*
X105004726Y-113417994D01*
X105010099Y-113402979D01*
X105016917Y-113388563D01*
X105025115Y-113374885D01*
X105034615Y-113362076D01*
X105045324Y-113350260D01*
X105275134Y-113120450D01*
X105286950Y-113109741D01*
X105299759Y-113100241D01*
X105313437Y-113092043D01*
X105327853Y-113085225D01*
X105342868Y-113079852D01*
X105358337Y-113075977D01*
X105374111Y-113073637D01*
X105390039Y-113072855D01*
X105405967Y-113073637D01*
X105405967Y-113073637D01*
G37*
D17*
X105611010Y-113686136D03*
D15*
G36*
X105847909Y-112101365D02*
X105863683Y-112103705D01*
X105879152Y-112107580D01*
X105894167Y-112112953D01*
X105908583Y-112119771D01*
X105922261Y-112127969D01*
X105935070Y-112137469D01*
X105946886Y-112148178D01*
X106176696Y-112377988D01*
X106187405Y-112389804D01*
X106196905Y-112402613D01*
X106205103Y-112416291D01*
X106211921Y-112430707D01*
X106217294Y-112445722D01*
X106221169Y-112461191D01*
X106223509Y-112476965D01*
X106224291Y-112492893D01*
X106223509Y-112508821D01*
X106221169Y-112524595D01*
X106217294Y-112540064D01*
X106211921Y-112555079D01*
X106205103Y-112569495D01*
X106196905Y-112583173D01*
X106187405Y-112595982D01*
X106176696Y-112607798D01*
X105504944Y-113279550D01*
X105493128Y-113290259D01*
X105480319Y-113299759D01*
X105466641Y-113307957D01*
X105452225Y-113314775D01*
X105437210Y-113320148D01*
X105421741Y-113324023D01*
X105405967Y-113326363D01*
X105390039Y-113327145D01*
X105374111Y-113326363D01*
X105358337Y-113324023D01*
X105342868Y-113320148D01*
X105327853Y-113314775D01*
X105313437Y-113307957D01*
X105299759Y-113299759D01*
X105286950Y-113290259D01*
X105275134Y-113279550D01*
X105045324Y-113049740D01*
X105034615Y-113037924D01*
X105025115Y-113025115D01*
X105016917Y-113011437D01*
X105010099Y-112997021D01*
X105004726Y-112982006D01*
X105000851Y-112966537D01*
X104998511Y-112950763D01*
X104997729Y-112934835D01*
X104998511Y-112918907D01*
X105000851Y-112903133D01*
X105004726Y-112887664D01*
X105010099Y-112872649D01*
X105016917Y-112858233D01*
X105025115Y-112844555D01*
X105034615Y-112831746D01*
X105045324Y-112819930D01*
X105717076Y-112148178D01*
X105728892Y-112137469D01*
X105741701Y-112127969D01*
X105755379Y-112119771D01*
X105769795Y-112112953D01*
X105784810Y-112107580D01*
X105800279Y-112103705D01*
X105816053Y-112101365D01*
X105831981Y-112100583D01*
X105847909Y-112101365D01*
X105847909Y-112101365D01*
G37*
D17*
X105611010Y-112713864D03*
D15*
G36*
X105494355Y-111747812D02*
X105510129Y-111750152D01*
X105525598Y-111754027D01*
X105540613Y-111759400D01*
X105555029Y-111766218D01*
X105568707Y-111774416D01*
X105581516Y-111783916D01*
X105593332Y-111794625D01*
X105823142Y-112024435D01*
X105833851Y-112036251D01*
X105843351Y-112049060D01*
X105851549Y-112062738D01*
X105858367Y-112077154D01*
X105863740Y-112092169D01*
X105867615Y-112107638D01*
X105869955Y-112123412D01*
X105870737Y-112139340D01*
X105869955Y-112155268D01*
X105867615Y-112171042D01*
X105863740Y-112186511D01*
X105858367Y-112201526D01*
X105851549Y-112215942D01*
X105843351Y-112229620D01*
X105833851Y-112242429D01*
X105823142Y-112254245D01*
X105151390Y-112925997D01*
X105139574Y-112936706D01*
X105126765Y-112946206D01*
X105113087Y-112954404D01*
X105098671Y-112961222D01*
X105083656Y-112966595D01*
X105068187Y-112970470D01*
X105052413Y-112972810D01*
X105036485Y-112973592D01*
X105020557Y-112972810D01*
X105004783Y-112970470D01*
X104989314Y-112966595D01*
X104974299Y-112961222D01*
X104959883Y-112954404D01*
X104946205Y-112946206D01*
X104933396Y-112936706D01*
X104921580Y-112925997D01*
X104691770Y-112696187D01*
X104681061Y-112684371D01*
X104671561Y-112671562D01*
X104663363Y-112657884D01*
X104656545Y-112643468D01*
X104651172Y-112628453D01*
X104647297Y-112612984D01*
X104644957Y-112597210D01*
X104644175Y-112581282D01*
X104644957Y-112565354D01*
X104647297Y-112549580D01*
X104651172Y-112534111D01*
X104656545Y-112519096D01*
X104663363Y-112504680D01*
X104671561Y-112491002D01*
X104681061Y-112478193D01*
X104691770Y-112466377D01*
X105363522Y-111794625D01*
X105375338Y-111783916D01*
X105388147Y-111774416D01*
X105401825Y-111766218D01*
X105416241Y-111759400D01*
X105431256Y-111754027D01*
X105446725Y-111750152D01*
X105462499Y-111747812D01*
X105478427Y-111747030D01*
X105494355Y-111747812D01*
X105494355Y-111747812D01*
G37*
D17*
X105257456Y-112360311D03*
D15*
G36*
X105140802Y-111394258D02*
X105156576Y-111396598D01*
X105172045Y-111400473D01*
X105187060Y-111405846D01*
X105201476Y-111412664D01*
X105215154Y-111420862D01*
X105227963Y-111430362D01*
X105239779Y-111441071D01*
X105469589Y-111670881D01*
X105480298Y-111682697D01*
X105489798Y-111695506D01*
X105497996Y-111709184D01*
X105504814Y-111723600D01*
X105510187Y-111738615D01*
X105514062Y-111754084D01*
X105516402Y-111769858D01*
X105517184Y-111785786D01*
X105516402Y-111801714D01*
X105514062Y-111817488D01*
X105510187Y-111832957D01*
X105504814Y-111847972D01*
X105497996Y-111862388D01*
X105489798Y-111876066D01*
X105480298Y-111888875D01*
X105469589Y-111900691D01*
X104797837Y-112572443D01*
X104786021Y-112583152D01*
X104773212Y-112592652D01*
X104759534Y-112600850D01*
X104745118Y-112607668D01*
X104730103Y-112613041D01*
X104714634Y-112616916D01*
X104698860Y-112619256D01*
X104682932Y-112620038D01*
X104667004Y-112619256D01*
X104651230Y-112616916D01*
X104635761Y-112613041D01*
X104620746Y-112607668D01*
X104606330Y-112600850D01*
X104592652Y-112592652D01*
X104579843Y-112583152D01*
X104568027Y-112572443D01*
X104338217Y-112342633D01*
X104327508Y-112330817D01*
X104318008Y-112318008D01*
X104309810Y-112304330D01*
X104302992Y-112289914D01*
X104297619Y-112274899D01*
X104293744Y-112259430D01*
X104291404Y-112243656D01*
X104290622Y-112227728D01*
X104291404Y-112211800D01*
X104293744Y-112196026D01*
X104297619Y-112180557D01*
X104302992Y-112165542D01*
X104309810Y-112151126D01*
X104318008Y-112137448D01*
X104327508Y-112124639D01*
X104338217Y-112112823D01*
X105009969Y-111441071D01*
X105021785Y-111430362D01*
X105034594Y-111420862D01*
X105048272Y-111412664D01*
X105062688Y-111405846D01*
X105077703Y-111400473D01*
X105093172Y-111396598D01*
X105108946Y-111394258D01*
X105124874Y-111393476D01*
X105140802Y-111394258D01*
X105140802Y-111394258D01*
G37*
D17*
X104903903Y-112006757D03*
D15*
G36*
X104787248Y-111040705D02*
X104803022Y-111043045D01*
X104818491Y-111046920D01*
X104833506Y-111052293D01*
X104847922Y-111059111D01*
X104861600Y-111067309D01*
X104874409Y-111076809D01*
X104886225Y-111087518D01*
X105116035Y-111317328D01*
X105126744Y-111329144D01*
X105136244Y-111341953D01*
X105144442Y-111355631D01*
X105151260Y-111370047D01*
X105156633Y-111385062D01*
X105160508Y-111400531D01*
X105162848Y-111416305D01*
X105163630Y-111432233D01*
X105162848Y-111448161D01*
X105160508Y-111463935D01*
X105156633Y-111479404D01*
X105151260Y-111494419D01*
X105144442Y-111508835D01*
X105136244Y-111522513D01*
X105126744Y-111535322D01*
X105116035Y-111547138D01*
X104444283Y-112218890D01*
X104432467Y-112229599D01*
X104419658Y-112239099D01*
X104405980Y-112247297D01*
X104391564Y-112254115D01*
X104376549Y-112259488D01*
X104361080Y-112263363D01*
X104345306Y-112265703D01*
X104329378Y-112266485D01*
X104313450Y-112265703D01*
X104297676Y-112263363D01*
X104282207Y-112259488D01*
X104267192Y-112254115D01*
X104252776Y-112247297D01*
X104239098Y-112239099D01*
X104226289Y-112229599D01*
X104214473Y-112218890D01*
X103984663Y-111989080D01*
X103973954Y-111977264D01*
X103964454Y-111964455D01*
X103956256Y-111950777D01*
X103949438Y-111936361D01*
X103944065Y-111921346D01*
X103940190Y-111905877D01*
X103937850Y-111890103D01*
X103937068Y-111874175D01*
X103937850Y-111858247D01*
X103940190Y-111842473D01*
X103944065Y-111827004D01*
X103949438Y-111811989D01*
X103956256Y-111797573D01*
X103964454Y-111783895D01*
X103973954Y-111771086D01*
X103984663Y-111759270D01*
X104656415Y-111087518D01*
X104668231Y-111076809D01*
X104681040Y-111067309D01*
X104694718Y-111059111D01*
X104709134Y-111052293D01*
X104724149Y-111046920D01*
X104739618Y-111043045D01*
X104755392Y-111040705D01*
X104771320Y-111039923D01*
X104787248Y-111040705D01*
X104787248Y-111040705D01*
G37*
D17*
X104550349Y-111653204D03*
D15*
G36*
X104433695Y-110687152D02*
X104449469Y-110689492D01*
X104464938Y-110693367D01*
X104479953Y-110698740D01*
X104494369Y-110705558D01*
X104508047Y-110713756D01*
X104520856Y-110723256D01*
X104532672Y-110733965D01*
X104762482Y-110963775D01*
X104773191Y-110975591D01*
X104782691Y-110988400D01*
X104790889Y-111002078D01*
X104797707Y-111016494D01*
X104803080Y-111031509D01*
X104806955Y-111046978D01*
X104809295Y-111062752D01*
X104810077Y-111078680D01*
X104809295Y-111094608D01*
X104806955Y-111110382D01*
X104803080Y-111125851D01*
X104797707Y-111140866D01*
X104790889Y-111155282D01*
X104782691Y-111168960D01*
X104773191Y-111181769D01*
X104762482Y-111193585D01*
X104090730Y-111865337D01*
X104078914Y-111876046D01*
X104066105Y-111885546D01*
X104052427Y-111893744D01*
X104038011Y-111900562D01*
X104022996Y-111905935D01*
X104007527Y-111909810D01*
X103991753Y-111912150D01*
X103975825Y-111912932D01*
X103959897Y-111912150D01*
X103944123Y-111909810D01*
X103928654Y-111905935D01*
X103913639Y-111900562D01*
X103899223Y-111893744D01*
X103885545Y-111885546D01*
X103872736Y-111876046D01*
X103860920Y-111865337D01*
X103631110Y-111635527D01*
X103620401Y-111623711D01*
X103610901Y-111610902D01*
X103602703Y-111597224D01*
X103595885Y-111582808D01*
X103590512Y-111567793D01*
X103586637Y-111552324D01*
X103584297Y-111536550D01*
X103583515Y-111520622D01*
X103584297Y-111504694D01*
X103586637Y-111488920D01*
X103590512Y-111473451D01*
X103595885Y-111458436D01*
X103602703Y-111444020D01*
X103610901Y-111430342D01*
X103620401Y-111417533D01*
X103631110Y-111405717D01*
X104302862Y-110733965D01*
X104314678Y-110723256D01*
X104327487Y-110713756D01*
X104341165Y-110705558D01*
X104355581Y-110698740D01*
X104370596Y-110693367D01*
X104386065Y-110689492D01*
X104401839Y-110687152D01*
X104417767Y-110686370D01*
X104433695Y-110687152D01*
X104433695Y-110687152D01*
G37*
D17*
X104196796Y-111299651D03*
D15*
G36*
X104080142Y-110333598D02*
X104095916Y-110335938D01*
X104111385Y-110339813D01*
X104126400Y-110345186D01*
X104140816Y-110352004D01*
X104154494Y-110360202D01*
X104167303Y-110369702D01*
X104179119Y-110380411D01*
X104408929Y-110610221D01*
X104419638Y-110622037D01*
X104429138Y-110634846D01*
X104437336Y-110648524D01*
X104444154Y-110662940D01*
X104449527Y-110677955D01*
X104453402Y-110693424D01*
X104455742Y-110709198D01*
X104456524Y-110725126D01*
X104455742Y-110741054D01*
X104453402Y-110756828D01*
X104449527Y-110772297D01*
X104444154Y-110787312D01*
X104437336Y-110801728D01*
X104429138Y-110815406D01*
X104419638Y-110828215D01*
X104408929Y-110840031D01*
X103737177Y-111511783D01*
X103725361Y-111522492D01*
X103712552Y-111531992D01*
X103698874Y-111540190D01*
X103684458Y-111547008D01*
X103669443Y-111552381D01*
X103653974Y-111556256D01*
X103638200Y-111558596D01*
X103622272Y-111559378D01*
X103606344Y-111558596D01*
X103590570Y-111556256D01*
X103575101Y-111552381D01*
X103560086Y-111547008D01*
X103545670Y-111540190D01*
X103531992Y-111531992D01*
X103519183Y-111522492D01*
X103507367Y-111511783D01*
X103277557Y-111281973D01*
X103266848Y-111270157D01*
X103257348Y-111257348D01*
X103249150Y-111243670D01*
X103242332Y-111229254D01*
X103236959Y-111214239D01*
X103233084Y-111198770D01*
X103230744Y-111182996D01*
X103229962Y-111167068D01*
X103230744Y-111151140D01*
X103233084Y-111135366D01*
X103236959Y-111119897D01*
X103242332Y-111104882D01*
X103249150Y-111090466D01*
X103257348Y-111076788D01*
X103266848Y-111063979D01*
X103277557Y-111052163D01*
X103949309Y-110380411D01*
X103961125Y-110369702D01*
X103973934Y-110360202D01*
X103987612Y-110352004D01*
X104002028Y-110345186D01*
X104017043Y-110339813D01*
X104032512Y-110335938D01*
X104048286Y-110333598D01*
X104064214Y-110332816D01*
X104080142Y-110333598D01*
X104080142Y-110333598D01*
G37*
D17*
X103843243Y-110946097D03*
D15*
G36*
X103726588Y-109980045D02*
X103742362Y-109982385D01*
X103757831Y-109986260D01*
X103772846Y-109991633D01*
X103787262Y-109998451D01*
X103800940Y-110006649D01*
X103813749Y-110016149D01*
X103825565Y-110026858D01*
X104055375Y-110256668D01*
X104066084Y-110268484D01*
X104075584Y-110281293D01*
X104083782Y-110294971D01*
X104090600Y-110309387D01*
X104095973Y-110324402D01*
X104099848Y-110339871D01*
X104102188Y-110355645D01*
X104102970Y-110371573D01*
X104102188Y-110387501D01*
X104099848Y-110403275D01*
X104095973Y-110418744D01*
X104090600Y-110433759D01*
X104083782Y-110448175D01*
X104075584Y-110461853D01*
X104066084Y-110474662D01*
X104055375Y-110486478D01*
X103383623Y-111158230D01*
X103371807Y-111168939D01*
X103358998Y-111178439D01*
X103345320Y-111186637D01*
X103330904Y-111193455D01*
X103315889Y-111198828D01*
X103300420Y-111202703D01*
X103284646Y-111205043D01*
X103268718Y-111205825D01*
X103252790Y-111205043D01*
X103237016Y-111202703D01*
X103221547Y-111198828D01*
X103206532Y-111193455D01*
X103192116Y-111186637D01*
X103178438Y-111178439D01*
X103165629Y-111168939D01*
X103153813Y-111158230D01*
X102924003Y-110928420D01*
X102913294Y-110916604D01*
X102903794Y-110903795D01*
X102895596Y-110890117D01*
X102888778Y-110875701D01*
X102883405Y-110860686D01*
X102879530Y-110845217D01*
X102877190Y-110829443D01*
X102876408Y-110813515D01*
X102877190Y-110797587D01*
X102879530Y-110781813D01*
X102883405Y-110766344D01*
X102888778Y-110751329D01*
X102895596Y-110736913D01*
X102903794Y-110723235D01*
X102913294Y-110710426D01*
X102924003Y-110698610D01*
X103595755Y-110026858D01*
X103607571Y-110016149D01*
X103620380Y-110006649D01*
X103634058Y-109998451D01*
X103648474Y-109991633D01*
X103663489Y-109986260D01*
X103678958Y-109982385D01*
X103694732Y-109980045D01*
X103710660Y-109979263D01*
X103726588Y-109980045D01*
X103726588Y-109980045D01*
G37*
D17*
X103489689Y-110592544D03*
D15*
G36*
X103373035Y-109626491D02*
X103388809Y-109628831D01*
X103404278Y-109632706D01*
X103419293Y-109638079D01*
X103433709Y-109644897D01*
X103447387Y-109653095D01*
X103460196Y-109662595D01*
X103472012Y-109673304D01*
X103701822Y-109903114D01*
X103712531Y-109914930D01*
X103722031Y-109927739D01*
X103730229Y-109941417D01*
X103737047Y-109955833D01*
X103742420Y-109970848D01*
X103746295Y-109986317D01*
X103748635Y-110002091D01*
X103749417Y-110018019D01*
X103748635Y-110033947D01*
X103746295Y-110049721D01*
X103742420Y-110065190D01*
X103737047Y-110080205D01*
X103730229Y-110094621D01*
X103722031Y-110108299D01*
X103712531Y-110121108D01*
X103701822Y-110132924D01*
X103030070Y-110804676D01*
X103018254Y-110815385D01*
X103005445Y-110824885D01*
X102991767Y-110833083D01*
X102977351Y-110839901D01*
X102962336Y-110845274D01*
X102946867Y-110849149D01*
X102931093Y-110851489D01*
X102915165Y-110852271D01*
X102899237Y-110851489D01*
X102883463Y-110849149D01*
X102867994Y-110845274D01*
X102852979Y-110839901D01*
X102838563Y-110833083D01*
X102824885Y-110824885D01*
X102812076Y-110815385D01*
X102800260Y-110804676D01*
X102570450Y-110574866D01*
X102559741Y-110563050D01*
X102550241Y-110550241D01*
X102542043Y-110536563D01*
X102535225Y-110522147D01*
X102529852Y-110507132D01*
X102525977Y-110491663D01*
X102523637Y-110475889D01*
X102522855Y-110459961D01*
X102523637Y-110444033D01*
X102525977Y-110428259D01*
X102529852Y-110412790D01*
X102535225Y-110397775D01*
X102542043Y-110383359D01*
X102550241Y-110369681D01*
X102559741Y-110356872D01*
X102570450Y-110345056D01*
X103242202Y-109673304D01*
X103254018Y-109662595D01*
X103266827Y-109653095D01*
X103280505Y-109644897D01*
X103294921Y-109638079D01*
X103309936Y-109632706D01*
X103325405Y-109628831D01*
X103341179Y-109626491D01*
X103357107Y-109625709D01*
X103373035Y-109626491D01*
X103373035Y-109626491D01*
G37*
D17*
X103136136Y-110238990D03*
D15*
G36*
X101958821Y-109626491D02*
X101974595Y-109628831D01*
X101990064Y-109632706D01*
X102005079Y-109638079D01*
X102019495Y-109644897D01*
X102033173Y-109653095D01*
X102045982Y-109662595D01*
X102057798Y-109673304D01*
X102729550Y-110345056D01*
X102740259Y-110356872D01*
X102749759Y-110369681D01*
X102757957Y-110383359D01*
X102764775Y-110397775D01*
X102770148Y-110412790D01*
X102774023Y-110428259D01*
X102776363Y-110444033D01*
X102777145Y-110459961D01*
X102776363Y-110475889D01*
X102774023Y-110491663D01*
X102770148Y-110507132D01*
X102764775Y-110522147D01*
X102757957Y-110536563D01*
X102749759Y-110550241D01*
X102740259Y-110563050D01*
X102729550Y-110574866D01*
X102499740Y-110804676D01*
X102487924Y-110815385D01*
X102475115Y-110824885D01*
X102461437Y-110833083D01*
X102447021Y-110839901D01*
X102432006Y-110845274D01*
X102416537Y-110849149D01*
X102400763Y-110851489D01*
X102384835Y-110852271D01*
X102368907Y-110851489D01*
X102353133Y-110849149D01*
X102337664Y-110845274D01*
X102322649Y-110839901D01*
X102308233Y-110833083D01*
X102294555Y-110824885D01*
X102281746Y-110815385D01*
X102269930Y-110804676D01*
X101598178Y-110132924D01*
X101587469Y-110121108D01*
X101577969Y-110108299D01*
X101569771Y-110094621D01*
X101562953Y-110080205D01*
X101557580Y-110065190D01*
X101553705Y-110049721D01*
X101551365Y-110033947D01*
X101550583Y-110018019D01*
X101551365Y-110002091D01*
X101553705Y-109986317D01*
X101557580Y-109970848D01*
X101562953Y-109955833D01*
X101569771Y-109941417D01*
X101577969Y-109927739D01*
X101587469Y-109914930D01*
X101598178Y-109903114D01*
X101827988Y-109673304D01*
X101839804Y-109662595D01*
X101852613Y-109653095D01*
X101866291Y-109644897D01*
X101880707Y-109638079D01*
X101895722Y-109632706D01*
X101911191Y-109628831D01*
X101926965Y-109626491D01*
X101942893Y-109625709D01*
X101958821Y-109626491D01*
X101958821Y-109626491D01*
G37*
D17*
X102163864Y-110238990D03*
D15*
G36*
X101605268Y-109980045D02*
X101621042Y-109982385D01*
X101636511Y-109986260D01*
X101651526Y-109991633D01*
X101665942Y-109998451D01*
X101679620Y-110006649D01*
X101692429Y-110016149D01*
X101704245Y-110026858D01*
X102375997Y-110698610D01*
X102386706Y-110710426D01*
X102396206Y-110723235D01*
X102404404Y-110736913D01*
X102411222Y-110751329D01*
X102416595Y-110766344D01*
X102420470Y-110781813D01*
X102422810Y-110797587D01*
X102423592Y-110813515D01*
X102422810Y-110829443D01*
X102420470Y-110845217D01*
X102416595Y-110860686D01*
X102411222Y-110875701D01*
X102404404Y-110890117D01*
X102396206Y-110903795D01*
X102386706Y-110916604D01*
X102375997Y-110928420D01*
X102146187Y-111158230D01*
X102134371Y-111168939D01*
X102121562Y-111178439D01*
X102107884Y-111186637D01*
X102093468Y-111193455D01*
X102078453Y-111198828D01*
X102062984Y-111202703D01*
X102047210Y-111205043D01*
X102031282Y-111205825D01*
X102015354Y-111205043D01*
X101999580Y-111202703D01*
X101984111Y-111198828D01*
X101969096Y-111193455D01*
X101954680Y-111186637D01*
X101941002Y-111178439D01*
X101928193Y-111168939D01*
X101916377Y-111158230D01*
X101244625Y-110486478D01*
X101233916Y-110474662D01*
X101224416Y-110461853D01*
X101216218Y-110448175D01*
X101209400Y-110433759D01*
X101204027Y-110418744D01*
X101200152Y-110403275D01*
X101197812Y-110387501D01*
X101197030Y-110371573D01*
X101197812Y-110355645D01*
X101200152Y-110339871D01*
X101204027Y-110324402D01*
X101209400Y-110309387D01*
X101216218Y-110294971D01*
X101224416Y-110281293D01*
X101233916Y-110268484D01*
X101244625Y-110256668D01*
X101474435Y-110026858D01*
X101486251Y-110016149D01*
X101499060Y-110006649D01*
X101512738Y-109998451D01*
X101527154Y-109991633D01*
X101542169Y-109986260D01*
X101557638Y-109982385D01*
X101573412Y-109980045D01*
X101589340Y-109979263D01*
X101605268Y-109980045D01*
X101605268Y-109980045D01*
G37*
D17*
X101810311Y-110592544D03*
D15*
G36*
X101251714Y-110333598D02*
X101267488Y-110335938D01*
X101282957Y-110339813D01*
X101297972Y-110345186D01*
X101312388Y-110352004D01*
X101326066Y-110360202D01*
X101338875Y-110369702D01*
X101350691Y-110380411D01*
X102022443Y-111052163D01*
X102033152Y-111063979D01*
X102042652Y-111076788D01*
X102050850Y-111090466D01*
X102057668Y-111104882D01*
X102063041Y-111119897D01*
X102066916Y-111135366D01*
X102069256Y-111151140D01*
X102070038Y-111167068D01*
X102069256Y-111182996D01*
X102066916Y-111198770D01*
X102063041Y-111214239D01*
X102057668Y-111229254D01*
X102050850Y-111243670D01*
X102042652Y-111257348D01*
X102033152Y-111270157D01*
X102022443Y-111281973D01*
X101792633Y-111511783D01*
X101780817Y-111522492D01*
X101768008Y-111531992D01*
X101754330Y-111540190D01*
X101739914Y-111547008D01*
X101724899Y-111552381D01*
X101709430Y-111556256D01*
X101693656Y-111558596D01*
X101677728Y-111559378D01*
X101661800Y-111558596D01*
X101646026Y-111556256D01*
X101630557Y-111552381D01*
X101615542Y-111547008D01*
X101601126Y-111540190D01*
X101587448Y-111531992D01*
X101574639Y-111522492D01*
X101562823Y-111511783D01*
X100891071Y-110840031D01*
X100880362Y-110828215D01*
X100870862Y-110815406D01*
X100862664Y-110801728D01*
X100855846Y-110787312D01*
X100850473Y-110772297D01*
X100846598Y-110756828D01*
X100844258Y-110741054D01*
X100843476Y-110725126D01*
X100844258Y-110709198D01*
X100846598Y-110693424D01*
X100850473Y-110677955D01*
X100855846Y-110662940D01*
X100862664Y-110648524D01*
X100870862Y-110634846D01*
X100880362Y-110622037D01*
X100891071Y-110610221D01*
X101120881Y-110380411D01*
X101132697Y-110369702D01*
X101145506Y-110360202D01*
X101159184Y-110352004D01*
X101173600Y-110345186D01*
X101188615Y-110339813D01*
X101204084Y-110335938D01*
X101219858Y-110333598D01*
X101235786Y-110332816D01*
X101251714Y-110333598D01*
X101251714Y-110333598D01*
G37*
D17*
X101456757Y-110946097D03*
D15*
G36*
X100898161Y-110687152D02*
X100913935Y-110689492D01*
X100929404Y-110693367D01*
X100944419Y-110698740D01*
X100958835Y-110705558D01*
X100972513Y-110713756D01*
X100985322Y-110723256D01*
X100997138Y-110733965D01*
X101668890Y-111405717D01*
X101679599Y-111417533D01*
X101689099Y-111430342D01*
X101697297Y-111444020D01*
X101704115Y-111458436D01*
X101709488Y-111473451D01*
X101713363Y-111488920D01*
X101715703Y-111504694D01*
X101716485Y-111520622D01*
X101715703Y-111536550D01*
X101713363Y-111552324D01*
X101709488Y-111567793D01*
X101704115Y-111582808D01*
X101697297Y-111597224D01*
X101689099Y-111610902D01*
X101679599Y-111623711D01*
X101668890Y-111635527D01*
X101439080Y-111865337D01*
X101427264Y-111876046D01*
X101414455Y-111885546D01*
X101400777Y-111893744D01*
X101386361Y-111900562D01*
X101371346Y-111905935D01*
X101355877Y-111909810D01*
X101340103Y-111912150D01*
X101324175Y-111912932D01*
X101308247Y-111912150D01*
X101292473Y-111909810D01*
X101277004Y-111905935D01*
X101261989Y-111900562D01*
X101247573Y-111893744D01*
X101233895Y-111885546D01*
X101221086Y-111876046D01*
X101209270Y-111865337D01*
X100537518Y-111193585D01*
X100526809Y-111181769D01*
X100517309Y-111168960D01*
X100509111Y-111155282D01*
X100502293Y-111140866D01*
X100496920Y-111125851D01*
X100493045Y-111110382D01*
X100490705Y-111094608D01*
X100489923Y-111078680D01*
X100490705Y-111062752D01*
X100493045Y-111046978D01*
X100496920Y-111031509D01*
X100502293Y-111016494D01*
X100509111Y-111002078D01*
X100517309Y-110988400D01*
X100526809Y-110975591D01*
X100537518Y-110963775D01*
X100767328Y-110733965D01*
X100779144Y-110723256D01*
X100791953Y-110713756D01*
X100805631Y-110705558D01*
X100820047Y-110698740D01*
X100835062Y-110693367D01*
X100850531Y-110689492D01*
X100866305Y-110687152D01*
X100882233Y-110686370D01*
X100898161Y-110687152D01*
X100898161Y-110687152D01*
G37*
D17*
X101103204Y-111299651D03*
D15*
G36*
X100544608Y-111040705D02*
X100560382Y-111043045D01*
X100575851Y-111046920D01*
X100590866Y-111052293D01*
X100605282Y-111059111D01*
X100618960Y-111067309D01*
X100631769Y-111076809D01*
X100643585Y-111087518D01*
X101315337Y-111759270D01*
X101326046Y-111771086D01*
X101335546Y-111783895D01*
X101343744Y-111797573D01*
X101350562Y-111811989D01*
X101355935Y-111827004D01*
X101359810Y-111842473D01*
X101362150Y-111858247D01*
X101362932Y-111874175D01*
X101362150Y-111890103D01*
X101359810Y-111905877D01*
X101355935Y-111921346D01*
X101350562Y-111936361D01*
X101343744Y-111950777D01*
X101335546Y-111964455D01*
X101326046Y-111977264D01*
X101315337Y-111989080D01*
X101085527Y-112218890D01*
X101073711Y-112229599D01*
X101060902Y-112239099D01*
X101047224Y-112247297D01*
X101032808Y-112254115D01*
X101017793Y-112259488D01*
X101002324Y-112263363D01*
X100986550Y-112265703D01*
X100970622Y-112266485D01*
X100954694Y-112265703D01*
X100938920Y-112263363D01*
X100923451Y-112259488D01*
X100908436Y-112254115D01*
X100894020Y-112247297D01*
X100880342Y-112239099D01*
X100867533Y-112229599D01*
X100855717Y-112218890D01*
X100183965Y-111547138D01*
X100173256Y-111535322D01*
X100163756Y-111522513D01*
X100155558Y-111508835D01*
X100148740Y-111494419D01*
X100143367Y-111479404D01*
X100139492Y-111463935D01*
X100137152Y-111448161D01*
X100136370Y-111432233D01*
X100137152Y-111416305D01*
X100139492Y-111400531D01*
X100143367Y-111385062D01*
X100148740Y-111370047D01*
X100155558Y-111355631D01*
X100163756Y-111341953D01*
X100173256Y-111329144D01*
X100183965Y-111317328D01*
X100413775Y-111087518D01*
X100425591Y-111076809D01*
X100438400Y-111067309D01*
X100452078Y-111059111D01*
X100466494Y-111052293D01*
X100481509Y-111046920D01*
X100496978Y-111043045D01*
X100512752Y-111040705D01*
X100528680Y-111039923D01*
X100544608Y-111040705D01*
X100544608Y-111040705D01*
G37*
D17*
X100749651Y-111653204D03*
D15*
G36*
X100191054Y-111394258D02*
X100206828Y-111396598D01*
X100222297Y-111400473D01*
X100237312Y-111405846D01*
X100251728Y-111412664D01*
X100265406Y-111420862D01*
X100278215Y-111430362D01*
X100290031Y-111441071D01*
X100961783Y-112112823D01*
X100972492Y-112124639D01*
X100981992Y-112137448D01*
X100990190Y-112151126D01*
X100997008Y-112165542D01*
X101002381Y-112180557D01*
X101006256Y-112196026D01*
X101008596Y-112211800D01*
X101009378Y-112227728D01*
X101008596Y-112243656D01*
X101006256Y-112259430D01*
X101002381Y-112274899D01*
X100997008Y-112289914D01*
X100990190Y-112304330D01*
X100981992Y-112318008D01*
X100972492Y-112330817D01*
X100961783Y-112342633D01*
X100731973Y-112572443D01*
X100720157Y-112583152D01*
X100707348Y-112592652D01*
X100693670Y-112600850D01*
X100679254Y-112607668D01*
X100664239Y-112613041D01*
X100648770Y-112616916D01*
X100632996Y-112619256D01*
X100617068Y-112620038D01*
X100601140Y-112619256D01*
X100585366Y-112616916D01*
X100569897Y-112613041D01*
X100554882Y-112607668D01*
X100540466Y-112600850D01*
X100526788Y-112592652D01*
X100513979Y-112583152D01*
X100502163Y-112572443D01*
X99830411Y-111900691D01*
X99819702Y-111888875D01*
X99810202Y-111876066D01*
X99802004Y-111862388D01*
X99795186Y-111847972D01*
X99789813Y-111832957D01*
X99785938Y-111817488D01*
X99783598Y-111801714D01*
X99782816Y-111785786D01*
X99783598Y-111769858D01*
X99785938Y-111754084D01*
X99789813Y-111738615D01*
X99795186Y-111723600D01*
X99802004Y-111709184D01*
X99810202Y-111695506D01*
X99819702Y-111682697D01*
X99830411Y-111670881D01*
X100060221Y-111441071D01*
X100072037Y-111430362D01*
X100084846Y-111420862D01*
X100098524Y-111412664D01*
X100112940Y-111405846D01*
X100127955Y-111400473D01*
X100143424Y-111396598D01*
X100159198Y-111394258D01*
X100175126Y-111393476D01*
X100191054Y-111394258D01*
X100191054Y-111394258D01*
G37*
D17*
X100396097Y-112006757D03*
D15*
G36*
X99837501Y-111747812D02*
X99853275Y-111750152D01*
X99868744Y-111754027D01*
X99883759Y-111759400D01*
X99898175Y-111766218D01*
X99911853Y-111774416D01*
X99924662Y-111783916D01*
X99936478Y-111794625D01*
X100608230Y-112466377D01*
X100618939Y-112478193D01*
X100628439Y-112491002D01*
X100636637Y-112504680D01*
X100643455Y-112519096D01*
X100648828Y-112534111D01*
X100652703Y-112549580D01*
X100655043Y-112565354D01*
X100655825Y-112581282D01*
X100655043Y-112597210D01*
X100652703Y-112612984D01*
X100648828Y-112628453D01*
X100643455Y-112643468D01*
X100636637Y-112657884D01*
X100628439Y-112671562D01*
X100618939Y-112684371D01*
X100608230Y-112696187D01*
X100378420Y-112925997D01*
X100366604Y-112936706D01*
X100353795Y-112946206D01*
X100340117Y-112954404D01*
X100325701Y-112961222D01*
X100310686Y-112966595D01*
X100295217Y-112970470D01*
X100279443Y-112972810D01*
X100263515Y-112973592D01*
X100247587Y-112972810D01*
X100231813Y-112970470D01*
X100216344Y-112966595D01*
X100201329Y-112961222D01*
X100186913Y-112954404D01*
X100173235Y-112946206D01*
X100160426Y-112936706D01*
X100148610Y-112925997D01*
X99476858Y-112254245D01*
X99466149Y-112242429D01*
X99456649Y-112229620D01*
X99448451Y-112215942D01*
X99441633Y-112201526D01*
X99436260Y-112186511D01*
X99432385Y-112171042D01*
X99430045Y-112155268D01*
X99429263Y-112139340D01*
X99430045Y-112123412D01*
X99432385Y-112107638D01*
X99436260Y-112092169D01*
X99441633Y-112077154D01*
X99448451Y-112062738D01*
X99456649Y-112049060D01*
X99466149Y-112036251D01*
X99476858Y-112024435D01*
X99706668Y-111794625D01*
X99718484Y-111783916D01*
X99731293Y-111774416D01*
X99744971Y-111766218D01*
X99759387Y-111759400D01*
X99774402Y-111754027D01*
X99789871Y-111750152D01*
X99805645Y-111747812D01*
X99821573Y-111747030D01*
X99837501Y-111747812D01*
X99837501Y-111747812D01*
G37*
D17*
X100042544Y-112360311D03*
D15*
G36*
X99483947Y-112101365D02*
X99499721Y-112103705D01*
X99515190Y-112107580D01*
X99530205Y-112112953D01*
X99544621Y-112119771D01*
X99558299Y-112127969D01*
X99571108Y-112137469D01*
X99582924Y-112148178D01*
X100254676Y-112819930D01*
X100265385Y-112831746D01*
X100274885Y-112844555D01*
X100283083Y-112858233D01*
X100289901Y-112872649D01*
X100295274Y-112887664D01*
X100299149Y-112903133D01*
X100301489Y-112918907D01*
X100302271Y-112934835D01*
X100301489Y-112950763D01*
X100299149Y-112966537D01*
X100295274Y-112982006D01*
X100289901Y-112997021D01*
X100283083Y-113011437D01*
X100274885Y-113025115D01*
X100265385Y-113037924D01*
X100254676Y-113049740D01*
X100024866Y-113279550D01*
X100013050Y-113290259D01*
X100000241Y-113299759D01*
X99986563Y-113307957D01*
X99972147Y-113314775D01*
X99957132Y-113320148D01*
X99941663Y-113324023D01*
X99925889Y-113326363D01*
X99909961Y-113327145D01*
X99894033Y-113326363D01*
X99878259Y-113324023D01*
X99862790Y-113320148D01*
X99847775Y-113314775D01*
X99833359Y-113307957D01*
X99819681Y-113299759D01*
X99806872Y-113290259D01*
X99795056Y-113279550D01*
X99123304Y-112607798D01*
X99112595Y-112595982D01*
X99103095Y-112583173D01*
X99094897Y-112569495D01*
X99088079Y-112555079D01*
X99082706Y-112540064D01*
X99078831Y-112524595D01*
X99076491Y-112508821D01*
X99075709Y-112492893D01*
X99076491Y-112476965D01*
X99078831Y-112461191D01*
X99082706Y-112445722D01*
X99088079Y-112430707D01*
X99094897Y-112416291D01*
X99103095Y-112402613D01*
X99112595Y-112389804D01*
X99123304Y-112377988D01*
X99353114Y-112148178D01*
X99364930Y-112137469D01*
X99377739Y-112127969D01*
X99391417Y-112119771D01*
X99405833Y-112112953D01*
X99420848Y-112107580D01*
X99436317Y-112103705D01*
X99452091Y-112101365D01*
X99468019Y-112100583D01*
X99483947Y-112101365D01*
X99483947Y-112101365D01*
G37*
D17*
X99688990Y-112713864D03*
D15*
G36*
X99925889Y-113073637D02*
X99941663Y-113075977D01*
X99957132Y-113079852D01*
X99972147Y-113085225D01*
X99986563Y-113092043D01*
X100000241Y-113100241D01*
X100013050Y-113109741D01*
X100024866Y-113120450D01*
X100254676Y-113350260D01*
X100265385Y-113362076D01*
X100274885Y-113374885D01*
X100283083Y-113388563D01*
X100289901Y-113402979D01*
X100295274Y-113417994D01*
X100299149Y-113433463D01*
X100301489Y-113449237D01*
X100302271Y-113465165D01*
X100301489Y-113481093D01*
X100299149Y-113496867D01*
X100295274Y-113512336D01*
X100289901Y-113527351D01*
X100283083Y-113541767D01*
X100274885Y-113555445D01*
X100265385Y-113568254D01*
X100254676Y-113580070D01*
X99582924Y-114251822D01*
X99571108Y-114262531D01*
X99558299Y-114272031D01*
X99544621Y-114280229D01*
X99530205Y-114287047D01*
X99515190Y-114292420D01*
X99499721Y-114296295D01*
X99483947Y-114298635D01*
X99468019Y-114299417D01*
X99452091Y-114298635D01*
X99436317Y-114296295D01*
X99420848Y-114292420D01*
X99405833Y-114287047D01*
X99391417Y-114280229D01*
X99377739Y-114272031D01*
X99364930Y-114262531D01*
X99353114Y-114251822D01*
X99123304Y-114022012D01*
X99112595Y-114010196D01*
X99103095Y-113997387D01*
X99094897Y-113983709D01*
X99088079Y-113969293D01*
X99082706Y-113954278D01*
X99078831Y-113938809D01*
X99076491Y-113923035D01*
X99075709Y-113907107D01*
X99076491Y-113891179D01*
X99078831Y-113875405D01*
X99082706Y-113859936D01*
X99088079Y-113844921D01*
X99094897Y-113830505D01*
X99103095Y-113816827D01*
X99112595Y-113804018D01*
X99123304Y-113792202D01*
X99795056Y-113120450D01*
X99806872Y-113109741D01*
X99819681Y-113100241D01*
X99833359Y-113092043D01*
X99847775Y-113085225D01*
X99862790Y-113079852D01*
X99878259Y-113075977D01*
X99894033Y-113073637D01*
X99909961Y-113072855D01*
X99925889Y-113073637D01*
X99925889Y-113073637D01*
G37*
D17*
X99688990Y-113686136D03*
D15*
G36*
X100279443Y-113427190D02*
X100295217Y-113429530D01*
X100310686Y-113433405D01*
X100325701Y-113438778D01*
X100340117Y-113445596D01*
X100353795Y-113453794D01*
X100366604Y-113463294D01*
X100378420Y-113474003D01*
X100608230Y-113703813D01*
X100618939Y-113715629D01*
X100628439Y-113728438D01*
X100636637Y-113742116D01*
X100643455Y-113756532D01*
X100648828Y-113771547D01*
X100652703Y-113787016D01*
X100655043Y-113802790D01*
X100655825Y-113818718D01*
X100655043Y-113834646D01*
X100652703Y-113850420D01*
X100648828Y-113865889D01*
X100643455Y-113880904D01*
X100636637Y-113895320D01*
X100628439Y-113908998D01*
X100618939Y-113921807D01*
X100608230Y-113933623D01*
X99936478Y-114605375D01*
X99924662Y-114616084D01*
X99911853Y-114625584D01*
X99898175Y-114633782D01*
X99883759Y-114640600D01*
X99868744Y-114645973D01*
X99853275Y-114649848D01*
X99837501Y-114652188D01*
X99821573Y-114652970D01*
X99805645Y-114652188D01*
X99789871Y-114649848D01*
X99774402Y-114645973D01*
X99759387Y-114640600D01*
X99744971Y-114633782D01*
X99731293Y-114625584D01*
X99718484Y-114616084D01*
X99706668Y-114605375D01*
X99476858Y-114375565D01*
X99466149Y-114363749D01*
X99456649Y-114350940D01*
X99448451Y-114337262D01*
X99441633Y-114322846D01*
X99436260Y-114307831D01*
X99432385Y-114292362D01*
X99430045Y-114276588D01*
X99429263Y-114260660D01*
X99430045Y-114244732D01*
X99432385Y-114228958D01*
X99436260Y-114213489D01*
X99441633Y-114198474D01*
X99448451Y-114184058D01*
X99456649Y-114170380D01*
X99466149Y-114157571D01*
X99476858Y-114145755D01*
X100148610Y-113474003D01*
X100160426Y-113463294D01*
X100173235Y-113453794D01*
X100186913Y-113445596D01*
X100201329Y-113438778D01*
X100216344Y-113433405D01*
X100231813Y-113429530D01*
X100247587Y-113427190D01*
X100263515Y-113426408D01*
X100279443Y-113427190D01*
X100279443Y-113427190D01*
G37*
D17*
X100042544Y-114039689D03*
D15*
G36*
X100632996Y-113780744D02*
X100648770Y-113783084D01*
X100664239Y-113786959D01*
X100679254Y-113792332D01*
X100693670Y-113799150D01*
X100707348Y-113807348D01*
X100720157Y-113816848D01*
X100731973Y-113827557D01*
X100961783Y-114057367D01*
X100972492Y-114069183D01*
X100981992Y-114081992D01*
X100990190Y-114095670D01*
X100997008Y-114110086D01*
X101002381Y-114125101D01*
X101006256Y-114140570D01*
X101008596Y-114156344D01*
X101009378Y-114172272D01*
X101008596Y-114188200D01*
X101006256Y-114203974D01*
X101002381Y-114219443D01*
X100997008Y-114234458D01*
X100990190Y-114248874D01*
X100981992Y-114262552D01*
X100972492Y-114275361D01*
X100961783Y-114287177D01*
X100290031Y-114958929D01*
X100278215Y-114969638D01*
X100265406Y-114979138D01*
X100251728Y-114987336D01*
X100237312Y-114994154D01*
X100222297Y-114999527D01*
X100206828Y-115003402D01*
X100191054Y-115005742D01*
X100175126Y-115006524D01*
X100159198Y-115005742D01*
X100143424Y-115003402D01*
X100127955Y-114999527D01*
X100112940Y-114994154D01*
X100098524Y-114987336D01*
X100084846Y-114979138D01*
X100072037Y-114969638D01*
X100060221Y-114958929D01*
X99830411Y-114729119D01*
X99819702Y-114717303D01*
X99810202Y-114704494D01*
X99802004Y-114690816D01*
X99795186Y-114676400D01*
X99789813Y-114661385D01*
X99785938Y-114645916D01*
X99783598Y-114630142D01*
X99782816Y-114614214D01*
X99783598Y-114598286D01*
X99785938Y-114582512D01*
X99789813Y-114567043D01*
X99795186Y-114552028D01*
X99802004Y-114537612D01*
X99810202Y-114523934D01*
X99819702Y-114511125D01*
X99830411Y-114499309D01*
X100502163Y-113827557D01*
X100513979Y-113816848D01*
X100526788Y-113807348D01*
X100540466Y-113799150D01*
X100554882Y-113792332D01*
X100569897Y-113786959D01*
X100585366Y-113783084D01*
X100601140Y-113780744D01*
X100617068Y-113779962D01*
X100632996Y-113780744D01*
X100632996Y-113780744D01*
G37*
D17*
X100396097Y-114393243D03*
D15*
G36*
X100986550Y-114134297D02*
X101002324Y-114136637D01*
X101017793Y-114140512D01*
X101032808Y-114145885D01*
X101047224Y-114152703D01*
X101060902Y-114160901D01*
X101073711Y-114170401D01*
X101085527Y-114181110D01*
X101315337Y-114410920D01*
X101326046Y-114422736D01*
X101335546Y-114435545D01*
X101343744Y-114449223D01*
X101350562Y-114463639D01*
X101355935Y-114478654D01*
X101359810Y-114494123D01*
X101362150Y-114509897D01*
X101362932Y-114525825D01*
X101362150Y-114541753D01*
X101359810Y-114557527D01*
X101355935Y-114572996D01*
X101350562Y-114588011D01*
X101343744Y-114602427D01*
X101335546Y-114616105D01*
X101326046Y-114628914D01*
X101315337Y-114640730D01*
X100643585Y-115312482D01*
X100631769Y-115323191D01*
X100618960Y-115332691D01*
X100605282Y-115340889D01*
X100590866Y-115347707D01*
X100575851Y-115353080D01*
X100560382Y-115356955D01*
X100544608Y-115359295D01*
X100528680Y-115360077D01*
X100512752Y-115359295D01*
X100496978Y-115356955D01*
X100481509Y-115353080D01*
X100466494Y-115347707D01*
X100452078Y-115340889D01*
X100438400Y-115332691D01*
X100425591Y-115323191D01*
X100413775Y-115312482D01*
X100183965Y-115082672D01*
X100173256Y-115070856D01*
X100163756Y-115058047D01*
X100155558Y-115044369D01*
X100148740Y-115029953D01*
X100143367Y-115014938D01*
X100139492Y-114999469D01*
X100137152Y-114983695D01*
X100136370Y-114967767D01*
X100137152Y-114951839D01*
X100139492Y-114936065D01*
X100143367Y-114920596D01*
X100148740Y-114905581D01*
X100155558Y-114891165D01*
X100163756Y-114877487D01*
X100173256Y-114864678D01*
X100183965Y-114852862D01*
X100855717Y-114181110D01*
X100867533Y-114170401D01*
X100880342Y-114160901D01*
X100894020Y-114152703D01*
X100908436Y-114145885D01*
X100923451Y-114140512D01*
X100938920Y-114136637D01*
X100954694Y-114134297D01*
X100970622Y-114133515D01*
X100986550Y-114134297D01*
X100986550Y-114134297D01*
G37*
D17*
X100749651Y-114746796D03*
D15*
G36*
X101340103Y-114487850D02*
X101355877Y-114490190D01*
X101371346Y-114494065D01*
X101386361Y-114499438D01*
X101400777Y-114506256D01*
X101414455Y-114514454D01*
X101427264Y-114523954D01*
X101439080Y-114534663D01*
X101668890Y-114764473D01*
X101679599Y-114776289D01*
X101689099Y-114789098D01*
X101697297Y-114802776D01*
X101704115Y-114817192D01*
X101709488Y-114832207D01*
X101713363Y-114847676D01*
X101715703Y-114863450D01*
X101716485Y-114879378D01*
X101715703Y-114895306D01*
X101713363Y-114911080D01*
X101709488Y-114926549D01*
X101704115Y-114941564D01*
X101697297Y-114955980D01*
X101689099Y-114969658D01*
X101679599Y-114982467D01*
X101668890Y-114994283D01*
X100997138Y-115666035D01*
X100985322Y-115676744D01*
X100972513Y-115686244D01*
X100958835Y-115694442D01*
X100944419Y-115701260D01*
X100929404Y-115706633D01*
X100913935Y-115710508D01*
X100898161Y-115712848D01*
X100882233Y-115713630D01*
X100866305Y-115712848D01*
X100850531Y-115710508D01*
X100835062Y-115706633D01*
X100820047Y-115701260D01*
X100805631Y-115694442D01*
X100791953Y-115686244D01*
X100779144Y-115676744D01*
X100767328Y-115666035D01*
X100537518Y-115436225D01*
X100526809Y-115424409D01*
X100517309Y-115411600D01*
X100509111Y-115397922D01*
X100502293Y-115383506D01*
X100496920Y-115368491D01*
X100493045Y-115353022D01*
X100490705Y-115337248D01*
X100489923Y-115321320D01*
X100490705Y-115305392D01*
X100493045Y-115289618D01*
X100496920Y-115274149D01*
X100502293Y-115259134D01*
X100509111Y-115244718D01*
X100517309Y-115231040D01*
X100526809Y-115218231D01*
X100537518Y-115206415D01*
X101209270Y-114534663D01*
X101221086Y-114523954D01*
X101233895Y-114514454D01*
X101247573Y-114506256D01*
X101261989Y-114499438D01*
X101277004Y-114494065D01*
X101292473Y-114490190D01*
X101308247Y-114487850D01*
X101324175Y-114487068D01*
X101340103Y-114487850D01*
X101340103Y-114487850D01*
G37*
D17*
X101103204Y-115100349D03*
D15*
G36*
X101693656Y-114841404D02*
X101709430Y-114843744D01*
X101724899Y-114847619D01*
X101739914Y-114852992D01*
X101754330Y-114859810D01*
X101768008Y-114868008D01*
X101780817Y-114877508D01*
X101792633Y-114888217D01*
X102022443Y-115118027D01*
X102033152Y-115129843D01*
X102042652Y-115142652D01*
X102050850Y-115156330D01*
X102057668Y-115170746D01*
X102063041Y-115185761D01*
X102066916Y-115201230D01*
X102069256Y-115217004D01*
X102070038Y-115232932D01*
X102069256Y-115248860D01*
X102066916Y-115264634D01*
X102063041Y-115280103D01*
X102057668Y-115295118D01*
X102050850Y-115309534D01*
X102042652Y-115323212D01*
X102033152Y-115336021D01*
X102022443Y-115347837D01*
X101350691Y-116019589D01*
X101338875Y-116030298D01*
X101326066Y-116039798D01*
X101312388Y-116047996D01*
X101297972Y-116054814D01*
X101282957Y-116060187D01*
X101267488Y-116064062D01*
X101251714Y-116066402D01*
X101235786Y-116067184D01*
X101219858Y-116066402D01*
X101204084Y-116064062D01*
X101188615Y-116060187D01*
X101173600Y-116054814D01*
X101159184Y-116047996D01*
X101145506Y-116039798D01*
X101132697Y-116030298D01*
X101120881Y-116019589D01*
X100891071Y-115789779D01*
X100880362Y-115777963D01*
X100870862Y-115765154D01*
X100862664Y-115751476D01*
X100855846Y-115737060D01*
X100850473Y-115722045D01*
X100846598Y-115706576D01*
X100844258Y-115690802D01*
X100843476Y-115674874D01*
X100844258Y-115658946D01*
X100846598Y-115643172D01*
X100850473Y-115627703D01*
X100855846Y-115612688D01*
X100862664Y-115598272D01*
X100870862Y-115584594D01*
X100880362Y-115571785D01*
X100891071Y-115559969D01*
X101562823Y-114888217D01*
X101574639Y-114877508D01*
X101587448Y-114868008D01*
X101601126Y-114859810D01*
X101615542Y-114852992D01*
X101630557Y-114847619D01*
X101646026Y-114843744D01*
X101661800Y-114841404D01*
X101677728Y-114840622D01*
X101693656Y-114841404D01*
X101693656Y-114841404D01*
G37*
D17*
X101456757Y-115453903D03*
D15*
G36*
X102047210Y-115194957D02*
X102062984Y-115197297D01*
X102078453Y-115201172D01*
X102093468Y-115206545D01*
X102107884Y-115213363D01*
X102121562Y-115221561D01*
X102134371Y-115231061D01*
X102146187Y-115241770D01*
X102375997Y-115471580D01*
X102386706Y-115483396D01*
X102396206Y-115496205D01*
X102404404Y-115509883D01*
X102411222Y-115524299D01*
X102416595Y-115539314D01*
X102420470Y-115554783D01*
X102422810Y-115570557D01*
X102423592Y-115586485D01*
X102422810Y-115602413D01*
X102420470Y-115618187D01*
X102416595Y-115633656D01*
X102411222Y-115648671D01*
X102404404Y-115663087D01*
X102396206Y-115676765D01*
X102386706Y-115689574D01*
X102375997Y-115701390D01*
X101704245Y-116373142D01*
X101692429Y-116383851D01*
X101679620Y-116393351D01*
X101665942Y-116401549D01*
X101651526Y-116408367D01*
X101636511Y-116413740D01*
X101621042Y-116417615D01*
X101605268Y-116419955D01*
X101589340Y-116420737D01*
X101573412Y-116419955D01*
X101557638Y-116417615D01*
X101542169Y-116413740D01*
X101527154Y-116408367D01*
X101512738Y-116401549D01*
X101499060Y-116393351D01*
X101486251Y-116383851D01*
X101474435Y-116373142D01*
X101244625Y-116143332D01*
X101233916Y-116131516D01*
X101224416Y-116118707D01*
X101216218Y-116105029D01*
X101209400Y-116090613D01*
X101204027Y-116075598D01*
X101200152Y-116060129D01*
X101197812Y-116044355D01*
X101197030Y-116028427D01*
X101197812Y-116012499D01*
X101200152Y-115996725D01*
X101204027Y-115981256D01*
X101209400Y-115966241D01*
X101216218Y-115951825D01*
X101224416Y-115938147D01*
X101233916Y-115925338D01*
X101244625Y-115913522D01*
X101916377Y-115241770D01*
X101928193Y-115231061D01*
X101941002Y-115221561D01*
X101954680Y-115213363D01*
X101969096Y-115206545D01*
X101984111Y-115201172D01*
X101999580Y-115197297D01*
X102015354Y-115194957D01*
X102031282Y-115194175D01*
X102047210Y-115194957D01*
X102047210Y-115194957D01*
G37*
D17*
X101810311Y-115807456D03*
D15*
G36*
X102400763Y-115548511D02*
X102416537Y-115550851D01*
X102432006Y-115554726D01*
X102447021Y-115560099D01*
X102461437Y-115566917D01*
X102475115Y-115575115D01*
X102487924Y-115584615D01*
X102499740Y-115595324D01*
X102729550Y-115825134D01*
X102740259Y-115836950D01*
X102749759Y-115849759D01*
X102757957Y-115863437D01*
X102764775Y-115877853D01*
X102770148Y-115892868D01*
X102774023Y-115908337D01*
X102776363Y-115924111D01*
X102777145Y-115940039D01*
X102776363Y-115955967D01*
X102774023Y-115971741D01*
X102770148Y-115987210D01*
X102764775Y-116002225D01*
X102757957Y-116016641D01*
X102749759Y-116030319D01*
X102740259Y-116043128D01*
X102729550Y-116054944D01*
X102057798Y-116726696D01*
X102045982Y-116737405D01*
X102033173Y-116746905D01*
X102019495Y-116755103D01*
X102005079Y-116761921D01*
X101990064Y-116767294D01*
X101974595Y-116771169D01*
X101958821Y-116773509D01*
X101942893Y-116774291D01*
X101926965Y-116773509D01*
X101911191Y-116771169D01*
X101895722Y-116767294D01*
X101880707Y-116761921D01*
X101866291Y-116755103D01*
X101852613Y-116746905D01*
X101839804Y-116737405D01*
X101827988Y-116726696D01*
X101598178Y-116496886D01*
X101587469Y-116485070D01*
X101577969Y-116472261D01*
X101569771Y-116458583D01*
X101562953Y-116444167D01*
X101557580Y-116429152D01*
X101553705Y-116413683D01*
X101551365Y-116397909D01*
X101550583Y-116381981D01*
X101551365Y-116366053D01*
X101553705Y-116350279D01*
X101557580Y-116334810D01*
X101562953Y-116319795D01*
X101569771Y-116305379D01*
X101577969Y-116291701D01*
X101587469Y-116278892D01*
X101598178Y-116267076D01*
X102269930Y-115595324D01*
X102281746Y-115584615D01*
X102294555Y-115575115D01*
X102308233Y-115566917D01*
X102322649Y-115560099D01*
X102337664Y-115554726D01*
X102353133Y-115550851D01*
X102368907Y-115548511D01*
X102384835Y-115547729D01*
X102400763Y-115548511D01*
X102400763Y-115548511D01*
G37*
D17*
X102163864Y-116161010D03*
G04 #@! TD*
D18*
G04 #@! TO.C,J2*
X116200000Y-116850000D03*
D19*
X116200000Y-114310000D03*
X116200000Y-111770000D03*
X116200000Y-109230000D03*
X116200000Y-106690000D03*
X116200000Y-104150000D03*
X116200000Y-101610000D03*
X116200000Y-99070000D03*
X116200000Y-96530000D03*
X116200000Y-93990000D03*
X116200000Y-91450000D03*
X116200000Y-88910000D03*
X116200000Y-86370000D03*
X116200000Y-83830000D03*
X116200000Y-81290000D03*
X116200000Y-78750000D03*
G04 #@! TD*
D20*
G04 #@! TO.C,Y1*
X94225000Y-114175000D03*
X95475000Y-115825000D03*
X94225000Y-115825000D03*
X95475000Y-114175000D03*
G04 #@! TD*
D21*
G04 #@! TO.C,U5*
X96755000Y-95550000D03*
X98025000Y-95550000D03*
X99295000Y-95550000D03*
X100565000Y-95550000D03*
X101835000Y-95550000D03*
X103105000Y-95550000D03*
X104375000Y-95550000D03*
X105645000Y-95550000D03*
X105645000Y-100950000D03*
X104375000Y-100950000D03*
X103105000Y-100950000D03*
X101835000Y-100950000D03*
X100565000Y-100950000D03*
X99295000Y-100950000D03*
X98025000Y-100950000D03*
X96755000Y-100950000D03*
G04 #@! TD*
D15*
G04 #@! TO.C,C26*
G36*
X95470581Y-94426625D02*
X95503343Y-94431485D01*
X95535471Y-94439533D01*
X95566656Y-94450691D01*
X95596596Y-94464852D01*
X95625005Y-94481879D01*
X95651608Y-94501609D01*
X95676149Y-94523851D01*
X95698391Y-94548392D01*
X95718121Y-94574995D01*
X95735148Y-94603404D01*
X95749309Y-94633344D01*
X95760467Y-94664529D01*
X95768515Y-94696657D01*
X95773375Y-94729419D01*
X95775000Y-94762500D01*
X95775000Y-95537500D01*
X95773375Y-95570581D01*
X95768515Y-95603343D01*
X95760467Y-95635471D01*
X95749309Y-95666656D01*
X95735148Y-95696596D01*
X95718121Y-95725005D01*
X95698391Y-95751608D01*
X95676149Y-95776149D01*
X95651608Y-95798391D01*
X95625005Y-95818121D01*
X95596596Y-95835148D01*
X95566656Y-95849309D01*
X95535471Y-95860467D01*
X95503343Y-95868515D01*
X95470581Y-95873375D01*
X95437500Y-95875000D01*
X94762500Y-95875000D01*
X94729419Y-95873375D01*
X94696657Y-95868515D01*
X94664529Y-95860467D01*
X94633344Y-95849309D01*
X94603404Y-95835148D01*
X94574995Y-95818121D01*
X94548392Y-95798391D01*
X94523851Y-95776149D01*
X94501609Y-95751608D01*
X94481879Y-95725005D01*
X94464852Y-95696596D01*
X94450691Y-95666656D01*
X94439533Y-95635471D01*
X94431485Y-95603343D01*
X94426625Y-95570581D01*
X94425000Y-95537500D01*
X94425000Y-94762500D01*
X94426625Y-94729419D01*
X94431485Y-94696657D01*
X94439533Y-94664529D01*
X94450691Y-94633344D01*
X94464852Y-94603404D01*
X94481879Y-94574995D01*
X94501609Y-94548392D01*
X94523851Y-94523851D01*
X94548392Y-94501609D01*
X94574995Y-94481879D01*
X94603404Y-94464852D01*
X94633344Y-94450691D01*
X94664529Y-94439533D01*
X94696657Y-94431485D01*
X94729419Y-94426625D01*
X94762500Y-94425000D01*
X95437500Y-94425000D01*
X95470581Y-94426625D01*
X95470581Y-94426625D01*
G37*
D22*
X95100000Y-95150000D03*
D15*
G36*
X95470581Y-96176625D02*
X95503343Y-96181485D01*
X95535471Y-96189533D01*
X95566656Y-96200691D01*
X95596596Y-96214852D01*
X95625005Y-96231879D01*
X95651608Y-96251609D01*
X95676149Y-96273851D01*
X95698391Y-96298392D01*
X95718121Y-96324995D01*
X95735148Y-96353404D01*
X95749309Y-96383344D01*
X95760467Y-96414529D01*
X95768515Y-96446657D01*
X95773375Y-96479419D01*
X95775000Y-96512500D01*
X95775000Y-97287500D01*
X95773375Y-97320581D01*
X95768515Y-97353343D01*
X95760467Y-97385471D01*
X95749309Y-97416656D01*
X95735148Y-97446596D01*
X95718121Y-97475005D01*
X95698391Y-97501608D01*
X95676149Y-97526149D01*
X95651608Y-97548391D01*
X95625005Y-97568121D01*
X95596596Y-97585148D01*
X95566656Y-97599309D01*
X95535471Y-97610467D01*
X95503343Y-97618515D01*
X95470581Y-97623375D01*
X95437500Y-97625000D01*
X94762500Y-97625000D01*
X94729419Y-97623375D01*
X94696657Y-97618515D01*
X94664529Y-97610467D01*
X94633344Y-97599309D01*
X94603404Y-97585148D01*
X94574995Y-97568121D01*
X94548392Y-97548391D01*
X94523851Y-97526149D01*
X94501609Y-97501608D01*
X94481879Y-97475005D01*
X94464852Y-97446596D01*
X94450691Y-97416656D01*
X94439533Y-97385471D01*
X94431485Y-97353343D01*
X94426625Y-97320581D01*
X94425000Y-97287500D01*
X94425000Y-96512500D01*
X94426625Y-96479419D01*
X94431485Y-96446657D01*
X94439533Y-96414529D01*
X94450691Y-96383344D01*
X94464852Y-96353404D01*
X94481879Y-96324995D01*
X94501609Y-96298392D01*
X94523851Y-96273851D01*
X94548392Y-96251609D01*
X94574995Y-96231879D01*
X94603404Y-96214852D01*
X94633344Y-96200691D01*
X94664529Y-96189533D01*
X94696657Y-96181485D01*
X94729419Y-96176625D01*
X94762500Y-96175000D01*
X95437500Y-96175000D01*
X95470581Y-96176625D01*
X95470581Y-96176625D01*
G37*
D22*
X95100000Y-96900000D03*
G04 #@! TD*
D15*
G04 #@! TO.C,C25*
G36*
X95470581Y-97776625D02*
X95503343Y-97781485D01*
X95535471Y-97789533D01*
X95566656Y-97800691D01*
X95596596Y-97814852D01*
X95625005Y-97831879D01*
X95651608Y-97851609D01*
X95676149Y-97873851D01*
X95698391Y-97898392D01*
X95718121Y-97924995D01*
X95735148Y-97953404D01*
X95749309Y-97983344D01*
X95760467Y-98014529D01*
X95768515Y-98046657D01*
X95773375Y-98079419D01*
X95775000Y-98112500D01*
X95775000Y-98887500D01*
X95773375Y-98920581D01*
X95768515Y-98953343D01*
X95760467Y-98985471D01*
X95749309Y-99016656D01*
X95735148Y-99046596D01*
X95718121Y-99075005D01*
X95698391Y-99101608D01*
X95676149Y-99126149D01*
X95651608Y-99148391D01*
X95625005Y-99168121D01*
X95596596Y-99185148D01*
X95566656Y-99199309D01*
X95535471Y-99210467D01*
X95503343Y-99218515D01*
X95470581Y-99223375D01*
X95437500Y-99225000D01*
X94762500Y-99225000D01*
X94729419Y-99223375D01*
X94696657Y-99218515D01*
X94664529Y-99210467D01*
X94633344Y-99199309D01*
X94603404Y-99185148D01*
X94574995Y-99168121D01*
X94548392Y-99148391D01*
X94523851Y-99126149D01*
X94501609Y-99101608D01*
X94481879Y-99075005D01*
X94464852Y-99046596D01*
X94450691Y-99016656D01*
X94439533Y-98985471D01*
X94431485Y-98953343D01*
X94426625Y-98920581D01*
X94425000Y-98887500D01*
X94425000Y-98112500D01*
X94426625Y-98079419D01*
X94431485Y-98046657D01*
X94439533Y-98014529D01*
X94450691Y-97983344D01*
X94464852Y-97953404D01*
X94481879Y-97924995D01*
X94501609Y-97898392D01*
X94523851Y-97873851D01*
X94548392Y-97851609D01*
X94574995Y-97831879D01*
X94603404Y-97814852D01*
X94633344Y-97800691D01*
X94664529Y-97789533D01*
X94696657Y-97781485D01*
X94729419Y-97776625D01*
X94762500Y-97775000D01*
X95437500Y-97775000D01*
X95470581Y-97776625D01*
X95470581Y-97776625D01*
G37*
D22*
X95100000Y-98500000D03*
D15*
G36*
X95470581Y-99526625D02*
X95503343Y-99531485D01*
X95535471Y-99539533D01*
X95566656Y-99550691D01*
X95596596Y-99564852D01*
X95625005Y-99581879D01*
X95651608Y-99601609D01*
X95676149Y-99623851D01*
X95698391Y-99648392D01*
X95718121Y-99674995D01*
X95735148Y-99703404D01*
X95749309Y-99733344D01*
X95760467Y-99764529D01*
X95768515Y-99796657D01*
X95773375Y-99829419D01*
X95775000Y-99862500D01*
X95775000Y-100637500D01*
X95773375Y-100670581D01*
X95768515Y-100703343D01*
X95760467Y-100735471D01*
X95749309Y-100766656D01*
X95735148Y-100796596D01*
X95718121Y-100825005D01*
X95698391Y-100851608D01*
X95676149Y-100876149D01*
X95651608Y-100898391D01*
X95625005Y-100918121D01*
X95596596Y-100935148D01*
X95566656Y-100949309D01*
X95535471Y-100960467D01*
X95503343Y-100968515D01*
X95470581Y-100973375D01*
X95437500Y-100975000D01*
X94762500Y-100975000D01*
X94729419Y-100973375D01*
X94696657Y-100968515D01*
X94664529Y-100960467D01*
X94633344Y-100949309D01*
X94603404Y-100935148D01*
X94574995Y-100918121D01*
X94548392Y-100898391D01*
X94523851Y-100876149D01*
X94501609Y-100851608D01*
X94481879Y-100825005D01*
X94464852Y-100796596D01*
X94450691Y-100766656D01*
X94439533Y-100735471D01*
X94431485Y-100703343D01*
X94426625Y-100670581D01*
X94425000Y-100637500D01*
X94425000Y-99862500D01*
X94426625Y-99829419D01*
X94431485Y-99796657D01*
X94439533Y-99764529D01*
X94450691Y-99733344D01*
X94464852Y-99703404D01*
X94481879Y-99674995D01*
X94501609Y-99648392D01*
X94523851Y-99623851D01*
X94548392Y-99601609D01*
X94574995Y-99581879D01*
X94603404Y-99564852D01*
X94633344Y-99550691D01*
X94664529Y-99539533D01*
X94696657Y-99531485D01*
X94729419Y-99526625D01*
X94762500Y-99525000D01*
X95437500Y-99525000D01*
X95470581Y-99526625D01*
X95470581Y-99526625D01*
G37*
D22*
X95100000Y-100250000D03*
G04 #@! TD*
D15*
G04 #@! TO.C,C24*
G36*
X108747726Y-114451473D02*
X108780488Y-114456333D01*
X108812616Y-114464381D01*
X108843801Y-114475539D01*
X108873741Y-114489700D01*
X108902150Y-114506727D01*
X108928753Y-114526457D01*
X108953294Y-114548699D01*
X109501301Y-115096706D01*
X109523543Y-115121247D01*
X109543273Y-115147850D01*
X109560300Y-115176259D01*
X109574461Y-115206199D01*
X109585619Y-115237384D01*
X109593667Y-115269512D01*
X109598527Y-115302274D01*
X109600152Y-115335355D01*
X109598527Y-115368436D01*
X109593667Y-115401198D01*
X109585619Y-115433326D01*
X109574461Y-115464511D01*
X109560300Y-115494451D01*
X109543273Y-115522860D01*
X109523543Y-115549463D01*
X109501301Y-115574004D01*
X109024004Y-116051301D01*
X108999463Y-116073543D01*
X108972860Y-116093273D01*
X108944451Y-116110300D01*
X108914511Y-116124461D01*
X108883326Y-116135619D01*
X108851198Y-116143667D01*
X108818436Y-116148527D01*
X108785355Y-116150152D01*
X108752274Y-116148527D01*
X108719512Y-116143667D01*
X108687384Y-116135619D01*
X108656199Y-116124461D01*
X108626259Y-116110300D01*
X108597850Y-116093273D01*
X108571247Y-116073543D01*
X108546706Y-116051301D01*
X107998699Y-115503294D01*
X107976457Y-115478753D01*
X107956727Y-115452150D01*
X107939700Y-115423741D01*
X107925539Y-115393801D01*
X107914381Y-115362616D01*
X107906333Y-115330488D01*
X107901473Y-115297726D01*
X107899848Y-115264645D01*
X107901473Y-115231564D01*
X107906333Y-115198802D01*
X107914381Y-115166674D01*
X107925539Y-115135489D01*
X107939700Y-115105549D01*
X107956727Y-115077140D01*
X107976457Y-115050537D01*
X107998699Y-115025996D01*
X108475996Y-114548699D01*
X108500537Y-114526457D01*
X108527140Y-114506727D01*
X108555549Y-114489700D01*
X108585489Y-114475539D01*
X108616674Y-114464381D01*
X108648802Y-114456333D01*
X108681564Y-114451473D01*
X108714645Y-114449848D01*
X108747726Y-114451473D01*
X108747726Y-114451473D01*
G37*
D22*
X108750000Y-115300000D03*
D15*
G36*
X109985162Y-115688909D02*
X110017924Y-115693769D01*
X110050052Y-115701817D01*
X110081237Y-115712975D01*
X110111177Y-115727136D01*
X110139586Y-115744163D01*
X110166189Y-115763893D01*
X110190730Y-115786135D01*
X110738737Y-116334142D01*
X110760979Y-116358683D01*
X110780709Y-116385286D01*
X110797736Y-116413695D01*
X110811897Y-116443635D01*
X110823055Y-116474820D01*
X110831103Y-116506948D01*
X110835963Y-116539710D01*
X110837588Y-116572791D01*
X110835963Y-116605872D01*
X110831103Y-116638634D01*
X110823055Y-116670762D01*
X110811897Y-116701947D01*
X110797736Y-116731887D01*
X110780709Y-116760296D01*
X110760979Y-116786899D01*
X110738737Y-116811440D01*
X110261440Y-117288737D01*
X110236899Y-117310979D01*
X110210296Y-117330709D01*
X110181887Y-117347736D01*
X110151947Y-117361897D01*
X110120762Y-117373055D01*
X110088634Y-117381103D01*
X110055872Y-117385963D01*
X110022791Y-117387588D01*
X109989710Y-117385963D01*
X109956948Y-117381103D01*
X109924820Y-117373055D01*
X109893635Y-117361897D01*
X109863695Y-117347736D01*
X109835286Y-117330709D01*
X109808683Y-117310979D01*
X109784142Y-117288737D01*
X109236135Y-116740730D01*
X109213893Y-116716189D01*
X109194163Y-116689586D01*
X109177136Y-116661177D01*
X109162975Y-116631237D01*
X109151817Y-116600052D01*
X109143769Y-116567924D01*
X109138909Y-116535162D01*
X109137284Y-116502081D01*
X109138909Y-116469000D01*
X109143769Y-116436238D01*
X109151817Y-116404110D01*
X109162975Y-116372925D01*
X109177136Y-116342985D01*
X109194163Y-116314576D01*
X109213893Y-116287973D01*
X109236135Y-116263432D01*
X109713432Y-115786135D01*
X109737973Y-115763893D01*
X109764576Y-115744163D01*
X109792985Y-115727136D01*
X109822925Y-115712975D01*
X109854110Y-115701817D01*
X109886238Y-115693769D01*
X109919000Y-115688909D01*
X109952081Y-115687284D01*
X109985162Y-115688909D01*
X109985162Y-115688909D01*
G37*
D22*
X109987436Y-116537436D03*
G04 #@! TD*
D23*
G04 #@! TO.C,C2*
X97600000Y-83700000D03*
X95100000Y-83700000D03*
G04 #@! TD*
D24*
G04 #@! TO.C,C3*
X97200000Y-85700000D03*
X95300000Y-85700000D03*
G04 #@! TD*
G04 #@! TO.C,C4*
X96950000Y-88300000D03*
X98850000Y-88300000D03*
G04 #@! TD*
G04 #@! TO.C,C5*
X108310000Y-88300000D03*
X106410000Y-88300000D03*
G04 #@! TD*
D25*
G04 #@! TO.C,C6*
X99031498Y-105531498D03*
D15*
G36*
X100003770Y-105690597D02*
X99190597Y-106503770D01*
X98059226Y-105372399D01*
X98872399Y-104559226D01*
X100003770Y-105690597D01*
X100003770Y-105690597D01*
G37*
D25*
X100375000Y-106875000D03*
D15*
G36*
X101347272Y-107034099D02*
X100534099Y-107847272D01*
X99402728Y-106715901D01*
X100215901Y-105902728D01*
X101347272Y-107034099D01*
X101347272Y-107034099D01*
G37*
G04 #@! TD*
D24*
G04 #@! TO.C,C7*
X98900000Y-93300000D03*
X97000000Y-93300000D03*
G04 #@! TD*
G04 #@! TO.C,C8*
X108300000Y-93300000D03*
X106400000Y-93300000D03*
G04 #@! TD*
G04 #@! TO.C,C9*
X92249998Y-114750000D03*
X90350000Y-114750000D03*
G04 #@! TD*
G04 #@! TO.C,C10*
X90300002Y-116200000D03*
X92200000Y-116200000D03*
G04 #@! TD*
D26*
G04 #@! TO.C,C11*
X111833883Y-116033883D03*
D15*
G36*
X110578768Y-115945495D02*
X111745495Y-114778768D01*
X113088998Y-116122271D01*
X111922271Y-117288998D01*
X110578768Y-115945495D01*
X110578768Y-115945495D01*
G37*
D26*
X110066117Y-114266117D03*
D15*
G36*
X108811002Y-114177729D02*
X109977729Y-113011002D01*
X111321232Y-114354505D01*
X110154505Y-115521232D01*
X108811002Y-114177729D01*
X108811002Y-114177729D01*
G37*
G04 #@! TD*
D27*
G04 #@! TO.C,C12*
X111050000Y-103750000D03*
X111050000Y-106250000D03*
G04 #@! TD*
D25*
G04 #@! TO.C,C13*
X108121751Y-118571751D03*
D15*
G36*
X107149479Y-118412652D02*
X107962652Y-117599479D01*
X109094023Y-118730850D01*
X108280850Y-119544023D01*
X107149479Y-118412652D01*
X107149479Y-118412652D01*
G37*
D25*
X106778249Y-117228249D03*
D15*
G36*
X105805977Y-117069150D02*
X106619150Y-116255977D01*
X107750521Y-117387348D01*
X106937348Y-118200521D01*
X105805977Y-117069150D01*
X105805977Y-117069150D01*
G37*
G04 #@! TD*
D23*
G04 #@! TO.C,C14*
X108550000Y-108600000D03*
X111050000Y-108600000D03*
G04 #@! TD*
D25*
G04 #@! TO.C,C16*
X107728249Y-116278249D03*
D15*
G36*
X106755977Y-116119150D02*
X107569150Y-115305977D01*
X108700521Y-116437348D01*
X107887348Y-117250521D01*
X106755977Y-116119150D01*
X106755977Y-116119150D01*
G37*
D25*
X109071751Y-117621751D03*
D15*
G36*
X108099479Y-117462652D02*
X108912652Y-116649479D01*
X110044023Y-117780850D01*
X109230850Y-118594023D01*
X108099479Y-117462652D01*
X108099479Y-117462652D01*
G37*
G04 #@! TD*
D25*
G04 #@! TO.C,C17*
X102906498Y-104006498D03*
D15*
G36*
X101934226Y-103847399D02*
X102747399Y-103034226D01*
X103878770Y-104165597D01*
X103065597Y-104978770D01*
X101934226Y-103847399D01*
X101934226Y-103847399D01*
G37*
D25*
X104250000Y-105350000D03*
D15*
G36*
X103277728Y-105190901D02*
X104090901Y-104377728D01*
X105222272Y-105509099D01*
X104409099Y-106322272D01*
X103277728Y-105190901D01*
X103277728Y-105190901D01*
G37*
G04 #@! TD*
D25*
G04 #@! TO.C,C19*
X107171751Y-119521751D03*
D15*
G36*
X106199479Y-119362652D02*
X107012652Y-118549479D01*
X108144023Y-119680850D01*
X107330850Y-120494023D01*
X106199479Y-119362652D01*
X106199479Y-119362652D01*
G37*
D25*
X105828249Y-118178249D03*
D15*
G36*
X104855977Y-118019150D02*
X105669150Y-117205977D01*
X106800521Y-118337348D01*
X105987348Y-119150521D01*
X104855977Y-118019150D01*
X104855977Y-118019150D01*
G37*
G04 #@! TD*
D25*
G04 #@! TO.C,C20*
X103250000Y-106350000D03*
D15*
G36*
X102277728Y-106190901D02*
X103090901Y-105377728D01*
X104222272Y-106509099D01*
X103409099Y-107322272D01*
X102277728Y-106190901D01*
X102277728Y-106190901D01*
G37*
D25*
X101906498Y-105006498D03*
D15*
G36*
X100934226Y-104847399D02*
X101747399Y-104034226D01*
X102878770Y-105165597D01*
X102065597Y-105978770D01*
X100934226Y-104847399D01*
X100934226Y-104847399D01*
G37*
G04 #@! TD*
D24*
G04 #@! TO.C,C21*
X100550000Y-120550000D03*
X102450000Y-120550000D03*
G04 #@! TD*
G04 #@! TO.C,C22*
X102500000Y-124050000D03*
X100600000Y-124050000D03*
G04 #@! TD*
G04 #@! TO.C,C23*
X108450000Y-110200000D03*
X110350000Y-110200000D03*
G04 #@! TD*
D15*
G04 #@! TO.C,D1*
G36*
X101627346Y-84376589D02*
X101659380Y-84381341D01*
X101690794Y-84389210D01*
X101721286Y-84400120D01*
X101750561Y-84413966D01*
X101778338Y-84430615D01*
X101804350Y-84449907D01*
X101828345Y-84471655D01*
X101850093Y-84495650D01*
X101869385Y-84521662D01*
X101886034Y-84549439D01*
X101899880Y-84578714D01*
X101910790Y-84609206D01*
X101918659Y-84640620D01*
X101923411Y-84672654D01*
X101925000Y-84705000D01*
X101925000Y-87095000D01*
X101923411Y-87127346D01*
X101918659Y-87159380D01*
X101910790Y-87190794D01*
X101899880Y-87221286D01*
X101886034Y-87250561D01*
X101869385Y-87278338D01*
X101850093Y-87304350D01*
X101828345Y-87328345D01*
X101804350Y-87350093D01*
X101778338Y-87369385D01*
X101750561Y-87386034D01*
X101721286Y-87399880D01*
X101690794Y-87410790D01*
X101659380Y-87418659D01*
X101627346Y-87423411D01*
X101595000Y-87425000D01*
X100605000Y-87425000D01*
X100572654Y-87423411D01*
X100540620Y-87418659D01*
X100509206Y-87410790D01*
X100478714Y-87399880D01*
X100449439Y-87386034D01*
X100421662Y-87369385D01*
X100395650Y-87350093D01*
X100371655Y-87328345D01*
X100349907Y-87304350D01*
X100330615Y-87278338D01*
X100313966Y-87250561D01*
X100300120Y-87221286D01*
X100289210Y-87190794D01*
X100281341Y-87159380D01*
X100276589Y-87127346D01*
X100275000Y-87095000D01*
X100275000Y-84705000D01*
X100276589Y-84672654D01*
X100281341Y-84640620D01*
X100289210Y-84609206D01*
X100300120Y-84578714D01*
X100313966Y-84549439D01*
X100330615Y-84521662D01*
X100349907Y-84495650D01*
X100371655Y-84471655D01*
X100395650Y-84449907D01*
X100421662Y-84430615D01*
X100449439Y-84413966D01*
X100478714Y-84400120D01*
X100509206Y-84389210D01*
X100540620Y-84381341D01*
X100572654Y-84376589D01*
X100605000Y-84375000D01*
X101595000Y-84375000D01*
X101627346Y-84376589D01*
X101627346Y-84376589D01*
G37*
D26*
X101100000Y-85900000D03*
D15*
G36*
X104427346Y-84376589D02*
X104459380Y-84381341D01*
X104490794Y-84389210D01*
X104521286Y-84400120D01*
X104550561Y-84413966D01*
X104578338Y-84430615D01*
X104604350Y-84449907D01*
X104628345Y-84471655D01*
X104650093Y-84495650D01*
X104669385Y-84521662D01*
X104686034Y-84549439D01*
X104699880Y-84578714D01*
X104710790Y-84609206D01*
X104718659Y-84640620D01*
X104723411Y-84672654D01*
X104725000Y-84705000D01*
X104725000Y-87095000D01*
X104723411Y-87127346D01*
X104718659Y-87159380D01*
X104710790Y-87190794D01*
X104699880Y-87221286D01*
X104686034Y-87250561D01*
X104669385Y-87278338D01*
X104650093Y-87304350D01*
X104628345Y-87328345D01*
X104604350Y-87350093D01*
X104578338Y-87369385D01*
X104550561Y-87386034D01*
X104521286Y-87399880D01*
X104490794Y-87410790D01*
X104459380Y-87418659D01*
X104427346Y-87423411D01*
X104395000Y-87425000D01*
X103405000Y-87425000D01*
X103372654Y-87423411D01*
X103340620Y-87418659D01*
X103309206Y-87410790D01*
X103278714Y-87399880D01*
X103249439Y-87386034D01*
X103221662Y-87369385D01*
X103195650Y-87350093D01*
X103171655Y-87328345D01*
X103149907Y-87304350D01*
X103130615Y-87278338D01*
X103113966Y-87250561D01*
X103100120Y-87221286D01*
X103089210Y-87190794D01*
X103081341Y-87159380D01*
X103076589Y-87127346D01*
X103075000Y-87095000D01*
X103075000Y-84705000D01*
X103076589Y-84672654D01*
X103081341Y-84640620D01*
X103089210Y-84609206D01*
X103100120Y-84578714D01*
X103113966Y-84549439D01*
X103130615Y-84521662D01*
X103149907Y-84495650D01*
X103171655Y-84471655D01*
X103195650Y-84449907D01*
X103221662Y-84430615D01*
X103249439Y-84413966D01*
X103278714Y-84400120D01*
X103309206Y-84389210D01*
X103340620Y-84381341D01*
X103372654Y-84376589D01*
X103405000Y-84375000D01*
X104395000Y-84375000D01*
X104427346Y-84376589D01*
X104427346Y-84376589D01*
G37*
D26*
X103900000Y-85900000D03*
G04 #@! TD*
D15*
G04 #@! TO.C,D2*
G36*
X107871071Y-94601623D02*
X107903781Y-94606475D01*
X107935857Y-94614509D01*
X107966991Y-94625649D01*
X107996884Y-94639787D01*
X108025247Y-94656787D01*
X108051807Y-94676485D01*
X108076308Y-94698692D01*
X108098515Y-94723193D01*
X108118213Y-94749753D01*
X108135213Y-94778116D01*
X108149351Y-94808009D01*
X108160491Y-94839143D01*
X108168525Y-94871219D01*
X108173377Y-94903929D01*
X108175000Y-94936956D01*
X108175000Y-96063044D01*
X108173377Y-96096071D01*
X108168525Y-96128781D01*
X108160491Y-96160857D01*
X108149351Y-96191991D01*
X108135213Y-96221884D01*
X108118213Y-96250247D01*
X108098515Y-96276807D01*
X108076308Y-96301308D01*
X108051807Y-96323515D01*
X108025247Y-96343213D01*
X107996884Y-96360213D01*
X107966991Y-96374351D01*
X107935857Y-96385491D01*
X107903781Y-96393525D01*
X107871071Y-96398377D01*
X107838044Y-96400000D01*
X106961956Y-96400000D01*
X106928929Y-96398377D01*
X106896219Y-96393525D01*
X106864143Y-96385491D01*
X106833009Y-96374351D01*
X106803116Y-96360213D01*
X106774753Y-96343213D01*
X106748193Y-96323515D01*
X106723692Y-96301308D01*
X106701485Y-96276807D01*
X106681787Y-96250247D01*
X106664787Y-96221884D01*
X106650649Y-96191991D01*
X106639509Y-96160857D01*
X106631475Y-96128781D01*
X106626623Y-96096071D01*
X106625000Y-96063044D01*
X106625000Y-94936956D01*
X106626623Y-94903929D01*
X106631475Y-94871219D01*
X106639509Y-94839143D01*
X106650649Y-94808009D01*
X106664787Y-94778116D01*
X106681787Y-94749753D01*
X106701485Y-94723193D01*
X106723692Y-94698692D01*
X106748193Y-94676485D01*
X106774753Y-94656787D01*
X106803116Y-94639787D01*
X106833009Y-94625649D01*
X106864143Y-94614509D01*
X106896219Y-94606475D01*
X106928929Y-94601623D01*
X106961956Y-94600000D01*
X107838044Y-94600000D01*
X107871071Y-94601623D01*
X107871071Y-94601623D01*
G37*
D28*
X107400000Y-95500000D03*
D15*
G36*
X109921071Y-94601623D02*
X109953781Y-94606475D01*
X109985857Y-94614509D01*
X110016991Y-94625649D01*
X110046884Y-94639787D01*
X110075247Y-94656787D01*
X110101807Y-94676485D01*
X110126308Y-94698692D01*
X110148515Y-94723193D01*
X110168213Y-94749753D01*
X110185213Y-94778116D01*
X110199351Y-94808009D01*
X110210491Y-94839143D01*
X110218525Y-94871219D01*
X110223377Y-94903929D01*
X110225000Y-94936956D01*
X110225000Y-96063044D01*
X110223377Y-96096071D01*
X110218525Y-96128781D01*
X110210491Y-96160857D01*
X110199351Y-96191991D01*
X110185213Y-96221884D01*
X110168213Y-96250247D01*
X110148515Y-96276807D01*
X110126308Y-96301308D01*
X110101807Y-96323515D01*
X110075247Y-96343213D01*
X110046884Y-96360213D01*
X110016991Y-96374351D01*
X109985857Y-96385491D01*
X109953781Y-96393525D01*
X109921071Y-96398377D01*
X109888044Y-96400000D01*
X109011956Y-96400000D01*
X108978929Y-96398377D01*
X108946219Y-96393525D01*
X108914143Y-96385491D01*
X108883009Y-96374351D01*
X108853116Y-96360213D01*
X108824753Y-96343213D01*
X108798193Y-96323515D01*
X108773692Y-96301308D01*
X108751485Y-96276807D01*
X108731787Y-96250247D01*
X108714787Y-96221884D01*
X108700649Y-96191991D01*
X108689509Y-96160857D01*
X108681475Y-96128781D01*
X108676623Y-96096071D01*
X108675000Y-96063044D01*
X108675000Y-94936956D01*
X108676623Y-94903929D01*
X108681475Y-94871219D01*
X108689509Y-94839143D01*
X108700649Y-94808009D01*
X108714787Y-94778116D01*
X108731787Y-94749753D01*
X108751485Y-94723193D01*
X108773692Y-94698692D01*
X108798193Y-94676485D01*
X108824753Y-94656787D01*
X108853116Y-94639787D01*
X108883009Y-94625649D01*
X108914143Y-94614509D01*
X108946219Y-94606475D01*
X108978929Y-94601623D01*
X109011956Y-94600000D01*
X109888044Y-94600000D01*
X109921071Y-94601623D01*
X109921071Y-94601623D01*
G37*
D28*
X109450000Y-95500000D03*
G04 #@! TD*
D15*
G04 #@! TO.C,D3*
G36*
X109921071Y-100101623D02*
X109953781Y-100106475D01*
X109985857Y-100114509D01*
X110016991Y-100125649D01*
X110046884Y-100139787D01*
X110075247Y-100156787D01*
X110101807Y-100176485D01*
X110126308Y-100198692D01*
X110148515Y-100223193D01*
X110168213Y-100249753D01*
X110185213Y-100278116D01*
X110199351Y-100308009D01*
X110210491Y-100339143D01*
X110218525Y-100371219D01*
X110223377Y-100403929D01*
X110225000Y-100436956D01*
X110225000Y-101563044D01*
X110223377Y-101596071D01*
X110218525Y-101628781D01*
X110210491Y-101660857D01*
X110199351Y-101691991D01*
X110185213Y-101721884D01*
X110168213Y-101750247D01*
X110148515Y-101776807D01*
X110126308Y-101801308D01*
X110101807Y-101823515D01*
X110075247Y-101843213D01*
X110046884Y-101860213D01*
X110016991Y-101874351D01*
X109985857Y-101885491D01*
X109953781Y-101893525D01*
X109921071Y-101898377D01*
X109888044Y-101900000D01*
X109011956Y-101900000D01*
X108978929Y-101898377D01*
X108946219Y-101893525D01*
X108914143Y-101885491D01*
X108883009Y-101874351D01*
X108853116Y-101860213D01*
X108824753Y-101843213D01*
X108798193Y-101823515D01*
X108773692Y-101801308D01*
X108751485Y-101776807D01*
X108731787Y-101750247D01*
X108714787Y-101721884D01*
X108700649Y-101691991D01*
X108689509Y-101660857D01*
X108681475Y-101628781D01*
X108676623Y-101596071D01*
X108675000Y-101563044D01*
X108675000Y-100436956D01*
X108676623Y-100403929D01*
X108681475Y-100371219D01*
X108689509Y-100339143D01*
X108700649Y-100308009D01*
X108714787Y-100278116D01*
X108731787Y-100249753D01*
X108751485Y-100223193D01*
X108773692Y-100198692D01*
X108798193Y-100176485D01*
X108824753Y-100156787D01*
X108853116Y-100139787D01*
X108883009Y-100125649D01*
X108914143Y-100114509D01*
X108946219Y-100106475D01*
X108978929Y-100101623D01*
X109011956Y-100100000D01*
X109888044Y-100100000D01*
X109921071Y-100101623D01*
X109921071Y-100101623D01*
G37*
D28*
X109450000Y-101000000D03*
D15*
G36*
X107871071Y-100101623D02*
X107903781Y-100106475D01*
X107935857Y-100114509D01*
X107966991Y-100125649D01*
X107996884Y-100139787D01*
X108025247Y-100156787D01*
X108051807Y-100176485D01*
X108076308Y-100198692D01*
X108098515Y-100223193D01*
X108118213Y-100249753D01*
X108135213Y-100278116D01*
X108149351Y-100308009D01*
X108160491Y-100339143D01*
X108168525Y-100371219D01*
X108173377Y-100403929D01*
X108175000Y-100436956D01*
X108175000Y-101563044D01*
X108173377Y-101596071D01*
X108168525Y-101628781D01*
X108160491Y-101660857D01*
X108149351Y-101691991D01*
X108135213Y-101721884D01*
X108118213Y-101750247D01*
X108098515Y-101776807D01*
X108076308Y-101801308D01*
X108051807Y-101823515D01*
X108025247Y-101843213D01*
X107996884Y-101860213D01*
X107966991Y-101874351D01*
X107935857Y-101885491D01*
X107903781Y-101893525D01*
X107871071Y-101898377D01*
X107838044Y-101900000D01*
X106961956Y-101900000D01*
X106928929Y-101898377D01*
X106896219Y-101893525D01*
X106864143Y-101885491D01*
X106833009Y-101874351D01*
X106803116Y-101860213D01*
X106774753Y-101843213D01*
X106748193Y-101823515D01*
X106723692Y-101801308D01*
X106701485Y-101776807D01*
X106681787Y-101750247D01*
X106664787Y-101721884D01*
X106650649Y-101691991D01*
X106639509Y-101660857D01*
X106631475Y-101628781D01*
X106626623Y-101596071D01*
X106625000Y-101563044D01*
X106625000Y-100436956D01*
X106626623Y-100403929D01*
X106631475Y-100371219D01*
X106639509Y-100339143D01*
X106650649Y-100308009D01*
X106664787Y-100278116D01*
X106681787Y-100249753D01*
X106701485Y-100223193D01*
X106723692Y-100198692D01*
X106748193Y-100176485D01*
X106774753Y-100156787D01*
X106803116Y-100139787D01*
X106833009Y-100125649D01*
X106864143Y-100114509D01*
X106896219Y-100106475D01*
X106928929Y-100101623D01*
X106961956Y-100100000D01*
X107838044Y-100100000D01*
X107871071Y-100101623D01*
X107871071Y-100101623D01*
G37*
D28*
X107400000Y-101000000D03*
G04 #@! TD*
D29*
G04 #@! TO.C,D4*
X101400000Y-93300000D03*
X101400000Y-91200000D03*
G04 #@! TD*
D30*
G04 #@! TO.C,J1*
X100750000Y-82400000D03*
X109400000Y-82400000D03*
X109400000Y-78220000D03*
X100750000Y-78220000D03*
D31*
X102185000Y-81900000D03*
D32*
X104825000Y-82970000D03*
X105325000Y-82970000D03*
X105825000Y-82970000D03*
X104325000Y-82970000D03*
X106325000Y-82970000D03*
X106825000Y-82970000D03*
X103825000Y-82970000D03*
X103325000Y-82970000D03*
D31*
X107965000Y-81900000D03*
D32*
X107575000Y-82970000D03*
X107325000Y-82970000D03*
X108125000Y-82970000D03*
X108425000Y-82970000D03*
X102825000Y-82970000D03*
X102525000Y-82970000D03*
X102025000Y-82970000D03*
X101725000Y-82970000D03*
G04 #@! TD*
D18*
G04 #@! TO.C,J3*
X90700000Y-78850000D03*
D19*
X90700000Y-81390000D03*
X90700000Y-83930000D03*
X90700000Y-86470000D03*
X90700000Y-89010000D03*
X90700000Y-91550000D03*
X90700000Y-94090000D03*
X90700000Y-96630000D03*
X90700000Y-99170000D03*
X90700000Y-101710000D03*
X90700000Y-104250000D03*
X90700000Y-106790000D03*
X90700000Y-109330000D03*
X90700000Y-111870000D03*
G04 #@! TD*
D15*
G04 #@! TO.C,L1*
G36*
X106427346Y-84376589D02*
X106459380Y-84381341D01*
X106490794Y-84389210D01*
X106521286Y-84400120D01*
X106550561Y-84413966D01*
X106578338Y-84430615D01*
X106604350Y-84449907D01*
X106628345Y-84471655D01*
X106650093Y-84495650D01*
X106669385Y-84521662D01*
X106686034Y-84549439D01*
X106699880Y-84578714D01*
X106710790Y-84609206D01*
X106718659Y-84640620D01*
X106723411Y-84672654D01*
X106725000Y-84705000D01*
X106725000Y-87095000D01*
X106723411Y-87127346D01*
X106718659Y-87159380D01*
X106710790Y-87190794D01*
X106699880Y-87221286D01*
X106686034Y-87250561D01*
X106669385Y-87278338D01*
X106650093Y-87304350D01*
X106628345Y-87328345D01*
X106604350Y-87350093D01*
X106578338Y-87369385D01*
X106550561Y-87386034D01*
X106521286Y-87399880D01*
X106490794Y-87410790D01*
X106459380Y-87418659D01*
X106427346Y-87423411D01*
X106395000Y-87425000D01*
X105405000Y-87425000D01*
X105372654Y-87423411D01*
X105340620Y-87418659D01*
X105309206Y-87410790D01*
X105278714Y-87399880D01*
X105249439Y-87386034D01*
X105221662Y-87369385D01*
X105195650Y-87350093D01*
X105171655Y-87328345D01*
X105149907Y-87304350D01*
X105130615Y-87278338D01*
X105113966Y-87250561D01*
X105100120Y-87221286D01*
X105089210Y-87190794D01*
X105081341Y-87159380D01*
X105076589Y-87127346D01*
X105075000Y-87095000D01*
X105075000Y-84705000D01*
X105076589Y-84672654D01*
X105081341Y-84640620D01*
X105089210Y-84609206D01*
X105100120Y-84578714D01*
X105113966Y-84549439D01*
X105130615Y-84521662D01*
X105149907Y-84495650D01*
X105171655Y-84471655D01*
X105195650Y-84449907D01*
X105221662Y-84430615D01*
X105249439Y-84413966D01*
X105278714Y-84400120D01*
X105309206Y-84389210D01*
X105340620Y-84381341D01*
X105372654Y-84376589D01*
X105405000Y-84375000D01*
X106395000Y-84375000D01*
X106427346Y-84376589D01*
X106427346Y-84376589D01*
G37*
D26*
X105900000Y-85900000D03*
D15*
G36*
X109227346Y-84376589D02*
X109259380Y-84381341D01*
X109290794Y-84389210D01*
X109321286Y-84400120D01*
X109350561Y-84413966D01*
X109378338Y-84430615D01*
X109404350Y-84449907D01*
X109428345Y-84471655D01*
X109450093Y-84495650D01*
X109469385Y-84521662D01*
X109486034Y-84549439D01*
X109499880Y-84578714D01*
X109510790Y-84609206D01*
X109518659Y-84640620D01*
X109523411Y-84672654D01*
X109525000Y-84705000D01*
X109525000Y-87095000D01*
X109523411Y-87127346D01*
X109518659Y-87159380D01*
X109510790Y-87190794D01*
X109499880Y-87221286D01*
X109486034Y-87250561D01*
X109469385Y-87278338D01*
X109450093Y-87304350D01*
X109428345Y-87328345D01*
X109404350Y-87350093D01*
X109378338Y-87369385D01*
X109350561Y-87386034D01*
X109321286Y-87399880D01*
X109290794Y-87410790D01*
X109259380Y-87418659D01*
X109227346Y-87423411D01*
X109195000Y-87425000D01*
X108205000Y-87425000D01*
X108172654Y-87423411D01*
X108140620Y-87418659D01*
X108109206Y-87410790D01*
X108078714Y-87399880D01*
X108049439Y-87386034D01*
X108021662Y-87369385D01*
X107995650Y-87350093D01*
X107971655Y-87328345D01*
X107949907Y-87304350D01*
X107930615Y-87278338D01*
X107913966Y-87250561D01*
X107900120Y-87221286D01*
X107889210Y-87190794D01*
X107881341Y-87159380D01*
X107876589Y-87127346D01*
X107875000Y-87095000D01*
X107875000Y-84705000D01*
X107876589Y-84672654D01*
X107881341Y-84640620D01*
X107889210Y-84609206D01*
X107900120Y-84578714D01*
X107913966Y-84549439D01*
X107930615Y-84521662D01*
X107949907Y-84495650D01*
X107971655Y-84471655D01*
X107995650Y-84449907D01*
X108021662Y-84430615D01*
X108049439Y-84413966D01*
X108078714Y-84400120D01*
X108109206Y-84389210D01*
X108140620Y-84381341D01*
X108172654Y-84376589D01*
X108205000Y-84375000D01*
X109195000Y-84375000D01*
X109227346Y-84376589D01*
X109227346Y-84376589D01*
G37*
D26*
X108700000Y-85900000D03*
G04 #@! TD*
D15*
G04 #@! TO.C,L2*
G36*
X102574993Y-121626535D02*
X102605935Y-121631125D01*
X102636278Y-121638725D01*
X102665730Y-121649263D01*
X102694008Y-121662638D01*
X102720838Y-121678719D01*
X102745963Y-121697353D01*
X102769140Y-121718360D01*
X102790147Y-121741537D01*
X102808781Y-121766662D01*
X102824862Y-121793492D01*
X102838237Y-121821770D01*
X102848775Y-121851222D01*
X102856375Y-121881565D01*
X102860965Y-121912507D01*
X102862500Y-121943750D01*
X102862500Y-122656250D01*
X102860965Y-122687493D01*
X102856375Y-122718435D01*
X102848775Y-122748778D01*
X102838237Y-122778230D01*
X102824862Y-122806508D01*
X102808781Y-122833338D01*
X102790147Y-122858463D01*
X102769140Y-122881640D01*
X102745963Y-122902647D01*
X102720838Y-122921281D01*
X102694008Y-122937362D01*
X102665730Y-122950737D01*
X102636278Y-122961275D01*
X102605935Y-122968875D01*
X102574993Y-122973465D01*
X102543750Y-122975000D01*
X101906250Y-122975000D01*
X101875007Y-122973465D01*
X101844065Y-122968875D01*
X101813722Y-122961275D01*
X101784270Y-122950737D01*
X101755992Y-122937362D01*
X101729162Y-122921281D01*
X101704037Y-122902647D01*
X101680860Y-122881640D01*
X101659853Y-122858463D01*
X101641219Y-122833338D01*
X101625138Y-122806508D01*
X101611763Y-122778230D01*
X101601225Y-122748778D01*
X101593625Y-122718435D01*
X101589035Y-122687493D01*
X101587500Y-122656250D01*
X101587500Y-121943750D01*
X101589035Y-121912507D01*
X101593625Y-121881565D01*
X101601225Y-121851222D01*
X101611763Y-121821770D01*
X101625138Y-121793492D01*
X101641219Y-121766662D01*
X101659853Y-121741537D01*
X101680860Y-121718360D01*
X101704037Y-121697353D01*
X101729162Y-121678719D01*
X101755992Y-121662638D01*
X101784270Y-121649263D01*
X101813722Y-121638725D01*
X101844065Y-121631125D01*
X101875007Y-121626535D01*
X101906250Y-121625000D01*
X102543750Y-121625000D01*
X102574993Y-121626535D01*
X102574993Y-121626535D01*
G37*
D33*
X102225000Y-122300000D03*
D15*
G36*
X100999993Y-121626535D02*
X101030935Y-121631125D01*
X101061278Y-121638725D01*
X101090730Y-121649263D01*
X101119008Y-121662638D01*
X101145838Y-121678719D01*
X101170963Y-121697353D01*
X101194140Y-121718360D01*
X101215147Y-121741537D01*
X101233781Y-121766662D01*
X101249862Y-121793492D01*
X101263237Y-121821770D01*
X101273775Y-121851222D01*
X101281375Y-121881565D01*
X101285965Y-121912507D01*
X101287500Y-121943750D01*
X101287500Y-122656250D01*
X101285965Y-122687493D01*
X101281375Y-122718435D01*
X101273775Y-122748778D01*
X101263237Y-122778230D01*
X101249862Y-122806508D01*
X101233781Y-122833338D01*
X101215147Y-122858463D01*
X101194140Y-122881640D01*
X101170963Y-122902647D01*
X101145838Y-122921281D01*
X101119008Y-122937362D01*
X101090730Y-122950737D01*
X101061278Y-122961275D01*
X101030935Y-122968875D01*
X100999993Y-122973465D01*
X100968750Y-122975000D01*
X100331250Y-122975000D01*
X100300007Y-122973465D01*
X100269065Y-122968875D01*
X100238722Y-122961275D01*
X100209270Y-122950737D01*
X100180992Y-122937362D01*
X100154162Y-122921281D01*
X100129037Y-122902647D01*
X100105860Y-122881640D01*
X100084853Y-122858463D01*
X100066219Y-122833338D01*
X100050138Y-122806508D01*
X100036763Y-122778230D01*
X100026225Y-122748778D01*
X100018625Y-122718435D01*
X100014035Y-122687493D01*
X100012500Y-122656250D01*
X100012500Y-121943750D01*
X100014035Y-121912507D01*
X100018625Y-121881565D01*
X100026225Y-121851222D01*
X100036763Y-121821770D01*
X100050138Y-121793492D01*
X100066219Y-121766662D01*
X100084853Y-121741537D01*
X100105860Y-121718360D01*
X100129037Y-121697353D01*
X100154162Y-121678719D01*
X100180992Y-121662638D01*
X100209270Y-121649263D01*
X100238722Y-121638725D01*
X100269065Y-121631125D01*
X100300007Y-121626535D01*
X100331250Y-121625000D01*
X100968750Y-121625000D01*
X100999993Y-121626535D01*
X100999993Y-121626535D01*
G37*
D33*
X100650000Y-122300000D03*
G04 #@! TD*
D15*
G04 #@! TO.C,R1*
G36*
X111870581Y-79676625D02*
X111903343Y-79681485D01*
X111935471Y-79689533D01*
X111966656Y-79700691D01*
X111996596Y-79714852D01*
X112025005Y-79731879D01*
X112051608Y-79751609D01*
X112076149Y-79773851D01*
X112098391Y-79798392D01*
X112118121Y-79824995D01*
X112135148Y-79853404D01*
X112149309Y-79883344D01*
X112160467Y-79914529D01*
X112168515Y-79946657D01*
X112173375Y-79979419D01*
X112175000Y-80012500D01*
X112175000Y-80787500D01*
X112173375Y-80820581D01*
X112168515Y-80853343D01*
X112160467Y-80885471D01*
X112149309Y-80916656D01*
X112135148Y-80946596D01*
X112118121Y-80975005D01*
X112098391Y-81001608D01*
X112076149Y-81026149D01*
X112051608Y-81048391D01*
X112025005Y-81068121D01*
X111996596Y-81085148D01*
X111966656Y-81099309D01*
X111935471Y-81110467D01*
X111903343Y-81118515D01*
X111870581Y-81123375D01*
X111837500Y-81125000D01*
X111162500Y-81125000D01*
X111129419Y-81123375D01*
X111096657Y-81118515D01*
X111064529Y-81110467D01*
X111033344Y-81099309D01*
X111003404Y-81085148D01*
X110974995Y-81068121D01*
X110948392Y-81048391D01*
X110923851Y-81026149D01*
X110901609Y-81001608D01*
X110881879Y-80975005D01*
X110864852Y-80946596D01*
X110850691Y-80916656D01*
X110839533Y-80885471D01*
X110831485Y-80853343D01*
X110826625Y-80820581D01*
X110825000Y-80787500D01*
X110825000Y-80012500D01*
X110826625Y-79979419D01*
X110831485Y-79946657D01*
X110839533Y-79914529D01*
X110850691Y-79883344D01*
X110864852Y-79853404D01*
X110881879Y-79824995D01*
X110901609Y-79798392D01*
X110923851Y-79773851D01*
X110948392Y-79751609D01*
X110974995Y-79731879D01*
X111003404Y-79714852D01*
X111033344Y-79700691D01*
X111064529Y-79689533D01*
X111096657Y-79681485D01*
X111129419Y-79676625D01*
X111162500Y-79675000D01*
X111837500Y-79675000D01*
X111870581Y-79676625D01*
X111870581Y-79676625D01*
G37*
D22*
X111500000Y-80400000D03*
D15*
G36*
X111870581Y-81426625D02*
X111903343Y-81431485D01*
X111935471Y-81439533D01*
X111966656Y-81450691D01*
X111996596Y-81464852D01*
X112025005Y-81481879D01*
X112051608Y-81501609D01*
X112076149Y-81523851D01*
X112098391Y-81548392D01*
X112118121Y-81574995D01*
X112135148Y-81603404D01*
X112149309Y-81633344D01*
X112160467Y-81664529D01*
X112168515Y-81696657D01*
X112173375Y-81729419D01*
X112175000Y-81762500D01*
X112175000Y-82537500D01*
X112173375Y-82570581D01*
X112168515Y-82603343D01*
X112160467Y-82635471D01*
X112149309Y-82666656D01*
X112135148Y-82696596D01*
X112118121Y-82725005D01*
X112098391Y-82751608D01*
X112076149Y-82776149D01*
X112051608Y-82798391D01*
X112025005Y-82818121D01*
X111996596Y-82835148D01*
X111966656Y-82849309D01*
X111935471Y-82860467D01*
X111903343Y-82868515D01*
X111870581Y-82873375D01*
X111837500Y-82875000D01*
X111162500Y-82875000D01*
X111129419Y-82873375D01*
X111096657Y-82868515D01*
X111064529Y-82860467D01*
X111033344Y-82849309D01*
X111003404Y-82835148D01*
X110974995Y-82818121D01*
X110948392Y-82798391D01*
X110923851Y-82776149D01*
X110901609Y-82751608D01*
X110881879Y-82725005D01*
X110864852Y-82696596D01*
X110850691Y-82666656D01*
X110839533Y-82635471D01*
X110831485Y-82603343D01*
X110826625Y-82570581D01*
X110825000Y-82537500D01*
X110825000Y-81762500D01*
X110826625Y-81729419D01*
X110831485Y-81696657D01*
X110839533Y-81664529D01*
X110850691Y-81633344D01*
X110864852Y-81603404D01*
X110881879Y-81574995D01*
X110901609Y-81548392D01*
X110923851Y-81523851D01*
X110948392Y-81501609D01*
X110974995Y-81481879D01*
X111003404Y-81464852D01*
X111033344Y-81450691D01*
X111064529Y-81439533D01*
X111096657Y-81431485D01*
X111129419Y-81426625D01*
X111162500Y-81425000D01*
X111837500Y-81425000D01*
X111870581Y-81426625D01*
X111870581Y-81426625D01*
G37*
D22*
X111500000Y-82150000D03*
G04 #@! TD*
D15*
G04 #@! TO.C,R2*
G36*
X113520581Y-81451625D02*
X113553343Y-81456485D01*
X113585471Y-81464533D01*
X113616656Y-81475691D01*
X113646596Y-81489852D01*
X113675005Y-81506879D01*
X113701608Y-81526609D01*
X113726149Y-81548851D01*
X113748391Y-81573392D01*
X113768121Y-81599995D01*
X113785148Y-81628404D01*
X113799309Y-81658344D01*
X113810467Y-81689529D01*
X113818515Y-81721657D01*
X113823375Y-81754419D01*
X113825000Y-81787500D01*
X113825000Y-82562500D01*
X113823375Y-82595581D01*
X113818515Y-82628343D01*
X113810467Y-82660471D01*
X113799309Y-82691656D01*
X113785148Y-82721596D01*
X113768121Y-82750005D01*
X113748391Y-82776608D01*
X113726149Y-82801149D01*
X113701608Y-82823391D01*
X113675005Y-82843121D01*
X113646596Y-82860148D01*
X113616656Y-82874309D01*
X113585471Y-82885467D01*
X113553343Y-82893515D01*
X113520581Y-82898375D01*
X113487500Y-82900000D01*
X112812500Y-82900000D01*
X112779419Y-82898375D01*
X112746657Y-82893515D01*
X112714529Y-82885467D01*
X112683344Y-82874309D01*
X112653404Y-82860148D01*
X112624995Y-82843121D01*
X112598392Y-82823391D01*
X112573851Y-82801149D01*
X112551609Y-82776608D01*
X112531879Y-82750005D01*
X112514852Y-82721596D01*
X112500691Y-82691656D01*
X112489533Y-82660471D01*
X112481485Y-82628343D01*
X112476625Y-82595581D01*
X112475000Y-82562500D01*
X112475000Y-81787500D01*
X112476625Y-81754419D01*
X112481485Y-81721657D01*
X112489533Y-81689529D01*
X112500691Y-81658344D01*
X112514852Y-81628404D01*
X112531879Y-81599995D01*
X112551609Y-81573392D01*
X112573851Y-81548851D01*
X112598392Y-81526609D01*
X112624995Y-81506879D01*
X112653404Y-81489852D01*
X112683344Y-81475691D01*
X112714529Y-81464533D01*
X112746657Y-81456485D01*
X112779419Y-81451625D01*
X112812500Y-81450000D01*
X113487500Y-81450000D01*
X113520581Y-81451625D01*
X113520581Y-81451625D01*
G37*
D22*
X113150000Y-82175000D03*
D15*
G36*
X113520581Y-79701625D02*
X113553343Y-79706485D01*
X113585471Y-79714533D01*
X113616656Y-79725691D01*
X113646596Y-79739852D01*
X113675005Y-79756879D01*
X113701608Y-79776609D01*
X113726149Y-79798851D01*
X113748391Y-79823392D01*
X113768121Y-79849995D01*
X113785148Y-79878404D01*
X113799309Y-79908344D01*
X113810467Y-79939529D01*
X113818515Y-79971657D01*
X113823375Y-80004419D01*
X113825000Y-80037500D01*
X113825000Y-80812500D01*
X113823375Y-80845581D01*
X113818515Y-80878343D01*
X113810467Y-80910471D01*
X113799309Y-80941656D01*
X113785148Y-80971596D01*
X113768121Y-81000005D01*
X113748391Y-81026608D01*
X113726149Y-81051149D01*
X113701608Y-81073391D01*
X113675005Y-81093121D01*
X113646596Y-81110148D01*
X113616656Y-81124309D01*
X113585471Y-81135467D01*
X113553343Y-81143515D01*
X113520581Y-81148375D01*
X113487500Y-81150000D01*
X112812500Y-81150000D01*
X112779419Y-81148375D01*
X112746657Y-81143515D01*
X112714529Y-81135467D01*
X112683344Y-81124309D01*
X112653404Y-81110148D01*
X112624995Y-81093121D01*
X112598392Y-81073391D01*
X112573851Y-81051149D01*
X112551609Y-81026608D01*
X112531879Y-81000005D01*
X112514852Y-80971596D01*
X112500691Y-80941656D01*
X112489533Y-80910471D01*
X112481485Y-80878343D01*
X112476625Y-80845581D01*
X112475000Y-80812500D01*
X112475000Y-80037500D01*
X112476625Y-80004419D01*
X112481485Y-79971657D01*
X112489533Y-79939529D01*
X112500691Y-79908344D01*
X112514852Y-79878404D01*
X112531879Y-79849995D01*
X112551609Y-79823392D01*
X112573851Y-79798851D01*
X112598392Y-79776609D01*
X112624995Y-79756879D01*
X112653404Y-79739852D01*
X112683344Y-79725691D01*
X112714529Y-79714533D01*
X112746657Y-79706485D01*
X112779419Y-79701625D01*
X112812500Y-79700000D01*
X113487500Y-79700000D01*
X113520581Y-79701625D01*
X113520581Y-79701625D01*
G37*
D22*
X113150000Y-80425000D03*
G04 #@! TD*
D15*
G04 #@! TO.C,R3*
G36*
X109495581Y-96676625D02*
X109528343Y-96681485D01*
X109560471Y-96689533D01*
X109591656Y-96700691D01*
X109621596Y-96714852D01*
X109650005Y-96731879D01*
X109676608Y-96751609D01*
X109701149Y-96773851D01*
X109723391Y-96798392D01*
X109743121Y-96824995D01*
X109760148Y-96853404D01*
X109774309Y-96883344D01*
X109785467Y-96914529D01*
X109793515Y-96946657D01*
X109798375Y-96979419D01*
X109800000Y-97012500D01*
X109800000Y-97687500D01*
X109798375Y-97720581D01*
X109793515Y-97753343D01*
X109785467Y-97785471D01*
X109774309Y-97816656D01*
X109760148Y-97846596D01*
X109743121Y-97875005D01*
X109723391Y-97901608D01*
X109701149Y-97926149D01*
X109676608Y-97948391D01*
X109650005Y-97968121D01*
X109621596Y-97985148D01*
X109591656Y-97999309D01*
X109560471Y-98010467D01*
X109528343Y-98018515D01*
X109495581Y-98023375D01*
X109462500Y-98025000D01*
X108687500Y-98025000D01*
X108654419Y-98023375D01*
X108621657Y-98018515D01*
X108589529Y-98010467D01*
X108558344Y-97999309D01*
X108528404Y-97985148D01*
X108499995Y-97968121D01*
X108473392Y-97948391D01*
X108448851Y-97926149D01*
X108426609Y-97901608D01*
X108406879Y-97875005D01*
X108389852Y-97846596D01*
X108375691Y-97816656D01*
X108364533Y-97785471D01*
X108356485Y-97753343D01*
X108351625Y-97720581D01*
X108350000Y-97687500D01*
X108350000Y-97012500D01*
X108351625Y-96979419D01*
X108356485Y-96946657D01*
X108364533Y-96914529D01*
X108375691Y-96883344D01*
X108389852Y-96853404D01*
X108406879Y-96824995D01*
X108426609Y-96798392D01*
X108448851Y-96773851D01*
X108473392Y-96751609D01*
X108499995Y-96731879D01*
X108528404Y-96714852D01*
X108558344Y-96700691D01*
X108589529Y-96689533D01*
X108621657Y-96681485D01*
X108654419Y-96676625D01*
X108687500Y-96675000D01*
X109462500Y-96675000D01*
X109495581Y-96676625D01*
X109495581Y-96676625D01*
G37*
D22*
X109075000Y-97350000D03*
D15*
G36*
X107745581Y-96676625D02*
X107778343Y-96681485D01*
X107810471Y-96689533D01*
X107841656Y-96700691D01*
X107871596Y-96714852D01*
X107900005Y-96731879D01*
X107926608Y-96751609D01*
X107951149Y-96773851D01*
X107973391Y-96798392D01*
X107993121Y-96824995D01*
X108010148Y-96853404D01*
X108024309Y-96883344D01*
X108035467Y-96914529D01*
X108043515Y-96946657D01*
X108048375Y-96979419D01*
X108050000Y-97012500D01*
X108050000Y-97687500D01*
X108048375Y-97720581D01*
X108043515Y-97753343D01*
X108035467Y-97785471D01*
X108024309Y-97816656D01*
X108010148Y-97846596D01*
X107993121Y-97875005D01*
X107973391Y-97901608D01*
X107951149Y-97926149D01*
X107926608Y-97948391D01*
X107900005Y-97968121D01*
X107871596Y-97985148D01*
X107841656Y-97999309D01*
X107810471Y-98010467D01*
X107778343Y-98018515D01*
X107745581Y-98023375D01*
X107712500Y-98025000D01*
X106937500Y-98025000D01*
X106904419Y-98023375D01*
X106871657Y-98018515D01*
X106839529Y-98010467D01*
X106808344Y-97999309D01*
X106778404Y-97985148D01*
X106749995Y-97968121D01*
X106723392Y-97948391D01*
X106698851Y-97926149D01*
X106676609Y-97901608D01*
X106656879Y-97875005D01*
X106639852Y-97846596D01*
X106625691Y-97816656D01*
X106614533Y-97785471D01*
X106606485Y-97753343D01*
X106601625Y-97720581D01*
X106600000Y-97687500D01*
X106600000Y-97012500D01*
X106601625Y-96979419D01*
X106606485Y-96946657D01*
X106614533Y-96914529D01*
X106625691Y-96883344D01*
X106639852Y-96853404D01*
X106656879Y-96824995D01*
X106676609Y-96798392D01*
X106698851Y-96773851D01*
X106723392Y-96751609D01*
X106749995Y-96731879D01*
X106778404Y-96714852D01*
X106808344Y-96700691D01*
X106839529Y-96689533D01*
X106871657Y-96681485D01*
X106904419Y-96676625D01*
X106937500Y-96675000D01*
X107712500Y-96675000D01*
X107745581Y-96676625D01*
X107745581Y-96676625D01*
G37*
D22*
X107325000Y-97350000D03*
G04 #@! TD*
D15*
G04 #@! TO.C,R4*
G36*
X109520581Y-98476625D02*
X109553343Y-98481485D01*
X109585471Y-98489533D01*
X109616656Y-98500691D01*
X109646596Y-98514852D01*
X109675005Y-98531879D01*
X109701608Y-98551609D01*
X109726149Y-98573851D01*
X109748391Y-98598392D01*
X109768121Y-98624995D01*
X109785148Y-98653404D01*
X109799309Y-98683344D01*
X109810467Y-98714529D01*
X109818515Y-98746657D01*
X109823375Y-98779419D01*
X109825000Y-98812500D01*
X109825000Y-99487500D01*
X109823375Y-99520581D01*
X109818515Y-99553343D01*
X109810467Y-99585471D01*
X109799309Y-99616656D01*
X109785148Y-99646596D01*
X109768121Y-99675005D01*
X109748391Y-99701608D01*
X109726149Y-99726149D01*
X109701608Y-99748391D01*
X109675005Y-99768121D01*
X109646596Y-99785148D01*
X109616656Y-99799309D01*
X109585471Y-99810467D01*
X109553343Y-99818515D01*
X109520581Y-99823375D01*
X109487500Y-99825000D01*
X108712500Y-99825000D01*
X108679419Y-99823375D01*
X108646657Y-99818515D01*
X108614529Y-99810467D01*
X108583344Y-99799309D01*
X108553404Y-99785148D01*
X108524995Y-99768121D01*
X108498392Y-99748391D01*
X108473851Y-99726149D01*
X108451609Y-99701608D01*
X108431879Y-99675005D01*
X108414852Y-99646596D01*
X108400691Y-99616656D01*
X108389533Y-99585471D01*
X108381485Y-99553343D01*
X108376625Y-99520581D01*
X108375000Y-99487500D01*
X108375000Y-98812500D01*
X108376625Y-98779419D01*
X108381485Y-98746657D01*
X108389533Y-98714529D01*
X108400691Y-98683344D01*
X108414852Y-98653404D01*
X108431879Y-98624995D01*
X108451609Y-98598392D01*
X108473851Y-98573851D01*
X108498392Y-98551609D01*
X108524995Y-98531879D01*
X108553404Y-98514852D01*
X108583344Y-98500691D01*
X108614529Y-98489533D01*
X108646657Y-98481485D01*
X108679419Y-98476625D01*
X108712500Y-98475000D01*
X109487500Y-98475000D01*
X109520581Y-98476625D01*
X109520581Y-98476625D01*
G37*
D22*
X109100000Y-99150000D03*
D15*
G36*
X107770581Y-98476625D02*
X107803343Y-98481485D01*
X107835471Y-98489533D01*
X107866656Y-98500691D01*
X107896596Y-98514852D01*
X107925005Y-98531879D01*
X107951608Y-98551609D01*
X107976149Y-98573851D01*
X107998391Y-98598392D01*
X108018121Y-98624995D01*
X108035148Y-98653404D01*
X108049309Y-98683344D01*
X108060467Y-98714529D01*
X108068515Y-98746657D01*
X108073375Y-98779419D01*
X108075000Y-98812500D01*
X108075000Y-99487500D01*
X108073375Y-99520581D01*
X108068515Y-99553343D01*
X108060467Y-99585471D01*
X108049309Y-99616656D01*
X108035148Y-99646596D01*
X108018121Y-99675005D01*
X107998391Y-99701608D01*
X107976149Y-99726149D01*
X107951608Y-99748391D01*
X107925005Y-99768121D01*
X107896596Y-99785148D01*
X107866656Y-99799309D01*
X107835471Y-99810467D01*
X107803343Y-99818515D01*
X107770581Y-99823375D01*
X107737500Y-99825000D01*
X106962500Y-99825000D01*
X106929419Y-99823375D01*
X106896657Y-99818515D01*
X106864529Y-99810467D01*
X106833344Y-99799309D01*
X106803404Y-99785148D01*
X106774995Y-99768121D01*
X106748392Y-99748391D01*
X106723851Y-99726149D01*
X106701609Y-99701608D01*
X106681879Y-99675005D01*
X106664852Y-99646596D01*
X106650691Y-99616656D01*
X106639533Y-99585471D01*
X106631485Y-99553343D01*
X106626625Y-99520581D01*
X106625000Y-99487500D01*
X106625000Y-98812500D01*
X106626625Y-98779419D01*
X106631485Y-98746657D01*
X106639533Y-98714529D01*
X106650691Y-98683344D01*
X106664852Y-98653404D01*
X106681879Y-98624995D01*
X106701609Y-98598392D01*
X106723851Y-98573851D01*
X106748392Y-98551609D01*
X106774995Y-98531879D01*
X106803404Y-98514852D01*
X106833344Y-98500691D01*
X106864529Y-98489533D01*
X106896657Y-98481485D01*
X106929419Y-98476625D01*
X106962500Y-98475000D01*
X107737500Y-98475000D01*
X107770581Y-98476625D01*
X107770581Y-98476625D01*
G37*
D22*
X107350000Y-99150000D03*
G04 #@! TD*
D34*
G04 #@! TO.C,RN1*
X106202944Y-104752944D03*
D15*
G36*
X106096878Y-105495406D02*
X105460482Y-104859010D01*
X106309010Y-104010482D01*
X106945406Y-104646878D01*
X106096878Y-105495406D01*
X106096878Y-105495406D01*
G37*
D35*
X107334315Y-105884315D03*
D15*
G36*
X107192894Y-106591422D02*
X106627208Y-106025736D01*
X107475736Y-105177208D01*
X108041422Y-105742894D01*
X107192894Y-106591422D01*
X107192894Y-106591422D01*
G37*
D35*
X106768629Y-105318629D03*
D15*
G36*
X106627208Y-106025736D02*
X106061522Y-105460050D01*
X106910050Y-104611522D01*
X107475736Y-105177208D01*
X106627208Y-106025736D01*
X106627208Y-106025736D01*
G37*
D34*
X107900000Y-106450000D03*
D15*
G36*
X107793934Y-107192462D02*
X107157538Y-106556066D01*
X108006066Y-105707538D01*
X108642462Y-106343934D01*
X107793934Y-107192462D01*
X107793934Y-107192462D01*
G37*
D35*
X108041421Y-104045837D03*
D15*
G36*
X107900000Y-104752944D02*
X107334314Y-104187258D01*
X108182842Y-103338730D01*
X108748528Y-103904416D01*
X107900000Y-104752944D01*
X107900000Y-104752944D01*
G37*
D34*
X107475736Y-103480152D03*
D15*
G36*
X107369670Y-104222614D02*
X106733274Y-103586218D01*
X107581802Y-102737690D01*
X108218198Y-103374086D01*
X107369670Y-104222614D01*
X107369670Y-104222614D01*
G37*
D35*
X108607107Y-104611523D03*
D15*
G36*
X108465686Y-105318630D02*
X107900000Y-104752944D01*
X108748528Y-103904416D01*
X109314214Y-104470102D01*
X108465686Y-105318630D01*
X108465686Y-105318630D01*
G37*
D34*
X109172792Y-105177208D03*
D15*
G36*
X109066726Y-105919670D02*
X108430330Y-105283274D01*
X109278858Y-104434746D01*
X109915254Y-105071142D01*
X109066726Y-105919670D01*
X109066726Y-105919670D01*
G37*
G04 #@! TD*
D36*
G04 #@! TO.C,U1*
X97780025Y-105994365D03*
D15*
G36*
X97125951Y-105835266D02*
X97620926Y-105340291D01*
X98434099Y-106153464D01*
X97939124Y-106648439D01*
X97125951Y-105835266D01*
X97125951Y-105835266D01*
G37*
D36*
X97426472Y-106347918D03*
D15*
G36*
X96772398Y-106188819D02*
X97267373Y-105693844D01*
X98080546Y-106507017D01*
X97585571Y-107001992D01*
X96772398Y-106188819D01*
X96772398Y-106188819D01*
G37*
D36*
X97072918Y-106701472D03*
D15*
G36*
X96418844Y-106542373D02*
X96913819Y-106047398D01*
X97726992Y-106860571D01*
X97232017Y-107355546D01*
X96418844Y-106542373D01*
X96418844Y-106542373D01*
G37*
D36*
X96719365Y-107055025D03*
D15*
G36*
X96065291Y-106895926D02*
X96560266Y-106400951D01*
X97373439Y-107214124D01*
X96878464Y-107709099D01*
X96065291Y-106895926D01*
X96065291Y-106895926D01*
G37*
D36*
X98769975Y-109105635D03*
D15*
G36*
X98115901Y-108946536D02*
X98610876Y-108451561D01*
X99424049Y-109264734D01*
X98929074Y-109759709D01*
X98115901Y-108946536D01*
X98115901Y-108946536D01*
G37*
D36*
X99123528Y-108752082D03*
D15*
G36*
X98469454Y-108592983D02*
X98964429Y-108098008D01*
X99777602Y-108911181D01*
X99282627Y-109406156D01*
X98469454Y-108592983D01*
X98469454Y-108592983D01*
G37*
D36*
X99477082Y-108398528D03*
D15*
G36*
X98823008Y-108239429D02*
X99317983Y-107744454D01*
X100131156Y-108557627D01*
X99636181Y-109052602D01*
X98823008Y-108239429D01*
X98823008Y-108239429D01*
G37*
D36*
X99830635Y-108044975D03*
D15*
G36*
X99176561Y-107885876D02*
X99671536Y-107390901D01*
X100484709Y-108204074D01*
X99989734Y-108699049D01*
X99176561Y-107885876D01*
X99176561Y-107885876D01*
G37*
D37*
X98275000Y-107550000D03*
D15*
G36*
X96860786Y-107443934D02*
X98168934Y-106135786D01*
X99689214Y-107656066D01*
X98381066Y-108964214D01*
X96860786Y-107443934D01*
X96860786Y-107443934D01*
G37*
G04 #@! TD*
D20*
G04 #@! TO.C,U2*
X96950000Y-91800000D03*
X98850000Y-91800000D03*
X97900000Y-89800000D03*
G04 #@! TD*
G04 #@! TO.C,U3*
X107300000Y-89800000D03*
X108250000Y-91800000D03*
X106350000Y-91800000D03*
G04 #@! TD*
M02*
