G04 #@! TF.GenerationSoftware,KiCad,Pcbnew,(5.0.0)*
G04 #@! TF.CreationDate,2020-12-16T12:49:41+00:00*
G04 #@! TF.ProjectId,ESP-V,4553502D562E6B696361645F70636200,rev?*
G04 #@! TF.SameCoordinates,Original*
G04 #@! TF.FileFunction,Copper,L2,Bot,Signal*
G04 #@! TF.FilePolarity,Positive*
%FSLAX46Y46*%
G04 Gerber Fmt 4.6, Leading zero omitted, Abs format (unit mm)*
G04 Created by KiCad (PCBNEW (5.0.0)) date 12/16/20 12:49:41*
%MOMM*%
%LPD*%
G01*
G04 APERTURE LIST*
G04 #@! TA.AperFunction,ComponentPad*
%ADD10C,1.000000*%
G04 #@! TD*
G04 #@! TA.AperFunction,ComponentPad*
%ADD11R,1.700000X1.700000*%
G04 #@! TD*
G04 #@! TA.AperFunction,ComponentPad*
%ADD12O,1.700000X1.700000*%
G04 #@! TD*
G04 #@! TA.AperFunction,SMDPad,CuDef*
%ADD13R,0.750000X1.200000*%
G04 #@! TD*
G04 #@! TA.AperFunction,ComponentPad*
%ADD14O,0.900000X2.000000*%
G04 #@! TD*
G04 #@! TA.AperFunction,SMDPad,CuDef*
%ADD15C,0.500000*%
G04 #@! TD*
G04 #@! TA.AperFunction,Conductor*
%ADD16C,0.100000*%
G04 #@! TD*
G04 #@! TA.AperFunction,SMDPad,CuDef*
%ADD17R,1.500000X1.000000*%
G04 #@! TD*
G04 #@! TA.AperFunction,BGAPad,CuDef*
%ADD18C,1.000000*%
G04 #@! TD*
G04 #@! TA.AperFunction,ViaPad*
%ADD19C,0.650000*%
G04 #@! TD*
G04 #@! TA.AperFunction,ViaPad*
%ADD20C,0.800000*%
G04 #@! TD*
G04 #@! TA.AperFunction,Conductor*
%ADD21C,0.500000*%
G04 #@! TD*
G04 #@! TA.AperFunction,Conductor*
%ADD22C,0.200000*%
G04 #@! TD*
G04 #@! TA.AperFunction,Conductor*
%ADD23C,0.150000*%
G04 #@! TD*
G04 APERTURE END LIST*
D10*
G04 #@! TO.P,Y2,2*
G04 #@! TO.N,/GP01*
X113080000Y-118640000D03*
G04 #@! TO.P,Y2,1*
G04 #@! TO.N,/GP00*
X111580000Y-118640000D03*
G04 #@! TD*
D11*
G04 #@! TO.P,J2,1*
G04 #@! TO.N,GND*
X116200000Y-116850000D03*
D12*
G04 #@! TO.P,J2,2*
X116200000Y-114310000D03*
G04 #@! TO.P,J2,3*
G04 #@! TO.N,/ESP_ENABLE*
X116200000Y-111770000D03*
G04 #@! TO.P,J2,4*
G04 #@! TO.N,/GP00*
X116200000Y-109230000D03*
G04 #@! TO.P,J2,5*
G04 #@! TO.N,/GP01*
X116200000Y-106690000D03*
G04 #@! TO.P,J2,6*
G04 #@! TO.N,/GP02*
X116200000Y-104150000D03*
G04 #@! TO.P,J2,7*
G04 #@! TO.N,/GP03*
X116200000Y-101610000D03*
G04 #@! TO.P,J2,8*
G04 #@! TO.N,/GP04*
X116200000Y-99070000D03*
G04 #@! TO.P,J2,9*
G04 #@! TO.N,/GP05*
X116200000Y-96530000D03*
G04 #@! TO.P,J2,10*
G04 #@! TO.N,/GP06*
X116200000Y-93990000D03*
G04 #@! TO.P,J2,11*
G04 #@! TO.N,/GP07*
X116200000Y-91450000D03*
G04 #@! TO.P,J2,12*
G04 #@! TO.N,/GP08*
X116200000Y-88910000D03*
G04 #@! TO.P,J2,13*
G04 #@! TO.N,/BLSEL*
X116200000Y-86370000D03*
G04 #@! TO.P,J2,14*
G04 #@! TO.N,/GP10*
X116200000Y-83830000D03*
G04 #@! TO.P,J2,15*
G04 #@! TO.N,+3.3VA*
X116200000Y-81290000D03*
G04 #@! TO.P,J2,16*
G04 #@! TO.N,+3V3*
X116200000Y-78750000D03*
G04 #@! TD*
D13*
G04 #@! TO.P,C15,1*
G04 #@! TO.N,/GP00*
X111600000Y-120550000D03*
G04 #@! TO.P,C15,2*
G04 #@! TO.N,GND*
X111600000Y-122450000D03*
G04 #@! TD*
G04 #@! TO.P,C18,2*
G04 #@! TO.N,GND*
X113200000Y-122450000D03*
G04 #@! TO.P,C18,1*
G04 #@! TO.N,/GP01*
X113200000Y-120550000D03*
G04 #@! TD*
D14*
G04 #@! TO.P,J1,1*
G04 #@! TO.N,GND*
X100750000Y-82400000D03*
X109400000Y-82400000D03*
X109400000Y-78220000D03*
X100750000Y-78220000D03*
G04 #@! TD*
D11*
G04 #@! TO.P,J3,1*
G04 #@! TO.N,VBUS*
X90700000Y-78850000D03*
D12*
G04 #@! TO.P,J3,2*
G04 #@! TO.N,VDD*
X90700000Y-81390000D03*
G04 #@! TO.P,J3,3*
G04 #@! TO.N,/GP11*
X90700000Y-83930000D03*
G04 #@! TO.P,J3,4*
G04 #@! TO.N,/GP12*
X90700000Y-86470000D03*
G04 #@! TO.P,J3,5*
G04 #@! TO.N,/GP13*
X90700000Y-89010000D03*
G04 #@! TO.P,J3,6*
G04 #@! TO.N,/GP14*
X90700000Y-91550000D03*
G04 #@! TO.P,J3,7*
G04 #@! TO.N,/GP15*
X90700000Y-94090000D03*
G04 #@! TO.P,J3,8*
G04 #@! TO.N,/GP16*
X90700000Y-96630000D03*
G04 #@! TO.P,J3,9*
G04 #@! TO.N,/GP17*
X90700000Y-99170000D03*
G04 #@! TO.P,J3,10*
G04 #@! TO.N,/ESPUSB-*
X90700000Y-101710000D03*
G04 #@! TO.P,J3,11*
G04 #@! TO.N,/ESPUSB+*
X90700000Y-104250000D03*
G04 #@! TO.P,J3,12*
G04 #@! TO.N,/ESP_RX*
X90700000Y-106790000D03*
G04 #@! TO.P,J3,13*
G04 #@! TO.N,/ESP_TX*
X90700000Y-109330000D03*
G04 #@! TO.P,J3,14*
G04 #@! TO.N,GND*
X90700000Y-111870000D03*
G04 #@! TD*
D15*
G04 #@! TO.P,JP1,1*
G04 #@! TO.N,/CHUSB-*
X106900000Y-80500000D03*
D16*
G04 #@! TD*
G04 #@! TO.N,/CHUSB-*
G04 #@! TO.C,JP1*
G36*
X106300000Y-79950000D02*
X106300000Y-79600000D01*
X106700000Y-79600000D01*
X106700000Y-79950000D01*
X107100000Y-79950000D01*
X107100000Y-79600000D01*
X107500000Y-79600000D01*
X107500000Y-79950000D01*
X107650000Y-79950000D01*
X107650000Y-80500000D01*
X107649398Y-80500000D01*
X107649398Y-80524534D01*
X107644588Y-80573365D01*
X107635016Y-80621490D01*
X107620772Y-80668445D01*
X107601995Y-80713778D01*
X107578864Y-80757051D01*
X107551604Y-80797850D01*
X107520476Y-80835779D01*
X107485779Y-80870476D01*
X107447850Y-80901604D01*
X107407051Y-80928864D01*
X107363778Y-80951995D01*
X107318445Y-80970772D01*
X107271490Y-80985016D01*
X107223365Y-80994588D01*
X107174534Y-80999398D01*
X107150000Y-80999398D01*
X107150000Y-81000000D01*
X106650000Y-81000000D01*
X106650000Y-80999398D01*
X106625466Y-80999398D01*
X106576635Y-80994588D01*
X106528510Y-80985016D01*
X106481555Y-80970772D01*
X106436222Y-80951995D01*
X106392949Y-80928864D01*
X106352150Y-80901604D01*
X106314221Y-80870476D01*
X106279524Y-80835779D01*
X106248396Y-80797850D01*
X106221136Y-80757051D01*
X106198005Y-80713778D01*
X106179228Y-80668445D01*
X106164984Y-80621490D01*
X106155412Y-80573365D01*
X106150602Y-80524534D01*
X106150602Y-80500000D01*
X106150000Y-80500000D01*
X106150000Y-79950000D01*
X106300000Y-79950000D01*
X106300000Y-79950000D01*
G37*
D15*
G04 #@! TO.P,JP1,3*
G04 #@! TO.N,/ESPUSB-*
X106900000Y-77900000D03*
D16*
G04 #@! TD*
G04 #@! TO.N,/ESPUSB-*
G04 #@! TO.C,JP1*
G36*
X106150602Y-77900000D02*
X106150602Y-77875466D01*
X106155412Y-77826635D01*
X106164984Y-77778510D01*
X106179228Y-77731555D01*
X106198005Y-77686222D01*
X106221136Y-77642949D01*
X106248396Y-77602150D01*
X106279524Y-77564221D01*
X106314221Y-77529524D01*
X106352150Y-77498396D01*
X106392949Y-77471136D01*
X106436222Y-77448005D01*
X106481555Y-77429228D01*
X106528510Y-77414984D01*
X106576635Y-77405412D01*
X106625466Y-77400602D01*
X106650000Y-77400602D01*
X106650000Y-77400000D01*
X107150000Y-77400000D01*
X107150000Y-77400602D01*
X107174534Y-77400602D01*
X107223365Y-77405412D01*
X107271490Y-77414984D01*
X107318445Y-77429228D01*
X107363778Y-77448005D01*
X107407051Y-77471136D01*
X107447850Y-77498396D01*
X107485779Y-77529524D01*
X107520476Y-77564221D01*
X107551604Y-77602150D01*
X107578864Y-77642949D01*
X107601995Y-77686222D01*
X107620772Y-77731555D01*
X107635016Y-77778510D01*
X107644588Y-77826635D01*
X107649398Y-77875466D01*
X107649398Y-77900000D01*
X107650000Y-77900000D01*
X107650000Y-78450000D01*
X106150000Y-78450000D01*
X106150000Y-77900000D01*
X106150602Y-77900000D01*
X106150602Y-77900000D01*
G37*
D17*
G04 #@! TO.P,JP1,2*
G04 #@! TO.N,Net-(J1-PadA7)*
X106900000Y-79200000D03*
G04 #@! TD*
G04 #@! TO.P,JP2,2*
G04 #@! TO.N,Net-(J1-PadA6)*
X103400000Y-79200000D03*
D15*
G04 #@! TO.P,JP2,3*
G04 #@! TO.N,/ESPUSB+*
X103400000Y-77900000D03*
D16*
G04 #@! TD*
G04 #@! TO.N,/ESPUSB+*
G04 #@! TO.C,JP2*
G36*
X102650602Y-77900000D02*
X102650602Y-77875466D01*
X102655412Y-77826635D01*
X102664984Y-77778510D01*
X102679228Y-77731555D01*
X102698005Y-77686222D01*
X102721136Y-77642949D01*
X102748396Y-77602150D01*
X102779524Y-77564221D01*
X102814221Y-77529524D01*
X102852150Y-77498396D01*
X102892949Y-77471136D01*
X102936222Y-77448005D01*
X102981555Y-77429228D01*
X103028510Y-77414984D01*
X103076635Y-77405412D01*
X103125466Y-77400602D01*
X103150000Y-77400602D01*
X103150000Y-77400000D01*
X103650000Y-77400000D01*
X103650000Y-77400602D01*
X103674534Y-77400602D01*
X103723365Y-77405412D01*
X103771490Y-77414984D01*
X103818445Y-77429228D01*
X103863778Y-77448005D01*
X103907051Y-77471136D01*
X103947850Y-77498396D01*
X103985779Y-77529524D01*
X104020476Y-77564221D01*
X104051604Y-77602150D01*
X104078864Y-77642949D01*
X104101995Y-77686222D01*
X104120772Y-77731555D01*
X104135016Y-77778510D01*
X104144588Y-77826635D01*
X104149398Y-77875466D01*
X104149398Y-77900000D01*
X104150000Y-77900000D01*
X104150000Y-78450000D01*
X102650000Y-78450000D01*
X102650000Y-77900000D01*
X102650602Y-77900000D01*
X102650602Y-77900000D01*
G37*
D15*
G04 #@! TO.P,JP2,1*
G04 #@! TO.N,/CHUSB+*
X103400000Y-80500000D03*
D16*
G04 #@! TD*
G04 #@! TO.N,/CHUSB+*
G04 #@! TO.C,JP2*
G36*
X102800000Y-79950000D02*
X102800000Y-79600000D01*
X103200000Y-79600000D01*
X103200000Y-79950000D01*
X103600000Y-79950000D01*
X103600000Y-79600000D01*
X104000000Y-79600000D01*
X104000000Y-79950000D01*
X104150000Y-79950000D01*
X104150000Y-80500000D01*
X104149398Y-80500000D01*
X104149398Y-80524534D01*
X104144588Y-80573365D01*
X104135016Y-80621490D01*
X104120772Y-80668445D01*
X104101995Y-80713778D01*
X104078864Y-80757051D01*
X104051604Y-80797850D01*
X104020476Y-80835779D01*
X103985779Y-80870476D01*
X103947850Y-80901604D01*
X103907051Y-80928864D01*
X103863778Y-80951995D01*
X103818445Y-80970772D01*
X103771490Y-80985016D01*
X103723365Y-80994588D01*
X103674534Y-80999398D01*
X103650000Y-80999398D01*
X103650000Y-81000000D01*
X103150000Y-81000000D01*
X103150000Y-80999398D01*
X103125466Y-80999398D01*
X103076635Y-80994588D01*
X103028510Y-80985016D01*
X102981555Y-80970772D01*
X102936222Y-80951995D01*
X102892949Y-80928864D01*
X102852150Y-80901604D01*
X102814221Y-80870476D01*
X102779524Y-80835779D01*
X102748396Y-80797850D01*
X102721136Y-80757051D01*
X102698005Y-80713778D01*
X102679228Y-80668445D01*
X102664984Y-80621490D01*
X102655412Y-80573365D01*
X102650602Y-80524534D01*
X102650602Y-80500000D01*
X102650000Y-80500000D01*
X102650000Y-79950000D01*
X102800000Y-79950000D01*
X102800000Y-79950000D01*
G37*
D18*
G04 #@! TO.P,TP1,1*
G04 #@! TO.N,/CHUSB+*
X101900000Y-97950000D03*
G04 #@! TD*
G04 #@! TO.P,TP2,1*
G04 #@! TO.N,Net-(C26-Pad1)*
X98000000Y-97950000D03*
G04 #@! TD*
D19*
G04 #@! TO.N,GND*
X109700000Y-118800000D03*
X112950000Y-117150000D03*
X89700000Y-117300000D03*
X102750000Y-111850000D03*
X102750000Y-114350000D03*
X104200000Y-113250000D03*
X101350000Y-113250000D03*
X102650000Y-113250000D03*
X104400000Y-107000000D03*
X117150000Y-123210000D03*
X106710000Y-123490000D03*
X97900000Y-104650000D03*
X111700000Y-110250000D03*
X98750000Y-117250000D03*
X98000000Y-117300000D03*
X90450000Y-117300000D03*
X103150000Y-119600000D03*
X92000000Y-117300000D03*
X91200000Y-117300000D03*
X92750000Y-117300000D03*
X94250000Y-117300000D03*
X93450000Y-117300000D03*
X95000000Y-117300000D03*
X95750000Y-117300000D03*
X97300000Y-117300000D03*
X96550000Y-117300000D03*
X99150000Y-117900000D03*
X99150000Y-118650000D03*
X99150000Y-119450000D03*
X103125000Y-117975000D03*
X102825000Y-118600000D03*
X102400000Y-119175000D03*
X101850000Y-119575000D03*
X100525000Y-118225000D03*
X101025000Y-117725000D03*
X104175000Y-118925000D03*
X104150000Y-118225000D03*
X104175000Y-119625000D03*
X104175000Y-120350000D03*
X104200000Y-121800000D03*
X104175000Y-121100000D03*
X104200000Y-123225000D03*
X104200000Y-122500000D03*
X99300000Y-97250000D03*
X95600000Y-93400000D03*
X95625000Y-91925000D03*
X104975000Y-91825000D03*
X104925000Y-88625000D03*
X95250000Y-86950000D03*
X111225000Y-83725000D03*
X113000000Y-83725000D03*
X95900000Y-80550000D03*
X100800000Y-103450000D03*
X109650000Y-106150000D03*
X98200000Y-107700000D03*
X96675000Y-109625000D03*
X109175000Y-119500000D03*
X106760000Y-121160000D03*
X105075000Y-78250000D03*
X112300000Y-107000000D03*
X112050000Y-104125000D03*
X104925000Y-92800000D03*
X106950000Y-103150000D03*
X103425000Y-121475000D03*
G04 #@! TO.N,+3V3*
X105700000Y-111250000D03*
X104350000Y-108150000D03*
G04 #@! TO.N,GND*
X95790000Y-97710000D03*
X95970000Y-78760000D03*
X93800000Y-78820000D03*
X104840000Y-104760000D03*
X99210000Y-123270000D03*
X99960000Y-118650000D03*
X99190000Y-121270000D03*
X99170000Y-120390000D03*
X99200000Y-124100000D03*
X103540000Y-120790000D03*
X103490000Y-122250000D03*
X103370000Y-123060000D03*
X102840000Y-123440000D03*
X102060000Y-123530000D03*
X103450000Y-117520000D03*
X94800000Y-82190000D03*
G04 #@! TO.N,+3V3*
X100290000Y-91800000D03*
X95140000Y-101570000D03*
D20*
G04 #@! TO.N,+3.3VA*
X100950000Y-116800000D03*
X104400000Y-117210000D03*
D19*
G04 #@! TO.N,/GP00*
X105675000Y-116200000D03*
X113100000Y-114275000D03*
G04 #@! TO.N,/GP01*
X111050000Y-112650000D03*
X105900000Y-115350000D03*
G04 #@! TO.N,Net-(J1-PadA7)*
X105300000Y-81650000D03*
G04 #@! TO.N,Net-(J1-PadA6)*
X104900000Y-84150000D03*
G04 #@! TO.N,VBUS*
X107400000Y-85200000D03*
X103900000Y-88875000D03*
X100000000Y-99510000D03*
G04 #@! TO.N,/ESP_ENABLE*
X107900000Y-112600000D03*
X109000000Y-106800000D03*
G04 #@! TO.N,/GP02*
X112700000Y-113000000D03*
G04 #@! TO.N,/GP03*
X112700000Y-112150000D03*
G04 #@! TO.N,/GP04*
X112650000Y-111300000D03*
G04 #@! TO.N,/GP05*
X112650000Y-110400000D03*
G04 #@! TO.N,/GP06*
X106300000Y-110500000D03*
G04 #@! TO.N,/GP07*
X105550000Y-109850000D03*
G04 #@! TO.N,/GP08*
X106050000Y-107050000D03*
G04 #@! TO.N,/BLSEL*
X105900000Y-103530000D03*
G04 #@! TO.N,/GP10*
X104700000Y-103750000D03*
G04 #@! TO.N,/GP12*
X101050000Y-108000000D03*
X99250000Y-103950000D03*
G04 #@! TO.N,/GP13*
X95800000Y-105975000D03*
X95750000Y-104300000D03*
X100240000Y-109520000D03*
G04 #@! TO.N,/GP14*
X99575000Y-110575000D03*
X96875000Y-104875000D03*
G04 #@! TO.N,/GP15*
X94500000Y-105400000D03*
X98950000Y-111250000D03*
G04 #@! TO.N,/GP16*
X97450000Y-110550000D03*
X94310000Y-107430000D03*
G04 #@! TO.N,/ESP_RX*
X105600000Y-99250000D03*
X97950000Y-113900000D03*
G04 #@! TO.N,/ESP_TX*
X104400000Y-99350000D03*
X97000000Y-113650000D03*
G04 #@! TO.N,/CHUSB-*
X102700000Y-93600000D03*
D20*
G04 #@! TO.N,/CHUSB+*
X101900000Y-97950000D03*
G04 #@! TO.N,Net-(C26-Pad1)*
X98000000Y-97950000D03*
G04 #@! TD*
D21*
G04 #@! TO.N,+3V3*
X100290000Y-92660000D02*
X96750000Y-96200000D01*
X100290000Y-91800000D02*
X100290000Y-92660000D01*
X96750000Y-99960000D02*
X95140000Y-101570000D01*
X96750000Y-96200000D02*
X96750000Y-99960000D01*
X105460000Y-111250000D02*
X105700000Y-111250000D01*
X104350000Y-108150000D02*
X104350000Y-110140000D01*
X104350000Y-110140000D02*
X105460000Y-111250000D01*
G04 #@! TO.N,+3.3VA*
X101850000Y-115900000D02*
X100950000Y-116800000D01*
X103090000Y-115900000D02*
X101850000Y-115900000D01*
X104400000Y-117210000D02*
X103090000Y-115900000D01*
D22*
G04 #@! TO.N,/GP00*
X111600000Y-118650000D02*
X111600000Y-120550000D01*
X111600000Y-118650000D02*
X111650000Y-118650000D01*
X107550000Y-120550000D02*
X111600000Y-120550000D01*
D23*
X105650000Y-116200000D02*
X105675000Y-116200000D01*
D22*
X105675000Y-116200000D02*
X105675000Y-118675000D01*
X105675000Y-118675000D02*
X107550000Y-120550000D01*
D23*
X114925000Y-110505000D02*
X116200000Y-109230000D01*
X114925000Y-112550000D02*
X114925000Y-110505000D01*
X113100000Y-114275000D02*
X113200000Y-114275000D01*
X113200000Y-114275000D02*
X114925000Y-112550000D01*
G04 #@! TO.N,/GP01*
X113100000Y-120450000D02*
X113200000Y-120550000D01*
X113100000Y-118650000D02*
X113100000Y-120450000D01*
X111100000Y-117700000D02*
X112150000Y-117700000D01*
X110650000Y-118150000D02*
X111100000Y-117700000D01*
X110650000Y-119600000D02*
X110650000Y-118150000D01*
X112150000Y-117700000D02*
X113100000Y-118650000D01*
X106100000Y-115350000D02*
X106550000Y-115800000D01*
X105900000Y-115350000D02*
X106100000Y-115350000D01*
X106550000Y-115800000D02*
X106550000Y-118950000D01*
X106550000Y-118950000D02*
X107750000Y-120150000D01*
X107750000Y-120150000D02*
X110100000Y-120150000D01*
X110100000Y-120150000D02*
X110650000Y-119600000D01*
X112050000Y-113650000D02*
X111050000Y-112650000D01*
X113200000Y-113650000D02*
X112050000Y-113650000D01*
X114525000Y-112325000D02*
X113200000Y-113650000D01*
X114525000Y-107475000D02*
X114525000Y-112325000D01*
X116200000Y-106690000D02*
X115310000Y-106690000D01*
X115310000Y-106690000D02*
X114525000Y-107475000D01*
G04 #@! TO.N,Net-(J1-PadA7)*
X105300000Y-81650000D02*
X105550000Y-81400000D01*
X105550000Y-81400000D02*
X105550000Y-79350000D01*
X105700000Y-79200000D02*
X106900000Y-79200000D01*
X105550000Y-79350000D02*
X105700000Y-79200000D01*
G04 #@! TO.N,Net-(J1-PadA6)*
X104500000Y-79200000D02*
X103400000Y-79200000D01*
X104650000Y-79350000D02*
X104500000Y-79200000D01*
X104650000Y-81850000D02*
X104650000Y-79350000D01*
X104900000Y-84150000D02*
X104900000Y-82100000D01*
X104900000Y-82100000D02*
X104650000Y-81850000D01*
D21*
G04 #@! TO.N,VBUS*
X103900000Y-88875000D02*
X103900000Y-87800000D01*
X103900000Y-87800000D02*
X106500000Y-85200000D01*
X106500000Y-85200000D02*
X107400000Y-85200000D01*
D23*
X103650000Y-89125000D02*
X103900000Y-88875000D01*
X103650000Y-97440000D02*
X103650000Y-89125000D01*
X101640000Y-99450000D02*
X103650000Y-97440000D01*
X100000000Y-99510000D02*
X100060000Y-99450000D01*
X100060000Y-99450000D02*
X101640000Y-99450000D01*
G04 #@! TO.N,/ESP_ENABLE*
X107900000Y-107900000D02*
X107900000Y-110450000D01*
X109000000Y-106800000D02*
X107900000Y-107900000D01*
X107900000Y-112600000D02*
X107900000Y-110450000D01*
X109800000Y-112600000D02*
X112125000Y-114925000D01*
X107900000Y-112600000D02*
X109800000Y-112600000D01*
X115150010Y-112819990D02*
X116200000Y-111770000D01*
X112125000Y-114925000D02*
X113675000Y-114925000D01*
X113675000Y-114925000D02*
X113900000Y-114700000D01*
X113900000Y-114700000D02*
X113900000Y-114070000D01*
X113900000Y-114070000D02*
X115150010Y-112819990D01*
G04 #@! TO.N,/GP02*
X115050000Y-104150000D02*
X116200000Y-104150000D01*
X114050000Y-105150000D02*
X115050000Y-104150000D01*
X114050000Y-111850000D02*
X114050000Y-105150000D01*
X112700000Y-113000000D02*
X112900000Y-113000000D01*
X112900000Y-113000000D02*
X114050000Y-111850000D01*
G04 #@! TO.N,/GP03*
X113675000Y-111175000D02*
X112700000Y-112150000D01*
X113675000Y-102325000D02*
X113675000Y-111175000D01*
X116200000Y-101610000D02*
X114390000Y-101610000D01*
X114390000Y-101610000D02*
X113675000Y-102325000D01*
G04 #@! TO.N,/GP04*
X114080000Y-99070000D02*
X116200000Y-99070000D01*
X113250000Y-99900000D02*
X114080000Y-99070000D01*
X113250000Y-110900000D02*
X113250000Y-99900000D01*
X112650000Y-111300000D02*
X112850000Y-111300000D01*
X112850000Y-111300000D02*
X113250000Y-110900000D01*
G04 #@! TO.N,/GP05*
X114514988Y-96530000D02*
X116200000Y-96530000D01*
X112900000Y-98144988D02*
X114514988Y-96530000D01*
X112650000Y-110400000D02*
X112900000Y-110150000D01*
X112900000Y-110150000D02*
X112900000Y-98144988D01*
G04 #@! TO.N,/GP06*
X116300000Y-93750000D02*
X116050000Y-93750000D01*
X116200000Y-93990000D02*
X114460020Y-93990000D01*
X114460020Y-93990000D02*
X113450020Y-95000000D01*
X113450020Y-95000000D02*
X113450020Y-97099980D01*
X113450020Y-97099980D02*
X112100000Y-98450000D01*
X112100000Y-98450000D02*
X112100000Y-102444988D01*
X112100000Y-102444988D02*
X106150000Y-108394988D01*
X106150000Y-110350000D02*
X106300000Y-110500000D01*
X106150000Y-108394988D02*
X106150000Y-110350000D01*
G04 #@! TO.N,/GP07*
X116300000Y-91210000D02*
X115690000Y-91210000D01*
X114050000Y-91450000D02*
X116200000Y-91450000D01*
X113100010Y-92399990D02*
X114050000Y-91450000D01*
X111750000Y-98300000D02*
X113100010Y-96949990D01*
X113100010Y-96949990D02*
X113100010Y-92399990D01*
X105550000Y-109850000D02*
X105550000Y-108500000D01*
X105550000Y-108500000D02*
X111750000Y-102300000D01*
X111750000Y-102300000D02*
X111750000Y-98300000D01*
G04 #@! TO.N,/GP08*
X106250000Y-107050000D02*
X106050000Y-107050000D01*
X111400000Y-101900000D02*
X106250000Y-107050000D01*
X116300000Y-88670000D02*
X115380000Y-88670000D01*
X116200000Y-88910000D02*
X113590010Y-88910000D01*
X113590010Y-88910000D02*
X112750000Y-89750010D01*
X112750000Y-89750010D02*
X112750000Y-96750000D01*
X111400000Y-98100000D02*
X111400000Y-100400000D01*
X112750000Y-96750000D02*
X111400000Y-98100000D01*
X111400000Y-100050000D02*
X111400000Y-100400000D01*
X111400000Y-100400000D02*
X111400000Y-101900000D01*
G04 #@! TO.N,/BLSEL*
X112400000Y-91750000D02*
X112400000Y-87700000D01*
X112400000Y-91650000D02*
X112400000Y-91750000D01*
X113730000Y-86370000D02*
X116200000Y-86370000D01*
X112400000Y-87700000D02*
X113730000Y-86370000D01*
X105900000Y-103530000D02*
X105900000Y-103100000D01*
X105900000Y-103100000D02*
X112400000Y-96600000D01*
X112400000Y-96600000D02*
X112400000Y-91750000D01*
G04 #@! TO.N,/GP10*
X104700000Y-103750000D02*
X112050000Y-96400000D01*
X112050000Y-90500000D02*
X112050000Y-85600000D01*
X112050000Y-90500000D02*
X112050000Y-90380000D01*
X112050000Y-96400000D02*
X112050000Y-90500000D01*
X113820000Y-83830000D02*
X116200000Y-83830000D01*
X112050000Y-85600000D02*
X113820000Y-83830000D01*
G04 #@! TO.N,/GP12*
X101050000Y-108000000D02*
X101050000Y-107975000D01*
X101050000Y-105750000D02*
X101050000Y-108000000D01*
X99250000Y-103950000D02*
X101050000Y-105750000D01*
G04 #@! TO.N,/GP13*
X95800000Y-105975000D02*
X95800000Y-104350000D01*
X95800000Y-104350000D02*
X95750000Y-104300000D01*
X95800000Y-106230000D02*
X95800000Y-105975000D01*
X100240000Y-109520000D02*
X99090000Y-109520000D01*
X99090000Y-109520000D02*
X95800000Y-106230000D01*
G04 #@! TO.N,/GP14*
X99700000Y-110450000D02*
X99575000Y-110575000D01*
X100350000Y-110450000D02*
X99700000Y-110450000D01*
X100850000Y-109950000D02*
X100350000Y-110450000D01*
X100850000Y-108925000D02*
X100850000Y-109950000D01*
X96875000Y-104875000D02*
X96875000Y-104950000D01*
X96875000Y-104950000D02*
X100850000Y-108925000D01*
G04 #@! TO.N,/GP15*
X95900000Y-107325000D02*
X95800000Y-107225000D01*
X94500000Y-105400000D02*
X94500000Y-105925000D01*
X94500000Y-105925000D02*
X95900000Y-107325000D01*
X96100000Y-107525000D02*
X95900000Y-107325000D01*
X98950000Y-111250000D02*
X98950000Y-110375000D01*
X98950000Y-110375000D02*
X96100000Y-107525000D01*
G04 #@! TO.N,/GP16*
X94310000Y-107430000D02*
X95380000Y-107430000D01*
X95380000Y-107430000D02*
X97450000Y-109500000D01*
X97450000Y-109500000D02*
X97450000Y-110550000D01*
D22*
G04 #@! TO.N,/ESPUSB-*
X105975000Y-76975000D02*
X106900000Y-77900000D01*
X102675000Y-76975000D02*
X105975000Y-76975000D01*
X101775000Y-77875000D02*
X102675000Y-76975000D01*
X101775000Y-79425000D02*
X101775000Y-77875000D01*
X91290000Y-101710000D02*
X92700000Y-100300000D01*
X92700000Y-100300000D02*
X92700000Y-80925000D01*
X92700000Y-80925000D02*
X94100000Y-79525000D01*
X94100000Y-79525000D02*
X101675000Y-79525000D01*
X90700000Y-101710000D02*
X91290000Y-101710000D01*
X101675000Y-79525000D02*
X101775000Y-79425000D01*
G04 #@! TO.N,/ESPUSB+*
X102550000Y-77900000D02*
X103400000Y-77900000D01*
X90850000Y-104250000D02*
X94425000Y-100675000D01*
X90700000Y-104250000D02*
X90850000Y-104250000D01*
X94425000Y-100675000D02*
X94425000Y-85200000D01*
X94425000Y-85200000D02*
X98925000Y-80700000D01*
X98925000Y-80700000D02*
X101300000Y-80700000D01*
X102250000Y-78200000D02*
X102550000Y-77900000D01*
X102250000Y-79750000D02*
X102250000Y-78200000D01*
X101300000Y-80700000D02*
X102250000Y-79750000D01*
D23*
G04 #@! TO.N,/ESP_RX*
X90700000Y-106790000D02*
X90700000Y-107400000D01*
X105600000Y-99275000D02*
X105600000Y-99250000D01*
X102050000Y-102825000D02*
X105600000Y-99275000D01*
X97950000Y-113850000D02*
X101550000Y-110250000D01*
X97950000Y-113900000D02*
X97950000Y-113850000D01*
X101550000Y-110250000D02*
X101550000Y-108944988D01*
X101550000Y-108944988D02*
X102044988Y-108450000D01*
X102044988Y-108450000D02*
X102050000Y-108450000D01*
X102050000Y-108450000D02*
X102050000Y-102825000D01*
G04 #@! TO.N,/ESP_TX*
X101700000Y-102050000D02*
X104400000Y-99350000D01*
X97000000Y-113650000D02*
X97350000Y-113300000D01*
X97994988Y-113300000D02*
X101200000Y-110094988D01*
X101200000Y-110094988D02*
X101200000Y-108800000D01*
X97350000Y-113300000D02*
X97994988Y-113300000D01*
X101200000Y-108800000D02*
X101700000Y-108300000D01*
X101700000Y-108300000D02*
X101700000Y-102050000D01*
G04 #@! TO.N,/CHUSB-*
X102700000Y-93600000D02*
X102300000Y-93200000D01*
X102300000Y-93200000D02*
X102300000Y-87025000D01*
X104525000Y-84800000D02*
X105350000Y-84800000D01*
X102300000Y-87025000D02*
X104525000Y-84800000D01*
X106900000Y-83250000D02*
X106900000Y-82300000D01*
X105350000Y-84800000D02*
X106900000Y-83250000D01*
X106900000Y-82300000D02*
X106900000Y-80500000D01*
G04 #@! TO.N,/CHUSB+*
X101900000Y-97950000D02*
X101900000Y-86850000D01*
X103400000Y-85350000D02*
X103400000Y-80500000D01*
X101900000Y-86850000D02*
X103400000Y-85350000D01*
G04 #@! TD*
G04 #@! TO.N,GND*
G36*
X99864133Y-77109314D02*
X99717000Y-77491000D01*
X99717000Y-78041000D01*
X100571000Y-78041000D01*
X100571000Y-78021000D01*
X100929000Y-78021000D01*
X100929000Y-78041000D01*
X100949000Y-78041000D01*
X100949000Y-78399000D01*
X100929000Y-78399000D01*
X100929000Y-78419000D01*
X100571000Y-78419000D01*
X100571000Y-78399000D01*
X99717000Y-78399000D01*
X99717000Y-78949000D01*
X99794482Y-79150000D01*
X94136926Y-79150000D01*
X94100000Y-79142655D01*
X94063073Y-79150000D01*
X94063069Y-79150000D01*
X93953683Y-79171758D01*
X93953682Y-79171759D01*
X93953681Y-79171759D01*
X93860949Y-79233721D01*
X93860948Y-79233722D01*
X93829641Y-79254641D01*
X93808722Y-79285948D01*
X92460948Y-80633722D01*
X92429642Y-80654641D01*
X92408723Y-80685948D01*
X92408721Y-80685950D01*
X92346759Y-80778682D01*
X92317655Y-80925000D01*
X92325001Y-80961931D01*
X92325000Y-100144670D01*
X91534981Y-100934690D01*
X91511080Y-100898920D01*
X91138953Y-100650273D01*
X90810803Y-100585000D01*
X90589197Y-100585000D01*
X90261047Y-100650273D01*
X89888920Y-100898920D01*
X89640273Y-101271047D01*
X89552960Y-101710000D01*
X89640273Y-102148953D01*
X89888920Y-102521080D01*
X90261047Y-102769727D01*
X90589197Y-102835000D01*
X90810803Y-102835000D01*
X91138953Y-102769727D01*
X91511080Y-102521080D01*
X91759727Y-102148953D01*
X91847040Y-101710000D01*
X91842608Y-101687721D01*
X92939053Y-100591277D01*
X92970359Y-100570359D01*
X92998207Y-100528683D01*
X93053241Y-100446319D01*
X93053241Y-100446318D01*
X93053242Y-100446317D01*
X93075000Y-100336931D01*
X93075000Y-100336927D01*
X93082345Y-100300001D01*
X93075000Y-100263075D01*
X93075000Y-81080329D01*
X94255330Y-79900000D01*
X101569670Y-79900000D01*
X101144671Y-80325000D01*
X98961926Y-80325000D01*
X98924999Y-80317655D01*
X98888073Y-80325000D01*
X98888069Y-80325000D01*
X98778683Y-80346758D01*
X98778682Y-80346759D01*
X98778681Y-80346759D01*
X98685949Y-80408721D01*
X98685948Y-80408722D01*
X98654641Y-80429641D01*
X98633722Y-80460948D01*
X94185949Y-84908722D01*
X94154642Y-84929641D01*
X94133723Y-84960948D01*
X94133721Y-84960950D01*
X94071759Y-85053682D01*
X94042655Y-85200000D01*
X94050001Y-85236931D01*
X94050000Y-100519670D01*
X91283089Y-103286582D01*
X91138953Y-103190273D01*
X90810803Y-103125000D01*
X90589197Y-103125000D01*
X90261047Y-103190273D01*
X89888920Y-103438920D01*
X89640273Y-103811047D01*
X89552960Y-104250000D01*
X89640273Y-104688953D01*
X89888920Y-105061080D01*
X90261047Y-105309727D01*
X90589197Y-105375000D01*
X90810803Y-105375000D01*
X91138953Y-105309727D01*
X91511080Y-105061080D01*
X91759727Y-104688953D01*
X91847040Y-104250000D01*
X91769608Y-103860721D01*
X94179676Y-101450653D01*
X94540000Y-101450653D01*
X94540000Y-101689347D01*
X94631344Y-101909873D01*
X94800127Y-102078656D01*
X95020653Y-102170000D01*
X95259347Y-102170000D01*
X95479873Y-102078656D01*
X95648656Y-101909873D01*
X95723656Y-101728805D01*
X97084667Y-100367795D01*
X97128504Y-100338504D01*
X97244539Y-100164845D01*
X97275000Y-100011706D01*
X97285285Y-99960000D01*
X97275000Y-99908294D01*
X97275000Y-98224867D01*
X97342987Y-98389002D01*
X97560998Y-98607013D01*
X97845843Y-98725000D01*
X98154157Y-98725000D01*
X98439002Y-98607013D01*
X98657013Y-98389002D01*
X98775000Y-98104157D01*
X98775000Y-97795843D01*
X98657013Y-97510998D01*
X98439002Y-97292987D01*
X98154157Y-97175000D01*
X97845843Y-97175000D01*
X97560998Y-97292987D01*
X97342987Y-97510998D01*
X97275000Y-97675133D01*
X97275000Y-96417461D01*
X100624667Y-93067795D01*
X100668504Y-93038504D01*
X100784539Y-92864845D01*
X100788855Y-92843145D01*
X100825285Y-92660001D01*
X100815000Y-92608295D01*
X100815000Y-92100415D01*
X100890000Y-91919347D01*
X100890000Y-91680653D01*
X100798656Y-91460127D01*
X100629873Y-91291344D01*
X100409347Y-91200000D01*
X100170653Y-91200000D01*
X99950127Y-91291344D01*
X99781344Y-91460127D01*
X99690000Y-91680653D01*
X99690000Y-91919347D01*
X99765000Y-92100415D01*
X99765000Y-92442538D01*
X96415336Y-95792203D01*
X96371496Y-95821496D01*
X96255462Y-95995155D01*
X96255461Y-95995156D01*
X96214715Y-96200000D01*
X96225000Y-96251706D01*
X96225001Y-99742537D01*
X94981195Y-100986344D01*
X94800127Y-101061344D01*
X94631344Y-101230127D01*
X94540000Y-101450653D01*
X94179676Y-101450653D01*
X94664053Y-100966277D01*
X94695359Y-100945359D01*
X94778242Y-100821317D01*
X94800000Y-100711931D01*
X94800000Y-100711927D01*
X94807345Y-100675001D01*
X94800000Y-100638075D01*
X94800000Y-85355329D01*
X97576329Y-82579000D01*
X99717000Y-82579000D01*
X99717000Y-83129000D01*
X99864133Y-83510686D01*
X100146131Y-83807013D01*
X100414052Y-83926846D01*
X100571000Y-83819006D01*
X100571000Y-82579000D01*
X100929000Y-82579000D01*
X100929000Y-83819006D01*
X101085948Y-83926846D01*
X101353869Y-83807013D01*
X101635867Y-83510686D01*
X101783000Y-83129000D01*
X101783000Y-82579000D01*
X100929000Y-82579000D01*
X100571000Y-82579000D01*
X99717000Y-82579000D01*
X97576329Y-82579000D01*
X99080330Y-81075000D01*
X100068084Y-81075000D01*
X99864133Y-81289314D01*
X99717000Y-81671000D01*
X99717000Y-82221000D01*
X100571000Y-82221000D01*
X100571000Y-82201000D01*
X100929000Y-82201000D01*
X100929000Y-82221000D01*
X101695587Y-82221000D01*
X101697538Y-82225711D01*
X101859289Y-82387462D01*
X102070625Y-82475000D01*
X102299375Y-82475000D01*
X102510711Y-82387462D01*
X102672462Y-82225711D01*
X102760000Y-82014375D01*
X102760000Y-81785625D01*
X102672462Y-81574289D01*
X102510711Y-81412538D01*
X102299375Y-81325000D01*
X102070625Y-81325000D01*
X101859289Y-81412538D01*
X101732314Y-81539513D01*
X101635867Y-81289314D01*
X101416798Y-81059114D01*
X101446317Y-81053242D01*
X101570359Y-80970359D01*
X101591280Y-80939050D01*
X102369612Y-80160718D01*
X102369612Y-80500000D01*
X102372020Y-80512106D01*
X102372020Y-80549009D01*
X102377408Y-80603710D01*
X102396530Y-80699843D01*
X102412485Y-80752441D01*
X102449994Y-80842997D01*
X102475905Y-80891473D01*
X102530361Y-80972972D01*
X102565231Y-81015461D01*
X102634539Y-81084769D01*
X102677028Y-81119639D01*
X102758527Y-81174095D01*
X102807003Y-81200006D01*
X102897559Y-81237515D01*
X102950157Y-81253470D01*
X103046290Y-81272592D01*
X103050001Y-81272958D01*
X103050000Y-85205025D01*
X101676887Y-86578140D01*
X101647666Y-86597665D01*
X101628141Y-86626886D01*
X101570308Y-86713438D01*
X101543145Y-86850000D01*
X101550001Y-86884469D01*
X101550000Y-97256121D01*
X101460998Y-97292987D01*
X101242987Y-97510998D01*
X101125000Y-97795843D01*
X101125000Y-98104157D01*
X101242987Y-98389002D01*
X101460998Y-98607013D01*
X101745843Y-98725000D01*
X101870027Y-98725000D01*
X101495027Y-99100000D01*
X100438529Y-99100000D01*
X100339873Y-99001344D01*
X100119347Y-98910000D01*
X99880653Y-98910000D01*
X99660127Y-99001344D01*
X99491344Y-99170127D01*
X99400000Y-99390653D01*
X99400000Y-99629347D01*
X99491344Y-99849873D01*
X99660127Y-100018656D01*
X99880653Y-100110000D01*
X100119347Y-100110000D01*
X100339873Y-100018656D01*
X100508656Y-99849873D01*
X100529314Y-99800000D01*
X101605536Y-99800000D01*
X101640000Y-99806855D01*
X101674464Y-99800000D01*
X101674468Y-99800000D01*
X101776563Y-99779692D01*
X101892335Y-99702335D01*
X101911862Y-99673111D01*
X103873119Y-97711856D01*
X103902334Y-97692335D01*
X103921856Y-97663119D01*
X103921859Y-97663116D01*
X103979691Y-97576564D01*
X103979692Y-97576563D01*
X104000000Y-97474468D01*
X104000000Y-97474464D01*
X104006855Y-97440001D01*
X104000000Y-97405538D01*
X104000000Y-89475000D01*
X104019347Y-89475000D01*
X104239873Y-89383656D01*
X104408656Y-89214873D01*
X104500000Y-88994347D01*
X104500000Y-88755653D01*
X104425000Y-88574585D01*
X104425000Y-88017461D01*
X106717462Y-85725000D01*
X107099585Y-85725000D01*
X107280653Y-85800000D01*
X107519347Y-85800000D01*
X107739873Y-85708656D01*
X107908656Y-85539873D01*
X108000000Y-85319347D01*
X108000000Y-85080653D01*
X107908656Y-84860127D01*
X107739873Y-84691344D01*
X107519347Y-84600000D01*
X107280653Y-84600000D01*
X107099585Y-84675000D01*
X106551704Y-84675000D01*
X106499999Y-84664715D01*
X106448294Y-84675000D01*
X106295155Y-84705461D01*
X106121496Y-84821496D01*
X106092205Y-84865333D01*
X103565334Y-87392205D01*
X103521497Y-87421496D01*
X103449180Y-87529727D01*
X103405461Y-87595156D01*
X103364715Y-87800000D01*
X103375001Y-87851711D01*
X103375000Y-88574585D01*
X103300000Y-88755653D01*
X103300000Y-88994347D01*
X103312926Y-89025553D01*
X103293145Y-89125000D01*
X103300001Y-89159469D01*
X103300000Y-93480653D01*
X103208656Y-93260127D01*
X103039873Y-93091344D01*
X102819347Y-93000000D01*
X102650000Y-93000000D01*
X102650000Y-87169973D01*
X104669974Y-85150000D01*
X105315536Y-85150000D01*
X105350000Y-85156855D01*
X105384464Y-85150000D01*
X105384468Y-85150000D01*
X105486563Y-85129692D01*
X105602335Y-85052335D01*
X105621862Y-85023111D01*
X107123116Y-83521858D01*
X107152334Y-83502335D01*
X107229692Y-83386563D01*
X107250000Y-83284468D01*
X107250000Y-83284465D01*
X107256855Y-83250001D01*
X107250000Y-83215537D01*
X107250000Y-82579000D01*
X108367000Y-82579000D01*
X108367000Y-83129000D01*
X108514133Y-83510686D01*
X108796131Y-83807013D01*
X109064052Y-83926846D01*
X109221000Y-83819006D01*
X109221000Y-82579000D01*
X109579000Y-82579000D01*
X109579000Y-83819006D01*
X109735948Y-83926846D01*
X110003869Y-83807013D01*
X110285867Y-83510686D01*
X110433000Y-83129000D01*
X110433000Y-82579000D01*
X109579000Y-82579000D01*
X109221000Y-82579000D01*
X108367000Y-82579000D01*
X107250000Y-82579000D01*
X107250000Y-81785625D01*
X107390000Y-81785625D01*
X107390000Y-82014375D01*
X107477538Y-82225711D01*
X107639289Y-82387462D01*
X107850625Y-82475000D01*
X108079375Y-82475000D01*
X108290711Y-82387462D01*
X108452462Y-82225711D01*
X108454413Y-82221000D01*
X109221000Y-82221000D01*
X109221000Y-80980994D01*
X109579000Y-80980994D01*
X109579000Y-82221000D01*
X110433000Y-82221000D01*
X110433000Y-81671000D01*
X110286132Y-81290000D01*
X115052960Y-81290000D01*
X115140273Y-81728953D01*
X115388920Y-82101080D01*
X115761047Y-82349727D01*
X116089197Y-82415000D01*
X116310803Y-82415000D01*
X116638953Y-82349727D01*
X117011080Y-82101080D01*
X117259727Y-81728953D01*
X117347040Y-81290000D01*
X117259727Y-80851047D01*
X117011080Y-80478920D01*
X116638953Y-80230273D01*
X116310803Y-80165000D01*
X116089197Y-80165000D01*
X115761047Y-80230273D01*
X115388920Y-80478920D01*
X115140273Y-80851047D01*
X115052960Y-81290000D01*
X110286132Y-81290000D01*
X110285867Y-81289314D01*
X110003869Y-80992987D01*
X109735948Y-80873154D01*
X109579000Y-80980994D01*
X109221000Y-80980994D01*
X109064052Y-80873154D01*
X108796131Y-80992987D01*
X108514133Y-81289314D01*
X108417686Y-81539513D01*
X108290711Y-81412538D01*
X108079375Y-81325000D01*
X107850625Y-81325000D01*
X107639289Y-81412538D01*
X107477538Y-81574289D01*
X107390000Y-81785625D01*
X107250000Y-81785625D01*
X107250000Y-81272957D01*
X107253710Y-81272592D01*
X107349843Y-81253470D01*
X107402441Y-81237515D01*
X107492997Y-81200006D01*
X107541473Y-81174095D01*
X107622972Y-81119639D01*
X107665461Y-81084769D01*
X107734769Y-81015461D01*
X107769639Y-80972972D01*
X107824095Y-80891473D01*
X107850006Y-80842997D01*
X107887515Y-80752441D01*
X107903470Y-80699843D01*
X107922592Y-80603710D01*
X107927980Y-80549009D01*
X107927980Y-80512106D01*
X107930388Y-80500000D01*
X107930388Y-79950000D01*
X107909045Y-79842700D01*
X107897217Y-79824999D01*
X107909044Y-79807299D01*
X107930387Y-79700000D01*
X107930387Y-78700000D01*
X107909044Y-78592701D01*
X107897217Y-78575001D01*
X107909045Y-78557300D01*
X107930388Y-78450000D01*
X107930388Y-78399000D01*
X108367000Y-78399000D01*
X108367000Y-78949000D01*
X108514133Y-79330686D01*
X108796131Y-79627013D01*
X109064052Y-79746846D01*
X109221000Y-79639006D01*
X109221000Y-78399000D01*
X109579000Y-78399000D01*
X109579000Y-79639006D01*
X109735948Y-79746846D01*
X110003869Y-79627013D01*
X110285867Y-79330686D01*
X110433000Y-78949000D01*
X110433000Y-78750000D01*
X115052960Y-78750000D01*
X115140273Y-79188953D01*
X115388920Y-79561080D01*
X115761047Y-79809727D01*
X116089197Y-79875000D01*
X116310803Y-79875000D01*
X116638953Y-79809727D01*
X117011080Y-79561080D01*
X117259727Y-79188953D01*
X117347040Y-78750000D01*
X117259727Y-78311047D01*
X117011080Y-77938920D01*
X116638953Y-77690273D01*
X116310803Y-77625000D01*
X116089197Y-77625000D01*
X115761047Y-77690273D01*
X115388920Y-77938920D01*
X115140273Y-78311047D01*
X115052960Y-78750000D01*
X110433000Y-78750000D01*
X110433000Y-78399000D01*
X109579000Y-78399000D01*
X109221000Y-78399000D01*
X108367000Y-78399000D01*
X107930388Y-78399000D01*
X107930388Y-77900000D01*
X107927980Y-77887894D01*
X107927980Y-77850991D01*
X107922592Y-77796290D01*
X107903470Y-77700157D01*
X107887515Y-77647559D01*
X107850006Y-77557003D01*
X107824095Y-77508527D01*
X107769639Y-77427028D01*
X107734769Y-77384539D01*
X107665461Y-77315231D01*
X107622972Y-77280361D01*
X107541473Y-77225905D01*
X107492997Y-77199994D01*
X107402441Y-77162485D01*
X107349843Y-77146530D01*
X107253710Y-77127408D01*
X107199009Y-77122020D01*
X107162106Y-77122020D01*
X107150000Y-77119612D01*
X106650000Y-77119612D01*
X106649951Y-77119622D01*
X106435329Y-76905000D01*
X108708567Y-76905000D01*
X108514133Y-77109314D01*
X108367000Y-77491000D01*
X108367000Y-78041000D01*
X109221000Y-78041000D01*
X109221000Y-78021000D01*
X109579000Y-78021000D01*
X109579000Y-78041000D01*
X110433000Y-78041000D01*
X110433000Y-77491000D01*
X110285867Y-77109314D01*
X110091433Y-76905000D01*
X116963063Y-76905000D01*
X117236367Y-76959363D01*
X117436747Y-77093253D01*
X117570637Y-77293632D01*
X117625001Y-77566941D01*
X117625000Y-114130998D01*
X117474745Y-114130998D01*
X117576270Y-113910789D01*
X117455466Y-113619106D01*
X117095506Y-113191251D01*
X116599213Y-112933715D01*
X116379002Y-113033958D01*
X116379002Y-112881434D01*
X116638953Y-112829727D01*
X117011080Y-112581080D01*
X117259727Y-112208953D01*
X117347040Y-111770000D01*
X117259727Y-111331047D01*
X117011080Y-110958920D01*
X116638953Y-110710273D01*
X116310803Y-110645000D01*
X116089197Y-110645000D01*
X115761047Y-110710273D01*
X115388920Y-110958920D01*
X115275000Y-111129414D01*
X115275000Y-110649973D01*
X115685635Y-110239339D01*
X115761047Y-110289727D01*
X116089197Y-110355000D01*
X116310803Y-110355000D01*
X116638953Y-110289727D01*
X117011080Y-110041080D01*
X117259727Y-109668953D01*
X117347040Y-109230000D01*
X117259727Y-108791047D01*
X117011080Y-108418920D01*
X116638953Y-108170273D01*
X116310803Y-108105000D01*
X116089197Y-108105000D01*
X115761047Y-108170273D01*
X115388920Y-108418920D01*
X115140273Y-108791047D01*
X115052960Y-109230000D01*
X115140273Y-109668953D01*
X115190661Y-109744365D01*
X114875000Y-110060027D01*
X114875000Y-107619973D01*
X115230695Y-107264279D01*
X115388920Y-107501080D01*
X115761047Y-107749727D01*
X116089197Y-107815000D01*
X116310803Y-107815000D01*
X116638953Y-107749727D01*
X117011080Y-107501080D01*
X117259727Y-107128953D01*
X117347040Y-106690000D01*
X117259727Y-106251047D01*
X117011080Y-105878920D01*
X116638953Y-105630273D01*
X116310803Y-105565000D01*
X116089197Y-105565000D01*
X115761047Y-105630273D01*
X115388920Y-105878920D01*
X115140273Y-106251047D01*
X115110125Y-106402612D01*
X115086885Y-106418140D01*
X115086883Y-106418142D01*
X115057665Y-106437665D01*
X115038142Y-106466883D01*
X114400000Y-107105027D01*
X114400000Y-105294973D01*
X115134590Y-104560384D01*
X115140273Y-104588953D01*
X115388920Y-104961080D01*
X115761047Y-105209727D01*
X116089197Y-105275000D01*
X116310803Y-105275000D01*
X116638953Y-105209727D01*
X117011080Y-104961080D01*
X117259727Y-104588953D01*
X117347040Y-104150000D01*
X117259727Y-103711047D01*
X117011080Y-103338920D01*
X116638953Y-103090273D01*
X116310803Y-103025000D01*
X116089197Y-103025000D01*
X115761047Y-103090273D01*
X115388920Y-103338920D01*
X115140273Y-103711047D01*
X115122579Y-103800000D01*
X115084464Y-103800000D01*
X115050000Y-103793145D01*
X115015536Y-103800000D01*
X115015532Y-103800000D01*
X114913437Y-103820308D01*
X114826885Y-103878140D01*
X114826883Y-103878142D01*
X114797665Y-103897665D01*
X114778142Y-103926883D01*
X114025000Y-104680027D01*
X114025000Y-102469973D01*
X114534975Y-101960000D01*
X115122579Y-101960000D01*
X115140273Y-102048953D01*
X115388920Y-102421080D01*
X115761047Y-102669727D01*
X116089197Y-102735000D01*
X116310803Y-102735000D01*
X116638953Y-102669727D01*
X117011080Y-102421080D01*
X117259727Y-102048953D01*
X117347040Y-101610000D01*
X117259727Y-101171047D01*
X117011080Y-100798920D01*
X116638953Y-100550273D01*
X116310803Y-100485000D01*
X116089197Y-100485000D01*
X115761047Y-100550273D01*
X115388920Y-100798920D01*
X115140273Y-101171047D01*
X115122579Y-101260000D01*
X114424464Y-101260000D01*
X114390000Y-101253145D01*
X114355536Y-101260000D01*
X114355532Y-101260000D01*
X114253437Y-101280308D01*
X114166885Y-101338140D01*
X114166883Y-101338142D01*
X114137665Y-101357665D01*
X114118142Y-101386883D01*
X113600000Y-101905026D01*
X113600000Y-100044973D01*
X114224974Y-99420000D01*
X115122579Y-99420000D01*
X115140273Y-99508953D01*
X115388920Y-99881080D01*
X115761047Y-100129727D01*
X116089197Y-100195000D01*
X116310803Y-100195000D01*
X116638953Y-100129727D01*
X117011080Y-99881080D01*
X117259727Y-99508953D01*
X117347040Y-99070000D01*
X117259727Y-98631047D01*
X117011080Y-98258920D01*
X116638953Y-98010273D01*
X116310803Y-97945000D01*
X116089197Y-97945000D01*
X115761047Y-98010273D01*
X115388920Y-98258920D01*
X115140273Y-98631047D01*
X115122579Y-98720000D01*
X114114462Y-98720000D01*
X114079999Y-98713145D01*
X114045536Y-98720000D01*
X114045532Y-98720000D01*
X113943437Y-98740308D01*
X113827665Y-98817665D01*
X113808140Y-98846886D01*
X113250000Y-99405027D01*
X113250000Y-98289961D01*
X114659962Y-96880000D01*
X115122579Y-96880000D01*
X115140273Y-96968953D01*
X115388920Y-97341080D01*
X115761047Y-97589727D01*
X116089197Y-97655000D01*
X116310803Y-97655000D01*
X116638953Y-97589727D01*
X117011080Y-97341080D01*
X117259727Y-96968953D01*
X117347040Y-96530000D01*
X117259727Y-96091047D01*
X117011080Y-95718920D01*
X116638953Y-95470273D01*
X116310803Y-95405000D01*
X116089197Y-95405000D01*
X115761047Y-95470273D01*
X115388920Y-95718920D01*
X115140273Y-96091047D01*
X115122579Y-96180000D01*
X114549452Y-96180000D01*
X114514988Y-96173145D01*
X114480524Y-96180000D01*
X114480520Y-96180000D01*
X114378425Y-96200308D01*
X114262653Y-96277665D01*
X114243128Y-96306886D01*
X113800020Y-96749994D01*
X113800020Y-95144973D01*
X114604995Y-94340000D01*
X115122579Y-94340000D01*
X115140273Y-94428953D01*
X115388920Y-94801080D01*
X115761047Y-95049727D01*
X116089197Y-95115000D01*
X116310803Y-95115000D01*
X116638953Y-95049727D01*
X117011080Y-94801080D01*
X117259727Y-94428953D01*
X117347040Y-93990000D01*
X117259727Y-93551047D01*
X117011080Y-93178920D01*
X116638953Y-92930273D01*
X116310803Y-92865000D01*
X116089197Y-92865000D01*
X115761047Y-92930273D01*
X115388920Y-93178920D01*
X115140273Y-93551047D01*
X115122579Y-93640000D01*
X114494484Y-93640000D01*
X114460020Y-93633145D01*
X114425556Y-93640000D01*
X114425552Y-93640000D01*
X114323457Y-93660308D01*
X114236905Y-93718140D01*
X114236903Y-93718142D01*
X114207685Y-93737665D01*
X114188162Y-93766883D01*
X113450010Y-94505036D01*
X113450010Y-92544963D01*
X114194975Y-91800000D01*
X115122579Y-91800000D01*
X115140273Y-91888953D01*
X115388920Y-92261080D01*
X115761047Y-92509727D01*
X116089197Y-92575000D01*
X116310803Y-92575000D01*
X116638953Y-92509727D01*
X117011080Y-92261080D01*
X117259727Y-91888953D01*
X117347040Y-91450000D01*
X117259727Y-91011047D01*
X117011080Y-90638920D01*
X116638953Y-90390273D01*
X116310803Y-90325000D01*
X116089197Y-90325000D01*
X115761047Y-90390273D01*
X115388920Y-90638920D01*
X115140273Y-91011047D01*
X115122579Y-91100000D01*
X114084464Y-91100000D01*
X114050000Y-91093145D01*
X114015536Y-91100000D01*
X114015532Y-91100000D01*
X113913437Y-91120308D01*
X113826885Y-91178140D01*
X113826883Y-91178142D01*
X113797665Y-91197665D01*
X113778142Y-91226883D01*
X113100000Y-91905026D01*
X113100000Y-89894983D01*
X113734985Y-89260000D01*
X115122579Y-89260000D01*
X115140273Y-89348953D01*
X115388920Y-89721080D01*
X115761047Y-89969727D01*
X116089197Y-90035000D01*
X116310803Y-90035000D01*
X116638953Y-89969727D01*
X117011080Y-89721080D01*
X117259727Y-89348953D01*
X117347040Y-88910000D01*
X117259727Y-88471047D01*
X117011080Y-88098920D01*
X116638953Y-87850273D01*
X116310803Y-87785000D01*
X116089197Y-87785000D01*
X115761047Y-87850273D01*
X115388920Y-88098920D01*
X115214880Y-88359389D01*
X115127665Y-88417665D01*
X115050308Y-88533437D01*
X115045024Y-88560000D01*
X113624474Y-88560000D01*
X113590010Y-88553145D01*
X113555546Y-88560000D01*
X113555542Y-88560000D01*
X113453447Y-88580308D01*
X113366895Y-88638140D01*
X113366893Y-88638142D01*
X113337675Y-88657665D01*
X113318152Y-88686883D01*
X112750000Y-89255036D01*
X112750000Y-87844973D01*
X113874974Y-86720000D01*
X115122579Y-86720000D01*
X115140273Y-86808953D01*
X115388920Y-87181080D01*
X115761047Y-87429727D01*
X116089197Y-87495000D01*
X116310803Y-87495000D01*
X116638953Y-87429727D01*
X117011080Y-87181080D01*
X117259727Y-86808953D01*
X117347040Y-86370000D01*
X117259727Y-85931047D01*
X117011080Y-85558920D01*
X116638953Y-85310273D01*
X116310803Y-85245000D01*
X116089197Y-85245000D01*
X115761047Y-85310273D01*
X115388920Y-85558920D01*
X115140273Y-85931047D01*
X115122579Y-86020000D01*
X113764463Y-86020000D01*
X113729999Y-86013145D01*
X113695535Y-86020000D01*
X113695532Y-86020000D01*
X113593437Y-86040308D01*
X113477665Y-86117665D01*
X113458140Y-86146886D01*
X112400000Y-87205027D01*
X112400000Y-85744973D01*
X113964974Y-84180000D01*
X115122579Y-84180000D01*
X115140273Y-84268953D01*
X115388920Y-84641080D01*
X115761047Y-84889727D01*
X116089197Y-84955000D01*
X116310803Y-84955000D01*
X116638953Y-84889727D01*
X117011080Y-84641080D01*
X117259727Y-84268953D01*
X117347040Y-83830000D01*
X117259727Y-83391047D01*
X117011080Y-83018920D01*
X116638953Y-82770273D01*
X116310803Y-82705000D01*
X116089197Y-82705000D01*
X115761047Y-82770273D01*
X115388920Y-83018920D01*
X115140273Y-83391047D01*
X115122579Y-83480000D01*
X113854463Y-83480000D01*
X113819999Y-83473145D01*
X113785535Y-83480000D01*
X113785532Y-83480000D01*
X113683437Y-83500308D01*
X113567665Y-83577665D01*
X113548140Y-83606886D01*
X111826887Y-85328140D01*
X111797666Y-85347665D01*
X111778141Y-85376886D01*
X111720308Y-85463438D01*
X111693145Y-85600000D01*
X111700001Y-85634468D01*
X111700000Y-90345532D01*
X111700000Y-90534467D01*
X111700001Y-90534472D01*
X111700000Y-96255025D01*
X104805027Y-103150000D01*
X104580653Y-103150000D01*
X104360127Y-103241344D01*
X104191344Y-103410127D01*
X104100000Y-103630653D01*
X104100000Y-103869347D01*
X104191344Y-104089873D01*
X104360127Y-104258656D01*
X104580653Y-104350000D01*
X104819347Y-104350000D01*
X105039873Y-104258656D01*
X105208656Y-104089873D01*
X105300000Y-103869347D01*
X105300000Y-103649347D01*
X105391344Y-103869873D01*
X105560127Y-104038656D01*
X105780653Y-104130000D01*
X106019347Y-104130000D01*
X106239873Y-104038656D01*
X106408656Y-103869873D01*
X106500000Y-103649347D01*
X106500000Y-103410653D01*
X106408656Y-103190127D01*
X106356751Y-103138222D01*
X111050000Y-98444974D01*
X111050001Y-100015529D01*
X111050000Y-100015533D01*
X111050000Y-100365533D01*
X111050001Y-101755024D01*
X106300643Y-106504384D01*
X106169347Y-106450000D01*
X105930653Y-106450000D01*
X105710127Y-106541344D01*
X105541344Y-106710127D01*
X105450000Y-106930653D01*
X105450000Y-107169347D01*
X105541344Y-107389873D01*
X105710127Y-107558656D01*
X105912533Y-107642494D01*
X105326887Y-108228140D01*
X105297666Y-108247665D01*
X105278141Y-108276886D01*
X105220308Y-108363438D01*
X105193145Y-108500000D01*
X105200001Y-108534468D01*
X105200000Y-109351471D01*
X105041344Y-109510127D01*
X104950000Y-109730653D01*
X104950000Y-109969347D01*
X104969934Y-110017473D01*
X104875000Y-109922539D01*
X104875000Y-108450415D01*
X104950000Y-108269347D01*
X104950000Y-108030653D01*
X104858656Y-107810127D01*
X104689873Y-107641344D01*
X104469347Y-107550000D01*
X104230653Y-107550000D01*
X104010127Y-107641344D01*
X103841344Y-107810127D01*
X103750000Y-108030653D01*
X103750000Y-108269347D01*
X103825000Y-108450415D01*
X103825001Y-110088289D01*
X103814715Y-110140000D01*
X103855461Y-110344844D01*
X103871226Y-110368438D01*
X103971497Y-110518504D01*
X104015333Y-110547795D01*
X105052205Y-111584667D01*
X105081496Y-111628504D01*
X105255155Y-111744539D01*
X105391540Y-111771668D01*
X105580653Y-111850000D01*
X105819347Y-111850000D01*
X106039873Y-111758656D01*
X106208656Y-111589873D01*
X106300000Y-111369347D01*
X106300000Y-111130653D01*
X106287303Y-111100000D01*
X106419347Y-111100000D01*
X106639873Y-111008656D01*
X106808656Y-110839873D01*
X106900000Y-110619347D01*
X106900000Y-110380653D01*
X106808656Y-110160127D01*
X106639873Y-109991344D01*
X106500000Y-109933407D01*
X106500000Y-108539961D01*
X108428773Y-106611189D01*
X108400000Y-106680653D01*
X108400000Y-106905026D01*
X107676887Y-107628140D01*
X107647665Y-107647666D01*
X107570308Y-107763438D01*
X107550000Y-107865533D01*
X107550000Y-107865536D01*
X107543145Y-107900000D01*
X107550000Y-107934464D01*
X107550001Y-110415532D01*
X107550000Y-112101471D01*
X107391344Y-112260127D01*
X107300000Y-112480653D01*
X107300000Y-112719347D01*
X107391344Y-112939873D01*
X107560127Y-113108656D01*
X107780653Y-113200000D01*
X108019347Y-113200000D01*
X108239873Y-113108656D01*
X108398529Y-112950000D01*
X109655027Y-112950000D01*
X111853142Y-115148117D01*
X111872665Y-115177335D01*
X111901883Y-115196858D01*
X111901885Y-115196860D01*
X111952460Y-115230653D01*
X111988437Y-115254692D01*
X112090532Y-115275000D01*
X112090536Y-115275000D01*
X112125000Y-115281855D01*
X112159464Y-115275000D01*
X113640536Y-115275000D01*
X113675000Y-115281855D01*
X113709464Y-115275000D01*
X113709468Y-115275000D01*
X113811563Y-115254692D01*
X113927335Y-115177335D01*
X113946862Y-115148112D01*
X114123115Y-114971858D01*
X114152334Y-114952335D01*
X114229692Y-114836563D01*
X114250000Y-114734468D01*
X114250000Y-114734465D01*
X114256855Y-114700001D01*
X114250000Y-114665537D01*
X114250000Y-114214973D01*
X115421869Y-113043105D01*
X115421871Y-113043102D01*
X115685635Y-112779338D01*
X115761047Y-112829727D01*
X116020998Y-112881434D01*
X116020998Y-113033958D01*
X115800787Y-112933715D01*
X115304494Y-113191251D01*
X114944534Y-113619106D01*
X114823730Y-113910789D01*
X114925256Y-114131000D01*
X116021000Y-114131000D01*
X116021000Y-114111000D01*
X116379000Y-114111000D01*
X116379000Y-114131000D01*
X116399000Y-114131000D01*
X116399000Y-114489000D01*
X116379000Y-114489000D01*
X116379000Y-116671000D01*
X116399000Y-116671000D01*
X116399000Y-117029000D01*
X116379000Y-117029000D01*
X116379000Y-118137250D01*
X116524750Y-118283000D01*
X117165966Y-118283000D01*
X117380243Y-118194244D01*
X117544244Y-118030243D01*
X117625000Y-117835279D01*
X117625000Y-123713064D01*
X117570637Y-123986368D01*
X117436747Y-124186747D01*
X117236367Y-124320637D01*
X116963063Y-124375000D01*
X98869956Y-124375000D01*
X98865208Y-122774750D01*
X110642000Y-122774750D01*
X110642000Y-123165966D01*
X110730756Y-123380243D01*
X110894757Y-123544244D01*
X111109034Y-123633000D01*
X111275250Y-123633000D01*
X111421000Y-123487250D01*
X111421000Y-122629000D01*
X111779000Y-122629000D01*
X111779000Y-123487250D01*
X111924750Y-123633000D01*
X112090966Y-123633000D01*
X112305243Y-123544244D01*
X112400000Y-123449487D01*
X112494757Y-123544244D01*
X112709034Y-123633000D01*
X112875250Y-123633000D01*
X113021000Y-123487250D01*
X113021000Y-122629000D01*
X113379000Y-122629000D01*
X113379000Y-123487250D01*
X113524750Y-123633000D01*
X113690966Y-123633000D01*
X113905243Y-123544244D01*
X114069244Y-123380243D01*
X114158000Y-123165966D01*
X114158000Y-122774750D01*
X114012250Y-122629000D01*
X113379000Y-122629000D01*
X113021000Y-122629000D01*
X111779000Y-122629000D01*
X111421000Y-122629000D01*
X110787750Y-122629000D01*
X110642000Y-122774750D01*
X98865208Y-122774750D01*
X98850000Y-117649777D01*
X98844205Y-117621093D01*
X98827875Y-117596810D01*
X98803496Y-117580624D01*
X98775000Y-117575000D01*
X89275000Y-117575000D01*
X89275000Y-116665734D01*
X100275000Y-116665734D01*
X100275000Y-116934266D01*
X100377763Y-117182357D01*
X100567643Y-117372237D01*
X100815734Y-117475000D01*
X101084266Y-117475000D01*
X101332357Y-117372237D01*
X101522237Y-117182357D01*
X101625000Y-116934266D01*
X101625000Y-116867461D01*
X102067462Y-116425000D01*
X102872539Y-116425000D01*
X103725000Y-117277462D01*
X103725000Y-117344266D01*
X103827763Y-117592357D01*
X104017643Y-117782237D01*
X104265734Y-117885000D01*
X104534266Y-117885000D01*
X104782357Y-117782237D01*
X104972237Y-117592357D01*
X105075000Y-117344266D01*
X105075000Y-117075734D01*
X104972237Y-116827643D01*
X104782357Y-116637763D01*
X104534266Y-116535000D01*
X104467462Y-116535000D01*
X104013115Y-116080653D01*
X105075000Y-116080653D01*
X105075000Y-116319347D01*
X105166344Y-116539873D01*
X105300000Y-116673529D01*
X105300001Y-118638069D01*
X105292655Y-118675000D01*
X105321759Y-118821318D01*
X105383721Y-118914050D01*
X105383723Y-118914052D01*
X105404642Y-118945359D01*
X105435949Y-118966278D01*
X107258722Y-120789052D01*
X107279641Y-120820359D01*
X107310948Y-120841278D01*
X107403681Y-120903241D01*
X107403682Y-120903241D01*
X107403683Y-120903242D01*
X107513069Y-120925000D01*
X107513073Y-120925000D01*
X107549999Y-120932345D01*
X107586925Y-120925000D01*
X110944613Y-120925000D01*
X110944613Y-121150000D01*
X110965956Y-121257299D01*
X111002048Y-121311315D01*
X110894757Y-121355756D01*
X110730756Y-121519757D01*
X110642000Y-121734034D01*
X110642000Y-122125250D01*
X110787750Y-122271000D01*
X111421000Y-122271000D01*
X111421000Y-122251000D01*
X111779000Y-122251000D01*
X111779000Y-122271000D01*
X113021000Y-122271000D01*
X113021000Y-122251000D01*
X113379000Y-122251000D01*
X113379000Y-122271000D01*
X114012250Y-122271000D01*
X114158000Y-122125250D01*
X114158000Y-121734034D01*
X114069244Y-121519757D01*
X113905243Y-121355756D01*
X113797952Y-121311315D01*
X113834044Y-121257299D01*
X113855387Y-121150000D01*
X113855387Y-119950000D01*
X113834044Y-119842701D01*
X113773264Y-119751736D01*
X113682299Y-119690956D01*
X113575000Y-119669613D01*
X113450000Y-119669613D01*
X113450000Y-119325595D01*
X113519002Y-119297013D01*
X113737013Y-119079002D01*
X113855000Y-118794157D01*
X113855000Y-118485843D01*
X113737013Y-118200998D01*
X113519002Y-117982987D01*
X113234157Y-117865000D01*
X112925843Y-117865000D01*
X112843911Y-117898937D01*
X112421862Y-117476889D01*
X112402335Y-117447665D01*
X112286563Y-117370308D01*
X112184468Y-117350000D01*
X112184464Y-117350000D01*
X112150000Y-117343145D01*
X112115536Y-117350000D01*
X111134462Y-117350000D01*
X111099999Y-117343145D01*
X111065537Y-117350000D01*
X111065532Y-117350000D01*
X110963437Y-117370308D01*
X110847665Y-117447665D01*
X110828140Y-117476886D01*
X110426887Y-117878140D01*
X110397666Y-117897665D01*
X110378141Y-117926886D01*
X110320308Y-118013438D01*
X110293145Y-118150000D01*
X110300001Y-118184468D01*
X110300000Y-119455025D01*
X109955027Y-119800000D01*
X107894975Y-119800000D01*
X106900000Y-118805027D01*
X106900000Y-117174750D01*
X114767000Y-117174750D01*
X114767000Y-117815966D01*
X114855756Y-118030243D01*
X115019757Y-118194244D01*
X115234034Y-118283000D01*
X115875250Y-118283000D01*
X116021000Y-118137250D01*
X116021000Y-117029000D01*
X114912750Y-117029000D01*
X114767000Y-117174750D01*
X106900000Y-117174750D01*
X106900000Y-115884034D01*
X114767000Y-115884034D01*
X114767000Y-116525250D01*
X114912750Y-116671000D01*
X116021000Y-116671000D01*
X116021000Y-114489000D01*
X114925256Y-114489000D01*
X114823730Y-114709211D01*
X114944534Y-115000894D01*
X115294609Y-115417000D01*
X115234034Y-115417000D01*
X115019757Y-115505756D01*
X114855756Y-115669757D01*
X114767000Y-115884034D01*
X106900000Y-115884034D01*
X106900000Y-115834462D01*
X106906855Y-115799999D01*
X106900000Y-115765537D01*
X106900000Y-115765532D01*
X106879692Y-115663437D01*
X106802334Y-115547665D01*
X106773116Y-115528142D01*
X106500000Y-115255027D01*
X106500000Y-115230653D01*
X106408656Y-115010127D01*
X106239873Y-114841344D01*
X106019347Y-114750000D01*
X105780653Y-114750000D01*
X105560127Y-114841344D01*
X105391344Y-115010127D01*
X105300000Y-115230653D01*
X105300000Y-115469347D01*
X105383631Y-115671253D01*
X105335127Y-115691344D01*
X105166344Y-115860127D01*
X105075000Y-116080653D01*
X104013115Y-116080653D01*
X103497797Y-115565336D01*
X103468504Y-115521496D01*
X103294845Y-115405461D01*
X103141706Y-115375000D01*
X103090000Y-115364715D01*
X103038294Y-115375000D01*
X101901705Y-115375000D01*
X101849999Y-115364715D01*
X101645155Y-115405461D01*
X101471496Y-115521496D01*
X101442205Y-115565333D01*
X100882539Y-116125000D01*
X100815734Y-116125000D01*
X100567643Y-116227763D01*
X100377763Y-116417643D01*
X100275000Y-116665734D01*
X89275000Y-116665734D01*
X89275000Y-112049002D01*
X89425255Y-112049002D01*
X89323730Y-112269211D01*
X89444534Y-112560894D01*
X89804494Y-112988749D01*
X90300787Y-113246285D01*
X90521000Y-113146041D01*
X90521000Y-112049000D01*
X90879000Y-112049000D01*
X90879000Y-113146041D01*
X91099213Y-113246285D01*
X91595506Y-112988749D01*
X91955466Y-112560894D01*
X92076270Y-112269211D01*
X91974744Y-112049000D01*
X90879000Y-112049000D01*
X90521000Y-112049000D01*
X90501000Y-112049000D01*
X90501000Y-111691000D01*
X90521000Y-111691000D01*
X90521000Y-111671000D01*
X90879000Y-111671000D01*
X90879000Y-111691000D01*
X91974744Y-111691000D01*
X92076270Y-111470789D01*
X91955466Y-111179106D01*
X91595506Y-110751251D01*
X91099213Y-110493715D01*
X90879002Y-110593958D01*
X90879002Y-110441434D01*
X91138953Y-110389727D01*
X91511080Y-110141080D01*
X91759727Y-109768953D01*
X91847040Y-109330000D01*
X91759727Y-108891047D01*
X91511080Y-108518920D01*
X91138953Y-108270273D01*
X90810803Y-108205000D01*
X90589197Y-108205000D01*
X90261047Y-108270273D01*
X89888920Y-108518920D01*
X89640273Y-108891047D01*
X89552960Y-109330000D01*
X89640273Y-109768953D01*
X89888920Y-110141080D01*
X90261047Y-110389727D01*
X90520998Y-110441434D01*
X90520998Y-110593958D01*
X90300787Y-110493715D01*
X89804494Y-110751251D01*
X89444534Y-111179106D01*
X89323730Y-111470789D01*
X89425255Y-111690998D01*
X89275000Y-111690998D01*
X89275000Y-106790000D01*
X89552960Y-106790000D01*
X89640273Y-107228953D01*
X89888920Y-107601080D01*
X90261047Y-107849727D01*
X90589197Y-107915000D01*
X90810803Y-107915000D01*
X91138953Y-107849727D01*
X91511080Y-107601080D01*
X91705136Y-107310653D01*
X93710000Y-107310653D01*
X93710000Y-107549347D01*
X93801344Y-107769873D01*
X93970127Y-107938656D01*
X94190653Y-108030000D01*
X94429347Y-108030000D01*
X94649873Y-107938656D01*
X94808529Y-107780000D01*
X95235027Y-107780000D01*
X97100000Y-109644974D01*
X97100001Y-110051470D01*
X96941344Y-110210127D01*
X96850000Y-110430653D01*
X96850000Y-110669347D01*
X96941344Y-110889873D01*
X97110127Y-111058656D01*
X97330653Y-111150000D01*
X97569347Y-111150000D01*
X97789873Y-111058656D01*
X97958656Y-110889873D01*
X98050000Y-110669347D01*
X98050000Y-110430653D01*
X97958656Y-110210127D01*
X97800000Y-110051471D01*
X97800000Y-109719974D01*
X98600001Y-110519976D01*
X98600001Y-110751470D01*
X98441344Y-110910127D01*
X98350000Y-111130653D01*
X98350000Y-111369347D01*
X98441344Y-111589873D01*
X98610127Y-111758656D01*
X98830653Y-111850000D01*
X98950014Y-111850000D01*
X97850015Y-112950000D01*
X97384464Y-112950000D01*
X97350000Y-112943145D01*
X97315536Y-112950000D01*
X97315532Y-112950000D01*
X97213437Y-112970308D01*
X97126885Y-113028140D01*
X97126883Y-113028142D01*
X97097665Y-113047665D01*
X97096105Y-113050000D01*
X96880653Y-113050000D01*
X96660127Y-113141344D01*
X96491344Y-113310127D01*
X96400000Y-113530653D01*
X96400000Y-113769347D01*
X96491344Y-113989873D01*
X96660127Y-114158656D01*
X96880653Y-114250000D01*
X97119347Y-114250000D01*
X97339873Y-114158656D01*
X97387836Y-114110693D01*
X97441344Y-114239873D01*
X97610127Y-114408656D01*
X97830653Y-114500000D01*
X98069347Y-114500000D01*
X98289873Y-114408656D01*
X98458656Y-114239873D01*
X98550000Y-114019347D01*
X98550000Y-113780653D01*
X98539550Y-113755424D01*
X101773119Y-110521856D01*
X101802334Y-110502335D01*
X101821856Y-110473119D01*
X101821860Y-110473115D01*
X101879692Y-110386563D01*
X101885970Y-110355000D01*
X101900000Y-110284468D01*
X101900000Y-110284464D01*
X101906855Y-110250000D01*
X101900000Y-110215536D01*
X101900000Y-109089961D01*
X102258012Y-108731951D01*
X102302335Y-108702335D01*
X102379692Y-108586563D01*
X102406856Y-108450000D01*
X102400000Y-108415532D01*
X102400000Y-102969973D01*
X105519974Y-99850000D01*
X105719347Y-99850000D01*
X105939873Y-99758656D01*
X106108656Y-99589873D01*
X106200000Y-99369347D01*
X106200000Y-99130653D01*
X106108656Y-98910127D01*
X105939873Y-98741344D01*
X105719347Y-98650000D01*
X105480653Y-98650000D01*
X105260127Y-98741344D01*
X105091344Y-98910127D01*
X105000000Y-99130653D01*
X105000000Y-99230653D01*
X104908656Y-99010127D01*
X104739873Y-98841344D01*
X104519347Y-98750000D01*
X104280653Y-98750000D01*
X104060127Y-98841344D01*
X103891344Y-99010127D01*
X103800000Y-99230653D01*
X103800000Y-99455025D01*
X101476887Y-101778140D01*
X101447666Y-101797665D01*
X101428141Y-101826886D01*
X101370308Y-101913438D01*
X101343145Y-102050000D01*
X101350001Y-102084468D01*
X101350000Y-105569001D01*
X101321859Y-105526884D01*
X101321856Y-105526881D01*
X101302334Y-105497665D01*
X101273119Y-105478144D01*
X99850000Y-104055027D01*
X99850000Y-103830653D01*
X99758656Y-103610127D01*
X99589873Y-103441344D01*
X99369347Y-103350000D01*
X99130653Y-103350000D01*
X98910127Y-103441344D01*
X98741344Y-103610127D01*
X98650000Y-103830653D01*
X98650000Y-104069347D01*
X98741344Y-104289873D01*
X98910127Y-104458656D01*
X99130653Y-104550000D01*
X99355027Y-104550000D01*
X100700000Y-105894975D01*
X100700001Y-107501470D01*
X100541344Y-107660127D01*
X100450000Y-107880653D01*
X100450000Y-108030026D01*
X97457227Y-105037254D01*
X97475000Y-104994347D01*
X97475000Y-104755653D01*
X97383656Y-104535127D01*
X97214873Y-104366344D01*
X96994347Y-104275000D01*
X96755653Y-104275000D01*
X96535127Y-104366344D01*
X96366344Y-104535127D01*
X96275000Y-104755653D01*
X96275000Y-104994347D01*
X96366344Y-105214873D01*
X96535127Y-105383656D01*
X96755653Y-105475000D01*
X96905027Y-105475000D01*
X100350026Y-108920000D01*
X100120653Y-108920000D01*
X99900127Y-109011344D01*
X99741471Y-109170000D01*
X99234975Y-109170000D01*
X96329507Y-106264534D01*
X96400000Y-106094347D01*
X96400000Y-105855653D01*
X96308656Y-105635127D01*
X96150000Y-105476471D01*
X96150000Y-104748529D01*
X96258656Y-104639873D01*
X96350000Y-104419347D01*
X96350000Y-104180653D01*
X96258656Y-103960127D01*
X96089873Y-103791344D01*
X95869347Y-103700000D01*
X95630653Y-103700000D01*
X95410127Y-103791344D01*
X95241344Y-103960127D01*
X95150000Y-104180653D01*
X95150000Y-104419347D01*
X95241344Y-104639873D01*
X95410127Y-104808656D01*
X95450001Y-104825172D01*
X95450000Y-105476471D01*
X95291344Y-105635127D01*
X95200000Y-105855653D01*
X95200000Y-106094347D01*
X95225229Y-106155256D01*
X94909251Y-105839278D01*
X95008656Y-105739873D01*
X95100000Y-105519347D01*
X95100000Y-105280653D01*
X95008656Y-105060127D01*
X94839873Y-104891344D01*
X94619347Y-104800000D01*
X94380653Y-104800000D01*
X94160127Y-104891344D01*
X93991344Y-105060127D01*
X93900000Y-105280653D01*
X93900000Y-105519347D01*
X93991344Y-105739873D01*
X94148674Y-105897203D01*
X94143145Y-105925000D01*
X94170308Y-106061562D01*
X94203718Y-106111563D01*
X94247666Y-106177335D01*
X94276887Y-106196860D01*
X95160026Y-107080000D01*
X94808529Y-107080000D01*
X94649873Y-106921344D01*
X94429347Y-106830000D01*
X94190653Y-106830000D01*
X93970127Y-106921344D01*
X93801344Y-107090127D01*
X93710000Y-107310653D01*
X91705136Y-107310653D01*
X91759727Y-107228953D01*
X91847040Y-106790000D01*
X91759727Y-106351047D01*
X91511080Y-105978920D01*
X91138953Y-105730273D01*
X90810803Y-105665000D01*
X90589197Y-105665000D01*
X90261047Y-105730273D01*
X89888920Y-105978920D01*
X89640273Y-106351047D01*
X89552960Y-106790000D01*
X89275000Y-106790000D01*
X89275000Y-99170000D01*
X89552960Y-99170000D01*
X89640273Y-99608953D01*
X89888920Y-99981080D01*
X90261047Y-100229727D01*
X90589197Y-100295000D01*
X90810803Y-100295000D01*
X91138953Y-100229727D01*
X91511080Y-99981080D01*
X91759727Y-99608953D01*
X91847040Y-99170000D01*
X91759727Y-98731047D01*
X91511080Y-98358920D01*
X91138953Y-98110273D01*
X90810803Y-98045000D01*
X90589197Y-98045000D01*
X90261047Y-98110273D01*
X89888920Y-98358920D01*
X89640273Y-98731047D01*
X89552960Y-99170000D01*
X89275000Y-99170000D01*
X89275000Y-96630000D01*
X89552960Y-96630000D01*
X89640273Y-97068953D01*
X89888920Y-97441080D01*
X90261047Y-97689727D01*
X90589197Y-97755000D01*
X90810803Y-97755000D01*
X91138953Y-97689727D01*
X91511080Y-97441080D01*
X91759727Y-97068953D01*
X91847040Y-96630000D01*
X91759727Y-96191047D01*
X91511080Y-95818920D01*
X91138953Y-95570273D01*
X90810803Y-95505000D01*
X90589197Y-95505000D01*
X90261047Y-95570273D01*
X89888920Y-95818920D01*
X89640273Y-96191047D01*
X89552960Y-96630000D01*
X89275000Y-96630000D01*
X89275000Y-94090000D01*
X89552960Y-94090000D01*
X89640273Y-94528953D01*
X89888920Y-94901080D01*
X90261047Y-95149727D01*
X90589197Y-95215000D01*
X90810803Y-95215000D01*
X91138953Y-95149727D01*
X91511080Y-94901080D01*
X91759727Y-94528953D01*
X91847040Y-94090000D01*
X91759727Y-93651047D01*
X91511080Y-93278920D01*
X91138953Y-93030273D01*
X90810803Y-92965000D01*
X90589197Y-92965000D01*
X90261047Y-93030273D01*
X89888920Y-93278920D01*
X89640273Y-93651047D01*
X89552960Y-94090000D01*
X89275000Y-94090000D01*
X89275000Y-91550000D01*
X89552960Y-91550000D01*
X89640273Y-91988953D01*
X89888920Y-92361080D01*
X90261047Y-92609727D01*
X90589197Y-92675000D01*
X90810803Y-92675000D01*
X91138953Y-92609727D01*
X91511080Y-92361080D01*
X91759727Y-91988953D01*
X91847040Y-91550000D01*
X91759727Y-91111047D01*
X91511080Y-90738920D01*
X91138953Y-90490273D01*
X90810803Y-90425000D01*
X90589197Y-90425000D01*
X90261047Y-90490273D01*
X89888920Y-90738920D01*
X89640273Y-91111047D01*
X89552960Y-91550000D01*
X89275000Y-91550000D01*
X89275000Y-89010000D01*
X89552960Y-89010000D01*
X89640273Y-89448953D01*
X89888920Y-89821080D01*
X90261047Y-90069727D01*
X90589197Y-90135000D01*
X90810803Y-90135000D01*
X91138953Y-90069727D01*
X91511080Y-89821080D01*
X91759727Y-89448953D01*
X91847040Y-89010000D01*
X91759727Y-88571047D01*
X91511080Y-88198920D01*
X91138953Y-87950273D01*
X90810803Y-87885000D01*
X90589197Y-87885000D01*
X90261047Y-87950273D01*
X89888920Y-88198920D01*
X89640273Y-88571047D01*
X89552960Y-89010000D01*
X89275000Y-89010000D01*
X89275000Y-86470000D01*
X89552960Y-86470000D01*
X89640273Y-86908953D01*
X89888920Y-87281080D01*
X90261047Y-87529727D01*
X90589197Y-87595000D01*
X90810803Y-87595000D01*
X91138953Y-87529727D01*
X91511080Y-87281080D01*
X91759727Y-86908953D01*
X91847040Y-86470000D01*
X91759727Y-86031047D01*
X91511080Y-85658920D01*
X91138953Y-85410273D01*
X90810803Y-85345000D01*
X90589197Y-85345000D01*
X90261047Y-85410273D01*
X89888920Y-85658920D01*
X89640273Y-86031047D01*
X89552960Y-86470000D01*
X89275000Y-86470000D01*
X89275000Y-83930000D01*
X89552960Y-83930000D01*
X89640273Y-84368953D01*
X89888920Y-84741080D01*
X90261047Y-84989727D01*
X90589197Y-85055000D01*
X90810803Y-85055000D01*
X91138953Y-84989727D01*
X91511080Y-84741080D01*
X91759727Y-84368953D01*
X91847040Y-83930000D01*
X91759727Y-83491047D01*
X91511080Y-83118920D01*
X91138953Y-82870273D01*
X90810803Y-82805000D01*
X90589197Y-82805000D01*
X90261047Y-82870273D01*
X89888920Y-83118920D01*
X89640273Y-83491047D01*
X89552960Y-83930000D01*
X89275000Y-83930000D01*
X89275000Y-81390000D01*
X89552960Y-81390000D01*
X89640273Y-81828953D01*
X89888920Y-82201080D01*
X90261047Y-82449727D01*
X90589197Y-82515000D01*
X90810803Y-82515000D01*
X91138953Y-82449727D01*
X91511080Y-82201080D01*
X91759727Y-81828953D01*
X91847040Y-81390000D01*
X91759727Y-80951047D01*
X91511080Y-80578920D01*
X91138953Y-80330273D01*
X90810803Y-80265000D01*
X90589197Y-80265000D01*
X90261047Y-80330273D01*
X89888920Y-80578920D01*
X89640273Y-80951047D01*
X89552960Y-81390000D01*
X89275000Y-81390000D01*
X89275000Y-78000000D01*
X89569613Y-78000000D01*
X89569613Y-79700000D01*
X89590956Y-79807299D01*
X89651736Y-79898264D01*
X89742701Y-79959044D01*
X89850000Y-79980387D01*
X91550000Y-79980387D01*
X91657299Y-79959044D01*
X91748264Y-79898264D01*
X91809044Y-79807299D01*
X91830387Y-79700000D01*
X91830387Y-78000000D01*
X91809044Y-77892701D01*
X91748264Y-77801736D01*
X91657299Y-77740956D01*
X91550000Y-77719613D01*
X89850000Y-77719613D01*
X89742701Y-77740956D01*
X89651736Y-77801736D01*
X89590956Y-77892701D01*
X89569613Y-78000000D01*
X89275000Y-78000000D01*
X89275000Y-77566937D01*
X89329363Y-77293633D01*
X89463253Y-77093253D01*
X89663632Y-76959363D01*
X89936936Y-76905000D01*
X100058567Y-76905000D01*
X99864133Y-77109314D01*
X99864133Y-77109314D01*
G37*
X99864133Y-77109314D02*
X99717000Y-77491000D01*
X99717000Y-78041000D01*
X100571000Y-78041000D01*
X100571000Y-78021000D01*
X100929000Y-78021000D01*
X100929000Y-78041000D01*
X100949000Y-78041000D01*
X100949000Y-78399000D01*
X100929000Y-78399000D01*
X100929000Y-78419000D01*
X100571000Y-78419000D01*
X100571000Y-78399000D01*
X99717000Y-78399000D01*
X99717000Y-78949000D01*
X99794482Y-79150000D01*
X94136926Y-79150000D01*
X94100000Y-79142655D01*
X94063073Y-79150000D01*
X94063069Y-79150000D01*
X93953683Y-79171758D01*
X93953682Y-79171759D01*
X93953681Y-79171759D01*
X93860949Y-79233721D01*
X93860948Y-79233722D01*
X93829641Y-79254641D01*
X93808722Y-79285948D01*
X92460948Y-80633722D01*
X92429642Y-80654641D01*
X92408723Y-80685948D01*
X92408721Y-80685950D01*
X92346759Y-80778682D01*
X92317655Y-80925000D01*
X92325001Y-80961931D01*
X92325000Y-100144670D01*
X91534981Y-100934690D01*
X91511080Y-100898920D01*
X91138953Y-100650273D01*
X90810803Y-100585000D01*
X90589197Y-100585000D01*
X90261047Y-100650273D01*
X89888920Y-100898920D01*
X89640273Y-101271047D01*
X89552960Y-101710000D01*
X89640273Y-102148953D01*
X89888920Y-102521080D01*
X90261047Y-102769727D01*
X90589197Y-102835000D01*
X90810803Y-102835000D01*
X91138953Y-102769727D01*
X91511080Y-102521080D01*
X91759727Y-102148953D01*
X91847040Y-101710000D01*
X91842608Y-101687721D01*
X92939053Y-100591277D01*
X92970359Y-100570359D01*
X92998207Y-100528683D01*
X93053241Y-100446319D01*
X93053241Y-100446318D01*
X93053242Y-100446317D01*
X93075000Y-100336931D01*
X93075000Y-100336927D01*
X93082345Y-100300001D01*
X93075000Y-100263075D01*
X93075000Y-81080329D01*
X94255330Y-79900000D01*
X101569670Y-79900000D01*
X101144671Y-80325000D01*
X98961926Y-80325000D01*
X98924999Y-80317655D01*
X98888073Y-80325000D01*
X98888069Y-80325000D01*
X98778683Y-80346758D01*
X98778682Y-80346759D01*
X98778681Y-80346759D01*
X98685949Y-80408721D01*
X98685948Y-80408722D01*
X98654641Y-80429641D01*
X98633722Y-80460948D01*
X94185949Y-84908722D01*
X94154642Y-84929641D01*
X94133723Y-84960948D01*
X94133721Y-84960950D01*
X94071759Y-85053682D01*
X94042655Y-85200000D01*
X94050001Y-85236931D01*
X94050000Y-100519670D01*
X91283089Y-103286582D01*
X91138953Y-103190273D01*
X90810803Y-103125000D01*
X90589197Y-103125000D01*
X90261047Y-103190273D01*
X89888920Y-103438920D01*
X89640273Y-103811047D01*
X89552960Y-104250000D01*
X89640273Y-104688953D01*
X89888920Y-105061080D01*
X90261047Y-105309727D01*
X90589197Y-105375000D01*
X90810803Y-105375000D01*
X91138953Y-105309727D01*
X91511080Y-105061080D01*
X91759727Y-104688953D01*
X91847040Y-104250000D01*
X91769608Y-103860721D01*
X94179676Y-101450653D01*
X94540000Y-101450653D01*
X94540000Y-101689347D01*
X94631344Y-101909873D01*
X94800127Y-102078656D01*
X95020653Y-102170000D01*
X95259347Y-102170000D01*
X95479873Y-102078656D01*
X95648656Y-101909873D01*
X95723656Y-101728805D01*
X97084667Y-100367795D01*
X97128504Y-100338504D01*
X97244539Y-100164845D01*
X97275000Y-100011706D01*
X97285285Y-99960000D01*
X97275000Y-99908294D01*
X97275000Y-98224867D01*
X97342987Y-98389002D01*
X97560998Y-98607013D01*
X97845843Y-98725000D01*
X98154157Y-98725000D01*
X98439002Y-98607013D01*
X98657013Y-98389002D01*
X98775000Y-98104157D01*
X98775000Y-97795843D01*
X98657013Y-97510998D01*
X98439002Y-97292987D01*
X98154157Y-97175000D01*
X97845843Y-97175000D01*
X97560998Y-97292987D01*
X97342987Y-97510998D01*
X97275000Y-97675133D01*
X97275000Y-96417461D01*
X100624667Y-93067795D01*
X100668504Y-93038504D01*
X100784539Y-92864845D01*
X100788855Y-92843145D01*
X100825285Y-92660001D01*
X100815000Y-92608295D01*
X100815000Y-92100415D01*
X100890000Y-91919347D01*
X100890000Y-91680653D01*
X100798656Y-91460127D01*
X100629873Y-91291344D01*
X100409347Y-91200000D01*
X100170653Y-91200000D01*
X99950127Y-91291344D01*
X99781344Y-91460127D01*
X99690000Y-91680653D01*
X99690000Y-91919347D01*
X99765000Y-92100415D01*
X99765000Y-92442538D01*
X96415336Y-95792203D01*
X96371496Y-95821496D01*
X96255462Y-95995155D01*
X96255461Y-95995156D01*
X96214715Y-96200000D01*
X96225000Y-96251706D01*
X96225001Y-99742537D01*
X94981195Y-100986344D01*
X94800127Y-101061344D01*
X94631344Y-101230127D01*
X94540000Y-101450653D01*
X94179676Y-101450653D01*
X94664053Y-100966277D01*
X94695359Y-100945359D01*
X94778242Y-100821317D01*
X94800000Y-100711931D01*
X94800000Y-100711927D01*
X94807345Y-100675001D01*
X94800000Y-100638075D01*
X94800000Y-85355329D01*
X97576329Y-82579000D01*
X99717000Y-82579000D01*
X99717000Y-83129000D01*
X99864133Y-83510686D01*
X100146131Y-83807013D01*
X100414052Y-83926846D01*
X100571000Y-83819006D01*
X100571000Y-82579000D01*
X100929000Y-82579000D01*
X100929000Y-83819006D01*
X101085948Y-83926846D01*
X101353869Y-83807013D01*
X101635867Y-83510686D01*
X101783000Y-83129000D01*
X101783000Y-82579000D01*
X100929000Y-82579000D01*
X100571000Y-82579000D01*
X99717000Y-82579000D01*
X97576329Y-82579000D01*
X99080330Y-81075000D01*
X100068084Y-81075000D01*
X99864133Y-81289314D01*
X99717000Y-81671000D01*
X99717000Y-82221000D01*
X100571000Y-82221000D01*
X100571000Y-82201000D01*
X100929000Y-82201000D01*
X100929000Y-82221000D01*
X101695587Y-82221000D01*
X101697538Y-82225711D01*
X101859289Y-82387462D01*
X102070625Y-82475000D01*
X102299375Y-82475000D01*
X102510711Y-82387462D01*
X102672462Y-82225711D01*
X102760000Y-82014375D01*
X102760000Y-81785625D01*
X102672462Y-81574289D01*
X102510711Y-81412538D01*
X102299375Y-81325000D01*
X102070625Y-81325000D01*
X101859289Y-81412538D01*
X101732314Y-81539513D01*
X101635867Y-81289314D01*
X101416798Y-81059114D01*
X101446317Y-81053242D01*
X101570359Y-80970359D01*
X101591280Y-80939050D01*
X102369612Y-80160718D01*
X102369612Y-80500000D01*
X102372020Y-80512106D01*
X102372020Y-80549009D01*
X102377408Y-80603710D01*
X102396530Y-80699843D01*
X102412485Y-80752441D01*
X102449994Y-80842997D01*
X102475905Y-80891473D01*
X102530361Y-80972972D01*
X102565231Y-81015461D01*
X102634539Y-81084769D01*
X102677028Y-81119639D01*
X102758527Y-81174095D01*
X102807003Y-81200006D01*
X102897559Y-81237515D01*
X102950157Y-81253470D01*
X103046290Y-81272592D01*
X103050001Y-81272958D01*
X103050000Y-85205025D01*
X101676887Y-86578140D01*
X101647666Y-86597665D01*
X101628141Y-86626886D01*
X101570308Y-86713438D01*
X101543145Y-86850000D01*
X101550001Y-86884469D01*
X101550000Y-97256121D01*
X101460998Y-97292987D01*
X101242987Y-97510998D01*
X101125000Y-97795843D01*
X101125000Y-98104157D01*
X101242987Y-98389002D01*
X101460998Y-98607013D01*
X101745843Y-98725000D01*
X101870027Y-98725000D01*
X101495027Y-99100000D01*
X100438529Y-99100000D01*
X100339873Y-99001344D01*
X100119347Y-98910000D01*
X99880653Y-98910000D01*
X99660127Y-99001344D01*
X99491344Y-99170127D01*
X99400000Y-99390653D01*
X99400000Y-99629347D01*
X99491344Y-99849873D01*
X99660127Y-100018656D01*
X99880653Y-100110000D01*
X100119347Y-100110000D01*
X100339873Y-100018656D01*
X100508656Y-99849873D01*
X100529314Y-99800000D01*
X101605536Y-99800000D01*
X101640000Y-99806855D01*
X101674464Y-99800000D01*
X101674468Y-99800000D01*
X101776563Y-99779692D01*
X101892335Y-99702335D01*
X101911862Y-99673111D01*
X103873119Y-97711856D01*
X103902334Y-97692335D01*
X103921856Y-97663119D01*
X103921859Y-97663116D01*
X103979691Y-97576564D01*
X103979692Y-97576563D01*
X104000000Y-97474468D01*
X104000000Y-97474464D01*
X104006855Y-97440001D01*
X104000000Y-97405538D01*
X104000000Y-89475000D01*
X104019347Y-89475000D01*
X104239873Y-89383656D01*
X104408656Y-89214873D01*
X104500000Y-88994347D01*
X104500000Y-88755653D01*
X104425000Y-88574585D01*
X104425000Y-88017461D01*
X106717462Y-85725000D01*
X107099585Y-85725000D01*
X107280653Y-85800000D01*
X107519347Y-85800000D01*
X107739873Y-85708656D01*
X107908656Y-85539873D01*
X108000000Y-85319347D01*
X108000000Y-85080653D01*
X107908656Y-84860127D01*
X107739873Y-84691344D01*
X107519347Y-84600000D01*
X107280653Y-84600000D01*
X107099585Y-84675000D01*
X106551704Y-84675000D01*
X106499999Y-84664715D01*
X106448294Y-84675000D01*
X106295155Y-84705461D01*
X106121496Y-84821496D01*
X106092205Y-84865333D01*
X103565334Y-87392205D01*
X103521497Y-87421496D01*
X103449180Y-87529727D01*
X103405461Y-87595156D01*
X103364715Y-87800000D01*
X103375001Y-87851711D01*
X103375000Y-88574585D01*
X103300000Y-88755653D01*
X103300000Y-88994347D01*
X103312926Y-89025553D01*
X103293145Y-89125000D01*
X103300001Y-89159469D01*
X103300000Y-93480653D01*
X103208656Y-93260127D01*
X103039873Y-93091344D01*
X102819347Y-93000000D01*
X102650000Y-93000000D01*
X102650000Y-87169973D01*
X104669974Y-85150000D01*
X105315536Y-85150000D01*
X105350000Y-85156855D01*
X105384464Y-85150000D01*
X105384468Y-85150000D01*
X105486563Y-85129692D01*
X105602335Y-85052335D01*
X105621862Y-85023111D01*
X107123116Y-83521858D01*
X107152334Y-83502335D01*
X107229692Y-83386563D01*
X107250000Y-83284468D01*
X107250000Y-83284465D01*
X107256855Y-83250001D01*
X107250000Y-83215537D01*
X107250000Y-82579000D01*
X108367000Y-82579000D01*
X108367000Y-83129000D01*
X108514133Y-83510686D01*
X108796131Y-83807013D01*
X109064052Y-83926846D01*
X109221000Y-83819006D01*
X109221000Y-82579000D01*
X109579000Y-82579000D01*
X109579000Y-83819006D01*
X109735948Y-83926846D01*
X110003869Y-83807013D01*
X110285867Y-83510686D01*
X110433000Y-83129000D01*
X110433000Y-82579000D01*
X109579000Y-82579000D01*
X109221000Y-82579000D01*
X108367000Y-82579000D01*
X107250000Y-82579000D01*
X107250000Y-81785625D01*
X107390000Y-81785625D01*
X107390000Y-82014375D01*
X107477538Y-82225711D01*
X107639289Y-82387462D01*
X107850625Y-82475000D01*
X108079375Y-82475000D01*
X108290711Y-82387462D01*
X108452462Y-82225711D01*
X108454413Y-82221000D01*
X109221000Y-82221000D01*
X109221000Y-80980994D01*
X109579000Y-80980994D01*
X109579000Y-82221000D01*
X110433000Y-82221000D01*
X110433000Y-81671000D01*
X110286132Y-81290000D01*
X115052960Y-81290000D01*
X115140273Y-81728953D01*
X115388920Y-82101080D01*
X115761047Y-82349727D01*
X116089197Y-82415000D01*
X116310803Y-82415000D01*
X116638953Y-82349727D01*
X117011080Y-82101080D01*
X117259727Y-81728953D01*
X117347040Y-81290000D01*
X117259727Y-80851047D01*
X117011080Y-80478920D01*
X116638953Y-80230273D01*
X116310803Y-80165000D01*
X116089197Y-80165000D01*
X115761047Y-80230273D01*
X115388920Y-80478920D01*
X115140273Y-80851047D01*
X115052960Y-81290000D01*
X110286132Y-81290000D01*
X110285867Y-81289314D01*
X110003869Y-80992987D01*
X109735948Y-80873154D01*
X109579000Y-80980994D01*
X109221000Y-80980994D01*
X109064052Y-80873154D01*
X108796131Y-80992987D01*
X108514133Y-81289314D01*
X108417686Y-81539513D01*
X108290711Y-81412538D01*
X108079375Y-81325000D01*
X107850625Y-81325000D01*
X107639289Y-81412538D01*
X107477538Y-81574289D01*
X107390000Y-81785625D01*
X107250000Y-81785625D01*
X107250000Y-81272957D01*
X107253710Y-81272592D01*
X107349843Y-81253470D01*
X107402441Y-81237515D01*
X107492997Y-81200006D01*
X107541473Y-81174095D01*
X107622972Y-81119639D01*
X107665461Y-81084769D01*
X107734769Y-81015461D01*
X107769639Y-80972972D01*
X107824095Y-80891473D01*
X107850006Y-80842997D01*
X107887515Y-80752441D01*
X107903470Y-80699843D01*
X107922592Y-80603710D01*
X107927980Y-80549009D01*
X107927980Y-80512106D01*
X107930388Y-80500000D01*
X107930388Y-79950000D01*
X107909045Y-79842700D01*
X107897217Y-79824999D01*
X107909044Y-79807299D01*
X107930387Y-79700000D01*
X107930387Y-78700000D01*
X107909044Y-78592701D01*
X107897217Y-78575001D01*
X107909045Y-78557300D01*
X107930388Y-78450000D01*
X107930388Y-78399000D01*
X108367000Y-78399000D01*
X108367000Y-78949000D01*
X108514133Y-79330686D01*
X108796131Y-79627013D01*
X109064052Y-79746846D01*
X109221000Y-79639006D01*
X109221000Y-78399000D01*
X109579000Y-78399000D01*
X109579000Y-79639006D01*
X109735948Y-79746846D01*
X110003869Y-79627013D01*
X110285867Y-79330686D01*
X110433000Y-78949000D01*
X110433000Y-78750000D01*
X115052960Y-78750000D01*
X115140273Y-79188953D01*
X115388920Y-79561080D01*
X115761047Y-79809727D01*
X116089197Y-79875000D01*
X116310803Y-79875000D01*
X116638953Y-79809727D01*
X117011080Y-79561080D01*
X117259727Y-79188953D01*
X117347040Y-78750000D01*
X117259727Y-78311047D01*
X117011080Y-77938920D01*
X116638953Y-77690273D01*
X116310803Y-77625000D01*
X116089197Y-77625000D01*
X115761047Y-77690273D01*
X115388920Y-77938920D01*
X115140273Y-78311047D01*
X115052960Y-78750000D01*
X110433000Y-78750000D01*
X110433000Y-78399000D01*
X109579000Y-78399000D01*
X109221000Y-78399000D01*
X108367000Y-78399000D01*
X107930388Y-78399000D01*
X107930388Y-77900000D01*
X107927980Y-77887894D01*
X107927980Y-77850991D01*
X107922592Y-77796290D01*
X107903470Y-77700157D01*
X107887515Y-77647559D01*
X107850006Y-77557003D01*
X107824095Y-77508527D01*
X107769639Y-77427028D01*
X107734769Y-77384539D01*
X107665461Y-77315231D01*
X107622972Y-77280361D01*
X107541473Y-77225905D01*
X107492997Y-77199994D01*
X107402441Y-77162485D01*
X107349843Y-77146530D01*
X107253710Y-77127408D01*
X107199009Y-77122020D01*
X107162106Y-77122020D01*
X107150000Y-77119612D01*
X106650000Y-77119612D01*
X106649951Y-77119622D01*
X106435329Y-76905000D01*
X108708567Y-76905000D01*
X108514133Y-77109314D01*
X108367000Y-77491000D01*
X108367000Y-78041000D01*
X109221000Y-78041000D01*
X109221000Y-78021000D01*
X109579000Y-78021000D01*
X109579000Y-78041000D01*
X110433000Y-78041000D01*
X110433000Y-77491000D01*
X110285867Y-77109314D01*
X110091433Y-76905000D01*
X116963063Y-76905000D01*
X117236367Y-76959363D01*
X117436747Y-77093253D01*
X117570637Y-77293632D01*
X117625001Y-77566941D01*
X117625000Y-114130998D01*
X117474745Y-114130998D01*
X117576270Y-113910789D01*
X117455466Y-113619106D01*
X117095506Y-113191251D01*
X116599213Y-112933715D01*
X116379002Y-113033958D01*
X116379002Y-112881434D01*
X116638953Y-112829727D01*
X117011080Y-112581080D01*
X117259727Y-112208953D01*
X117347040Y-111770000D01*
X117259727Y-111331047D01*
X117011080Y-110958920D01*
X116638953Y-110710273D01*
X116310803Y-110645000D01*
X116089197Y-110645000D01*
X115761047Y-110710273D01*
X115388920Y-110958920D01*
X115275000Y-111129414D01*
X115275000Y-110649973D01*
X115685635Y-110239339D01*
X115761047Y-110289727D01*
X116089197Y-110355000D01*
X116310803Y-110355000D01*
X116638953Y-110289727D01*
X117011080Y-110041080D01*
X117259727Y-109668953D01*
X117347040Y-109230000D01*
X117259727Y-108791047D01*
X117011080Y-108418920D01*
X116638953Y-108170273D01*
X116310803Y-108105000D01*
X116089197Y-108105000D01*
X115761047Y-108170273D01*
X115388920Y-108418920D01*
X115140273Y-108791047D01*
X115052960Y-109230000D01*
X115140273Y-109668953D01*
X115190661Y-109744365D01*
X114875000Y-110060027D01*
X114875000Y-107619973D01*
X115230695Y-107264279D01*
X115388920Y-107501080D01*
X115761047Y-107749727D01*
X116089197Y-107815000D01*
X116310803Y-107815000D01*
X116638953Y-107749727D01*
X117011080Y-107501080D01*
X117259727Y-107128953D01*
X117347040Y-106690000D01*
X117259727Y-106251047D01*
X117011080Y-105878920D01*
X116638953Y-105630273D01*
X116310803Y-105565000D01*
X116089197Y-105565000D01*
X115761047Y-105630273D01*
X115388920Y-105878920D01*
X115140273Y-106251047D01*
X115110125Y-106402612D01*
X115086885Y-106418140D01*
X115086883Y-106418142D01*
X115057665Y-106437665D01*
X115038142Y-106466883D01*
X114400000Y-107105027D01*
X114400000Y-105294973D01*
X115134590Y-104560384D01*
X115140273Y-104588953D01*
X115388920Y-104961080D01*
X115761047Y-105209727D01*
X116089197Y-105275000D01*
X116310803Y-105275000D01*
X116638953Y-105209727D01*
X117011080Y-104961080D01*
X117259727Y-104588953D01*
X117347040Y-104150000D01*
X117259727Y-103711047D01*
X117011080Y-103338920D01*
X116638953Y-103090273D01*
X116310803Y-103025000D01*
X116089197Y-103025000D01*
X115761047Y-103090273D01*
X115388920Y-103338920D01*
X115140273Y-103711047D01*
X115122579Y-103800000D01*
X115084464Y-103800000D01*
X115050000Y-103793145D01*
X115015536Y-103800000D01*
X115015532Y-103800000D01*
X114913437Y-103820308D01*
X114826885Y-103878140D01*
X114826883Y-103878142D01*
X114797665Y-103897665D01*
X114778142Y-103926883D01*
X114025000Y-104680027D01*
X114025000Y-102469973D01*
X114534975Y-101960000D01*
X115122579Y-101960000D01*
X115140273Y-102048953D01*
X115388920Y-102421080D01*
X115761047Y-102669727D01*
X116089197Y-102735000D01*
X116310803Y-102735000D01*
X116638953Y-102669727D01*
X117011080Y-102421080D01*
X117259727Y-102048953D01*
X117347040Y-101610000D01*
X117259727Y-101171047D01*
X117011080Y-100798920D01*
X116638953Y-100550273D01*
X116310803Y-100485000D01*
X116089197Y-100485000D01*
X115761047Y-100550273D01*
X115388920Y-100798920D01*
X115140273Y-101171047D01*
X115122579Y-101260000D01*
X114424464Y-101260000D01*
X114390000Y-101253145D01*
X114355536Y-101260000D01*
X114355532Y-101260000D01*
X114253437Y-101280308D01*
X114166885Y-101338140D01*
X114166883Y-101338142D01*
X114137665Y-101357665D01*
X114118142Y-101386883D01*
X113600000Y-101905026D01*
X113600000Y-100044973D01*
X114224974Y-99420000D01*
X115122579Y-99420000D01*
X115140273Y-99508953D01*
X115388920Y-99881080D01*
X115761047Y-100129727D01*
X116089197Y-100195000D01*
X116310803Y-100195000D01*
X116638953Y-100129727D01*
X117011080Y-99881080D01*
X117259727Y-99508953D01*
X117347040Y-99070000D01*
X117259727Y-98631047D01*
X117011080Y-98258920D01*
X116638953Y-98010273D01*
X116310803Y-97945000D01*
X116089197Y-97945000D01*
X115761047Y-98010273D01*
X115388920Y-98258920D01*
X115140273Y-98631047D01*
X115122579Y-98720000D01*
X114114462Y-98720000D01*
X114079999Y-98713145D01*
X114045536Y-98720000D01*
X114045532Y-98720000D01*
X113943437Y-98740308D01*
X113827665Y-98817665D01*
X113808140Y-98846886D01*
X113250000Y-99405027D01*
X113250000Y-98289961D01*
X114659962Y-96880000D01*
X115122579Y-96880000D01*
X115140273Y-96968953D01*
X115388920Y-97341080D01*
X115761047Y-97589727D01*
X116089197Y-97655000D01*
X116310803Y-97655000D01*
X116638953Y-97589727D01*
X117011080Y-97341080D01*
X117259727Y-96968953D01*
X117347040Y-96530000D01*
X117259727Y-96091047D01*
X117011080Y-95718920D01*
X116638953Y-95470273D01*
X116310803Y-95405000D01*
X116089197Y-95405000D01*
X115761047Y-95470273D01*
X115388920Y-95718920D01*
X115140273Y-96091047D01*
X115122579Y-96180000D01*
X114549452Y-96180000D01*
X114514988Y-96173145D01*
X114480524Y-96180000D01*
X114480520Y-96180000D01*
X114378425Y-96200308D01*
X114262653Y-96277665D01*
X114243128Y-96306886D01*
X113800020Y-96749994D01*
X113800020Y-95144973D01*
X114604995Y-94340000D01*
X115122579Y-94340000D01*
X115140273Y-94428953D01*
X115388920Y-94801080D01*
X115761047Y-95049727D01*
X116089197Y-95115000D01*
X116310803Y-95115000D01*
X116638953Y-95049727D01*
X117011080Y-94801080D01*
X117259727Y-94428953D01*
X117347040Y-93990000D01*
X117259727Y-93551047D01*
X117011080Y-93178920D01*
X116638953Y-92930273D01*
X116310803Y-92865000D01*
X116089197Y-92865000D01*
X115761047Y-92930273D01*
X115388920Y-93178920D01*
X115140273Y-93551047D01*
X115122579Y-93640000D01*
X114494484Y-93640000D01*
X114460020Y-93633145D01*
X114425556Y-93640000D01*
X114425552Y-93640000D01*
X114323457Y-93660308D01*
X114236905Y-93718140D01*
X114236903Y-93718142D01*
X114207685Y-93737665D01*
X114188162Y-93766883D01*
X113450010Y-94505036D01*
X113450010Y-92544963D01*
X114194975Y-91800000D01*
X115122579Y-91800000D01*
X115140273Y-91888953D01*
X115388920Y-92261080D01*
X115761047Y-92509727D01*
X116089197Y-92575000D01*
X116310803Y-92575000D01*
X116638953Y-92509727D01*
X117011080Y-92261080D01*
X117259727Y-91888953D01*
X117347040Y-91450000D01*
X117259727Y-91011047D01*
X117011080Y-90638920D01*
X116638953Y-90390273D01*
X116310803Y-90325000D01*
X116089197Y-90325000D01*
X115761047Y-90390273D01*
X115388920Y-90638920D01*
X115140273Y-91011047D01*
X115122579Y-91100000D01*
X114084464Y-91100000D01*
X114050000Y-91093145D01*
X114015536Y-91100000D01*
X114015532Y-91100000D01*
X113913437Y-91120308D01*
X113826885Y-91178140D01*
X113826883Y-91178142D01*
X113797665Y-91197665D01*
X113778142Y-91226883D01*
X113100000Y-91905026D01*
X113100000Y-89894983D01*
X113734985Y-89260000D01*
X115122579Y-89260000D01*
X115140273Y-89348953D01*
X115388920Y-89721080D01*
X115761047Y-89969727D01*
X116089197Y-90035000D01*
X116310803Y-90035000D01*
X116638953Y-89969727D01*
X117011080Y-89721080D01*
X117259727Y-89348953D01*
X117347040Y-88910000D01*
X117259727Y-88471047D01*
X117011080Y-88098920D01*
X116638953Y-87850273D01*
X116310803Y-87785000D01*
X116089197Y-87785000D01*
X115761047Y-87850273D01*
X115388920Y-88098920D01*
X115214880Y-88359389D01*
X115127665Y-88417665D01*
X115050308Y-88533437D01*
X115045024Y-88560000D01*
X113624474Y-88560000D01*
X113590010Y-88553145D01*
X113555546Y-88560000D01*
X113555542Y-88560000D01*
X113453447Y-88580308D01*
X113366895Y-88638140D01*
X113366893Y-88638142D01*
X113337675Y-88657665D01*
X113318152Y-88686883D01*
X112750000Y-89255036D01*
X112750000Y-87844973D01*
X113874974Y-86720000D01*
X115122579Y-86720000D01*
X115140273Y-86808953D01*
X115388920Y-87181080D01*
X115761047Y-87429727D01*
X116089197Y-87495000D01*
X116310803Y-87495000D01*
X116638953Y-87429727D01*
X117011080Y-87181080D01*
X117259727Y-86808953D01*
X117347040Y-86370000D01*
X117259727Y-85931047D01*
X117011080Y-85558920D01*
X116638953Y-85310273D01*
X116310803Y-85245000D01*
X116089197Y-85245000D01*
X115761047Y-85310273D01*
X115388920Y-85558920D01*
X115140273Y-85931047D01*
X115122579Y-86020000D01*
X113764463Y-86020000D01*
X113729999Y-86013145D01*
X113695535Y-86020000D01*
X113695532Y-86020000D01*
X113593437Y-86040308D01*
X113477665Y-86117665D01*
X113458140Y-86146886D01*
X112400000Y-87205027D01*
X112400000Y-85744973D01*
X113964974Y-84180000D01*
X115122579Y-84180000D01*
X115140273Y-84268953D01*
X115388920Y-84641080D01*
X115761047Y-84889727D01*
X116089197Y-84955000D01*
X116310803Y-84955000D01*
X116638953Y-84889727D01*
X117011080Y-84641080D01*
X117259727Y-84268953D01*
X117347040Y-83830000D01*
X117259727Y-83391047D01*
X117011080Y-83018920D01*
X116638953Y-82770273D01*
X116310803Y-82705000D01*
X116089197Y-82705000D01*
X115761047Y-82770273D01*
X115388920Y-83018920D01*
X115140273Y-83391047D01*
X115122579Y-83480000D01*
X113854463Y-83480000D01*
X113819999Y-83473145D01*
X113785535Y-83480000D01*
X113785532Y-83480000D01*
X113683437Y-83500308D01*
X113567665Y-83577665D01*
X113548140Y-83606886D01*
X111826887Y-85328140D01*
X111797666Y-85347665D01*
X111778141Y-85376886D01*
X111720308Y-85463438D01*
X111693145Y-85600000D01*
X111700001Y-85634468D01*
X111700000Y-90345532D01*
X111700000Y-90534467D01*
X111700001Y-90534472D01*
X111700000Y-96255025D01*
X104805027Y-103150000D01*
X104580653Y-103150000D01*
X104360127Y-103241344D01*
X104191344Y-103410127D01*
X104100000Y-103630653D01*
X104100000Y-103869347D01*
X104191344Y-104089873D01*
X104360127Y-104258656D01*
X104580653Y-104350000D01*
X104819347Y-104350000D01*
X105039873Y-104258656D01*
X105208656Y-104089873D01*
X105300000Y-103869347D01*
X105300000Y-103649347D01*
X105391344Y-103869873D01*
X105560127Y-104038656D01*
X105780653Y-104130000D01*
X106019347Y-104130000D01*
X106239873Y-104038656D01*
X106408656Y-103869873D01*
X106500000Y-103649347D01*
X106500000Y-103410653D01*
X106408656Y-103190127D01*
X106356751Y-103138222D01*
X111050000Y-98444974D01*
X111050001Y-100015529D01*
X111050000Y-100015533D01*
X111050000Y-100365533D01*
X111050001Y-101755024D01*
X106300643Y-106504384D01*
X106169347Y-106450000D01*
X105930653Y-106450000D01*
X105710127Y-106541344D01*
X105541344Y-106710127D01*
X105450000Y-106930653D01*
X105450000Y-107169347D01*
X105541344Y-107389873D01*
X105710127Y-107558656D01*
X105912533Y-107642494D01*
X105326887Y-108228140D01*
X105297666Y-108247665D01*
X105278141Y-108276886D01*
X105220308Y-108363438D01*
X105193145Y-108500000D01*
X105200001Y-108534468D01*
X105200000Y-109351471D01*
X105041344Y-109510127D01*
X104950000Y-109730653D01*
X104950000Y-109969347D01*
X104969934Y-110017473D01*
X104875000Y-109922539D01*
X104875000Y-108450415D01*
X104950000Y-108269347D01*
X104950000Y-108030653D01*
X104858656Y-107810127D01*
X104689873Y-107641344D01*
X104469347Y-107550000D01*
X104230653Y-107550000D01*
X104010127Y-107641344D01*
X103841344Y-107810127D01*
X103750000Y-108030653D01*
X103750000Y-108269347D01*
X103825000Y-108450415D01*
X103825001Y-110088289D01*
X103814715Y-110140000D01*
X103855461Y-110344844D01*
X103871226Y-110368438D01*
X103971497Y-110518504D01*
X104015333Y-110547795D01*
X105052205Y-111584667D01*
X105081496Y-111628504D01*
X105255155Y-111744539D01*
X105391540Y-111771668D01*
X105580653Y-111850000D01*
X105819347Y-111850000D01*
X106039873Y-111758656D01*
X106208656Y-111589873D01*
X106300000Y-111369347D01*
X106300000Y-111130653D01*
X106287303Y-111100000D01*
X106419347Y-111100000D01*
X106639873Y-111008656D01*
X106808656Y-110839873D01*
X106900000Y-110619347D01*
X106900000Y-110380653D01*
X106808656Y-110160127D01*
X106639873Y-109991344D01*
X106500000Y-109933407D01*
X106500000Y-108539961D01*
X108428773Y-106611189D01*
X108400000Y-106680653D01*
X108400000Y-106905026D01*
X107676887Y-107628140D01*
X107647665Y-107647666D01*
X107570308Y-107763438D01*
X107550000Y-107865533D01*
X107550000Y-107865536D01*
X107543145Y-107900000D01*
X107550000Y-107934464D01*
X107550001Y-110415532D01*
X107550000Y-112101471D01*
X107391344Y-112260127D01*
X107300000Y-112480653D01*
X107300000Y-112719347D01*
X107391344Y-112939873D01*
X107560127Y-113108656D01*
X107780653Y-113200000D01*
X108019347Y-113200000D01*
X108239873Y-113108656D01*
X108398529Y-112950000D01*
X109655027Y-112950000D01*
X111853142Y-115148117D01*
X111872665Y-115177335D01*
X111901883Y-115196858D01*
X111901885Y-115196860D01*
X111952460Y-115230653D01*
X111988437Y-115254692D01*
X112090532Y-115275000D01*
X112090536Y-115275000D01*
X112125000Y-115281855D01*
X112159464Y-115275000D01*
X113640536Y-115275000D01*
X113675000Y-115281855D01*
X113709464Y-115275000D01*
X113709468Y-115275000D01*
X113811563Y-115254692D01*
X113927335Y-115177335D01*
X113946862Y-115148112D01*
X114123115Y-114971858D01*
X114152334Y-114952335D01*
X114229692Y-114836563D01*
X114250000Y-114734468D01*
X114250000Y-114734465D01*
X114256855Y-114700001D01*
X114250000Y-114665537D01*
X114250000Y-114214973D01*
X115421869Y-113043105D01*
X115421871Y-113043102D01*
X115685635Y-112779338D01*
X115761047Y-112829727D01*
X116020998Y-112881434D01*
X116020998Y-113033958D01*
X115800787Y-112933715D01*
X115304494Y-113191251D01*
X114944534Y-113619106D01*
X114823730Y-113910789D01*
X114925256Y-114131000D01*
X116021000Y-114131000D01*
X116021000Y-114111000D01*
X116379000Y-114111000D01*
X116379000Y-114131000D01*
X116399000Y-114131000D01*
X116399000Y-114489000D01*
X116379000Y-114489000D01*
X116379000Y-116671000D01*
X116399000Y-116671000D01*
X116399000Y-117029000D01*
X116379000Y-117029000D01*
X116379000Y-118137250D01*
X116524750Y-118283000D01*
X117165966Y-118283000D01*
X117380243Y-118194244D01*
X117544244Y-118030243D01*
X117625000Y-117835279D01*
X117625000Y-123713064D01*
X117570637Y-123986368D01*
X117436747Y-124186747D01*
X117236367Y-124320637D01*
X116963063Y-124375000D01*
X98869956Y-124375000D01*
X98865208Y-122774750D01*
X110642000Y-122774750D01*
X110642000Y-123165966D01*
X110730756Y-123380243D01*
X110894757Y-123544244D01*
X111109034Y-123633000D01*
X111275250Y-123633000D01*
X111421000Y-123487250D01*
X111421000Y-122629000D01*
X111779000Y-122629000D01*
X111779000Y-123487250D01*
X111924750Y-123633000D01*
X112090966Y-123633000D01*
X112305243Y-123544244D01*
X112400000Y-123449487D01*
X112494757Y-123544244D01*
X112709034Y-123633000D01*
X112875250Y-123633000D01*
X113021000Y-123487250D01*
X113021000Y-122629000D01*
X113379000Y-122629000D01*
X113379000Y-123487250D01*
X113524750Y-123633000D01*
X113690966Y-123633000D01*
X113905243Y-123544244D01*
X114069244Y-123380243D01*
X114158000Y-123165966D01*
X114158000Y-122774750D01*
X114012250Y-122629000D01*
X113379000Y-122629000D01*
X113021000Y-122629000D01*
X111779000Y-122629000D01*
X111421000Y-122629000D01*
X110787750Y-122629000D01*
X110642000Y-122774750D01*
X98865208Y-122774750D01*
X98850000Y-117649777D01*
X98844205Y-117621093D01*
X98827875Y-117596810D01*
X98803496Y-117580624D01*
X98775000Y-117575000D01*
X89275000Y-117575000D01*
X89275000Y-116665734D01*
X100275000Y-116665734D01*
X100275000Y-116934266D01*
X100377763Y-117182357D01*
X100567643Y-117372237D01*
X100815734Y-117475000D01*
X101084266Y-117475000D01*
X101332357Y-117372237D01*
X101522237Y-117182357D01*
X101625000Y-116934266D01*
X101625000Y-116867461D01*
X102067462Y-116425000D01*
X102872539Y-116425000D01*
X103725000Y-117277462D01*
X103725000Y-117344266D01*
X103827763Y-117592357D01*
X104017643Y-117782237D01*
X104265734Y-117885000D01*
X104534266Y-117885000D01*
X104782357Y-117782237D01*
X104972237Y-117592357D01*
X105075000Y-117344266D01*
X105075000Y-117075734D01*
X104972237Y-116827643D01*
X104782357Y-116637763D01*
X104534266Y-116535000D01*
X104467462Y-116535000D01*
X104013115Y-116080653D01*
X105075000Y-116080653D01*
X105075000Y-116319347D01*
X105166344Y-116539873D01*
X105300000Y-116673529D01*
X105300001Y-118638069D01*
X105292655Y-118675000D01*
X105321759Y-118821318D01*
X105383721Y-118914050D01*
X105383723Y-118914052D01*
X105404642Y-118945359D01*
X105435949Y-118966278D01*
X107258722Y-120789052D01*
X107279641Y-120820359D01*
X107310948Y-120841278D01*
X107403681Y-120903241D01*
X107403682Y-120903241D01*
X107403683Y-120903242D01*
X107513069Y-120925000D01*
X107513073Y-120925000D01*
X107549999Y-120932345D01*
X107586925Y-120925000D01*
X110944613Y-120925000D01*
X110944613Y-121150000D01*
X110965956Y-121257299D01*
X111002048Y-121311315D01*
X110894757Y-121355756D01*
X110730756Y-121519757D01*
X110642000Y-121734034D01*
X110642000Y-122125250D01*
X110787750Y-122271000D01*
X111421000Y-122271000D01*
X111421000Y-122251000D01*
X111779000Y-122251000D01*
X111779000Y-122271000D01*
X113021000Y-122271000D01*
X113021000Y-122251000D01*
X113379000Y-122251000D01*
X113379000Y-122271000D01*
X114012250Y-122271000D01*
X114158000Y-122125250D01*
X114158000Y-121734034D01*
X114069244Y-121519757D01*
X113905243Y-121355756D01*
X113797952Y-121311315D01*
X113834044Y-121257299D01*
X113855387Y-121150000D01*
X113855387Y-119950000D01*
X113834044Y-119842701D01*
X113773264Y-119751736D01*
X113682299Y-119690956D01*
X113575000Y-119669613D01*
X113450000Y-119669613D01*
X113450000Y-119325595D01*
X113519002Y-119297013D01*
X113737013Y-119079002D01*
X113855000Y-118794157D01*
X113855000Y-118485843D01*
X113737013Y-118200998D01*
X113519002Y-117982987D01*
X113234157Y-117865000D01*
X112925843Y-117865000D01*
X112843911Y-117898937D01*
X112421862Y-117476889D01*
X112402335Y-117447665D01*
X112286563Y-117370308D01*
X112184468Y-117350000D01*
X112184464Y-117350000D01*
X112150000Y-117343145D01*
X112115536Y-117350000D01*
X111134462Y-117350000D01*
X111099999Y-117343145D01*
X111065537Y-117350000D01*
X111065532Y-117350000D01*
X110963437Y-117370308D01*
X110847665Y-117447665D01*
X110828140Y-117476886D01*
X110426887Y-117878140D01*
X110397666Y-117897665D01*
X110378141Y-117926886D01*
X110320308Y-118013438D01*
X110293145Y-118150000D01*
X110300001Y-118184468D01*
X110300000Y-119455025D01*
X109955027Y-119800000D01*
X107894975Y-119800000D01*
X106900000Y-118805027D01*
X106900000Y-117174750D01*
X114767000Y-117174750D01*
X114767000Y-117815966D01*
X114855756Y-118030243D01*
X115019757Y-118194244D01*
X115234034Y-118283000D01*
X115875250Y-118283000D01*
X116021000Y-118137250D01*
X116021000Y-117029000D01*
X114912750Y-117029000D01*
X114767000Y-117174750D01*
X106900000Y-117174750D01*
X106900000Y-115884034D01*
X114767000Y-115884034D01*
X114767000Y-116525250D01*
X114912750Y-116671000D01*
X116021000Y-116671000D01*
X116021000Y-114489000D01*
X114925256Y-114489000D01*
X114823730Y-114709211D01*
X114944534Y-115000894D01*
X115294609Y-115417000D01*
X115234034Y-115417000D01*
X115019757Y-115505756D01*
X114855756Y-115669757D01*
X114767000Y-115884034D01*
X106900000Y-115884034D01*
X106900000Y-115834462D01*
X106906855Y-115799999D01*
X106900000Y-115765537D01*
X106900000Y-115765532D01*
X106879692Y-115663437D01*
X106802334Y-115547665D01*
X106773116Y-115528142D01*
X106500000Y-115255027D01*
X106500000Y-115230653D01*
X106408656Y-115010127D01*
X106239873Y-114841344D01*
X106019347Y-114750000D01*
X105780653Y-114750000D01*
X105560127Y-114841344D01*
X105391344Y-115010127D01*
X105300000Y-115230653D01*
X105300000Y-115469347D01*
X105383631Y-115671253D01*
X105335127Y-115691344D01*
X105166344Y-115860127D01*
X105075000Y-116080653D01*
X104013115Y-116080653D01*
X103497797Y-115565336D01*
X103468504Y-115521496D01*
X103294845Y-115405461D01*
X103141706Y-115375000D01*
X103090000Y-115364715D01*
X103038294Y-115375000D01*
X101901705Y-115375000D01*
X101849999Y-115364715D01*
X101645155Y-115405461D01*
X101471496Y-115521496D01*
X101442205Y-115565333D01*
X100882539Y-116125000D01*
X100815734Y-116125000D01*
X100567643Y-116227763D01*
X100377763Y-116417643D01*
X100275000Y-116665734D01*
X89275000Y-116665734D01*
X89275000Y-112049002D01*
X89425255Y-112049002D01*
X89323730Y-112269211D01*
X89444534Y-112560894D01*
X89804494Y-112988749D01*
X90300787Y-113246285D01*
X90521000Y-113146041D01*
X90521000Y-112049000D01*
X90879000Y-112049000D01*
X90879000Y-113146041D01*
X91099213Y-113246285D01*
X91595506Y-112988749D01*
X91955466Y-112560894D01*
X92076270Y-112269211D01*
X91974744Y-112049000D01*
X90879000Y-112049000D01*
X90521000Y-112049000D01*
X90501000Y-112049000D01*
X90501000Y-111691000D01*
X90521000Y-111691000D01*
X90521000Y-111671000D01*
X90879000Y-111671000D01*
X90879000Y-111691000D01*
X91974744Y-111691000D01*
X92076270Y-111470789D01*
X91955466Y-111179106D01*
X91595506Y-110751251D01*
X91099213Y-110493715D01*
X90879002Y-110593958D01*
X90879002Y-110441434D01*
X91138953Y-110389727D01*
X91511080Y-110141080D01*
X91759727Y-109768953D01*
X91847040Y-109330000D01*
X91759727Y-108891047D01*
X91511080Y-108518920D01*
X91138953Y-108270273D01*
X90810803Y-108205000D01*
X90589197Y-108205000D01*
X90261047Y-108270273D01*
X89888920Y-108518920D01*
X89640273Y-108891047D01*
X89552960Y-109330000D01*
X89640273Y-109768953D01*
X89888920Y-110141080D01*
X90261047Y-110389727D01*
X90520998Y-110441434D01*
X90520998Y-110593958D01*
X90300787Y-110493715D01*
X89804494Y-110751251D01*
X89444534Y-111179106D01*
X89323730Y-111470789D01*
X89425255Y-111690998D01*
X89275000Y-111690998D01*
X89275000Y-106790000D01*
X89552960Y-106790000D01*
X89640273Y-107228953D01*
X89888920Y-107601080D01*
X90261047Y-107849727D01*
X90589197Y-107915000D01*
X90810803Y-107915000D01*
X91138953Y-107849727D01*
X91511080Y-107601080D01*
X91705136Y-107310653D01*
X93710000Y-107310653D01*
X93710000Y-107549347D01*
X93801344Y-107769873D01*
X93970127Y-107938656D01*
X94190653Y-108030000D01*
X94429347Y-108030000D01*
X94649873Y-107938656D01*
X94808529Y-107780000D01*
X95235027Y-107780000D01*
X97100000Y-109644974D01*
X97100001Y-110051470D01*
X96941344Y-110210127D01*
X96850000Y-110430653D01*
X96850000Y-110669347D01*
X96941344Y-110889873D01*
X97110127Y-111058656D01*
X97330653Y-111150000D01*
X97569347Y-111150000D01*
X97789873Y-111058656D01*
X97958656Y-110889873D01*
X98050000Y-110669347D01*
X98050000Y-110430653D01*
X97958656Y-110210127D01*
X97800000Y-110051471D01*
X97800000Y-109719974D01*
X98600001Y-110519976D01*
X98600001Y-110751470D01*
X98441344Y-110910127D01*
X98350000Y-111130653D01*
X98350000Y-111369347D01*
X98441344Y-111589873D01*
X98610127Y-111758656D01*
X98830653Y-111850000D01*
X98950014Y-111850000D01*
X97850015Y-112950000D01*
X97384464Y-112950000D01*
X97350000Y-112943145D01*
X97315536Y-112950000D01*
X97315532Y-112950000D01*
X97213437Y-112970308D01*
X97126885Y-113028140D01*
X97126883Y-113028142D01*
X97097665Y-113047665D01*
X97096105Y-113050000D01*
X96880653Y-113050000D01*
X96660127Y-113141344D01*
X96491344Y-113310127D01*
X96400000Y-113530653D01*
X96400000Y-113769347D01*
X96491344Y-113989873D01*
X96660127Y-114158656D01*
X96880653Y-114250000D01*
X97119347Y-114250000D01*
X97339873Y-114158656D01*
X97387836Y-114110693D01*
X97441344Y-114239873D01*
X97610127Y-114408656D01*
X97830653Y-114500000D01*
X98069347Y-114500000D01*
X98289873Y-114408656D01*
X98458656Y-114239873D01*
X98550000Y-114019347D01*
X98550000Y-113780653D01*
X98539550Y-113755424D01*
X101773119Y-110521856D01*
X101802334Y-110502335D01*
X101821856Y-110473119D01*
X101821860Y-110473115D01*
X101879692Y-110386563D01*
X101885970Y-110355000D01*
X101900000Y-110284468D01*
X101900000Y-110284464D01*
X101906855Y-110250000D01*
X101900000Y-110215536D01*
X101900000Y-109089961D01*
X102258012Y-108731951D01*
X102302335Y-108702335D01*
X102379692Y-108586563D01*
X102406856Y-108450000D01*
X102400000Y-108415532D01*
X102400000Y-102969973D01*
X105519974Y-99850000D01*
X105719347Y-99850000D01*
X105939873Y-99758656D01*
X106108656Y-99589873D01*
X106200000Y-99369347D01*
X106200000Y-99130653D01*
X106108656Y-98910127D01*
X105939873Y-98741344D01*
X105719347Y-98650000D01*
X105480653Y-98650000D01*
X105260127Y-98741344D01*
X105091344Y-98910127D01*
X105000000Y-99130653D01*
X105000000Y-99230653D01*
X104908656Y-99010127D01*
X104739873Y-98841344D01*
X104519347Y-98750000D01*
X104280653Y-98750000D01*
X104060127Y-98841344D01*
X103891344Y-99010127D01*
X103800000Y-99230653D01*
X103800000Y-99455025D01*
X101476887Y-101778140D01*
X101447666Y-101797665D01*
X101428141Y-101826886D01*
X101370308Y-101913438D01*
X101343145Y-102050000D01*
X101350001Y-102084468D01*
X101350000Y-105569001D01*
X101321859Y-105526884D01*
X101321856Y-105526881D01*
X101302334Y-105497665D01*
X101273119Y-105478144D01*
X99850000Y-104055027D01*
X99850000Y-103830653D01*
X99758656Y-103610127D01*
X99589873Y-103441344D01*
X99369347Y-103350000D01*
X99130653Y-103350000D01*
X98910127Y-103441344D01*
X98741344Y-103610127D01*
X98650000Y-103830653D01*
X98650000Y-104069347D01*
X98741344Y-104289873D01*
X98910127Y-104458656D01*
X99130653Y-104550000D01*
X99355027Y-104550000D01*
X100700000Y-105894975D01*
X100700001Y-107501470D01*
X100541344Y-107660127D01*
X100450000Y-107880653D01*
X100450000Y-108030026D01*
X97457227Y-105037254D01*
X97475000Y-104994347D01*
X97475000Y-104755653D01*
X97383656Y-104535127D01*
X97214873Y-104366344D01*
X96994347Y-104275000D01*
X96755653Y-104275000D01*
X96535127Y-104366344D01*
X96366344Y-104535127D01*
X96275000Y-104755653D01*
X96275000Y-104994347D01*
X96366344Y-105214873D01*
X96535127Y-105383656D01*
X96755653Y-105475000D01*
X96905027Y-105475000D01*
X100350026Y-108920000D01*
X100120653Y-108920000D01*
X99900127Y-109011344D01*
X99741471Y-109170000D01*
X99234975Y-109170000D01*
X96329507Y-106264534D01*
X96400000Y-106094347D01*
X96400000Y-105855653D01*
X96308656Y-105635127D01*
X96150000Y-105476471D01*
X96150000Y-104748529D01*
X96258656Y-104639873D01*
X96350000Y-104419347D01*
X96350000Y-104180653D01*
X96258656Y-103960127D01*
X96089873Y-103791344D01*
X95869347Y-103700000D01*
X95630653Y-103700000D01*
X95410127Y-103791344D01*
X95241344Y-103960127D01*
X95150000Y-104180653D01*
X95150000Y-104419347D01*
X95241344Y-104639873D01*
X95410127Y-104808656D01*
X95450001Y-104825172D01*
X95450000Y-105476471D01*
X95291344Y-105635127D01*
X95200000Y-105855653D01*
X95200000Y-106094347D01*
X95225229Y-106155256D01*
X94909251Y-105839278D01*
X95008656Y-105739873D01*
X95100000Y-105519347D01*
X95100000Y-105280653D01*
X95008656Y-105060127D01*
X94839873Y-104891344D01*
X94619347Y-104800000D01*
X94380653Y-104800000D01*
X94160127Y-104891344D01*
X93991344Y-105060127D01*
X93900000Y-105280653D01*
X93900000Y-105519347D01*
X93991344Y-105739873D01*
X94148674Y-105897203D01*
X94143145Y-105925000D01*
X94170308Y-106061562D01*
X94203718Y-106111563D01*
X94247666Y-106177335D01*
X94276887Y-106196860D01*
X95160026Y-107080000D01*
X94808529Y-107080000D01*
X94649873Y-106921344D01*
X94429347Y-106830000D01*
X94190653Y-106830000D01*
X93970127Y-106921344D01*
X93801344Y-107090127D01*
X93710000Y-107310653D01*
X91705136Y-107310653D01*
X91759727Y-107228953D01*
X91847040Y-106790000D01*
X91759727Y-106351047D01*
X91511080Y-105978920D01*
X91138953Y-105730273D01*
X90810803Y-105665000D01*
X90589197Y-105665000D01*
X90261047Y-105730273D01*
X89888920Y-105978920D01*
X89640273Y-106351047D01*
X89552960Y-106790000D01*
X89275000Y-106790000D01*
X89275000Y-99170000D01*
X89552960Y-99170000D01*
X89640273Y-99608953D01*
X89888920Y-99981080D01*
X90261047Y-100229727D01*
X90589197Y-100295000D01*
X90810803Y-100295000D01*
X91138953Y-100229727D01*
X91511080Y-99981080D01*
X91759727Y-99608953D01*
X91847040Y-99170000D01*
X91759727Y-98731047D01*
X91511080Y-98358920D01*
X91138953Y-98110273D01*
X90810803Y-98045000D01*
X90589197Y-98045000D01*
X90261047Y-98110273D01*
X89888920Y-98358920D01*
X89640273Y-98731047D01*
X89552960Y-99170000D01*
X89275000Y-99170000D01*
X89275000Y-96630000D01*
X89552960Y-96630000D01*
X89640273Y-97068953D01*
X89888920Y-97441080D01*
X90261047Y-97689727D01*
X90589197Y-97755000D01*
X90810803Y-97755000D01*
X91138953Y-97689727D01*
X91511080Y-97441080D01*
X91759727Y-97068953D01*
X91847040Y-96630000D01*
X91759727Y-96191047D01*
X91511080Y-95818920D01*
X91138953Y-95570273D01*
X90810803Y-95505000D01*
X90589197Y-95505000D01*
X90261047Y-95570273D01*
X89888920Y-95818920D01*
X89640273Y-96191047D01*
X89552960Y-96630000D01*
X89275000Y-96630000D01*
X89275000Y-94090000D01*
X89552960Y-94090000D01*
X89640273Y-94528953D01*
X89888920Y-94901080D01*
X90261047Y-95149727D01*
X90589197Y-95215000D01*
X90810803Y-95215000D01*
X91138953Y-95149727D01*
X91511080Y-94901080D01*
X91759727Y-94528953D01*
X91847040Y-94090000D01*
X91759727Y-93651047D01*
X91511080Y-93278920D01*
X91138953Y-93030273D01*
X90810803Y-92965000D01*
X90589197Y-92965000D01*
X90261047Y-93030273D01*
X89888920Y-93278920D01*
X89640273Y-93651047D01*
X89552960Y-94090000D01*
X89275000Y-94090000D01*
X89275000Y-91550000D01*
X89552960Y-91550000D01*
X89640273Y-91988953D01*
X89888920Y-92361080D01*
X90261047Y-92609727D01*
X90589197Y-92675000D01*
X90810803Y-92675000D01*
X91138953Y-92609727D01*
X91511080Y-92361080D01*
X91759727Y-91988953D01*
X91847040Y-91550000D01*
X91759727Y-91111047D01*
X91511080Y-90738920D01*
X91138953Y-90490273D01*
X90810803Y-90425000D01*
X90589197Y-90425000D01*
X90261047Y-90490273D01*
X89888920Y-90738920D01*
X89640273Y-91111047D01*
X89552960Y-91550000D01*
X89275000Y-91550000D01*
X89275000Y-89010000D01*
X89552960Y-89010000D01*
X89640273Y-89448953D01*
X89888920Y-89821080D01*
X90261047Y-90069727D01*
X90589197Y-90135000D01*
X90810803Y-90135000D01*
X91138953Y-90069727D01*
X91511080Y-89821080D01*
X91759727Y-89448953D01*
X91847040Y-89010000D01*
X91759727Y-88571047D01*
X91511080Y-88198920D01*
X91138953Y-87950273D01*
X90810803Y-87885000D01*
X90589197Y-87885000D01*
X90261047Y-87950273D01*
X89888920Y-88198920D01*
X89640273Y-88571047D01*
X89552960Y-89010000D01*
X89275000Y-89010000D01*
X89275000Y-86470000D01*
X89552960Y-86470000D01*
X89640273Y-86908953D01*
X89888920Y-87281080D01*
X90261047Y-87529727D01*
X90589197Y-87595000D01*
X90810803Y-87595000D01*
X91138953Y-87529727D01*
X91511080Y-87281080D01*
X91759727Y-86908953D01*
X91847040Y-86470000D01*
X91759727Y-86031047D01*
X91511080Y-85658920D01*
X91138953Y-85410273D01*
X90810803Y-85345000D01*
X90589197Y-85345000D01*
X90261047Y-85410273D01*
X89888920Y-85658920D01*
X89640273Y-86031047D01*
X89552960Y-86470000D01*
X89275000Y-86470000D01*
X89275000Y-83930000D01*
X89552960Y-83930000D01*
X89640273Y-84368953D01*
X89888920Y-84741080D01*
X90261047Y-84989727D01*
X90589197Y-85055000D01*
X90810803Y-85055000D01*
X91138953Y-84989727D01*
X91511080Y-84741080D01*
X91759727Y-84368953D01*
X91847040Y-83930000D01*
X91759727Y-83491047D01*
X91511080Y-83118920D01*
X91138953Y-82870273D01*
X90810803Y-82805000D01*
X90589197Y-82805000D01*
X90261047Y-82870273D01*
X89888920Y-83118920D01*
X89640273Y-83491047D01*
X89552960Y-83930000D01*
X89275000Y-83930000D01*
X89275000Y-81390000D01*
X89552960Y-81390000D01*
X89640273Y-81828953D01*
X89888920Y-82201080D01*
X90261047Y-82449727D01*
X90589197Y-82515000D01*
X90810803Y-82515000D01*
X91138953Y-82449727D01*
X91511080Y-82201080D01*
X91759727Y-81828953D01*
X91847040Y-81390000D01*
X91759727Y-80951047D01*
X91511080Y-80578920D01*
X91138953Y-80330273D01*
X90810803Y-80265000D01*
X90589197Y-80265000D01*
X90261047Y-80330273D01*
X89888920Y-80578920D01*
X89640273Y-80951047D01*
X89552960Y-81390000D01*
X89275000Y-81390000D01*
X89275000Y-78000000D01*
X89569613Y-78000000D01*
X89569613Y-79700000D01*
X89590956Y-79807299D01*
X89651736Y-79898264D01*
X89742701Y-79959044D01*
X89850000Y-79980387D01*
X91550000Y-79980387D01*
X91657299Y-79959044D01*
X91748264Y-79898264D01*
X91809044Y-79807299D01*
X91830387Y-79700000D01*
X91830387Y-78000000D01*
X91809044Y-77892701D01*
X91748264Y-77801736D01*
X91657299Y-77740956D01*
X91550000Y-77719613D01*
X89850000Y-77719613D01*
X89742701Y-77740956D01*
X89651736Y-77801736D01*
X89590956Y-77892701D01*
X89569613Y-78000000D01*
X89275000Y-78000000D01*
X89275000Y-77566937D01*
X89329363Y-77293633D01*
X89463253Y-77093253D01*
X89663632Y-76959363D01*
X89936936Y-76905000D01*
X100058567Y-76905000D01*
X99864133Y-77109314D01*
G36*
X112550000Y-109800000D02*
X112530653Y-109800000D01*
X112310127Y-109891344D01*
X112141344Y-110060127D01*
X112050000Y-110280653D01*
X112050000Y-110519347D01*
X112141344Y-110739873D01*
X112251471Y-110850000D01*
X112141344Y-110960127D01*
X112050000Y-111180653D01*
X112050000Y-111419347D01*
X112141344Y-111639873D01*
X112251471Y-111750000D01*
X112191344Y-111810127D01*
X112100000Y-112030653D01*
X112100000Y-112269347D01*
X112191344Y-112489873D01*
X112276471Y-112575000D01*
X112191344Y-112660127D01*
X112100000Y-112880653D01*
X112100000Y-113119347D01*
X112160583Y-113265608D01*
X111650000Y-112755026D01*
X111650000Y-112530653D01*
X111558656Y-112310127D01*
X111389873Y-112141344D01*
X111169347Y-112050000D01*
X110930653Y-112050000D01*
X110710127Y-112141344D01*
X110541344Y-112310127D01*
X110450000Y-112530653D01*
X110450000Y-112755027D01*
X110071862Y-112376889D01*
X110052335Y-112347665D01*
X109936563Y-112270308D01*
X109834468Y-112250000D01*
X109834464Y-112250000D01*
X109800000Y-112243145D01*
X109765536Y-112250000D01*
X108398529Y-112250000D01*
X108250000Y-112101471D01*
X108250000Y-108044973D01*
X108894974Y-107400000D01*
X109119347Y-107400000D01*
X109339873Y-107308656D01*
X109508656Y-107139873D01*
X109600000Y-106919347D01*
X109600000Y-106680653D01*
X109508656Y-106460127D01*
X109339873Y-106291344D01*
X109119347Y-106200000D01*
X108880653Y-106200000D01*
X108811189Y-106228773D01*
X112323117Y-102716846D01*
X112352335Y-102697323D01*
X112371858Y-102668105D01*
X112371860Y-102668103D01*
X112429692Y-102581551D01*
X112430531Y-102577335D01*
X112450000Y-102479456D01*
X112450000Y-102479452D01*
X112456855Y-102444988D01*
X112450000Y-102410524D01*
X112450000Y-98594973D01*
X112550001Y-98494972D01*
X112550000Y-109800000D01*
X112550000Y-109800000D01*
G37*
X112550000Y-109800000D02*
X112530653Y-109800000D01*
X112310127Y-109891344D01*
X112141344Y-110060127D01*
X112050000Y-110280653D01*
X112050000Y-110519347D01*
X112141344Y-110739873D01*
X112251471Y-110850000D01*
X112141344Y-110960127D01*
X112050000Y-111180653D01*
X112050000Y-111419347D01*
X112141344Y-111639873D01*
X112251471Y-111750000D01*
X112191344Y-111810127D01*
X112100000Y-112030653D01*
X112100000Y-112269347D01*
X112191344Y-112489873D01*
X112276471Y-112575000D01*
X112191344Y-112660127D01*
X112100000Y-112880653D01*
X112100000Y-113119347D01*
X112160583Y-113265608D01*
X111650000Y-112755026D01*
X111650000Y-112530653D01*
X111558656Y-112310127D01*
X111389873Y-112141344D01*
X111169347Y-112050000D01*
X110930653Y-112050000D01*
X110710127Y-112141344D01*
X110541344Y-112310127D01*
X110450000Y-112530653D01*
X110450000Y-112755027D01*
X110071862Y-112376889D01*
X110052335Y-112347665D01*
X109936563Y-112270308D01*
X109834468Y-112250000D01*
X109834464Y-112250000D01*
X109800000Y-112243145D01*
X109765536Y-112250000D01*
X108398529Y-112250000D01*
X108250000Y-112101471D01*
X108250000Y-108044973D01*
X108894974Y-107400000D01*
X109119347Y-107400000D01*
X109339873Y-107308656D01*
X109508656Y-107139873D01*
X109600000Y-106919347D01*
X109600000Y-106680653D01*
X109508656Y-106460127D01*
X109339873Y-106291344D01*
X109119347Y-106200000D01*
X108880653Y-106200000D01*
X108811189Y-106228773D01*
X112323117Y-102716846D01*
X112352335Y-102697323D01*
X112371858Y-102668105D01*
X112371860Y-102668103D01*
X112429692Y-102581551D01*
X112430531Y-102577335D01*
X112450000Y-102479456D01*
X112450000Y-102479452D01*
X112456855Y-102444988D01*
X112450000Y-102410524D01*
X112450000Y-98594973D01*
X112550001Y-98494972D01*
X112550000Y-109800000D01*
G36*
X105976823Y-77507153D02*
X105975905Y-77508527D01*
X105949994Y-77557003D01*
X105912485Y-77647559D01*
X105896530Y-77700157D01*
X105877408Y-77796290D01*
X105872020Y-77850991D01*
X105872020Y-77887894D01*
X105869612Y-77900000D01*
X105869612Y-78450000D01*
X105890955Y-78557300D01*
X105902783Y-78575001D01*
X105890956Y-78592701D01*
X105869613Y-78700000D01*
X105869613Y-78850000D01*
X105734463Y-78850000D01*
X105699999Y-78843145D01*
X105665535Y-78850000D01*
X105665532Y-78850000D01*
X105563437Y-78870308D01*
X105447665Y-78947665D01*
X105428138Y-78976889D01*
X105326887Y-79078140D01*
X105297666Y-79097665D01*
X105278141Y-79126886D01*
X105220308Y-79213438D01*
X105193145Y-79350000D01*
X105200001Y-79384468D01*
X105200000Y-81050000D01*
X105180653Y-81050000D01*
X105000000Y-81124828D01*
X105000000Y-79384463D01*
X105006855Y-79349999D01*
X105000000Y-79315535D01*
X105000000Y-79315532D01*
X104979692Y-79213437D01*
X104902335Y-79097665D01*
X104873111Y-79078138D01*
X104771862Y-78976889D01*
X104752335Y-78947665D01*
X104636563Y-78870308D01*
X104534468Y-78850000D01*
X104534464Y-78850000D01*
X104500000Y-78843145D01*
X104465536Y-78850000D01*
X104430387Y-78850000D01*
X104430387Y-78700000D01*
X104409044Y-78592701D01*
X104397217Y-78575001D01*
X104409045Y-78557300D01*
X104430388Y-78450000D01*
X104430388Y-77900000D01*
X104427980Y-77887894D01*
X104427980Y-77850991D01*
X104422592Y-77796290D01*
X104403470Y-77700157D01*
X104387515Y-77647559D01*
X104350006Y-77557003D01*
X104324095Y-77508527D01*
X104269639Y-77427028D01*
X104234769Y-77384539D01*
X104200230Y-77350000D01*
X105819671Y-77350000D01*
X105976823Y-77507153D01*
X105976823Y-77507153D01*
G37*
X105976823Y-77507153D02*
X105975905Y-77508527D01*
X105949994Y-77557003D01*
X105912485Y-77647559D01*
X105896530Y-77700157D01*
X105877408Y-77796290D01*
X105872020Y-77850991D01*
X105872020Y-77887894D01*
X105869612Y-77900000D01*
X105869612Y-78450000D01*
X105890955Y-78557300D01*
X105902783Y-78575001D01*
X105890956Y-78592701D01*
X105869613Y-78700000D01*
X105869613Y-78850000D01*
X105734463Y-78850000D01*
X105699999Y-78843145D01*
X105665535Y-78850000D01*
X105665532Y-78850000D01*
X105563437Y-78870308D01*
X105447665Y-78947665D01*
X105428138Y-78976889D01*
X105326887Y-79078140D01*
X105297666Y-79097665D01*
X105278141Y-79126886D01*
X105220308Y-79213438D01*
X105193145Y-79350000D01*
X105200001Y-79384468D01*
X105200000Y-81050000D01*
X105180653Y-81050000D01*
X105000000Y-81124828D01*
X105000000Y-79384463D01*
X105006855Y-79349999D01*
X105000000Y-79315535D01*
X105000000Y-79315532D01*
X104979692Y-79213437D01*
X104902335Y-79097665D01*
X104873111Y-79078138D01*
X104771862Y-78976889D01*
X104752335Y-78947665D01*
X104636563Y-78870308D01*
X104534468Y-78850000D01*
X104534464Y-78850000D01*
X104500000Y-78843145D01*
X104465536Y-78850000D01*
X104430387Y-78850000D01*
X104430387Y-78700000D01*
X104409044Y-78592701D01*
X104397217Y-78575001D01*
X104409045Y-78557300D01*
X104430388Y-78450000D01*
X104430388Y-77900000D01*
X104427980Y-77887894D01*
X104427980Y-77850991D01*
X104422592Y-77796290D01*
X104403470Y-77700157D01*
X104387515Y-77647559D01*
X104350006Y-77557003D01*
X104324095Y-77508527D01*
X104269639Y-77427028D01*
X104234769Y-77384539D01*
X104200230Y-77350000D01*
X105819671Y-77350000D01*
X105976823Y-77507153D01*
G04 #@! TD*
M02*
