G04 #@! TF.GenerationSoftware,KiCad,Pcbnew,(5.0.0)*
G04 #@! TF.CreationDate,2020-12-16T12:49:41+00:00*
G04 #@! TF.ProjectId,ESP-V,4553502D562E6B696361645F70636200,rev?*
G04 #@! TF.SameCoordinates,Original*
G04 #@! TF.FileFunction,Paste,Top*
G04 #@! TF.FilePolarity,Positive*
%FSLAX46Y46*%
G04 Gerber Fmt 4.6, Leading zero omitted, Abs format (unit mm)*
G04 Created by KiCad (PCBNEW (5.0.0)) date 12/16/20 12:49:41*
%MOMM*%
%LPD*%
G01*
G04 APERTURE LIST*
%ADD10R,3.500000X1.350000*%
%ADD11R,0.800000X1.350000*%
%ADD12R,2.600000X1.600000*%
%ADD13C,0.100000*%
%ADD14C,0.930000*%
%ADD15C,0.250000*%
%ADD16R,0.800000X0.900000*%
%ADD17R,0.600000X1.500000*%
%ADD18C,0.950000*%
%ADD19R,1.500000X1.250000*%
%ADD20R,1.200000X0.750000*%
%ADD21C,0.750000*%
%ADD22C,1.250000*%
%ADD23R,1.250000X1.500000*%
%ADD24C,1.150000*%
%ADD25R,0.450000X0.600000*%
%ADD26R,0.300000X1.140000*%
%ADD27C,0.875000*%
%ADD28C,0.500000*%
%ADD29C,0.400000*%
%ADD30C,0.300000*%
%ADD31C,0.580000*%
G04 APERTURE END LIST*
D10*
G04 #@! TO.C,J4*
X96750000Y-122300000D03*
D11*
X89400000Y-122300000D03*
G04 #@! TD*
D12*
G04 #@! TO.C,C1*
X94150000Y-80000000D03*
X97750000Y-80000000D03*
G04 #@! TD*
D13*
G04 #@! TO.C,U4*
G36*
X102672789Y-114266161D02*
X102695358Y-114269508D01*
X102717491Y-114275052D01*
X102738974Y-114282739D01*
X102759600Y-114292494D01*
X102779170Y-114304224D01*
X102797496Y-114317816D01*
X102814402Y-114333139D01*
X103143207Y-114661944D01*
X103158530Y-114678850D01*
X103172122Y-114697176D01*
X103183852Y-114716746D01*
X103193607Y-114737372D01*
X103201294Y-114758855D01*
X103206838Y-114780988D01*
X103210185Y-114803557D01*
X103211305Y-114826346D01*
X103210185Y-114849135D01*
X103206838Y-114871704D01*
X103201294Y-114893837D01*
X103193607Y-114915320D01*
X103183852Y-114935946D01*
X103172122Y-114955516D01*
X103158530Y-114973842D01*
X103143207Y-114990748D01*
X102814402Y-115319553D01*
X102797496Y-115334876D01*
X102779170Y-115348468D01*
X102759600Y-115360198D01*
X102738974Y-115369953D01*
X102717491Y-115377640D01*
X102695358Y-115383184D01*
X102672789Y-115386531D01*
X102650000Y-115387651D01*
X102627211Y-115386531D01*
X102604642Y-115383184D01*
X102582509Y-115377640D01*
X102561026Y-115369953D01*
X102540400Y-115360198D01*
X102520830Y-115348468D01*
X102502504Y-115334876D01*
X102485598Y-115319553D01*
X102156793Y-114990748D01*
X102141470Y-114973842D01*
X102127878Y-114955516D01*
X102116148Y-114935946D01*
X102106393Y-114915320D01*
X102098706Y-114893837D01*
X102093162Y-114871704D01*
X102089815Y-114849135D01*
X102088695Y-114826346D01*
X102089815Y-114803557D01*
X102093162Y-114780988D01*
X102098706Y-114758855D01*
X102106393Y-114737372D01*
X102116148Y-114716746D01*
X102127878Y-114697176D01*
X102141470Y-114678850D01*
X102156793Y-114661944D01*
X102485598Y-114333139D01*
X102502504Y-114317816D01*
X102520830Y-114304224D01*
X102540400Y-114292494D01*
X102561026Y-114282739D01*
X102582509Y-114275052D01*
X102604642Y-114269508D01*
X102627211Y-114266161D01*
X102650000Y-114265041D01*
X102672789Y-114266161D01*
X102672789Y-114266161D01*
G37*
D14*
X102650000Y-114826346D03*
D13*
G36*
X103485962Y-113452988D02*
X103508531Y-113456335D01*
X103530664Y-113461879D01*
X103552147Y-113469566D01*
X103572773Y-113479321D01*
X103592343Y-113491051D01*
X103610669Y-113504643D01*
X103627575Y-113519966D01*
X103956380Y-113848771D01*
X103971703Y-113865677D01*
X103985295Y-113884003D01*
X103997025Y-113903573D01*
X104006780Y-113924199D01*
X104014467Y-113945682D01*
X104020011Y-113967815D01*
X104023358Y-113990384D01*
X104024478Y-114013173D01*
X104023358Y-114035962D01*
X104020011Y-114058531D01*
X104014467Y-114080664D01*
X104006780Y-114102147D01*
X103997025Y-114122773D01*
X103985295Y-114142343D01*
X103971703Y-114160669D01*
X103956380Y-114177575D01*
X103627575Y-114506380D01*
X103610669Y-114521703D01*
X103592343Y-114535295D01*
X103572773Y-114547025D01*
X103552147Y-114556780D01*
X103530664Y-114564467D01*
X103508531Y-114570011D01*
X103485962Y-114573358D01*
X103463173Y-114574478D01*
X103440384Y-114573358D01*
X103417815Y-114570011D01*
X103395682Y-114564467D01*
X103374199Y-114556780D01*
X103353573Y-114547025D01*
X103334003Y-114535295D01*
X103315677Y-114521703D01*
X103298771Y-114506380D01*
X102969966Y-114177575D01*
X102954643Y-114160669D01*
X102941051Y-114142343D01*
X102929321Y-114122773D01*
X102919566Y-114102147D01*
X102911879Y-114080664D01*
X102906335Y-114058531D01*
X102902988Y-114035962D01*
X102901868Y-114013173D01*
X102902988Y-113990384D01*
X102906335Y-113967815D01*
X102911879Y-113945682D01*
X102919566Y-113924199D01*
X102929321Y-113903573D01*
X102941051Y-113884003D01*
X102954643Y-113865677D01*
X102969966Y-113848771D01*
X103298771Y-113519966D01*
X103315677Y-113504643D01*
X103334003Y-113491051D01*
X103353573Y-113479321D01*
X103374199Y-113469566D01*
X103395682Y-113461879D01*
X103417815Y-113456335D01*
X103440384Y-113452988D01*
X103463173Y-113451868D01*
X103485962Y-113452988D01*
X103485962Y-113452988D01*
G37*
D14*
X103463173Y-114013173D03*
D13*
G36*
X104299135Y-112639815D02*
X104321704Y-112643162D01*
X104343837Y-112648706D01*
X104365320Y-112656393D01*
X104385946Y-112666148D01*
X104405516Y-112677878D01*
X104423842Y-112691470D01*
X104440748Y-112706793D01*
X104769553Y-113035598D01*
X104784876Y-113052504D01*
X104798468Y-113070830D01*
X104810198Y-113090400D01*
X104819953Y-113111026D01*
X104827640Y-113132509D01*
X104833184Y-113154642D01*
X104836531Y-113177211D01*
X104837651Y-113200000D01*
X104836531Y-113222789D01*
X104833184Y-113245358D01*
X104827640Y-113267491D01*
X104819953Y-113288974D01*
X104810198Y-113309600D01*
X104798468Y-113329170D01*
X104784876Y-113347496D01*
X104769553Y-113364402D01*
X104440748Y-113693207D01*
X104423842Y-113708530D01*
X104405516Y-113722122D01*
X104385946Y-113733852D01*
X104365320Y-113743607D01*
X104343837Y-113751294D01*
X104321704Y-113756838D01*
X104299135Y-113760185D01*
X104276346Y-113761305D01*
X104253557Y-113760185D01*
X104230988Y-113756838D01*
X104208855Y-113751294D01*
X104187372Y-113743607D01*
X104166746Y-113733852D01*
X104147176Y-113722122D01*
X104128850Y-113708530D01*
X104111944Y-113693207D01*
X103783139Y-113364402D01*
X103767816Y-113347496D01*
X103754224Y-113329170D01*
X103742494Y-113309600D01*
X103732739Y-113288974D01*
X103725052Y-113267491D01*
X103719508Y-113245358D01*
X103716161Y-113222789D01*
X103715041Y-113200000D01*
X103716161Y-113177211D01*
X103719508Y-113154642D01*
X103725052Y-113132509D01*
X103732739Y-113111026D01*
X103742494Y-113090400D01*
X103754224Y-113070830D01*
X103767816Y-113052504D01*
X103783139Y-113035598D01*
X104111944Y-112706793D01*
X104128850Y-112691470D01*
X104147176Y-112677878D01*
X104166746Y-112666148D01*
X104187372Y-112656393D01*
X104208855Y-112648706D01*
X104230988Y-112643162D01*
X104253557Y-112639815D01*
X104276346Y-112638695D01*
X104299135Y-112639815D01*
X104299135Y-112639815D01*
G37*
D14*
X104276346Y-113200000D03*
D13*
G36*
X101859616Y-113452988D02*
X101882185Y-113456335D01*
X101904318Y-113461879D01*
X101925801Y-113469566D01*
X101946427Y-113479321D01*
X101965997Y-113491051D01*
X101984323Y-113504643D01*
X102001229Y-113519966D01*
X102330034Y-113848771D01*
X102345357Y-113865677D01*
X102358949Y-113884003D01*
X102370679Y-113903573D01*
X102380434Y-113924199D01*
X102388121Y-113945682D01*
X102393665Y-113967815D01*
X102397012Y-113990384D01*
X102398132Y-114013173D01*
X102397012Y-114035962D01*
X102393665Y-114058531D01*
X102388121Y-114080664D01*
X102380434Y-114102147D01*
X102370679Y-114122773D01*
X102358949Y-114142343D01*
X102345357Y-114160669D01*
X102330034Y-114177575D01*
X102001229Y-114506380D01*
X101984323Y-114521703D01*
X101965997Y-114535295D01*
X101946427Y-114547025D01*
X101925801Y-114556780D01*
X101904318Y-114564467D01*
X101882185Y-114570011D01*
X101859616Y-114573358D01*
X101836827Y-114574478D01*
X101814038Y-114573358D01*
X101791469Y-114570011D01*
X101769336Y-114564467D01*
X101747853Y-114556780D01*
X101727227Y-114547025D01*
X101707657Y-114535295D01*
X101689331Y-114521703D01*
X101672425Y-114506380D01*
X101343620Y-114177575D01*
X101328297Y-114160669D01*
X101314705Y-114142343D01*
X101302975Y-114122773D01*
X101293220Y-114102147D01*
X101285533Y-114080664D01*
X101279989Y-114058531D01*
X101276642Y-114035962D01*
X101275522Y-114013173D01*
X101276642Y-113990384D01*
X101279989Y-113967815D01*
X101285533Y-113945682D01*
X101293220Y-113924199D01*
X101302975Y-113903573D01*
X101314705Y-113884003D01*
X101328297Y-113865677D01*
X101343620Y-113848771D01*
X101672425Y-113519966D01*
X101689331Y-113504643D01*
X101707657Y-113491051D01*
X101727227Y-113479321D01*
X101747853Y-113469566D01*
X101769336Y-113461879D01*
X101791469Y-113456335D01*
X101814038Y-113452988D01*
X101836827Y-113451868D01*
X101859616Y-113452988D01*
X101859616Y-113452988D01*
G37*
D14*
X101836827Y-114013173D03*
D13*
G36*
X102672789Y-112639815D02*
X102695358Y-112643162D01*
X102717491Y-112648706D01*
X102738974Y-112656393D01*
X102759600Y-112666148D01*
X102779170Y-112677878D01*
X102797496Y-112691470D01*
X102814402Y-112706793D01*
X103143207Y-113035598D01*
X103158530Y-113052504D01*
X103172122Y-113070830D01*
X103183852Y-113090400D01*
X103193607Y-113111026D01*
X103201294Y-113132509D01*
X103206838Y-113154642D01*
X103210185Y-113177211D01*
X103211305Y-113200000D01*
X103210185Y-113222789D01*
X103206838Y-113245358D01*
X103201294Y-113267491D01*
X103193607Y-113288974D01*
X103183852Y-113309600D01*
X103172122Y-113329170D01*
X103158530Y-113347496D01*
X103143207Y-113364402D01*
X102814402Y-113693207D01*
X102797496Y-113708530D01*
X102779170Y-113722122D01*
X102759600Y-113733852D01*
X102738974Y-113743607D01*
X102717491Y-113751294D01*
X102695358Y-113756838D01*
X102672789Y-113760185D01*
X102650000Y-113761305D01*
X102627211Y-113760185D01*
X102604642Y-113756838D01*
X102582509Y-113751294D01*
X102561026Y-113743607D01*
X102540400Y-113733852D01*
X102520830Y-113722122D01*
X102502504Y-113708530D01*
X102485598Y-113693207D01*
X102156793Y-113364402D01*
X102141470Y-113347496D01*
X102127878Y-113329170D01*
X102116148Y-113309600D01*
X102106393Y-113288974D01*
X102098706Y-113267491D01*
X102093162Y-113245358D01*
X102089815Y-113222789D01*
X102088695Y-113200000D01*
X102089815Y-113177211D01*
X102093162Y-113154642D01*
X102098706Y-113132509D01*
X102106393Y-113111026D01*
X102116148Y-113090400D01*
X102127878Y-113070830D01*
X102141470Y-113052504D01*
X102156793Y-113035598D01*
X102485598Y-112706793D01*
X102502504Y-112691470D01*
X102520830Y-112677878D01*
X102540400Y-112666148D01*
X102561026Y-112656393D01*
X102582509Y-112648706D01*
X102604642Y-112643162D01*
X102627211Y-112639815D01*
X102650000Y-112638695D01*
X102672789Y-112639815D01*
X102672789Y-112639815D01*
G37*
D14*
X102650000Y-113200000D03*
D13*
G36*
X103485962Y-111826642D02*
X103508531Y-111829989D01*
X103530664Y-111835533D01*
X103552147Y-111843220D01*
X103572773Y-111852975D01*
X103592343Y-111864705D01*
X103610669Y-111878297D01*
X103627575Y-111893620D01*
X103956380Y-112222425D01*
X103971703Y-112239331D01*
X103985295Y-112257657D01*
X103997025Y-112277227D01*
X104006780Y-112297853D01*
X104014467Y-112319336D01*
X104020011Y-112341469D01*
X104023358Y-112364038D01*
X104024478Y-112386827D01*
X104023358Y-112409616D01*
X104020011Y-112432185D01*
X104014467Y-112454318D01*
X104006780Y-112475801D01*
X103997025Y-112496427D01*
X103985295Y-112515997D01*
X103971703Y-112534323D01*
X103956380Y-112551229D01*
X103627575Y-112880034D01*
X103610669Y-112895357D01*
X103592343Y-112908949D01*
X103572773Y-112920679D01*
X103552147Y-112930434D01*
X103530664Y-112938121D01*
X103508531Y-112943665D01*
X103485962Y-112947012D01*
X103463173Y-112948132D01*
X103440384Y-112947012D01*
X103417815Y-112943665D01*
X103395682Y-112938121D01*
X103374199Y-112930434D01*
X103353573Y-112920679D01*
X103334003Y-112908949D01*
X103315677Y-112895357D01*
X103298771Y-112880034D01*
X102969966Y-112551229D01*
X102954643Y-112534323D01*
X102941051Y-112515997D01*
X102929321Y-112496427D01*
X102919566Y-112475801D01*
X102911879Y-112454318D01*
X102906335Y-112432185D01*
X102902988Y-112409616D01*
X102901868Y-112386827D01*
X102902988Y-112364038D01*
X102906335Y-112341469D01*
X102911879Y-112319336D01*
X102919566Y-112297853D01*
X102929321Y-112277227D01*
X102941051Y-112257657D01*
X102954643Y-112239331D01*
X102969966Y-112222425D01*
X103298771Y-111893620D01*
X103315677Y-111878297D01*
X103334003Y-111864705D01*
X103353573Y-111852975D01*
X103374199Y-111843220D01*
X103395682Y-111835533D01*
X103417815Y-111829989D01*
X103440384Y-111826642D01*
X103463173Y-111825522D01*
X103485962Y-111826642D01*
X103485962Y-111826642D01*
G37*
D14*
X103463173Y-112386827D03*
D13*
G36*
X101046443Y-112639815D02*
X101069012Y-112643162D01*
X101091145Y-112648706D01*
X101112628Y-112656393D01*
X101133254Y-112666148D01*
X101152824Y-112677878D01*
X101171150Y-112691470D01*
X101188056Y-112706793D01*
X101516861Y-113035598D01*
X101532184Y-113052504D01*
X101545776Y-113070830D01*
X101557506Y-113090400D01*
X101567261Y-113111026D01*
X101574948Y-113132509D01*
X101580492Y-113154642D01*
X101583839Y-113177211D01*
X101584959Y-113200000D01*
X101583839Y-113222789D01*
X101580492Y-113245358D01*
X101574948Y-113267491D01*
X101567261Y-113288974D01*
X101557506Y-113309600D01*
X101545776Y-113329170D01*
X101532184Y-113347496D01*
X101516861Y-113364402D01*
X101188056Y-113693207D01*
X101171150Y-113708530D01*
X101152824Y-113722122D01*
X101133254Y-113733852D01*
X101112628Y-113743607D01*
X101091145Y-113751294D01*
X101069012Y-113756838D01*
X101046443Y-113760185D01*
X101023654Y-113761305D01*
X101000865Y-113760185D01*
X100978296Y-113756838D01*
X100956163Y-113751294D01*
X100934680Y-113743607D01*
X100914054Y-113733852D01*
X100894484Y-113722122D01*
X100876158Y-113708530D01*
X100859252Y-113693207D01*
X100530447Y-113364402D01*
X100515124Y-113347496D01*
X100501532Y-113329170D01*
X100489802Y-113309600D01*
X100480047Y-113288974D01*
X100472360Y-113267491D01*
X100466816Y-113245358D01*
X100463469Y-113222789D01*
X100462349Y-113200000D01*
X100463469Y-113177211D01*
X100466816Y-113154642D01*
X100472360Y-113132509D01*
X100480047Y-113111026D01*
X100489802Y-113090400D01*
X100501532Y-113070830D01*
X100515124Y-113052504D01*
X100530447Y-113035598D01*
X100859252Y-112706793D01*
X100876158Y-112691470D01*
X100894484Y-112677878D01*
X100914054Y-112666148D01*
X100934680Y-112656393D01*
X100956163Y-112648706D01*
X100978296Y-112643162D01*
X101000865Y-112639815D01*
X101023654Y-112638695D01*
X101046443Y-112639815D01*
X101046443Y-112639815D01*
G37*
D14*
X101023654Y-113200000D03*
D13*
G36*
X101859616Y-111826642D02*
X101882185Y-111829989D01*
X101904318Y-111835533D01*
X101925801Y-111843220D01*
X101946427Y-111852975D01*
X101965997Y-111864705D01*
X101984323Y-111878297D01*
X102001229Y-111893620D01*
X102330034Y-112222425D01*
X102345357Y-112239331D01*
X102358949Y-112257657D01*
X102370679Y-112277227D01*
X102380434Y-112297853D01*
X102388121Y-112319336D01*
X102393665Y-112341469D01*
X102397012Y-112364038D01*
X102398132Y-112386827D01*
X102397012Y-112409616D01*
X102393665Y-112432185D01*
X102388121Y-112454318D01*
X102380434Y-112475801D01*
X102370679Y-112496427D01*
X102358949Y-112515997D01*
X102345357Y-112534323D01*
X102330034Y-112551229D01*
X102001229Y-112880034D01*
X101984323Y-112895357D01*
X101965997Y-112908949D01*
X101946427Y-112920679D01*
X101925801Y-112930434D01*
X101904318Y-112938121D01*
X101882185Y-112943665D01*
X101859616Y-112947012D01*
X101836827Y-112948132D01*
X101814038Y-112947012D01*
X101791469Y-112943665D01*
X101769336Y-112938121D01*
X101747853Y-112930434D01*
X101727227Y-112920679D01*
X101707657Y-112908949D01*
X101689331Y-112895357D01*
X101672425Y-112880034D01*
X101343620Y-112551229D01*
X101328297Y-112534323D01*
X101314705Y-112515997D01*
X101302975Y-112496427D01*
X101293220Y-112475801D01*
X101285533Y-112454318D01*
X101279989Y-112432185D01*
X101276642Y-112409616D01*
X101275522Y-112386827D01*
X101276642Y-112364038D01*
X101279989Y-112341469D01*
X101285533Y-112319336D01*
X101293220Y-112297853D01*
X101302975Y-112277227D01*
X101314705Y-112257657D01*
X101328297Y-112239331D01*
X101343620Y-112222425D01*
X101672425Y-111893620D01*
X101689331Y-111878297D01*
X101707657Y-111864705D01*
X101727227Y-111852975D01*
X101747853Y-111843220D01*
X101769336Y-111835533D01*
X101791469Y-111829989D01*
X101814038Y-111826642D01*
X101836827Y-111825522D01*
X101859616Y-111826642D01*
X101859616Y-111826642D01*
G37*
D14*
X101836827Y-112386827D03*
D13*
G36*
X102672789Y-111013469D02*
X102695358Y-111016816D01*
X102717491Y-111022360D01*
X102738974Y-111030047D01*
X102759600Y-111039802D01*
X102779170Y-111051532D01*
X102797496Y-111065124D01*
X102814402Y-111080447D01*
X103143207Y-111409252D01*
X103158530Y-111426158D01*
X103172122Y-111444484D01*
X103183852Y-111464054D01*
X103193607Y-111484680D01*
X103201294Y-111506163D01*
X103206838Y-111528296D01*
X103210185Y-111550865D01*
X103211305Y-111573654D01*
X103210185Y-111596443D01*
X103206838Y-111619012D01*
X103201294Y-111641145D01*
X103193607Y-111662628D01*
X103183852Y-111683254D01*
X103172122Y-111702824D01*
X103158530Y-111721150D01*
X103143207Y-111738056D01*
X102814402Y-112066861D01*
X102797496Y-112082184D01*
X102779170Y-112095776D01*
X102759600Y-112107506D01*
X102738974Y-112117261D01*
X102717491Y-112124948D01*
X102695358Y-112130492D01*
X102672789Y-112133839D01*
X102650000Y-112134959D01*
X102627211Y-112133839D01*
X102604642Y-112130492D01*
X102582509Y-112124948D01*
X102561026Y-112117261D01*
X102540400Y-112107506D01*
X102520830Y-112095776D01*
X102502504Y-112082184D01*
X102485598Y-112066861D01*
X102156793Y-111738056D01*
X102141470Y-111721150D01*
X102127878Y-111702824D01*
X102116148Y-111683254D01*
X102106393Y-111662628D01*
X102098706Y-111641145D01*
X102093162Y-111619012D01*
X102089815Y-111596443D01*
X102088695Y-111573654D01*
X102089815Y-111550865D01*
X102093162Y-111528296D01*
X102098706Y-111506163D01*
X102106393Y-111484680D01*
X102116148Y-111464054D01*
X102127878Y-111444484D01*
X102141470Y-111426158D01*
X102156793Y-111409252D01*
X102485598Y-111080447D01*
X102502504Y-111065124D01*
X102520830Y-111051532D01*
X102540400Y-111039802D01*
X102561026Y-111030047D01*
X102582509Y-111022360D01*
X102604642Y-111016816D01*
X102627211Y-111013469D01*
X102650000Y-111012349D01*
X102672789Y-111013469D01*
X102672789Y-111013469D01*
G37*
D14*
X102650000Y-111573654D03*
D13*
G36*
X102921291Y-115789452D02*
X102927358Y-115790352D01*
X102933308Y-115791842D01*
X102939083Y-115793909D01*
X102944627Y-115796531D01*
X102949888Y-115799684D01*
X102954815Y-115803338D01*
X102959359Y-115807457D01*
X103489689Y-116337787D01*
X103493808Y-116342331D01*
X103497462Y-116347258D01*
X103500615Y-116352519D01*
X103503237Y-116358063D01*
X103505304Y-116363838D01*
X103506794Y-116369788D01*
X103507694Y-116375855D01*
X103507995Y-116381981D01*
X103507694Y-116388107D01*
X103506794Y-116394174D01*
X103505304Y-116400124D01*
X103503237Y-116405899D01*
X103500615Y-116411443D01*
X103497462Y-116416704D01*
X103493808Y-116421631D01*
X103489689Y-116426175D01*
X103401301Y-116514563D01*
X103396757Y-116518682D01*
X103391830Y-116522336D01*
X103386569Y-116525489D01*
X103381025Y-116528111D01*
X103375250Y-116530178D01*
X103369300Y-116531668D01*
X103363233Y-116532568D01*
X103357107Y-116532869D01*
X103350981Y-116532568D01*
X103344914Y-116531668D01*
X103338964Y-116530178D01*
X103333189Y-116528111D01*
X103327645Y-116525489D01*
X103322384Y-116522336D01*
X103317457Y-116518682D01*
X103312913Y-116514563D01*
X102782583Y-115984233D01*
X102778464Y-115979689D01*
X102774810Y-115974762D01*
X102771657Y-115969501D01*
X102769035Y-115963957D01*
X102766968Y-115958182D01*
X102765478Y-115952232D01*
X102764578Y-115946165D01*
X102764277Y-115940039D01*
X102764578Y-115933913D01*
X102765478Y-115927846D01*
X102766968Y-115921896D01*
X102769035Y-115916121D01*
X102771657Y-115910577D01*
X102774810Y-115905316D01*
X102778464Y-115900389D01*
X102782583Y-115895845D01*
X102870971Y-115807457D01*
X102875515Y-115803338D01*
X102880442Y-115799684D01*
X102885703Y-115796531D01*
X102891247Y-115793909D01*
X102897022Y-115791842D01*
X102902972Y-115790352D01*
X102909039Y-115789452D01*
X102915165Y-115789151D01*
X102921291Y-115789452D01*
X102921291Y-115789452D01*
G37*
D15*
X103136136Y-116161010D03*
D13*
G36*
X103274844Y-115435898D02*
X103280911Y-115436798D01*
X103286861Y-115438288D01*
X103292636Y-115440355D01*
X103298180Y-115442977D01*
X103303441Y-115446130D01*
X103308368Y-115449784D01*
X103312912Y-115453903D01*
X103843242Y-115984233D01*
X103847361Y-115988777D01*
X103851015Y-115993704D01*
X103854168Y-115998965D01*
X103856790Y-116004509D01*
X103858857Y-116010284D01*
X103860347Y-116016234D01*
X103861247Y-116022301D01*
X103861548Y-116028427D01*
X103861247Y-116034553D01*
X103860347Y-116040620D01*
X103858857Y-116046570D01*
X103856790Y-116052345D01*
X103854168Y-116057889D01*
X103851015Y-116063150D01*
X103847361Y-116068077D01*
X103843242Y-116072621D01*
X103754854Y-116161009D01*
X103750310Y-116165128D01*
X103745383Y-116168782D01*
X103740122Y-116171935D01*
X103734578Y-116174557D01*
X103728803Y-116176624D01*
X103722853Y-116178114D01*
X103716786Y-116179014D01*
X103710660Y-116179315D01*
X103704534Y-116179014D01*
X103698467Y-116178114D01*
X103692517Y-116176624D01*
X103686742Y-116174557D01*
X103681198Y-116171935D01*
X103675937Y-116168782D01*
X103671010Y-116165128D01*
X103666466Y-116161009D01*
X103136136Y-115630679D01*
X103132017Y-115626135D01*
X103128363Y-115621208D01*
X103125210Y-115615947D01*
X103122588Y-115610403D01*
X103120521Y-115604628D01*
X103119031Y-115598678D01*
X103118131Y-115592611D01*
X103117830Y-115586485D01*
X103118131Y-115580359D01*
X103119031Y-115574292D01*
X103120521Y-115568342D01*
X103122588Y-115562567D01*
X103125210Y-115557023D01*
X103128363Y-115551762D01*
X103132017Y-115546835D01*
X103136136Y-115542291D01*
X103224524Y-115453903D01*
X103229068Y-115449784D01*
X103233995Y-115446130D01*
X103239256Y-115442977D01*
X103244800Y-115440355D01*
X103250575Y-115438288D01*
X103256525Y-115436798D01*
X103262592Y-115435898D01*
X103268718Y-115435597D01*
X103274844Y-115435898D01*
X103274844Y-115435898D01*
G37*
D15*
X103489689Y-115807456D03*
D13*
G36*
X103628398Y-115082345D02*
X103634465Y-115083245D01*
X103640415Y-115084735D01*
X103646190Y-115086802D01*
X103651734Y-115089424D01*
X103656995Y-115092577D01*
X103661922Y-115096231D01*
X103666466Y-115100350D01*
X104196796Y-115630680D01*
X104200915Y-115635224D01*
X104204569Y-115640151D01*
X104207722Y-115645412D01*
X104210344Y-115650956D01*
X104212411Y-115656731D01*
X104213901Y-115662681D01*
X104214801Y-115668748D01*
X104215102Y-115674874D01*
X104214801Y-115681000D01*
X104213901Y-115687067D01*
X104212411Y-115693017D01*
X104210344Y-115698792D01*
X104207722Y-115704336D01*
X104204569Y-115709597D01*
X104200915Y-115714524D01*
X104196796Y-115719068D01*
X104108408Y-115807456D01*
X104103864Y-115811575D01*
X104098937Y-115815229D01*
X104093676Y-115818382D01*
X104088132Y-115821004D01*
X104082357Y-115823071D01*
X104076407Y-115824561D01*
X104070340Y-115825461D01*
X104064214Y-115825762D01*
X104058088Y-115825461D01*
X104052021Y-115824561D01*
X104046071Y-115823071D01*
X104040296Y-115821004D01*
X104034752Y-115818382D01*
X104029491Y-115815229D01*
X104024564Y-115811575D01*
X104020020Y-115807456D01*
X103489690Y-115277126D01*
X103485571Y-115272582D01*
X103481917Y-115267655D01*
X103478764Y-115262394D01*
X103476142Y-115256850D01*
X103474075Y-115251075D01*
X103472585Y-115245125D01*
X103471685Y-115239058D01*
X103471384Y-115232932D01*
X103471685Y-115226806D01*
X103472585Y-115220739D01*
X103474075Y-115214789D01*
X103476142Y-115209014D01*
X103478764Y-115203470D01*
X103481917Y-115198209D01*
X103485571Y-115193282D01*
X103489690Y-115188738D01*
X103578078Y-115100350D01*
X103582622Y-115096231D01*
X103587549Y-115092577D01*
X103592810Y-115089424D01*
X103598354Y-115086802D01*
X103604129Y-115084735D01*
X103610079Y-115083245D01*
X103616146Y-115082345D01*
X103622272Y-115082044D01*
X103628398Y-115082345D01*
X103628398Y-115082345D01*
G37*
D15*
X103843243Y-115453903D03*
D13*
G36*
X103981951Y-114728791D02*
X103988018Y-114729691D01*
X103993968Y-114731181D01*
X103999743Y-114733248D01*
X104005287Y-114735870D01*
X104010548Y-114739023D01*
X104015475Y-114742677D01*
X104020019Y-114746796D01*
X104550349Y-115277126D01*
X104554468Y-115281670D01*
X104558122Y-115286597D01*
X104561275Y-115291858D01*
X104563897Y-115297402D01*
X104565964Y-115303177D01*
X104567454Y-115309127D01*
X104568354Y-115315194D01*
X104568655Y-115321320D01*
X104568354Y-115327446D01*
X104567454Y-115333513D01*
X104565964Y-115339463D01*
X104563897Y-115345238D01*
X104561275Y-115350782D01*
X104558122Y-115356043D01*
X104554468Y-115360970D01*
X104550349Y-115365514D01*
X104461961Y-115453902D01*
X104457417Y-115458021D01*
X104452490Y-115461675D01*
X104447229Y-115464828D01*
X104441685Y-115467450D01*
X104435910Y-115469517D01*
X104429960Y-115471007D01*
X104423893Y-115471907D01*
X104417767Y-115472208D01*
X104411641Y-115471907D01*
X104405574Y-115471007D01*
X104399624Y-115469517D01*
X104393849Y-115467450D01*
X104388305Y-115464828D01*
X104383044Y-115461675D01*
X104378117Y-115458021D01*
X104373573Y-115453902D01*
X103843243Y-114923572D01*
X103839124Y-114919028D01*
X103835470Y-114914101D01*
X103832317Y-114908840D01*
X103829695Y-114903296D01*
X103827628Y-114897521D01*
X103826138Y-114891571D01*
X103825238Y-114885504D01*
X103824937Y-114879378D01*
X103825238Y-114873252D01*
X103826138Y-114867185D01*
X103827628Y-114861235D01*
X103829695Y-114855460D01*
X103832317Y-114849916D01*
X103835470Y-114844655D01*
X103839124Y-114839728D01*
X103843243Y-114835184D01*
X103931631Y-114746796D01*
X103936175Y-114742677D01*
X103941102Y-114739023D01*
X103946363Y-114735870D01*
X103951907Y-114733248D01*
X103957682Y-114731181D01*
X103963632Y-114729691D01*
X103969699Y-114728791D01*
X103975825Y-114728490D01*
X103981951Y-114728791D01*
X103981951Y-114728791D01*
G37*
D15*
X104196796Y-115100349D03*
D13*
G36*
X104335504Y-114375238D02*
X104341571Y-114376138D01*
X104347521Y-114377628D01*
X104353296Y-114379695D01*
X104358840Y-114382317D01*
X104364101Y-114385470D01*
X104369028Y-114389124D01*
X104373572Y-114393243D01*
X104903902Y-114923573D01*
X104908021Y-114928117D01*
X104911675Y-114933044D01*
X104914828Y-114938305D01*
X104917450Y-114943849D01*
X104919517Y-114949624D01*
X104921007Y-114955574D01*
X104921907Y-114961641D01*
X104922208Y-114967767D01*
X104921907Y-114973893D01*
X104921007Y-114979960D01*
X104919517Y-114985910D01*
X104917450Y-114991685D01*
X104914828Y-114997229D01*
X104911675Y-115002490D01*
X104908021Y-115007417D01*
X104903902Y-115011961D01*
X104815514Y-115100349D01*
X104810970Y-115104468D01*
X104806043Y-115108122D01*
X104800782Y-115111275D01*
X104795238Y-115113897D01*
X104789463Y-115115964D01*
X104783513Y-115117454D01*
X104777446Y-115118354D01*
X104771320Y-115118655D01*
X104765194Y-115118354D01*
X104759127Y-115117454D01*
X104753177Y-115115964D01*
X104747402Y-115113897D01*
X104741858Y-115111275D01*
X104736597Y-115108122D01*
X104731670Y-115104468D01*
X104727126Y-115100349D01*
X104196796Y-114570019D01*
X104192677Y-114565475D01*
X104189023Y-114560548D01*
X104185870Y-114555287D01*
X104183248Y-114549743D01*
X104181181Y-114543968D01*
X104179691Y-114538018D01*
X104178791Y-114531951D01*
X104178490Y-114525825D01*
X104178791Y-114519699D01*
X104179691Y-114513632D01*
X104181181Y-114507682D01*
X104183248Y-114501907D01*
X104185870Y-114496363D01*
X104189023Y-114491102D01*
X104192677Y-114486175D01*
X104196796Y-114481631D01*
X104285184Y-114393243D01*
X104289728Y-114389124D01*
X104294655Y-114385470D01*
X104299916Y-114382317D01*
X104305460Y-114379695D01*
X104311235Y-114377628D01*
X104317185Y-114376138D01*
X104323252Y-114375238D01*
X104329378Y-114374937D01*
X104335504Y-114375238D01*
X104335504Y-114375238D01*
G37*
D15*
X104550349Y-114746796D03*
D13*
G36*
X104689058Y-114021685D02*
X104695125Y-114022585D01*
X104701075Y-114024075D01*
X104706850Y-114026142D01*
X104712394Y-114028764D01*
X104717655Y-114031917D01*
X104722582Y-114035571D01*
X104727126Y-114039690D01*
X105257456Y-114570020D01*
X105261575Y-114574564D01*
X105265229Y-114579491D01*
X105268382Y-114584752D01*
X105271004Y-114590296D01*
X105273071Y-114596071D01*
X105274561Y-114602021D01*
X105275461Y-114608088D01*
X105275762Y-114614214D01*
X105275461Y-114620340D01*
X105274561Y-114626407D01*
X105273071Y-114632357D01*
X105271004Y-114638132D01*
X105268382Y-114643676D01*
X105265229Y-114648937D01*
X105261575Y-114653864D01*
X105257456Y-114658408D01*
X105169068Y-114746796D01*
X105164524Y-114750915D01*
X105159597Y-114754569D01*
X105154336Y-114757722D01*
X105148792Y-114760344D01*
X105143017Y-114762411D01*
X105137067Y-114763901D01*
X105131000Y-114764801D01*
X105124874Y-114765102D01*
X105118748Y-114764801D01*
X105112681Y-114763901D01*
X105106731Y-114762411D01*
X105100956Y-114760344D01*
X105095412Y-114757722D01*
X105090151Y-114754569D01*
X105085224Y-114750915D01*
X105080680Y-114746796D01*
X104550350Y-114216466D01*
X104546231Y-114211922D01*
X104542577Y-114206995D01*
X104539424Y-114201734D01*
X104536802Y-114196190D01*
X104534735Y-114190415D01*
X104533245Y-114184465D01*
X104532345Y-114178398D01*
X104532044Y-114172272D01*
X104532345Y-114166146D01*
X104533245Y-114160079D01*
X104534735Y-114154129D01*
X104536802Y-114148354D01*
X104539424Y-114142810D01*
X104542577Y-114137549D01*
X104546231Y-114132622D01*
X104550350Y-114128078D01*
X104638738Y-114039690D01*
X104643282Y-114035571D01*
X104648209Y-114031917D01*
X104653470Y-114028764D01*
X104659014Y-114026142D01*
X104664789Y-114024075D01*
X104670739Y-114022585D01*
X104676806Y-114021685D01*
X104682932Y-114021384D01*
X104689058Y-114021685D01*
X104689058Y-114021685D01*
G37*
D15*
X104903903Y-114393243D03*
D13*
G36*
X105042611Y-113668131D02*
X105048678Y-113669031D01*
X105054628Y-113670521D01*
X105060403Y-113672588D01*
X105065947Y-113675210D01*
X105071208Y-113678363D01*
X105076135Y-113682017D01*
X105080679Y-113686136D01*
X105611009Y-114216466D01*
X105615128Y-114221010D01*
X105618782Y-114225937D01*
X105621935Y-114231198D01*
X105624557Y-114236742D01*
X105626624Y-114242517D01*
X105628114Y-114248467D01*
X105629014Y-114254534D01*
X105629315Y-114260660D01*
X105629014Y-114266786D01*
X105628114Y-114272853D01*
X105626624Y-114278803D01*
X105624557Y-114284578D01*
X105621935Y-114290122D01*
X105618782Y-114295383D01*
X105615128Y-114300310D01*
X105611009Y-114304854D01*
X105522621Y-114393242D01*
X105518077Y-114397361D01*
X105513150Y-114401015D01*
X105507889Y-114404168D01*
X105502345Y-114406790D01*
X105496570Y-114408857D01*
X105490620Y-114410347D01*
X105484553Y-114411247D01*
X105478427Y-114411548D01*
X105472301Y-114411247D01*
X105466234Y-114410347D01*
X105460284Y-114408857D01*
X105454509Y-114406790D01*
X105448965Y-114404168D01*
X105443704Y-114401015D01*
X105438777Y-114397361D01*
X105434233Y-114393242D01*
X104903903Y-113862912D01*
X104899784Y-113858368D01*
X104896130Y-113853441D01*
X104892977Y-113848180D01*
X104890355Y-113842636D01*
X104888288Y-113836861D01*
X104886798Y-113830911D01*
X104885898Y-113824844D01*
X104885597Y-113818718D01*
X104885898Y-113812592D01*
X104886798Y-113806525D01*
X104888288Y-113800575D01*
X104890355Y-113794800D01*
X104892977Y-113789256D01*
X104896130Y-113783995D01*
X104899784Y-113779068D01*
X104903903Y-113774524D01*
X104992291Y-113686136D01*
X104996835Y-113682017D01*
X105001762Y-113678363D01*
X105007023Y-113675210D01*
X105012567Y-113672588D01*
X105018342Y-113670521D01*
X105024292Y-113669031D01*
X105030359Y-113668131D01*
X105036485Y-113667830D01*
X105042611Y-113668131D01*
X105042611Y-113668131D01*
G37*
D15*
X105257456Y-114039689D03*
D13*
G36*
X105396165Y-113314578D02*
X105402232Y-113315478D01*
X105408182Y-113316968D01*
X105413957Y-113319035D01*
X105419501Y-113321657D01*
X105424762Y-113324810D01*
X105429689Y-113328464D01*
X105434233Y-113332583D01*
X105964563Y-113862913D01*
X105968682Y-113867457D01*
X105972336Y-113872384D01*
X105975489Y-113877645D01*
X105978111Y-113883189D01*
X105980178Y-113888964D01*
X105981668Y-113894914D01*
X105982568Y-113900981D01*
X105982869Y-113907107D01*
X105982568Y-113913233D01*
X105981668Y-113919300D01*
X105980178Y-113925250D01*
X105978111Y-113931025D01*
X105975489Y-113936569D01*
X105972336Y-113941830D01*
X105968682Y-113946757D01*
X105964563Y-113951301D01*
X105876175Y-114039689D01*
X105871631Y-114043808D01*
X105866704Y-114047462D01*
X105861443Y-114050615D01*
X105855899Y-114053237D01*
X105850124Y-114055304D01*
X105844174Y-114056794D01*
X105838107Y-114057694D01*
X105831981Y-114057995D01*
X105825855Y-114057694D01*
X105819788Y-114056794D01*
X105813838Y-114055304D01*
X105808063Y-114053237D01*
X105802519Y-114050615D01*
X105797258Y-114047462D01*
X105792331Y-114043808D01*
X105787787Y-114039689D01*
X105257457Y-113509359D01*
X105253338Y-113504815D01*
X105249684Y-113499888D01*
X105246531Y-113494627D01*
X105243909Y-113489083D01*
X105241842Y-113483308D01*
X105240352Y-113477358D01*
X105239452Y-113471291D01*
X105239151Y-113465165D01*
X105239452Y-113459039D01*
X105240352Y-113452972D01*
X105241842Y-113447022D01*
X105243909Y-113441247D01*
X105246531Y-113435703D01*
X105249684Y-113430442D01*
X105253338Y-113425515D01*
X105257457Y-113420971D01*
X105345845Y-113332583D01*
X105350389Y-113328464D01*
X105355316Y-113324810D01*
X105360577Y-113321657D01*
X105366121Y-113319035D01*
X105371896Y-113316968D01*
X105377846Y-113315478D01*
X105383913Y-113314578D01*
X105390039Y-113314277D01*
X105396165Y-113314578D01*
X105396165Y-113314578D01*
G37*
D15*
X105611010Y-113686136D03*
D13*
G36*
X105838107Y-112342306D02*
X105844174Y-112343206D01*
X105850124Y-112344696D01*
X105855899Y-112346763D01*
X105861443Y-112349385D01*
X105866704Y-112352538D01*
X105871631Y-112356192D01*
X105876175Y-112360311D01*
X105964563Y-112448699D01*
X105968682Y-112453243D01*
X105972336Y-112458170D01*
X105975489Y-112463431D01*
X105978111Y-112468975D01*
X105980178Y-112474750D01*
X105981668Y-112480700D01*
X105982568Y-112486767D01*
X105982869Y-112492893D01*
X105982568Y-112499019D01*
X105981668Y-112505086D01*
X105980178Y-112511036D01*
X105978111Y-112516811D01*
X105975489Y-112522355D01*
X105972336Y-112527616D01*
X105968682Y-112532543D01*
X105964563Y-112537087D01*
X105434233Y-113067417D01*
X105429689Y-113071536D01*
X105424762Y-113075190D01*
X105419501Y-113078343D01*
X105413957Y-113080965D01*
X105408182Y-113083032D01*
X105402232Y-113084522D01*
X105396165Y-113085422D01*
X105390039Y-113085723D01*
X105383913Y-113085422D01*
X105377846Y-113084522D01*
X105371896Y-113083032D01*
X105366121Y-113080965D01*
X105360577Y-113078343D01*
X105355316Y-113075190D01*
X105350389Y-113071536D01*
X105345845Y-113067417D01*
X105257457Y-112979029D01*
X105253338Y-112974485D01*
X105249684Y-112969558D01*
X105246531Y-112964297D01*
X105243909Y-112958753D01*
X105241842Y-112952978D01*
X105240352Y-112947028D01*
X105239452Y-112940961D01*
X105239151Y-112934835D01*
X105239452Y-112928709D01*
X105240352Y-112922642D01*
X105241842Y-112916692D01*
X105243909Y-112910917D01*
X105246531Y-112905373D01*
X105249684Y-112900112D01*
X105253338Y-112895185D01*
X105257457Y-112890641D01*
X105787787Y-112360311D01*
X105792331Y-112356192D01*
X105797258Y-112352538D01*
X105802519Y-112349385D01*
X105808063Y-112346763D01*
X105813838Y-112344696D01*
X105819788Y-112343206D01*
X105825855Y-112342306D01*
X105831981Y-112342005D01*
X105838107Y-112342306D01*
X105838107Y-112342306D01*
G37*
D15*
X105611010Y-112713864D03*
D13*
G36*
X105484553Y-111988753D02*
X105490620Y-111989653D01*
X105496570Y-111991143D01*
X105502345Y-111993210D01*
X105507889Y-111995832D01*
X105513150Y-111998985D01*
X105518077Y-112002639D01*
X105522621Y-112006758D01*
X105611009Y-112095146D01*
X105615128Y-112099690D01*
X105618782Y-112104617D01*
X105621935Y-112109878D01*
X105624557Y-112115422D01*
X105626624Y-112121197D01*
X105628114Y-112127147D01*
X105629014Y-112133214D01*
X105629315Y-112139340D01*
X105629014Y-112145466D01*
X105628114Y-112151533D01*
X105626624Y-112157483D01*
X105624557Y-112163258D01*
X105621935Y-112168802D01*
X105618782Y-112174063D01*
X105615128Y-112178990D01*
X105611009Y-112183534D01*
X105080679Y-112713864D01*
X105076135Y-112717983D01*
X105071208Y-112721637D01*
X105065947Y-112724790D01*
X105060403Y-112727412D01*
X105054628Y-112729479D01*
X105048678Y-112730969D01*
X105042611Y-112731869D01*
X105036485Y-112732170D01*
X105030359Y-112731869D01*
X105024292Y-112730969D01*
X105018342Y-112729479D01*
X105012567Y-112727412D01*
X105007023Y-112724790D01*
X105001762Y-112721637D01*
X104996835Y-112717983D01*
X104992291Y-112713864D01*
X104903903Y-112625476D01*
X104899784Y-112620932D01*
X104896130Y-112616005D01*
X104892977Y-112610744D01*
X104890355Y-112605200D01*
X104888288Y-112599425D01*
X104886798Y-112593475D01*
X104885898Y-112587408D01*
X104885597Y-112581282D01*
X104885898Y-112575156D01*
X104886798Y-112569089D01*
X104888288Y-112563139D01*
X104890355Y-112557364D01*
X104892977Y-112551820D01*
X104896130Y-112546559D01*
X104899784Y-112541632D01*
X104903903Y-112537088D01*
X105434233Y-112006758D01*
X105438777Y-112002639D01*
X105443704Y-111998985D01*
X105448965Y-111995832D01*
X105454509Y-111993210D01*
X105460284Y-111991143D01*
X105466234Y-111989653D01*
X105472301Y-111988753D01*
X105478427Y-111988452D01*
X105484553Y-111988753D01*
X105484553Y-111988753D01*
G37*
D15*
X105257456Y-112360311D03*
D13*
G36*
X105131000Y-111635199D02*
X105137067Y-111636099D01*
X105143017Y-111637589D01*
X105148792Y-111639656D01*
X105154336Y-111642278D01*
X105159597Y-111645431D01*
X105164524Y-111649085D01*
X105169068Y-111653204D01*
X105257456Y-111741592D01*
X105261575Y-111746136D01*
X105265229Y-111751063D01*
X105268382Y-111756324D01*
X105271004Y-111761868D01*
X105273071Y-111767643D01*
X105274561Y-111773593D01*
X105275461Y-111779660D01*
X105275762Y-111785786D01*
X105275461Y-111791912D01*
X105274561Y-111797979D01*
X105273071Y-111803929D01*
X105271004Y-111809704D01*
X105268382Y-111815248D01*
X105265229Y-111820509D01*
X105261575Y-111825436D01*
X105257456Y-111829980D01*
X104727126Y-112360310D01*
X104722582Y-112364429D01*
X104717655Y-112368083D01*
X104712394Y-112371236D01*
X104706850Y-112373858D01*
X104701075Y-112375925D01*
X104695125Y-112377415D01*
X104689058Y-112378315D01*
X104682932Y-112378616D01*
X104676806Y-112378315D01*
X104670739Y-112377415D01*
X104664789Y-112375925D01*
X104659014Y-112373858D01*
X104653470Y-112371236D01*
X104648209Y-112368083D01*
X104643282Y-112364429D01*
X104638738Y-112360310D01*
X104550350Y-112271922D01*
X104546231Y-112267378D01*
X104542577Y-112262451D01*
X104539424Y-112257190D01*
X104536802Y-112251646D01*
X104534735Y-112245871D01*
X104533245Y-112239921D01*
X104532345Y-112233854D01*
X104532044Y-112227728D01*
X104532345Y-112221602D01*
X104533245Y-112215535D01*
X104534735Y-112209585D01*
X104536802Y-112203810D01*
X104539424Y-112198266D01*
X104542577Y-112193005D01*
X104546231Y-112188078D01*
X104550350Y-112183534D01*
X105080680Y-111653204D01*
X105085224Y-111649085D01*
X105090151Y-111645431D01*
X105095412Y-111642278D01*
X105100956Y-111639656D01*
X105106731Y-111637589D01*
X105112681Y-111636099D01*
X105118748Y-111635199D01*
X105124874Y-111634898D01*
X105131000Y-111635199D01*
X105131000Y-111635199D01*
G37*
D15*
X104903903Y-112006757D03*
D13*
G36*
X104777446Y-111281646D02*
X104783513Y-111282546D01*
X104789463Y-111284036D01*
X104795238Y-111286103D01*
X104800782Y-111288725D01*
X104806043Y-111291878D01*
X104810970Y-111295532D01*
X104815514Y-111299651D01*
X104903902Y-111388039D01*
X104908021Y-111392583D01*
X104911675Y-111397510D01*
X104914828Y-111402771D01*
X104917450Y-111408315D01*
X104919517Y-111414090D01*
X104921007Y-111420040D01*
X104921907Y-111426107D01*
X104922208Y-111432233D01*
X104921907Y-111438359D01*
X104921007Y-111444426D01*
X104919517Y-111450376D01*
X104917450Y-111456151D01*
X104914828Y-111461695D01*
X104911675Y-111466956D01*
X104908021Y-111471883D01*
X104903902Y-111476427D01*
X104373572Y-112006757D01*
X104369028Y-112010876D01*
X104364101Y-112014530D01*
X104358840Y-112017683D01*
X104353296Y-112020305D01*
X104347521Y-112022372D01*
X104341571Y-112023862D01*
X104335504Y-112024762D01*
X104329378Y-112025063D01*
X104323252Y-112024762D01*
X104317185Y-112023862D01*
X104311235Y-112022372D01*
X104305460Y-112020305D01*
X104299916Y-112017683D01*
X104294655Y-112014530D01*
X104289728Y-112010876D01*
X104285184Y-112006757D01*
X104196796Y-111918369D01*
X104192677Y-111913825D01*
X104189023Y-111908898D01*
X104185870Y-111903637D01*
X104183248Y-111898093D01*
X104181181Y-111892318D01*
X104179691Y-111886368D01*
X104178791Y-111880301D01*
X104178490Y-111874175D01*
X104178791Y-111868049D01*
X104179691Y-111861982D01*
X104181181Y-111856032D01*
X104183248Y-111850257D01*
X104185870Y-111844713D01*
X104189023Y-111839452D01*
X104192677Y-111834525D01*
X104196796Y-111829981D01*
X104727126Y-111299651D01*
X104731670Y-111295532D01*
X104736597Y-111291878D01*
X104741858Y-111288725D01*
X104747402Y-111286103D01*
X104753177Y-111284036D01*
X104759127Y-111282546D01*
X104765194Y-111281646D01*
X104771320Y-111281345D01*
X104777446Y-111281646D01*
X104777446Y-111281646D01*
G37*
D15*
X104550349Y-111653204D03*
D13*
G36*
X104423893Y-110928093D02*
X104429960Y-110928993D01*
X104435910Y-110930483D01*
X104441685Y-110932550D01*
X104447229Y-110935172D01*
X104452490Y-110938325D01*
X104457417Y-110941979D01*
X104461961Y-110946098D01*
X104550349Y-111034486D01*
X104554468Y-111039030D01*
X104558122Y-111043957D01*
X104561275Y-111049218D01*
X104563897Y-111054762D01*
X104565964Y-111060537D01*
X104567454Y-111066487D01*
X104568354Y-111072554D01*
X104568655Y-111078680D01*
X104568354Y-111084806D01*
X104567454Y-111090873D01*
X104565964Y-111096823D01*
X104563897Y-111102598D01*
X104561275Y-111108142D01*
X104558122Y-111113403D01*
X104554468Y-111118330D01*
X104550349Y-111122874D01*
X104020019Y-111653204D01*
X104015475Y-111657323D01*
X104010548Y-111660977D01*
X104005287Y-111664130D01*
X103999743Y-111666752D01*
X103993968Y-111668819D01*
X103988018Y-111670309D01*
X103981951Y-111671209D01*
X103975825Y-111671510D01*
X103969699Y-111671209D01*
X103963632Y-111670309D01*
X103957682Y-111668819D01*
X103951907Y-111666752D01*
X103946363Y-111664130D01*
X103941102Y-111660977D01*
X103936175Y-111657323D01*
X103931631Y-111653204D01*
X103843243Y-111564816D01*
X103839124Y-111560272D01*
X103835470Y-111555345D01*
X103832317Y-111550084D01*
X103829695Y-111544540D01*
X103827628Y-111538765D01*
X103826138Y-111532815D01*
X103825238Y-111526748D01*
X103824937Y-111520622D01*
X103825238Y-111514496D01*
X103826138Y-111508429D01*
X103827628Y-111502479D01*
X103829695Y-111496704D01*
X103832317Y-111491160D01*
X103835470Y-111485899D01*
X103839124Y-111480972D01*
X103843243Y-111476428D01*
X104373573Y-110946098D01*
X104378117Y-110941979D01*
X104383044Y-110938325D01*
X104388305Y-110935172D01*
X104393849Y-110932550D01*
X104399624Y-110930483D01*
X104405574Y-110928993D01*
X104411641Y-110928093D01*
X104417767Y-110927792D01*
X104423893Y-110928093D01*
X104423893Y-110928093D01*
G37*
D15*
X104196796Y-111299651D03*
D13*
G36*
X104070340Y-110574539D02*
X104076407Y-110575439D01*
X104082357Y-110576929D01*
X104088132Y-110578996D01*
X104093676Y-110581618D01*
X104098937Y-110584771D01*
X104103864Y-110588425D01*
X104108408Y-110592544D01*
X104196796Y-110680932D01*
X104200915Y-110685476D01*
X104204569Y-110690403D01*
X104207722Y-110695664D01*
X104210344Y-110701208D01*
X104212411Y-110706983D01*
X104213901Y-110712933D01*
X104214801Y-110719000D01*
X104215102Y-110725126D01*
X104214801Y-110731252D01*
X104213901Y-110737319D01*
X104212411Y-110743269D01*
X104210344Y-110749044D01*
X104207722Y-110754588D01*
X104204569Y-110759849D01*
X104200915Y-110764776D01*
X104196796Y-110769320D01*
X103666466Y-111299650D01*
X103661922Y-111303769D01*
X103656995Y-111307423D01*
X103651734Y-111310576D01*
X103646190Y-111313198D01*
X103640415Y-111315265D01*
X103634465Y-111316755D01*
X103628398Y-111317655D01*
X103622272Y-111317956D01*
X103616146Y-111317655D01*
X103610079Y-111316755D01*
X103604129Y-111315265D01*
X103598354Y-111313198D01*
X103592810Y-111310576D01*
X103587549Y-111307423D01*
X103582622Y-111303769D01*
X103578078Y-111299650D01*
X103489690Y-111211262D01*
X103485571Y-111206718D01*
X103481917Y-111201791D01*
X103478764Y-111196530D01*
X103476142Y-111190986D01*
X103474075Y-111185211D01*
X103472585Y-111179261D01*
X103471685Y-111173194D01*
X103471384Y-111167068D01*
X103471685Y-111160942D01*
X103472585Y-111154875D01*
X103474075Y-111148925D01*
X103476142Y-111143150D01*
X103478764Y-111137606D01*
X103481917Y-111132345D01*
X103485571Y-111127418D01*
X103489690Y-111122874D01*
X104020020Y-110592544D01*
X104024564Y-110588425D01*
X104029491Y-110584771D01*
X104034752Y-110581618D01*
X104040296Y-110578996D01*
X104046071Y-110576929D01*
X104052021Y-110575439D01*
X104058088Y-110574539D01*
X104064214Y-110574238D01*
X104070340Y-110574539D01*
X104070340Y-110574539D01*
G37*
D15*
X103843243Y-110946097D03*
D13*
G36*
X103716786Y-110220986D02*
X103722853Y-110221886D01*
X103728803Y-110223376D01*
X103734578Y-110225443D01*
X103740122Y-110228065D01*
X103745383Y-110231218D01*
X103750310Y-110234872D01*
X103754854Y-110238991D01*
X103843242Y-110327379D01*
X103847361Y-110331923D01*
X103851015Y-110336850D01*
X103854168Y-110342111D01*
X103856790Y-110347655D01*
X103858857Y-110353430D01*
X103860347Y-110359380D01*
X103861247Y-110365447D01*
X103861548Y-110371573D01*
X103861247Y-110377699D01*
X103860347Y-110383766D01*
X103858857Y-110389716D01*
X103856790Y-110395491D01*
X103854168Y-110401035D01*
X103851015Y-110406296D01*
X103847361Y-110411223D01*
X103843242Y-110415767D01*
X103312912Y-110946097D01*
X103308368Y-110950216D01*
X103303441Y-110953870D01*
X103298180Y-110957023D01*
X103292636Y-110959645D01*
X103286861Y-110961712D01*
X103280911Y-110963202D01*
X103274844Y-110964102D01*
X103268718Y-110964403D01*
X103262592Y-110964102D01*
X103256525Y-110963202D01*
X103250575Y-110961712D01*
X103244800Y-110959645D01*
X103239256Y-110957023D01*
X103233995Y-110953870D01*
X103229068Y-110950216D01*
X103224524Y-110946097D01*
X103136136Y-110857709D01*
X103132017Y-110853165D01*
X103128363Y-110848238D01*
X103125210Y-110842977D01*
X103122588Y-110837433D01*
X103120521Y-110831658D01*
X103119031Y-110825708D01*
X103118131Y-110819641D01*
X103117830Y-110813515D01*
X103118131Y-110807389D01*
X103119031Y-110801322D01*
X103120521Y-110795372D01*
X103122588Y-110789597D01*
X103125210Y-110784053D01*
X103128363Y-110778792D01*
X103132017Y-110773865D01*
X103136136Y-110769321D01*
X103666466Y-110238991D01*
X103671010Y-110234872D01*
X103675937Y-110231218D01*
X103681198Y-110228065D01*
X103686742Y-110225443D01*
X103692517Y-110223376D01*
X103698467Y-110221886D01*
X103704534Y-110220986D01*
X103710660Y-110220685D01*
X103716786Y-110220986D01*
X103716786Y-110220986D01*
G37*
D15*
X103489689Y-110592544D03*
D13*
G36*
X103363233Y-109867432D02*
X103369300Y-109868332D01*
X103375250Y-109869822D01*
X103381025Y-109871889D01*
X103386569Y-109874511D01*
X103391830Y-109877664D01*
X103396757Y-109881318D01*
X103401301Y-109885437D01*
X103489689Y-109973825D01*
X103493808Y-109978369D01*
X103497462Y-109983296D01*
X103500615Y-109988557D01*
X103503237Y-109994101D01*
X103505304Y-109999876D01*
X103506794Y-110005826D01*
X103507694Y-110011893D01*
X103507995Y-110018019D01*
X103507694Y-110024145D01*
X103506794Y-110030212D01*
X103505304Y-110036162D01*
X103503237Y-110041937D01*
X103500615Y-110047481D01*
X103497462Y-110052742D01*
X103493808Y-110057669D01*
X103489689Y-110062213D01*
X102959359Y-110592543D01*
X102954815Y-110596662D01*
X102949888Y-110600316D01*
X102944627Y-110603469D01*
X102939083Y-110606091D01*
X102933308Y-110608158D01*
X102927358Y-110609648D01*
X102921291Y-110610548D01*
X102915165Y-110610849D01*
X102909039Y-110610548D01*
X102902972Y-110609648D01*
X102897022Y-110608158D01*
X102891247Y-110606091D01*
X102885703Y-110603469D01*
X102880442Y-110600316D01*
X102875515Y-110596662D01*
X102870971Y-110592543D01*
X102782583Y-110504155D01*
X102778464Y-110499611D01*
X102774810Y-110494684D01*
X102771657Y-110489423D01*
X102769035Y-110483879D01*
X102766968Y-110478104D01*
X102765478Y-110472154D01*
X102764578Y-110466087D01*
X102764277Y-110459961D01*
X102764578Y-110453835D01*
X102765478Y-110447768D01*
X102766968Y-110441818D01*
X102769035Y-110436043D01*
X102771657Y-110430499D01*
X102774810Y-110425238D01*
X102778464Y-110420311D01*
X102782583Y-110415767D01*
X103312913Y-109885437D01*
X103317457Y-109881318D01*
X103322384Y-109877664D01*
X103327645Y-109874511D01*
X103333189Y-109871889D01*
X103338964Y-109869822D01*
X103344914Y-109868332D01*
X103350981Y-109867432D01*
X103357107Y-109867131D01*
X103363233Y-109867432D01*
X103363233Y-109867432D01*
G37*
D15*
X103136136Y-110238990D03*
D13*
G36*
X101949019Y-109867432D02*
X101955086Y-109868332D01*
X101961036Y-109869822D01*
X101966811Y-109871889D01*
X101972355Y-109874511D01*
X101977616Y-109877664D01*
X101982543Y-109881318D01*
X101987087Y-109885437D01*
X102517417Y-110415767D01*
X102521536Y-110420311D01*
X102525190Y-110425238D01*
X102528343Y-110430499D01*
X102530965Y-110436043D01*
X102533032Y-110441818D01*
X102534522Y-110447768D01*
X102535422Y-110453835D01*
X102535723Y-110459961D01*
X102535422Y-110466087D01*
X102534522Y-110472154D01*
X102533032Y-110478104D01*
X102530965Y-110483879D01*
X102528343Y-110489423D01*
X102525190Y-110494684D01*
X102521536Y-110499611D01*
X102517417Y-110504155D01*
X102429029Y-110592543D01*
X102424485Y-110596662D01*
X102419558Y-110600316D01*
X102414297Y-110603469D01*
X102408753Y-110606091D01*
X102402978Y-110608158D01*
X102397028Y-110609648D01*
X102390961Y-110610548D01*
X102384835Y-110610849D01*
X102378709Y-110610548D01*
X102372642Y-110609648D01*
X102366692Y-110608158D01*
X102360917Y-110606091D01*
X102355373Y-110603469D01*
X102350112Y-110600316D01*
X102345185Y-110596662D01*
X102340641Y-110592543D01*
X101810311Y-110062213D01*
X101806192Y-110057669D01*
X101802538Y-110052742D01*
X101799385Y-110047481D01*
X101796763Y-110041937D01*
X101794696Y-110036162D01*
X101793206Y-110030212D01*
X101792306Y-110024145D01*
X101792005Y-110018019D01*
X101792306Y-110011893D01*
X101793206Y-110005826D01*
X101794696Y-109999876D01*
X101796763Y-109994101D01*
X101799385Y-109988557D01*
X101802538Y-109983296D01*
X101806192Y-109978369D01*
X101810311Y-109973825D01*
X101898699Y-109885437D01*
X101903243Y-109881318D01*
X101908170Y-109877664D01*
X101913431Y-109874511D01*
X101918975Y-109871889D01*
X101924750Y-109869822D01*
X101930700Y-109868332D01*
X101936767Y-109867432D01*
X101942893Y-109867131D01*
X101949019Y-109867432D01*
X101949019Y-109867432D01*
G37*
D15*
X102163864Y-110238990D03*
D13*
G36*
X101595466Y-110220986D02*
X101601533Y-110221886D01*
X101607483Y-110223376D01*
X101613258Y-110225443D01*
X101618802Y-110228065D01*
X101624063Y-110231218D01*
X101628990Y-110234872D01*
X101633534Y-110238991D01*
X102163864Y-110769321D01*
X102167983Y-110773865D01*
X102171637Y-110778792D01*
X102174790Y-110784053D01*
X102177412Y-110789597D01*
X102179479Y-110795372D01*
X102180969Y-110801322D01*
X102181869Y-110807389D01*
X102182170Y-110813515D01*
X102181869Y-110819641D01*
X102180969Y-110825708D01*
X102179479Y-110831658D01*
X102177412Y-110837433D01*
X102174790Y-110842977D01*
X102171637Y-110848238D01*
X102167983Y-110853165D01*
X102163864Y-110857709D01*
X102075476Y-110946097D01*
X102070932Y-110950216D01*
X102066005Y-110953870D01*
X102060744Y-110957023D01*
X102055200Y-110959645D01*
X102049425Y-110961712D01*
X102043475Y-110963202D01*
X102037408Y-110964102D01*
X102031282Y-110964403D01*
X102025156Y-110964102D01*
X102019089Y-110963202D01*
X102013139Y-110961712D01*
X102007364Y-110959645D01*
X102001820Y-110957023D01*
X101996559Y-110953870D01*
X101991632Y-110950216D01*
X101987088Y-110946097D01*
X101456758Y-110415767D01*
X101452639Y-110411223D01*
X101448985Y-110406296D01*
X101445832Y-110401035D01*
X101443210Y-110395491D01*
X101441143Y-110389716D01*
X101439653Y-110383766D01*
X101438753Y-110377699D01*
X101438452Y-110371573D01*
X101438753Y-110365447D01*
X101439653Y-110359380D01*
X101441143Y-110353430D01*
X101443210Y-110347655D01*
X101445832Y-110342111D01*
X101448985Y-110336850D01*
X101452639Y-110331923D01*
X101456758Y-110327379D01*
X101545146Y-110238991D01*
X101549690Y-110234872D01*
X101554617Y-110231218D01*
X101559878Y-110228065D01*
X101565422Y-110225443D01*
X101571197Y-110223376D01*
X101577147Y-110221886D01*
X101583214Y-110220986D01*
X101589340Y-110220685D01*
X101595466Y-110220986D01*
X101595466Y-110220986D01*
G37*
D15*
X101810311Y-110592544D03*
D13*
G36*
X101241912Y-110574539D02*
X101247979Y-110575439D01*
X101253929Y-110576929D01*
X101259704Y-110578996D01*
X101265248Y-110581618D01*
X101270509Y-110584771D01*
X101275436Y-110588425D01*
X101279980Y-110592544D01*
X101810310Y-111122874D01*
X101814429Y-111127418D01*
X101818083Y-111132345D01*
X101821236Y-111137606D01*
X101823858Y-111143150D01*
X101825925Y-111148925D01*
X101827415Y-111154875D01*
X101828315Y-111160942D01*
X101828616Y-111167068D01*
X101828315Y-111173194D01*
X101827415Y-111179261D01*
X101825925Y-111185211D01*
X101823858Y-111190986D01*
X101821236Y-111196530D01*
X101818083Y-111201791D01*
X101814429Y-111206718D01*
X101810310Y-111211262D01*
X101721922Y-111299650D01*
X101717378Y-111303769D01*
X101712451Y-111307423D01*
X101707190Y-111310576D01*
X101701646Y-111313198D01*
X101695871Y-111315265D01*
X101689921Y-111316755D01*
X101683854Y-111317655D01*
X101677728Y-111317956D01*
X101671602Y-111317655D01*
X101665535Y-111316755D01*
X101659585Y-111315265D01*
X101653810Y-111313198D01*
X101648266Y-111310576D01*
X101643005Y-111307423D01*
X101638078Y-111303769D01*
X101633534Y-111299650D01*
X101103204Y-110769320D01*
X101099085Y-110764776D01*
X101095431Y-110759849D01*
X101092278Y-110754588D01*
X101089656Y-110749044D01*
X101087589Y-110743269D01*
X101086099Y-110737319D01*
X101085199Y-110731252D01*
X101084898Y-110725126D01*
X101085199Y-110719000D01*
X101086099Y-110712933D01*
X101087589Y-110706983D01*
X101089656Y-110701208D01*
X101092278Y-110695664D01*
X101095431Y-110690403D01*
X101099085Y-110685476D01*
X101103204Y-110680932D01*
X101191592Y-110592544D01*
X101196136Y-110588425D01*
X101201063Y-110584771D01*
X101206324Y-110581618D01*
X101211868Y-110578996D01*
X101217643Y-110576929D01*
X101223593Y-110575439D01*
X101229660Y-110574539D01*
X101235786Y-110574238D01*
X101241912Y-110574539D01*
X101241912Y-110574539D01*
G37*
D15*
X101456757Y-110946097D03*
D13*
G36*
X100888359Y-110928093D02*
X100894426Y-110928993D01*
X100900376Y-110930483D01*
X100906151Y-110932550D01*
X100911695Y-110935172D01*
X100916956Y-110938325D01*
X100921883Y-110941979D01*
X100926427Y-110946098D01*
X101456757Y-111476428D01*
X101460876Y-111480972D01*
X101464530Y-111485899D01*
X101467683Y-111491160D01*
X101470305Y-111496704D01*
X101472372Y-111502479D01*
X101473862Y-111508429D01*
X101474762Y-111514496D01*
X101475063Y-111520622D01*
X101474762Y-111526748D01*
X101473862Y-111532815D01*
X101472372Y-111538765D01*
X101470305Y-111544540D01*
X101467683Y-111550084D01*
X101464530Y-111555345D01*
X101460876Y-111560272D01*
X101456757Y-111564816D01*
X101368369Y-111653204D01*
X101363825Y-111657323D01*
X101358898Y-111660977D01*
X101353637Y-111664130D01*
X101348093Y-111666752D01*
X101342318Y-111668819D01*
X101336368Y-111670309D01*
X101330301Y-111671209D01*
X101324175Y-111671510D01*
X101318049Y-111671209D01*
X101311982Y-111670309D01*
X101306032Y-111668819D01*
X101300257Y-111666752D01*
X101294713Y-111664130D01*
X101289452Y-111660977D01*
X101284525Y-111657323D01*
X101279981Y-111653204D01*
X100749651Y-111122874D01*
X100745532Y-111118330D01*
X100741878Y-111113403D01*
X100738725Y-111108142D01*
X100736103Y-111102598D01*
X100734036Y-111096823D01*
X100732546Y-111090873D01*
X100731646Y-111084806D01*
X100731345Y-111078680D01*
X100731646Y-111072554D01*
X100732546Y-111066487D01*
X100734036Y-111060537D01*
X100736103Y-111054762D01*
X100738725Y-111049218D01*
X100741878Y-111043957D01*
X100745532Y-111039030D01*
X100749651Y-111034486D01*
X100838039Y-110946098D01*
X100842583Y-110941979D01*
X100847510Y-110938325D01*
X100852771Y-110935172D01*
X100858315Y-110932550D01*
X100864090Y-110930483D01*
X100870040Y-110928993D01*
X100876107Y-110928093D01*
X100882233Y-110927792D01*
X100888359Y-110928093D01*
X100888359Y-110928093D01*
G37*
D15*
X101103204Y-111299651D03*
D13*
G36*
X100534806Y-111281646D02*
X100540873Y-111282546D01*
X100546823Y-111284036D01*
X100552598Y-111286103D01*
X100558142Y-111288725D01*
X100563403Y-111291878D01*
X100568330Y-111295532D01*
X100572874Y-111299651D01*
X101103204Y-111829981D01*
X101107323Y-111834525D01*
X101110977Y-111839452D01*
X101114130Y-111844713D01*
X101116752Y-111850257D01*
X101118819Y-111856032D01*
X101120309Y-111861982D01*
X101121209Y-111868049D01*
X101121510Y-111874175D01*
X101121209Y-111880301D01*
X101120309Y-111886368D01*
X101118819Y-111892318D01*
X101116752Y-111898093D01*
X101114130Y-111903637D01*
X101110977Y-111908898D01*
X101107323Y-111913825D01*
X101103204Y-111918369D01*
X101014816Y-112006757D01*
X101010272Y-112010876D01*
X101005345Y-112014530D01*
X101000084Y-112017683D01*
X100994540Y-112020305D01*
X100988765Y-112022372D01*
X100982815Y-112023862D01*
X100976748Y-112024762D01*
X100970622Y-112025063D01*
X100964496Y-112024762D01*
X100958429Y-112023862D01*
X100952479Y-112022372D01*
X100946704Y-112020305D01*
X100941160Y-112017683D01*
X100935899Y-112014530D01*
X100930972Y-112010876D01*
X100926428Y-112006757D01*
X100396098Y-111476427D01*
X100391979Y-111471883D01*
X100388325Y-111466956D01*
X100385172Y-111461695D01*
X100382550Y-111456151D01*
X100380483Y-111450376D01*
X100378993Y-111444426D01*
X100378093Y-111438359D01*
X100377792Y-111432233D01*
X100378093Y-111426107D01*
X100378993Y-111420040D01*
X100380483Y-111414090D01*
X100382550Y-111408315D01*
X100385172Y-111402771D01*
X100388325Y-111397510D01*
X100391979Y-111392583D01*
X100396098Y-111388039D01*
X100484486Y-111299651D01*
X100489030Y-111295532D01*
X100493957Y-111291878D01*
X100499218Y-111288725D01*
X100504762Y-111286103D01*
X100510537Y-111284036D01*
X100516487Y-111282546D01*
X100522554Y-111281646D01*
X100528680Y-111281345D01*
X100534806Y-111281646D01*
X100534806Y-111281646D01*
G37*
D15*
X100749651Y-111653204D03*
D13*
G36*
X100181252Y-111635199D02*
X100187319Y-111636099D01*
X100193269Y-111637589D01*
X100199044Y-111639656D01*
X100204588Y-111642278D01*
X100209849Y-111645431D01*
X100214776Y-111649085D01*
X100219320Y-111653204D01*
X100749650Y-112183534D01*
X100753769Y-112188078D01*
X100757423Y-112193005D01*
X100760576Y-112198266D01*
X100763198Y-112203810D01*
X100765265Y-112209585D01*
X100766755Y-112215535D01*
X100767655Y-112221602D01*
X100767956Y-112227728D01*
X100767655Y-112233854D01*
X100766755Y-112239921D01*
X100765265Y-112245871D01*
X100763198Y-112251646D01*
X100760576Y-112257190D01*
X100757423Y-112262451D01*
X100753769Y-112267378D01*
X100749650Y-112271922D01*
X100661262Y-112360310D01*
X100656718Y-112364429D01*
X100651791Y-112368083D01*
X100646530Y-112371236D01*
X100640986Y-112373858D01*
X100635211Y-112375925D01*
X100629261Y-112377415D01*
X100623194Y-112378315D01*
X100617068Y-112378616D01*
X100610942Y-112378315D01*
X100604875Y-112377415D01*
X100598925Y-112375925D01*
X100593150Y-112373858D01*
X100587606Y-112371236D01*
X100582345Y-112368083D01*
X100577418Y-112364429D01*
X100572874Y-112360310D01*
X100042544Y-111829980D01*
X100038425Y-111825436D01*
X100034771Y-111820509D01*
X100031618Y-111815248D01*
X100028996Y-111809704D01*
X100026929Y-111803929D01*
X100025439Y-111797979D01*
X100024539Y-111791912D01*
X100024238Y-111785786D01*
X100024539Y-111779660D01*
X100025439Y-111773593D01*
X100026929Y-111767643D01*
X100028996Y-111761868D01*
X100031618Y-111756324D01*
X100034771Y-111751063D01*
X100038425Y-111746136D01*
X100042544Y-111741592D01*
X100130932Y-111653204D01*
X100135476Y-111649085D01*
X100140403Y-111645431D01*
X100145664Y-111642278D01*
X100151208Y-111639656D01*
X100156983Y-111637589D01*
X100162933Y-111636099D01*
X100169000Y-111635199D01*
X100175126Y-111634898D01*
X100181252Y-111635199D01*
X100181252Y-111635199D01*
G37*
D15*
X100396097Y-112006757D03*
D13*
G36*
X99827699Y-111988753D02*
X99833766Y-111989653D01*
X99839716Y-111991143D01*
X99845491Y-111993210D01*
X99851035Y-111995832D01*
X99856296Y-111998985D01*
X99861223Y-112002639D01*
X99865767Y-112006758D01*
X100396097Y-112537088D01*
X100400216Y-112541632D01*
X100403870Y-112546559D01*
X100407023Y-112551820D01*
X100409645Y-112557364D01*
X100411712Y-112563139D01*
X100413202Y-112569089D01*
X100414102Y-112575156D01*
X100414403Y-112581282D01*
X100414102Y-112587408D01*
X100413202Y-112593475D01*
X100411712Y-112599425D01*
X100409645Y-112605200D01*
X100407023Y-112610744D01*
X100403870Y-112616005D01*
X100400216Y-112620932D01*
X100396097Y-112625476D01*
X100307709Y-112713864D01*
X100303165Y-112717983D01*
X100298238Y-112721637D01*
X100292977Y-112724790D01*
X100287433Y-112727412D01*
X100281658Y-112729479D01*
X100275708Y-112730969D01*
X100269641Y-112731869D01*
X100263515Y-112732170D01*
X100257389Y-112731869D01*
X100251322Y-112730969D01*
X100245372Y-112729479D01*
X100239597Y-112727412D01*
X100234053Y-112724790D01*
X100228792Y-112721637D01*
X100223865Y-112717983D01*
X100219321Y-112713864D01*
X99688991Y-112183534D01*
X99684872Y-112178990D01*
X99681218Y-112174063D01*
X99678065Y-112168802D01*
X99675443Y-112163258D01*
X99673376Y-112157483D01*
X99671886Y-112151533D01*
X99670986Y-112145466D01*
X99670685Y-112139340D01*
X99670986Y-112133214D01*
X99671886Y-112127147D01*
X99673376Y-112121197D01*
X99675443Y-112115422D01*
X99678065Y-112109878D01*
X99681218Y-112104617D01*
X99684872Y-112099690D01*
X99688991Y-112095146D01*
X99777379Y-112006758D01*
X99781923Y-112002639D01*
X99786850Y-111998985D01*
X99792111Y-111995832D01*
X99797655Y-111993210D01*
X99803430Y-111991143D01*
X99809380Y-111989653D01*
X99815447Y-111988753D01*
X99821573Y-111988452D01*
X99827699Y-111988753D01*
X99827699Y-111988753D01*
G37*
D15*
X100042544Y-112360311D03*
D13*
G36*
X99474145Y-112342306D02*
X99480212Y-112343206D01*
X99486162Y-112344696D01*
X99491937Y-112346763D01*
X99497481Y-112349385D01*
X99502742Y-112352538D01*
X99507669Y-112356192D01*
X99512213Y-112360311D01*
X100042543Y-112890641D01*
X100046662Y-112895185D01*
X100050316Y-112900112D01*
X100053469Y-112905373D01*
X100056091Y-112910917D01*
X100058158Y-112916692D01*
X100059648Y-112922642D01*
X100060548Y-112928709D01*
X100060849Y-112934835D01*
X100060548Y-112940961D01*
X100059648Y-112947028D01*
X100058158Y-112952978D01*
X100056091Y-112958753D01*
X100053469Y-112964297D01*
X100050316Y-112969558D01*
X100046662Y-112974485D01*
X100042543Y-112979029D01*
X99954155Y-113067417D01*
X99949611Y-113071536D01*
X99944684Y-113075190D01*
X99939423Y-113078343D01*
X99933879Y-113080965D01*
X99928104Y-113083032D01*
X99922154Y-113084522D01*
X99916087Y-113085422D01*
X99909961Y-113085723D01*
X99903835Y-113085422D01*
X99897768Y-113084522D01*
X99891818Y-113083032D01*
X99886043Y-113080965D01*
X99880499Y-113078343D01*
X99875238Y-113075190D01*
X99870311Y-113071536D01*
X99865767Y-113067417D01*
X99335437Y-112537087D01*
X99331318Y-112532543D01*
X99327664Y-112527616D01*
X99324511Y-112522355D01*
X99321889Y-112516811D01*
X99319822Y-112511036D01*
X99318332Y-112505086D01*
X99317432Y-112499019D01*
X99317131Y-112492893D01*
X99317432Y-112486767D01*
X99318332Y-112480700D01*
X99319822Y-112474750D01*
X99321889Y-112468975D01*
X99324511Y-112463431D01*
X99327664Y-112458170D01*
X99331318Y-112453243D01*
X99335437Y-112448699D01*
X99423825Y-112360311D01*
X99428369Y-112356192D01*
X99433296Y-112352538D01*
X99438557Y-112349385D01*
X99444101Y-112346763D01*
X99449876Y-112344696D01*
X99455826Y-112343206D01*
X99461893Y-112342306D01*
X99468019Y-112342005D01*
X99474145Y-112342306D01*
X99474145Y-112342306D01*
G37*
D15*
X99688990Y-112713864D03*
D13*
G36*
X99916087Y-113314578D02*
X99922154Y-113315478D01*
X99928104Y-113316968D01*
X99933879Y-113319035D01*
X99939423Y-113321657D01*
X99944684Y-113324810D01*
X99949611Y-113328464D01*
X99954155Y-113332583D01*
X100042543Y-113420971D01*
X100046662Y-113425515D01*
X100050316Y-113430442D01*
X100053469Y-113435703D01*
X100056091Y-113441247D01*
X100058158Y-113447022D01*
X100059648Y-113452972D01*
X100060548Y-113459039D01*
X100060849Y-113465165D01*
X100060548Y-113471291D01*
X100059648Y-113477358D01*
X100058158Y-113483308D01*
X100056091Y-113489083D01*
X100053469Y-113494627D01*
X100050316Y-113499888D01*
X100046662Y-113504815D01*
X100042543Y-113509359D01*
X99512213Y-114039689D01*
X99507669Y-114043808D01*
X99502742Y-114047462D01*
X99497481Y-114050615D01*
X99491937Y-114053237D01*
X99486162Y-114055304D01*
X99480212Y-114056794D01*
X99474145Y-114057694D01*
X99468019Y-114057995D01*
X99461893Y-114057694D01*
X99455826Y-114056794D01*
X99449876Y-114055304D01*
X99444101Y-114053237D01*
X99438557Y-114050615D01*
X99433296Y-114047462D01*
X99428369Y-114043808D01*
X99423825Y-114039689D01*
X99335437Y-113951301D01*
X99331318Y-113946757D01*
X99327664Y-113941830D01*
X99324511Y-113936569D01*
X99321889Y-113931025D01*
X99319822Y-113925250D01*
X99318332Y-113919300D01*
X99317432Y-113913233D01*
X99317131Y-113907107D01*
X99317432Y-113900981D01*
X99318332Y-113894914D01*
X99319822Y-113888964D01*
X99321889Y-113883189D01*
X99324511Y-113877645D01*
X99327664Y-113872384D01*
X99331318Y-113867457D01*
X99335437Y-113862913D01*
X99865767Y-113332583D01*
X99870311Y-113328464D01*
X99875238Y-113324810D01*
X99880499Y-113321657D01*
X99886043Y-113319035D01*
X99891818Y-113316968D01*
X99897768Y-113315478D01*
X99903835Y-113314578D01*
X99909961Y-113314277D01*
X99916087Y-113314578D01*
X99916087Y-113314578D01*
G37*
D15*
X99688990Y-113686136D03*
D13*
G36*
X100269641Y-113668131D02*
X100275708Y-113669031D01*
X100281658Y-113670521D01*
X100287433Y-113672588D01*
X100292977Y-113675210D01*
X100298238Y-113678363D01*
X100303165Y-113682017D01*
X100307709Y-113686136D01*
X100396097Y-113774524D01*
X100400216Y-113779068D01*
X100403870Y-113783995D01*
X100407023Y-113789256D01*
X100409645Y-113794800D01*
X100411712Y-113800575D01*
X100413202Y-113806525D01*
X100414102Y-113812592D01*
X100414403Y-113818718D01*
X100414102Y-113824844D01*
X100413202Y-113830911D01*
X100411712Y-113836861D01*
X100409645Y-113842636D01*
X100407023Y-113848180D01*
X100403870Y-113853441D01*
X100400216Y-113858368D01*
X100396097Y-113862912D01*
X99865767Y-114393242D01*
X99861223Y-114397361D01*
X99856296Y-114401015D01*
X99851035Y-114404168D01*
X99845491Y-114406790D01*
X99839716Y-114408857D01*
X99833766Y-114410347D01*
X99827699Y-114411247D01*
X99821573Y-114411548D01*
X99815447Y-114411247D01*
X99809380Y-114410347D01*
X99803430Y-114408857D01*
X99797655Y-114406790D01*
X99792111Y-114404168D01*
X99786850Y-114401015D01*
X99781923Y-114397361D01*
X99777379Y-114393242D01*
X99688991Y-114304854D01*
X99684872Y-114300310D01*
X99681218Y-114295383D01*
X99678065Y-114290122D01*
X99675443Y-114284578D01*
X99673376Y-114278803D01*
X99671886Y-114272853D01*
X99670986Y-114266786D01*
X99670685Y-114260660D01*
X99670986Y-114254534D01*
X99671886Y-114248467D01*
X99673376Y-114242517D01*
X99675443Y-114236742D01*
X99678065Y-114231198D01*
X99681218Y-114225937D01*
X99684872Y-114221010D01*
X99688991Y-114216466D01*
X100219321Y-113686136D01*
X100223865Y-113682017D01*
X100228792Y-113678363D01*
X100234053Y-113675210D01*
X100239597Y-113672588D01*
X100245372Y-113670521D01*
X100251322Y-113669031D01*
X100257389Y-113668131D01*
X100263515Y-113667830D01*
X100269641Y-113668131D01*
X100269641Y-113668131D01*
G37*
D15*
X100042544Y-114039689D03*
D13*
G36*
X100623194Y-114021685D02*
X100629261Y-114022585D01*
X100635211Y-114024075D01*
X100640986Y-114026142D01*
X100646530Y-114028764D01*
X100651791Y-114031917D01*
X100656718Y-114035571D01*
X100661262Y-114039690D01*
X100749650Y-114128078D01*
X100753769Y-114132622D01*
X100757423Y-114137549D01*
X100760576Y-114142810D01*
X100763198Y-114148354D01*
X100765265Y-114154129D01*
X100766755Y-114160079D01*
X100767655Y-114166146D01*
X100767956Y-114172272D01*
X100767655Y-114178398D01*
X100766755Y-114184465D01*
X100765265Y-114190415D01*
X100763198Y-114196190D01*
X100760576Y-114201734D01*
X100757423Y-114206995D01*
X100753769Y-114211922D01*
X100749650Y-114216466D01*
X100219320Y-114746796D01*
X100214776Y-114750915D01*
X100209849Y-114754569D01*
X100204588Y-114757722D01*
X100199044Y-114760344D01*
X100193269Y-114762411D01*
X100187319Y-114763901D01*
X100181252Y-114764801D01*
X100175126Y-114765102D01*
X100169000Y-114764801D01*
X100162933Y-114763901D01*
X100156983Y-114762411D01*
X100151208Y-114760344D01*
X100145664Y-114757722D01*
X100140403Y-114754569D01*
X100135476Y-114750915D01*
X100130932Y-114746796D01*
X100042544Y-114658408D01*
X100038425Y-114653864D01*
X100034771Y-114648937D01*
X100031618Y-114643676D01*
X100028996Y-114638132D01*
X100026929Y-114632357D01*
X100025439Y-114626407D01*
X100024539Y-114620340D01*
X100024238Y-114614214D01*
X100024539Y-114608088D01*
X100025439Y-114602021D01*
X100026929Y-114596071D01*
X100028996Y-114590296D01*
X100031618Y-114584752D01*
X100034771Y-114579491D01*
X100038425Y-114574564D01*
X100042544Y-114570020D01*
X100572874Y-114039690D01*
X100577418Y-114035571D01*
X100582345Y-114031917D01*
X100587606Y-114028764D01*
X100593150Y-114026142D01*
X100598925Y-114024075D01*
X100604875Y-114022585D01*
X100610942Y-114021685D01*
X100617068Y-114021384D01*
X100623194Y-114021685D01*
X100623194Y-114021685D01*
G37*
D15*
X100396097Y-114393243D03*
D13*
G36*
X100976748Y-114375238D02*
X100982815Y-114376138D01*
X100988765Y-114377628D01*
X100994540Y-114379695D01*
X101000084Y-114382317D01*
X101005345Y-114385470D01*
X101010272Y-114389124D01*
X101014816Y-114393243D01*
X101103204Y-114481631D01*
X101107323Y-114486175D01*
X101110977Y-114491102D01*
X101114130Y-114496363D01*
X101116752Y-114501907D01*
X101118819Y-114507682D01*
X101120309Y-114513632D01*
X101121209Y-114519699D01*
X101121510Y-114525825D01*
X101121209Y-114531951D01*
X101120309Y-114538018D01*
X101118819Y-114543968D01*
X101116752Y-114549743D01*
X101114130Y-114555287D01*
X101110977Y-114560548D01*
X101107323Y-114565475D01*
X101103204Y-114570019D01*
X100572874Y-115100349D01*
X100568330Y-115104468D01*
X100563403Y-115108122D01*
X100558142Y-115111275D01*
X100552598Y-115113897D01*
X100546823Y-115115964D01*
X100540873Y-115117454D01*
X100534806Y-115118354D01*
X100528680Y-115118655D01*
X100522554Y-115118354D01*
X100516487Y-115117454D01*
X100510537Y-115115964D01*
X100504762Y-115113897D01*
X100499218Y-115111275D01*
X100493957Y-115108122D01*
X100489030Y-115104468D01*
X100484486Y-115100349D01*
X100396098Y-115011961D01*
X100391979Y-115007417D01*
X100388325Y-115002490D01*
X100385172Y-114997229D01*
X100382550Y-114991685D01*
X100380483Y-114985910D01*
X100378993Y-114979960D01*
X100378093Y-114973893D01*
X100377792Y-114967767D01*
X100378093Y-114961641D01*
X100378993Y-114955574D01*
X100380483Y-114949624D01*
X100382550Y-114943849D01*
X100385172Y-114938305D01*
X100388325Y-114933044D01*
X100391979Y-114928117D01*
X100396098Y-114923573D01*
X100926428Y-114393243D01*
X100930972Y-114389124D01*
X100935899Y-114385470D01*
X100941160Y-114382317D01*
X100946704Y-114379695D01*
X100952479Y-114377628D01*
X100958429Y-114376138D01*
X100964496Y-114375238D01*
X100970622Y-114374937D01*
X100976748Y-114375238D01*
X100976748Y-114375238D01*
G37*
D15*
X100749651Y-114746796D03*
D13*
G36*
X101330301Y-114728791D02*
X101336368Y-114729691D01*
X101342318Y-114731181D01*
X101348093Y-114733248D01*
X101353637Y-114735870D01*
X101358898Y-114739023D01*
X101363825Y-114742677D01*
X101368369Y-114746796D01*
X101456757Y-114835184D01*
X101460876Y-114839728D01*
X101464530Y-114844655D01*
X101467683Y-114849916D01*
X101470305Y-114855460D01*
X101472372Y-114861235D01*
X101473862Y-114867185D01*
X101474762Y-114873252D01*
X101475063Y-114879378D01*
X101474762Y-114885504D01*
X101473862Y-114891571D01*
X101472372Y-114897521D01*
X101470305Y-114903296D01*
X101467683Y-114908840D01*
X101464530Y-114914101D01*
X101460876Y-114919028D01*
X101456757Y-114923572D01*
X100926427Y-115453902D01*
X100921883Y-115458021D01*
X100916956Y-115461675D01*
X100911695Y-115464828D01*
X100906151Y-115467450D01*
X100900376Y-115469517D01*
X100894426Y-115471007D01*
X100888359Y-115471907D01*
X100882233Y-115472208D01*
X100876107Y-115471907D01*
X100870040Y-115471007D01*
X100864090Y-115469517D01*
X100858315Y-115467450D01*
X100852771Y-115464828D01*
X100847510Y-115461675D01*
X100842583Y-115458021D01*
X100838039Y-115453902D01*
X100749651Y-115365514D01*
X100745532Y-115360970D01*
X100741878Y-115356043D01*
X100738725Y-115350782D01*
X100736103Y-115345238D01*
X100734036Y-115339463D01*
X100732546Y-115333513D01*
X100731646Y-115327446D01*
X100731345Y-115321320D01*
X100731646Y-115315194D01*
X100732546Y-115309127D01*
X100734036Y-115303177D01*
X100736103Y-115297402D01*
X100738725Y-115291858D01*
X100741878Y-115286597D01*
X100745532Y-115281670D01*
X100749651Y-115277126D01*
X101279981Y-114746796D01*
X101284525Y-114742677D01*
X101289452Y-114739023D01*
X101294713Y-114735870D01*
X101300257Y-114733248D01*
X101306032Y-114731181D01*
X101311982Y-114729691D01*
X101318049Y-114728791D01*
X101324175Y-114728490D01*
X101330301Y-114728791D01*
X101330301Y-114728791D01*
G37*
D15*
X101103204Y-115100349D03*
D13*
G36*
X101683854Y-115082345D02*
X101689921Y-115083245D01*
X101695871Y-115084735D01*
X101701646Y-115086802D01*
X101707190Y-115089424D01*
X101712451Y-115092577D01*
X101717378Y-115096231D01*
X101721922Y-115100350D01*
X101810310Y-115188738D01*
X101814429Y-115193282D01*
X101818083Y-115198209D01*
X101821236Y-115203470D01*
X101823858Y-115209014D01*
X101825925Y-115214789D01*
X101827415Y-115220739D01*
X101828315Y-115226806D01*
X101828616Y-115232932D01*
X101828315Y-115239058D01*
X101827415Y-115245125D01*
X101825925Y-115251075D01*
X101823858Y-115256850D01*
X101821236Y-115262394D01*
X101818083Y-115267655D01*
X101814429Y-115272582D01*
X101810310Y-115277126D01*
X101279980Y-115807456D01*
X101275436Y-115811575D01*
X101270509Y-115815229D01*
X101265248Y-115818382D01*
X101259704Y-115821004D01*
X101253929Y-115823071D01*
X101247979Y-115824561D01*
X101241912Y-115825461D01*
X101235786Y-115825762D01*
X101229660Y-115825461D01*
X101223593Y-115824561D01*
X101217643Y-115823071D01*
X101211868Y-115821004D01*
X101206324Y-115818382D01*
X101201063Y-115815229D01*
X101196136Y-115811575D01*
X101191592Y-115807456D01*
X101103204Y-115719068D01*
X101099085Y-115714524D01*
X101095431Y-115709597D01*
X101092278Y-115704336D01*
X101089656Y-115698792D01*
X101087589Y-115693017D01*
X101086099Y-115687067D01*
X101085199Y-115681000D01*
X101084898Y-115674874D01*
X101085199Y-115668748D01*
X101086099Y-115662681D01*
X101087589Y-115656731D01*
X101089656Y-115650956D01*
X101092278Y-115645412D01*
X101095431Y-115640151D01*
X101099085Y-115635224D01*
X101103204Y-115630680D01*
X101633534Y-115100350D01*
X101638078Y-115096231D01*
X101643005Y-115092577D01*
X101648266Y-115089424D01*
X101653810Y-115086802D01*
X101659585Y-115084735D01*
X101665535Y-115083245D01*
X101671602Y-115082345D01*
X101677728Y-115082044D01*
X101683854Y-115082345D01*
X101683854Y-115082345D01*
G37*
D15*
X101456757Y-115453903D03*
D13*
G36*
X102037408Y-115435898D02*
X102043475Y-115436798D01*
X102049425Y-115438288D01*
X102055200Y-115440355D01*
X102060744Y-115442977D01*
X102066005Y-115446130D01*
X102070932Y-115449784D01*
X102075476Y-115453903D01*
X102163864Y-115542291D01*
X102167983Y-115546835D01*
X102171637Y-115551762D01*
X102174790Y-115557023D01*
X102177412Y-115562567D01*
X102179479Y-115568342D01*
X102180969Y-115574292D01*
X102181869Y-115580359D01*
X102182170Y-115586485D01*
X102181869Y-115592611D01*
X102180969Y-115598678D01*
X102179479Y-115604628D01*
X102177412Y-115610403D01*
X102174790Y-115615947D01*
X102171637Y-115621208D01*
X102167983Y-115626135D01*
X102163864Y-115630679D01*
X101633534Y-116161009D01*
X101628990Y-116165128D01*
X101624063Y-116168782D01*
X101618802Y-116171935D01*
X101613258Y-116174557D01*
X101607483Y-116176624D01*
X101601533Y-116178114D01*
X101595466Y-116179014D01*
X101589340Y-116179315D01*
X101583214Y-116179014D01*
X101577147Y-116178114D01*
X101571197Y-116176624D01*
X101565422Y-116174557D01*
X101559878Y-116171935D01*
X101554617Y-116168782D01*
X101549690Y-116165128D01*
X101545146Y-116161009D01*
X101456758Y-116072621D01*
X101452639Y-116068077D01*
X101448985Y-116063150D01*
X101445832Y-116057889D01*
X101443210Y-116052345D01*
X101441143Y-116046570D01*
X101439653Y-116040620D01*
X101438753Y-116034553D01*
X101438452Y-116028427D01*
X101438753Y-116022301D01*
X101439653Y-116016234D01*
X101441143Y-116010284D01*
X101443210Y-116004509D01*
X101445832Y-115998965D01*
X101448985Y-115993704D01*
X101452639Y-115988777D01*
X101456758Y-115984233D01*
X101987088Y-115453903D01*
X101991632Y-115449784D01*
X101996559Y-115446130D01*
X102001820Y-115442977D01*
X102007364Y-115440355D01*
X102013139Y-115438288D01*
X102019089Y-115436798D01*
X102025156Y-115435898D01*
X102031282Y-115435597D01*
X102037408Y-115435898D01*
X102037408Y-115435898D01*
G37*
D15*
X101810311Y-115807456D03*
D13*
G36*
X102390961Y-115789452D02*
X102397028Y-115790352D01*
X102402978Y-115791842D01*
X102408753Y-115793909D01*
X102414297Y-115796531D01*
X102419558Y-115799684D01*
X102424485Y-115803338D01*
X102429029Y-115807457D01*
X102517417Y-115895845D01*
X102521536Y-115900389D01*
X102525190Y-115905316D01*
X102528343Y-115910577D01*
X102530965Y-115916121D01*
X102533032Y-115921896D01*
X102534522Y-115927846D01*
X102535422Y-115933913D01*
X102535723Y-115940039D01*
X102535422Y-115946165D01*
X102534522Y-115952232D01*
X102533032Y-115958182D01*
X102530965Y-115963957D01*
X102528343Y-115969501D01*
X102525190Y-115974762D01*
X102521536Y-115979689D01*
X102517417Y-115984233D01*
X101987087Y-116514563D01*
X101982543Y-116518682D01*
X101977616Y-116522336D01*
X101972355Y-116525489D01*
X101966811Y-116528111D01*
X101961036Y-116530178D01*
X101955086Y-116531668D01*
X101949019Y-116532568D01*
X101942893Y-116532869D01*
X101936767Y-116532568D01*
X101930700Y-116531668D01*
X101924750Y-116530178D01*
X101918975Y-116528111D01*
X101913431Y-116525489D01*
X101908170Y-116522336D01*
X101903243Y-116518682D01*
X101898699Y-116514563D01*
X101810311Y-116426175D01*
X101806192Y-116421631D01*
X101802538Y-116416704D01*
X101799385Y-116411443D01*
X101796763Y-116405899D01*
X101794696Y-116400124D01*
X101793206Y-116394174D01*
X101792306Y-116388107D01*
X101792005Y-116381981D01*
X101792306Y-116375855D01*
X101793206Y-116369788D01*
X101794696Y-116363838D01*
X101796763Y-116358063D01*
X101799385Y-116352519D01*
X101802538Y-116347258D01*
X101806192Y-116342331D01*
X101810311Y-116337787D01*
X102340641Y-115807457D01*
X102345185Y-115803338D01*
X102350112Y-115799684D01*
X102355373Y-115796531D01*
X102360917Y-115793909D01*
X102366692Y-115791842D01*
X102372642Y-115790352D01*
X102378709Y-115789452D01*
X102384835Y-115789151D01*
X102390961Y-115789452D01*
X102390961Y-115789452D01*
G37*
D15*
X102163864Y-116161010D03*
G04 #@! TD*
D16*
G04 #@! TO.C,Y1*
X94225000Y-114175000D03*
X95475000Y-115825000D03*
X94225000Y-115825000D03*
X95475000Y-114175000D03*
G04 #@! TD*
D17*
G04 #@! TO.C,U5*
X96755000Y-95550000D03*
X98025000Y-95550000D03*
X99295000Y-95550000D03*
X100565000Y-95550000D03*
X101835000Y-95550000D03*
X103105000Y-95550000D03*
X104375000Y-95550000D03*
X105645000Y-95550000D03*
X105645000Y-100950000D03*
X104375000Y-100950000D03*
X103105000Y-100950000D03*
X101835000Y-100950000D03*
X100565000Y-100950000D03*
X99295000Y-100950000D03*
X98025000Y-100950000D03*
X96755000Y-100950000D03*
G04 #@! TD*
D13*
G04 #@! TO.C,C26*
G36*
X95360779Y-94626144D02*
X95383834Y-94629563D01*
X95406443Y-94635227D01*
X95428387Y-94643079D01*
X95449457Y-94653044D01*
X95469448Y-94665026D01*
X95488168Y-94678910D01*
X95505438Y-94694562D01*
X95521090Y-94711832D01*
X95534974Y-94730552D01*
X95546956Y-94750543D01*
X95556921Y-94771613D01*
X95564773Y-94793557D01*
X95570437Y-94816166D01*
X95573856Y-94839221D01*
X95575000Y-94862500D01*
X95575000Y-95437500D01*
X95573856Y-95460779D01*
X95570437Y-95483834D01*
X95564773Y-95506443D01*
X95556921Y-95528387D01*
X95546956Y-95549457D01*
X95534974Y-95569448D01*
X95521090Y-95588168D01*
X95505438Y-95605438D01*
X95488168Y-95621090D01*
X95469448Y-95634974D01*
X95449457Y-95646956D01*
X95428387Y-95656921D01*
X95406443Y-95664773D01*
X95383834Y-95670437D01*
X95360779Y-95673856D01*
X95337500Y-95675000D01*
X94862500Y-95675000D01*
X94839221Y-95673856D01*
X94816166Y-95670437D01*
X94793557Y-95664773D01*
X94771613Y-95656921D01*
X94750543Y-95646956D01*
X94730552Y-95634974D01*
X94711832Y-95621090D01*
X94694562Y-95605438D01*
X94678910Y-95588168D01*
X94665026Y-95569448D01*
X94653044Y-95549457D01*
X94643079Y-95528387D01*
X94635227Y-95506443D01*
X94629563Y-95483834D01*
X94626144Y-95460779D01*
X94625000Y-95437500D01*
X94625000Y-94862500D01*
X94626144Y-94839221D01*
X94629563Y-94816166D01*
X94635227Y-94793557D01*
X94643079Y-94771613D01*
X94653044Y-94750543D01*
X94665026Y-94730552D01*
X94678910Y-94711832D01*
X94694562Y-94694562D01*
X94711832Y-94678910D01*
X94730552Y-94665026D01*
X94750543Y-94653044D01*
X94771613Y-94643079D01*
X94793557Y-94635227D01*
X94816166Y-94629563D01*
X94839221Y-94626144D01*
X94862500Y-94625000D01*
X95337500Y-94625000D01*
X95360779Y-94626144D01*
X95360779Y-94626144D01*
G37*
D18*
X95100000Y-95150000D03*
D13*
G36*
X95360779Y-96376144D02*
X95383834Y-96379563D01*
X95406443Y-96385227D01*
X95428387Y-96393079D01*
X95449457Y-96403044D01*
X95469448Y-96415026D01*
X95488168Y-96428910D01*
X95505438Y-96444562D01*
X95521090Y-96461832D01*
X95534974Y-96480552D01*
X95546956Y-96500543D01*
X95556921Y-96521613D01*
X95564773Y-96543557D01*
X95570437Y-96566166D01*
X95573856Y-96589221D01*
X95575000Y-96612500D01*
X95575000Y-97187500D01*
X95573856Y-97210779D01*
X95570437Y-97233834D01*
X95564773Y-97256443D01*
X95556921Y-97278387D01*
X95546956Y-97299457D01*
X95534974Y-97319448D01*
X95521090Y-97338168D01*
X95505438Y-97355438D01*
X95488168Y-97371090D01*
X95469448Y-97384974D01*
X95449457Y-97396956D01*
X95428387Y-97406921D01*
X95406443Y-97414773D01*
X95383834Y-97420437D01*
X95360779Y-97423856D01*
X95337500Y-97425000D01*
X94862500Y-97425000D01*
X94839221Y-97423856D01*
X94816166Y-97420437D01*
X94793557Y-97414773D01*
X94771613Y-97406921D01*
X94750543Y-97396956D01*
X94730552Y-97384974D01*
X94711832Y-97371090D01*
X94694562Y-97355438D01*
X94678910Y-97338168D01*
X94665026Y-97319448D01*
X94653044Y-97299457D01*
X94643079Y-97278387D01*
X94635227Y-97256443D01*
X94629563Y-97233834D01*
X94626144Y-97210779D01*
X94625000Y-97187500D01*
X94625000Y-96612500D01*
X94626144Y-96589221D01*
X94629563Y-96566166D01*
X94635227Y-96543557D01*
X94643079Y-96521613D01*
X94653044Y-96500543D01*
X94665026Y-96480552D01*
X94678910Y-96461832D01*
X94694562Y-96444562D01*
X94711832Y-96428910D01*
X94730552Y-96415026D01*
X94750543Y-96403044D01*
X94771613Y-96393079D01*
X94793557Y-96385227D01*
X94816166Y-96379563D01*
X94839221Y-96376144D01*
X94862500Y-96375000D01*
X95337500Y-96375000D01*
X95360779Y-96376144D01*
X95360779Y-96376144D01*
G37*
D18*
X95100000Y-96900000D03*
G04 #@! TD*
D13*
G04 #@! TO.C,C25*
G36*
X95360779Y-97976144D02*
X95383834Y-97979563D01*
X95406443Y-97985227D01*
X95428387Y-97993079D01*
X95449457Y-98003044D01*
X95469448Y-98015026D01*
X95488168Y-98028910D01*
X95505438Y-98044562D01*
X95521090Y-98061832D01*
X95534974Y-98080552D01*
X95546956Y-98100543D01*
X95556921Y-98121613D01*
X95564773Y-98143557D01*
X95570437Y-98166166D01*
X95573856Y-98189221D01*
X95575000Y-98212500D01*
X95575000Y-98787500D01*
X95573856Y-98810779D01*
X95570437Y-98833834D01*
X95564773Y-98856443D01*
X95556921Y-98878387D01*
X95546956Y-98899457D01*
X95534974Y-98919448D01*
X95521090Y-98938168D01*
X95505438Y-98955438D01*
X95488168Y-98971090D01*
X95469448Y-98984974D01*
X95449457Y-98996956D01*
X95428387Y-99006921D01*
X95406443Y-99014773D01*
X95383834Y-99020437D01*
X95360779Y-99023856D01*
X95337500Y-99025000D01*
X94862500Y-99025000D01*
X94839221Y-99023856D01*
X94816166Y-99020437D01*
X94793557Y-99014773D01*
X94771613Y-99006921D01*
X94750543Y-98996956D01*
X94730552Y-98984974D01*
X94711832Y-98971090D01*
X94694562Y-98955438D01*
X94678910Y-98938168D01*
X94665026Y-98919448D01*
X94653044Y-98899457D01*
X94643079Y-98878387D01*
X94635227Y-98856443D01*
X94629563Y-98833834D01*
X94626144Y-98810779D01*
X94625000Y-98787500D01*
X94625000Y-98212500D01*
X94626144Y-98189221D01*
X94629563Y-98166166D01*
X94635227Y-98143557D01*
X94643079Y-98121613D01*
X94653044Y-98100543D01*
X94665026Y-98080552D01*
X94678910Y-98061832D01*
X94694562Y-98044562D01*
X94711832Y-98028910D01*
X94730552Y-98015026D01*
X94750543Y-98003044D01*
X94771613Y-97993079D01*
X94793557Y-97985227D01*
X94816166Y-97979563D01*
X94839221Y-97976144D01*
X94862500Y-97975000D01*
X95337500Y-97975000D01*
X95360779Y-97976144D01*
X95360779Y-97976144D01*
G37*
D18*
X95100000Y-98500000D03*
D13*
G36*
X95360779Y-99726144D02*
X95383834Y-99729563D01*
X95406443Y-99735227D01*
X95428387Y-99743079D01*
X95449457Y-99753044D01*
X95469448Y-99765026D01*
X95488168Y-99778910D01*
X95505438Y-99794562D01*
X95521090Y-99811832D01*
X95534974Y-99830552D01*
X95546956Y-99850543D01*
X95556921Y-99871613D01*
X95564773Y-99893557D01*
X95570437Y-99916166D01*
X95573856Y-99939221D01*
X95575000Y-99962500D01*
X95575000Y-100537500D01*
X95573856Y-100560779D01*
X95570437Y-100583834D01*
X95564773Y-100606443D01*
X95556921Y-100628387D01*
X95546956Y-100649457D01*
X95534974Y-100669448D01*
X95521090Y-100688168D01*
X95505438Y-100705438D01*
X95488168Y-100721090D01*
X95469448Y-100734974D01*
X95449457Y-100746956D01*
X95428387Y-100756921D01*
X95406443Y-100764773D01*
X95383834Y-100770437D01*
X95360779Y-100773856D01*
X95337500Y-100775000D01*
X94862500Y-100775000D01*
X94839221Y-100773856D01*
X94816166Y-100770437D01*
X94793557Y-100764773D01*
X94771613Y-100756921D01*
X94750543Y-100746956D01*
X94730552Y-100734974D01*
X94711832Y-100721090D01*
X94694562Y-100705438D01*
X94678910Y-100688168D01*
X94665026Y-100669448D01*
X94653044Y-100649457D01*
X94643079Y-100628387D01*
X94635227Y-100606443D01*
X94629563Y-100583834D01*
X94626144Y-100560779D01*
X94625000Y-100537500D01*
X94625000Y-99962500D01*
X94626144Y-99939221D01*
X94629563Y-99916166D01*
X94635227Y-99893557D01*
X94643079Y-99871613D01*
X94653044Y-99850543D01*
X94665026Y-99830552D01*
X94678910Y-99811832D01*
X94694562Y-99794562D01*
X94711832Y-99778910D01*
X94730552Y-99765026D01*
X94750543Y-99753044D01*
X94771613Y-99743079D01*
X94793557Y-99735227D01*
X94816166Y-99729563D01*
X94839221Y-99726144D01*
X94862500Y-99725000D01*
X95337500Y-99725000D01*
X95360779Y-99726144D01*
X95360779Y-99726144D01*
G37*
D18*
X95100000Y-100250000D03*
G04 #@! TD*
D13*
G04 #@! TO.C,C24*
G36*
X108737924Y-114692413D02*
X108760979Y-114695832D01*
X108783588Y-114701496D01*
X108805532Y-114709348D01*
X108826602Y-114719313D01*
X108846593Y-114731295D01*
X108865313Y-114745179D01*
X108882583Y-114760831D01*
X109289169Y-115167417D01*
X109304821Y-115184687D01*
X109318705Y-115203407D01*
X109330687Y-115223398D01*
X109340652Y-115244468D01*
X109348504Y-115266412D01*
X109354168Y-115289021D01*
X109357587Y-115312076D01*
X109358731Y-115335355D01*
X109357587Y-115358634D01*
X109354168Y-115381689D01*
X109348504Y-115404298D01*
X109340652Y-115426242D01*
X109330687Y-115447312D01*
X109318705Y-115467303D01*
X109304821Y-115486023D01*
X109289169Y-115503293D01*
X108953293Y-115839169D01*
X108936023Y-115854821D01*
X108917303Y-115868705D01*
X108897312Y-115880687D01*
X108876242Y-115890652D01*
X108854298Y-115898504D01*
X108831689Y-115904168D01*
X108808634Y-115907587D01*
X108785355Y-115908731D01*
X108762076Y-115907587D01*
X108739021Y-115904168D01*
X108716412Y-115898504D01*
X108694468Y-115890652D01*
X108673398Y-115880687D01*
X108653407Y-115868705D01*
X108634687Y-115854821D01*
X108617417Y-115839169D01*
X108210831Y-115432583D01*
X108195179Y-115415313D01*
X108181295Y-115396593D01*
X108169313Y-115376602D01*
X108159348Y-115355532D01*
X108151496Y-115333588D01*
X108145832Y-115310979D01*
X108142413Y-115287924D01*
X108141269Y-115264645D01*
X108142413Y-115241366D01*
X108145832Y-115218311D01*
X108151496Y-115195702D01*
X108159348Y-115173758D01*
X108169313Y-115152688D01*
X108181295Y-115132697D01*
X108195179Y-115113977D01*
X108210831Y-115096707D01*
X108546707Y-114760831D01*
X108563977Y-114745179D01*
X108582697Y-114731295D01*
X108602688Y-114719313D01*
X108623758Y-114709348D01*
X108645702Y-114701496D01*
X108668311Y-114695832D01*
X108691366Y-114692413D01*
X108714645Y-114691269D01*
X108737924Y-114692413D01*
X108737924Y-114692413D01*
G37*
D18*
X108750000Y-115300000D03*
D13*
G36*
X109975360Y-115929849D02*
X109998415Y-115933268D01*
X110021024Y-115938932D01*
X110042968Y-115946784D01*
X110064038Y-115956749D01*
X110084029Y-115968731D01*
X110102749Y-115982615D01*
X110120019Y-115998267D01*
X110526605Y-116404853D01*
X110542257Y-116422123D01*
X110556141Y-116440843D01*
X110568123Y-116460834D01*
X110578088Y-116481904D01*
X110585940Y-116503848D01*
X110591604Y-116526457D01*
X110595023Y-116549512D01*
X110596167Y-116572791D01*
X110595023Y-116596070D01*
X110591604Y-116619125D01*
X110585940Y-116641734D01*
X110578088Y-116663678D01*
X110568123Y-116684748D01*
X110556141Y-116704739D01*
X110542257Y-116723459D01*
X110526605Y-116740729D01*
X110190729Y-117076605D01*
X110173459Y-117092257D01*
X110154739Y-117106141D01*
X110134748Y-117118123D01*
X110113678Y-117128088D01*
X110091734Y-117135940D01*
X110069125Y-117141604D01*
X110046070Y-117145023D01*
X110022791Y-117146167D01*
X109999512Y-117145023D01*
X109976457Y-117141604D01*
X109953848Y-117135940D01*
X109931904Y-117128088D01*
X109910834Y-117118123D01*
X109890843Y-117106141D01*
X109872123Y-117092257D01*
X109854853Y-117076605D01*
X109448267Y-116670019D01*
X109432615Y-116652749D01*
X109418731Y-116634029D01*
X109406749Y-116614038D01*
X109396784Y-116592968D01*
X109388932Y-116571024D01*
X109383268Y-116548415D01*
X109379849Y-116525360D01*
X109378705Y-116502081D01*
X109379849Y-116478802D01*
X109383268Y-116455747D01*
X109388932Y-116433138D01*
X109396784Y-116411194D01*
X109406749Y-116390124D01*
X109418731Y-116370133D01*
X109432615Y-116351413D01*
X109448267Y-116334143D01*
X109784143Y-115998267D01*
X109801413Y-115982615D01*
X109820133Y-115968731D01*
X109840124Y-115956749D01*
X109861194Y-115946784D01*
X109883138Y-115938932D01*
X109905747Y-115933268D01*
X109928802Y-115929849D01*
X109952081Y-115928705D01*
X109975360Y-115929849D01*
X109975360Y-115929849D01*
G37*
D18*
X109987436Y-116537436D03*
G04 #@! TD*
D19*
G04 #@! TO.C,C2*
X97600000Y-83700000D03*
X95100000Y-83700000D03*
G04 #@! TD*
D20*
G04 #@! TO.C,C3*
X97200000Y-85700000D03*
X95300000Y-85700000D03*
G04 #@! TD*
G04 #@! TO.C,C4*
X96950000Y-88300000D03*
X98850000Y-88300000D03*
G04 #@! TD*
G04 #@! TO.C,C5*
X108310000Y-88300000D03*
X106410000Y-88300000D03*
G04 #@! TD*
D21*
G04 #@! TO.C,C6*
X99031498Y-105531498D03*
D13*
G36*
X99720927Y-105690597D02*
X99190597Y-106220927D01*
X98342069Y-105372399D01*
X98872399Y-104842069D01*
X99720927Y-105690597D01*
X99720927Y-105690597D01*
G37*
D21*
X100375000Y-106875000D03*
D13*
G36*
X101064429Y-107034099D02*
X100534099Y-107564429D01*
X99685571Y-106715901D01*
X100215901Y-106185571D01*
X101064429Y-107034099D01*
X101064429Y-107034099D01*
G37*
G04 #@! TD*
D20*
G04 #@! TO.C,C7*
X98900000Y-93300000D03*
X97000000Y-93300000D03*
G04 #@! TD*
G04 #@! TO.C,C8*
X108300000Y-93300000D03*
X106400000Y-93300000D03*
G04 #@! TD*
G04 #@! TO.C,C9*
X92249998Y-114750000D03*
X90350000Y-114750000D03*
G04 #@! TD*
G04 #@! TO.C,C10*
X90300002Y-116200000D03*
X92200000Y-116200000D03*
G04 #@! TD*
D22*
G04 #@! TO.C,C11*
X111833883Y-116033883D03*
D13*
G36*
X110861611Y-115945495D02*
X111745495Y-115061611D01*
X112806155Y-116122271D01*
X111922271Y-117006155D01*
X110861611Y-115945495D01*
X110861611Y-115945495D01*
G37*
D22*
X110066117Y-114266117D03*
D13*
G36*
X109093845Y-114177729D02*
X109977729Y-113293845D01*
X111038389Y-114354505D01*
X110154505Y-115238389D01*
X109093845Y-114177729D01*
X109093845Y-114177729D01*
G37*
G04 #@! TD*
D23*
G04 #@! TO.C,C12*
X111050000Y-103750000D03*
X111050000Y-106250000D03*
G04 #@! TD*
D21*
G04 #@! TO.C,C13*
X108121751Y-118571751D03*
D13*
G36*
X107432322Y-118412652D02*
X107962652Y-117882322D01*
X108811180Y-118730850D01*
X108280850Y-119261180D01*
X107432322Y-118412652D01*
X107432322Y-118412652D01*
G37*
D21*
X106778249Y-117228249D03*
D13*
G36*
X106088820Y-117069150D02*
X106619150Y-116538820D01*
X107467678Y-117387348D01*
X106937348Y-117917678D01*
X106088820Y-117069150D01*
X106088820Y-117069150D01*
G37*
G04 #@! TD*
D19*
G04 #@! TO.C,C14*
X108550000Y-108600000D03*
X111050000Y-108600000D03*
G04 #@! TD*
D21*
G04 #@! TO.C,C16*
X107728249Y-116278249D03*
D13*
G36*
X107038820Y-116119150D02*
X107569150Y-115588820D01*
X108417678Y-116437348D01*
X107887348Y-116967678D01*
X107038820Y-116119150D01*
X107038820Y-116119150D01*
G37*
D21*
X109071751Y-117621751D03*
D13*
G36*
X108382322Y-117462652D02*
X108912652Y-116932322D01*
X109761180Y-117780850D01*
X109230850Y-118311180D01*
X108382322Y-117462652D01*
X108382322Y-117462652D01*
G37*
G04 #@! TD*
D21*
G04 #@! TO.C,C17*
X102906498Y-104006498D03*
D13*
G36*
X102217069Y-103847399D02*
X102747399Y-103317069D01*
X103595927Y-104165597D01*
X103065597Y-104695927D01*
X102217069Y-103847399D01*
X102217069Y-103847399D01*
G37*
D21*
X104250000Y-105350000D03*
D13*
G36*
X103560571Y-105190901D02*
X104090901Y-104660571D01*
X104939429Y-105509099D01*
X104409099Y-106039429D01*
X103560571Y-105190901D01*
X103560571Y-105190901D01*
G37*
G04 #@! TD*
D21*
G04 #@! TO.C,C19*
X107171751Y-119521751D03*
D13*
G36*
X106482322Y-119362652D02*
X107012652Y-118832322D01*
X107861180Y-119680850D01*
X107330850Y-120211180D01*
X106482322Y-119362652D01*
X106482322Y-119362652D01*
G37*
D21*
X105828249Y-118178249D03*
D13*
G36*
X105138820Y-118019150D02*
X105669150Y-117488820D01*
X106517678Y-118337348D01*
X105987348Y-118867678D01*
X105138820Y-118019150D01*
X105138820Y-118019150D01*
G37*
G04 #@! TD*
D21*
G04 #@! TO.C,C20*
X103250000Y-106350000D03*
D13*
G36*
X102560571Y-106190901D02*
X103090901Y-105660571D01*
X103939429Y-106509099D01*
X103409099Y-107039429D01*
X102560571Y-106190901D01*
X102560571Y-106190901D01*
G37*
D21*
X101906498Y-105006498D03*
D13*
G36*
X101217069Y-104847399D02*
X101747399Y-104317069D01*
X102595927Y-105165597D01*
X102065597Y-105695927D01*
X101217069Y-104847399D01*
X101217069Y-104847399D01*
G37*
G04 #@! TD*
D20*
G04 #@! TO.C,C21*
X100550000Y-120550000D03*
X102450000Y-120550000D03*
G04 #@! TD*
G04 #@! TO.C,C22*
X102500000Y-124050000D03*
X100600000Y-124050000D03*
G04 #@! TD*
G04 #@! TO.C,C23*
X108450000Y-110200000D03*
X110350000Y-110200000D03*
G04 #@! TD*
D13*
G04 #@! TO.C,D1*
G36*
X101499504Y-84576204D02*
X101523773Y-84579804D01*
X101547571Y-84585765D01*
X101570671Y-84594030D01*
X101592849Y-84604520D01*
X101613893Y-84617133D01*
X101633598Y-84631747D01*
X101651777Y-84648223D01*
X101668253Y-84666402D01*
X101682867Y-84686107D01*
X101695480Y-84707151D01*
X101705970Y-84729329D01*
X101714235Y-84752429D01*
X101720196Y-84776227D01*
X101723796Y-84800496D01*
X101725000Y-84825000D01*
X101725000Y-86975000D01*
X101723796Y-86999504D01*
X101720196Y-87023773D01*
X101714235Y-87047571D01*
X101705970Y-87070671D01*
X101695480Y-87092849D01*
X101682867Y-87113893D01*
X101668253Y-87133598D01*
X101651777Y-87151777D01*
X101633598Y-87168253D01*
X101613893Y-87182867D01*
X101592849Y-87195480D01*
X101570671Y-87205970D01*
X101547571Y-87214235D01*
X101523773Y-87220196D01*
X101499504Y-87223796D01*
X101475000Y-87225000D01*
X100725000Y-87225000D01*
X100700496Y-87223796D01*
X100676227Y-87220196D01*
X100652429Y-87214235D01*
X100629329Y-87205970D01*
X100607151Y-87195480D01*
X100586107Y-87182867D01*
X100566402Y-87168253D01*
X100548223Y-87151777D01*
X100531747Y-87133598D01*
X100517133Y-87113893D01*
X100504520Y-87092849D01*
X100494030Y-87070671D01*
X100485765Y-87047571D01*
X100479804Y-87023773D01*
X100476204Y-86999504D01*
X100475000Y-86975000D01*
X100475000Y-84825000D01*
X100476204Y-84800496D01*
X100479804Y-84776227D01*
X100485765Y-84752429D01*
X100494030Y-84729329D01*
X100504520Y-84707151D01*
X100517133Y-84686107D01*
X100531747Y-84666402D01*
X100548223Y-84648223D01*
X100566402Y-84631747D01*
X100586107Y-84617133D01*
X100607151Y-84604520D01*
X100629329Y-84594030D01*
X100652429Y-84585765D01*
X100676227Y-84579804D01*
X100700496Y-84576204D01*
X100725000Y-84575000D01*
X101475000Y-84575000D01*
X101499504Y-84576204D01*
X101499504Y-84576204D01*
G37*
D22*
X101100000Y-85900000D03*
D13*
G36*
X104299504Y-84576204D02*
X104323773Y-84579804D01*
X104347571Y-84585765D01*
X104370671Y-84594030D01*
X104392849Y-84604520D01*
X104413893Y-84617133D01*
X104433598Y-84631747D01*
X104451777Y-84648223D01*
X104468253Y-84666402D01*
X104482867Y-84686107D01*
X104495480Y-84707151D01*
X104505970Y-84729329D01*
X104514235Y-84752429D01*
X104520196Y-84776227D01*
X104523796Y-84800496D01*
X104525000Y-84825000D01*
X104525000Y-86975000D01*
X104523796Y-86999504D01*
X104520196Y-87023773D01*
X104514235Y-87047571D01*
X104505970Y-87070671D01*
X104495480Y-87092849D01*
X104482867Y-87113893D01*
X104468253Y-87133598D01*
X104451777Y-87151777D01*
X104433598Y-87168253D01*
X104413893Y-87182867D01*
X104392849Y-87195480D01*
X104370671Y-87205970D01*
X104347571Y-87214235D01*
X104323773Y-87220196D01*
X104299504Y-87223796D01*
X104275000Y-87225000D01*
X103525000Y-87225000D01*
X103500496Y-87223796D01*
X103476227Y-87220196D01*
X103452429Y-87214235D01*
X103429329Y-87205970D01*
X103407151Y-87195480D01*
X103386107Y-87182867D01*
X103366402Y-87168253D01*
X103348223Y-87151777D01*
X103331747Y-87133598D01*
X103317133Y-87113893D01*
X103304520Y-87092849D01*
X103294030Y-87070671D01*
X103285765Y-87047571D01*
X103279804Y-87023773D01*
X103276204Y-86999504D01*
X103275000Y-86975000D01*
X103275000Y-84825000D01*
X103276204Y-84800496D01*
X103279804Y-84776227D01*
X103285765Y-84752429D01*
X103294030Y-84729329D01*
X103304520Y-84707151D01*
X103317133Y-84686107D01*
X103331747Y-84666402D01*
X103348223Y-84648223D01*
X103366402Y-84631747D01*
X103386107Y-84617133D01*
X103407151Y-84604520D01*
X103429329Y-84594030D01*
X103452429Y-84585765D01*
X103476227Y-84579804D01*
X103500496Y-84576204D01*
X103525000Y-84575000D01*
X104275000Y-84575000D01*
X104299504Y-84576204D01*
X104299504Y-84576204D01*
G37*
D22*
X103900000Y-85900000D03*
G04 #@! TD*
D13*
G04 #@! TO.C,D2*
G36*
X107749505Y-94801204D02*
X107773773Y-94804804D01*
X107797572Y-94810765D01*
X107820671Y-94819030D01*
X107842850Y-94829520D01*
X107863893Y-94842132D01*
X107883599Y-94856747D01*
X107901777Y-94873223D01*
X107918253Y-94891401D01*
X107932868Y-94911107D01*
X107945480Y-94932150D01*
X107955970Y-94954329D01*
X107964235Y-94977428D01*
X107970196Y-95001227D01*
X107973796Y-95025495D01*
X107975000Y-95049999D01*
X107975000Y-95950001D01*
X107973796Y-95974505D01*
X107970196Y-95998773D01*
X107964235Y-96022572D01*
X107955970Y-96045671D01*
X107945480Y-96067850D01*
X107932868Y-96088893D01*
X107918253Y-96108599D01*
X107901777Y-96126777D01*
X107883599Y-96143253D01*
X107863893Y-96157868D01*
X107842850Y-96170480D01*
X107820671Y-96180970D01*
X107797572Y-96189235D01*
X107773773Y-96195196D01*
X107749505Y-96198796D01*
X107725001Y-96200000D01*
X107074999Y-96200000D01*
X107050495Y-96198796D01*
X107026227Y-96195196D01*
X107002428Y-96189235D01*
X106979329Y-96180970D01*
X106957150Y-96170480D01*
X106936107Y-96157868D01*
X106916401Y-96143253D01*
X106898223Y-96126777D01*
X106881747Y-96108599D01*
X106867132Y-96088893D01*
X106854520Y-96067850D01*
X106844030Y-96045671D01*
X106835765Y-96022572D01*
X106829804Y-95998773D01*
X106826204Y-95974505D01*
X106825000Y-95950001D01*
X106825000Y-95049999D01*
X106826204Y-95025495D01*
X106829804Y-95001227D01*
X106835765Y-94977428D01*
X106844030Y-94954329D01*
X106854520Y-94932150D01*
X106867132Y-94911107D01*
X106881747Y-94891401D01*
X106898223Y-94873223D01*
X106916401Y-94856747D01*
X106936107Y-94842132D01*
X106957150Y-94829520D01*
X106979329Y-94819030D01*
X107002428Y-94810765D01*
X107026227Y-94804804D01*
X107050495Y-94801204D01*
X107074999Y-94800000D01*
X107725001Y-94800000D01*
X107749505Y-94801204D01*
X107749505Y-94801204D01*
G37*
D24*
X107400000Y-95500000D03*
D13*
G36*
X109799505Y-94801204D02*
X109823773Y-94804804D01*
X109847572Y-94810765D01*
X109870671Y-94819030D01*
X109892850Y-94829520D01*
X109913893Y-94842132D01*
X109933599Y-94856747D01*
X109951777Y-94873223D01*
X109968253Y-94891401D01*
X109982868Y-94911107D01*
X109995480Y-94932150D01*
X110005970Y-94954329D01*
X110014235Y-94977428D01*
X110020196Y-95001227D01*
X110023796Y-95025495D01*
X110025000Y-95049999D01*
X110025000Y-95950001D01*
X110023796Y-95974505D01*
X110020196Y-95998773D01*
X110014235Y-96022572D01*
X110005970Y-96045671D01*
X109995480Y-96067850D01*
X109982868Y-96088893D01*
X109968253Y-96108599D01*
X109951777Y-96126777D01*
X109933599Y-96143253D01*
X109913893Y-96157868D01*
X109892850Y-96170480D01*
X109870671Y-96180970D01*
X109847572Y-96189235D01*
X109823773Y-96195196D01*
X109799505Y-96198796D01*
X109775001Y-96200000D01*
X109124999Y-96200000D01*
X109100495Y-96198796D01*
X109076227Y-96195196D01*
X109052428Y-96189235D01*
X109029329Y-96180970D01*
X109007150Y-96170480D01*
X108986107Y-96157868D01*
X108966401Y-96143253D01*
X108948223Y-96126777D01*
X108931747Y-96108599D01*
X108917132Y-96088893D01*
X108904520Y-96067850D01*
X108894030Y-96045671D01*
X108885765Y-96022572D01*
X108879804Y-95998773D01*
X108876204Y-95974505D01*
X108875000Y-95950001D01*
X108875000Y-95049999D01*
X108876204Y-95025495D01*
X108879804Y-95001227D01*
X108885765Y-94977428D01*
X108894030Y-94954329D01*
X108904520Y-94932150D01*
X108917132Y-94911107D01*
X108931747Y-94891401D01*
X108948223Y-94873223D01*
X108966401Y-94856747D01*
X108986107Y-94842132D01*
X109007150Y-94829520D01*
X109029329Y-94819030D01*
X109052428Y-94810765D01*
X109076227Y-94804804D01*
X109100495Y-94801204D01*
X109124999Y-94800000D01*
X109775001Y-94800000D01*
X109799505Y-94801204D01*
X109799505Y-94801204D01*
G37*
D24*
X109450000Y-95500000D03*
G04 #@! TD*
D13*
G04 #@! TO.C,D3*
G36*
X109799505Y-100301204D02*
X109823773Y-100304804D01*
X109847572Y-100310765D01*
X109870671Y-100319030D01*
X109892850Y-100329520D01*
X109913893Y-100342132D01*
X109933599Y-100356747D01*
X109951777Y-100373223D01*
X109968253Y-100391401D01*
X109982868Y-100411107D01*
X109995480Y-100432150D01*
X110005970Y-100454329D01*
X110014235Y-100477428D01*
X110020196Y-100501227D01*
X110023796Y-100525495D01*
X110025000Y-100549999D01*
X110025000Y-101450001D01*
X110023796Y-101474505D01*
X110020196Y-101498773D01*
X110014235Y-101522572D01*
X110005970Y-101545671D01*
X109995480Y-101567850D01*
X109982868Y-101588893D01*
X109968253Y-101608599D01*
X109951777Y-101626777D01*
X109933599Y-101643253D01*
X109913893Y-101657868D01*
X109892850Y-101670480D01*
X109870671Y-101680970D01*
X109847572Y-101689235D01*
X109823773Y-101695196D01*
X109799505Y-101698796D01*
X109775001Y-101700000D01*
X109124999Y-101700000D01*
X109100495Y-101698796D01*
X109076227Y-101695196D01*
X109052428Y-101689235D01*
X109029329Y-101680970D01*
X109007150Y-101670480D01*
X108986107Y-101657868D01*
X108966401Y-101643253D01*
X108948223Y-101626777D01*
X108931747Y-101608599D01*
X108917132Y-101588893D01*
X108904520Y-101567850D01*
X108894030Y-101545671D01*
X108885765Y-101522572D01*
X108879804Y-101498773D01*
X108876204Y-101474505D01*
X108875000Y-101450001D01*
X108875000Y-100549999D01*
X108876204Y-100525495D01*
X108879804Y-100501227D01*
X108885765Y-100477428D01*
X108894030Y-100454329D01*
X108904520Y-100432150D01*
X108917132Y-100411107D01*
X108931747Y-100391401D01*
X108948223Y-100373223D01*
X108966401Y-100356747D01*
X108986107Y-100342132D01*
X109007150Y-100329520D01*
X109029329Y-100319030D01*
X109052428Y-100310765D01*
X109076227Y-100304804D01*
X109100495Y-100301204D01*
X109124999Y-100300000D01*
X109775001Y-100300000D01*
X109799505Y-100301204D01*
X109799505Y-100301204D01*
G37*
D24*
X109450000Y-101000000D03*
D13*
G36*
X107749505Y-100301204D02*
X107773773Y-100304804D01*
X107797572Y-100310765D01*
X107820671Y-100319030D01*
X107842850Y-100329520D01*
X107863893Y-100342132D01*
X107883599Y-100356747D01*
X107901777Y-100373223D01*
X107918253Y-100391401D01*
X107932868Y-100411107D01*
X107945480Y-100432150D01*
X107955970Y-100454329D01*
X107964235Y-100477428D01*
X107970196Y-100501227D01*
X107973796Y-100525495D01*
X107975000Y-100549999D01*
X107975000Y-101450001D01*
X107973796Y-101474505D01*
X107970196Y-101498773D01*
X107964235Y-101522572D01*
X107955970Y-101545671D01*
X107945480Y-101567850D01*
X107932868Y-101588893D01*
X107918253Y-101608599D01*
X107901777Y-101626777D01*
X107883599Y-101643253D01*
X107863893Y-101657868D01*
X107842850Y-101670480D01*
X107820671Y-101680970D01*
X107797572Y-101689235D01*
X107773773Y-101695196D01*
X107749505Y-101698796D01*
X107725001Y-101700000D01*
X107074999Y-101700000D01*
X107050495Y-101698796D01*
X107026227Y-101695196D01*
X107002428Y-101689235D01*
X106979329Y-101680970D01*
X106957150Y-101670480D01*
X106936107Y-101657868D01*
X106916401Y-101643253D01*
X106898223Y-101626777D01*
X106881747Y-101608599D01*
X106867132Y-101588893D01*
X106854520Y-101567850D01*
X106844030Y-101545671D01*
X106835765Y-101522572D01*
X106829804Y-101498773D01*
X106826204Y-101474505D01*
X106825000Y-101450001D01*
X106825000Y-100549999D01*
X106826204Y-100525495D01*
X106829804Y-100501227D01*
X106835765Y-100477428D01*
X106844030Y-100454329D01*
X106854520Y-100432150D01*
X106867132Y-100411107D01*
X106881747Y-100391401D01*
X106898223Y-100373223D01*
X106916401Y-100356747D01*
X106936107Y-100342132D01*
X106957150Y-100329520D01*
X106979329Y-100319030D01*
X107002428Y-100310765D01*
X107026227Y-100304804D01*
X107050495Y-100301204D01*
X107074999Y-100300000D01*
X107725001Y-100300000D01*
X107749505Y-100301204D01*
X107749505Y-100301204D01*
G37*
D24*
X107400000Y-101000000D03*
G04 #@! TD*
D25*
G04 #@! TO.C,D4*
X101400000Y-93300000D03*
X101400000Y-91200000D03*
G04 #@! TD*
D26*
G04 #@! TO.C,J1*
X104825000Y-82970000D03*
X105325000Y-82970000D03*
X105825000Y-82970000D03*
X104325000Y-82970000D03*
X106325000Y-82970000D03*
X106825000Y-82970000D03*
X103825000Y-82970000D03*
X103325000Y-82970000D03*
X107575000Y-82970000D03*
X107325000Y-82970000D03*
X108125000Y-82970000D03*
X108425000Y-82970000D03*
X102825000Y-82970000D03*
X102525000Y-82970000D03*
X102025000Y-82970000D03*
X101725000Y-82970000D03*
G04 #@! TD*
D13*
G04 #@! TO.C,L1*
G36*
X106299504Y-84576204D02*
X106323773Y-84579804D01*
X106347571Y-84585765D01*
X106370671Y-84594030D01*
X106392849Y-84604520D01*
X106413893Y-84617133D01*
X106433598Y-84631747D01*
X106451777Y-84648223D01*
X106468253Y-84666402D01*
X106482867Y-84686107D01*
X106495480Y-84707151D01*
X106505970Y-84729329D01*
X106514235Y-84752429D01*
X106520196Y-84776227D01*
X106523796Y-84800496D01*
X106525000Y-84825000D01*
X106525000Y-86975000D01*
X106523796Y-86999504D01*
X106520196Y-87023773D01*
X106514235Y-87047571D01*
X106505970Y-87070671D01*
X106495480Y-87092849D01*
X106482867Y-87113893D01*
X106468253Y-87133598D01*
X106451777Y-87151777D01*
X106433598Y-87168253D01*
X106413893Y-87182867D01*
X106392849Y-87195480D01*
X106370671Y-87205970D01*
X106347571Y-87214235D01*
X106323773Y-87220196D01*
X106299504Y-87223796D01*
X106275000Y-87225000D01*
X105525000Y-87225000D01*
X105500496Y-87223796D01*
X105476227Y-87220196D01*
X105452429Y-87214235D01*
X105429329Y-87205970D01*
X105407151Y-87195480D01*
X105386107Y-87182867D01*
X105366402Y-87168253D01*
X105348223Y-87151777D01*
X105331747Y-87133598D01*
X105317133Y-87113893D01*
X105304520Y-87092849D01*
X105294030Y-87070671D01*
X105285765Y-87047571D01*
X105279804Y-87023773D01*
X105276204Y-86999504D01*
X105275000Y-86975000D01*
X105275000Y-84825000D01*
X105276204Y-84800496D01*
X105279804Y-84776227D01*
X105285765Y-84752429D01*
X105294030Y-84729329D01*
X105304520Y-84707151D01*
X105317133Y-84686107D01*
X105331747Y-84666402D01*
X105348223Y-84648223D01*
X105366402Y-84631747D01*
X105386107Y-84617133D01*
X105407151Y-84604520D01*
X105429329Y-84594030D01*
X105452429Y-84585765D01*
X105476227Y-84579804D01*
X105500496Y-84576204D01*
X105525000Y-84575000D01*
X106275000Y-84575000D01*
X106299504Y-84576204D01*
X106299504Y-84576204D01*
G37*
D22*
X105900000Y-85900000D03*
D13*
G36*
X109099504Y-84576204D02*
X109123773Y-84579804D01*
X109147571Y-84585765D01*
X109170671Y-84594030D01*
X109192849Y-84604520D01*
X109213893Y-84617133D01*
X109233598Y-84631747D01*
X109251777Y-84648223D01*
X109268253Y-84666402D01*
X109282867Y-84686107D01*
X109295480Y-84707151D01*
X109305970Y-84729329D01*
X109314235Y-84752429D01*
X109320196Y-84776227D01*
X109323796Y-84800496D01*
X109325000Y-84825000D01*
X109325000Y-86975000D01*
X109323796Y-86999504D01*
X109320196Y-87023773D01*
X109314235Y-87047571D01*
X109305970Y-87070671D01*
X109295480Y-87092849D01*
X109282867Y-87113893D01*
X109268253Y-87133598D01*
X109251777Y-87151777D01*
X109233598Y-87168253D01*
X109213893Y-87182867D01*
X109192849Y-87195480D01*
X109170671Y-87205970D01*
X109147571Y-87214235D01*
X109123773Y-87220196D01*
X109099504Y-87223796D01*
X109075000Y-87225000D01*
X108325000Y-87225000D01*
X108300496Y-87223796D01*
X108276227Y-87220196D01*
X108252429Y-87214235D01*
X108229329Y-87205970D01*
X108207151Y-87195480D01*
X108186107Y-87182867D01*
X108166402Y-87168253D01*
X108148223Y-87151777D01*
X108131747Y-87133598D01*
X108117133Y-87113893D01*
X108104520Y-87092849D01*
X108094030Y-87070671D01*
X108085765Y-87047571D01*
X108079804Y-87023773D01*
X108076204Y-86999504D01*
X108075000Y-86975000D01*
X108075000Y-84825000D01*
X108076204Y-84800496D01*
X108079804Y-84776227D01*
X108085765Y-84752429D01*
X108094030Y-84729329D01*
X108104520Y-84707151D01*
X108117133Y-84686107D01*
X108131747Y-84666402D01*
X108148223Y-84648223D01*
X108166402Y-84631747D01*
X108186107Y-84617133D01*
X108207151Y-84604520D01*
X108229329Y-84594030D01*
X108252429Y-84585765D01*
X108276227Y-84579804D01*
X108300496Y-84576204D01*
X108325000Y-84575000D01*
X109075000Y-84575000D01*
X109099504Y-84576204D01*
X109099504Y-84576204D01*
G37*
D22*
X108700000Y-85900000D03*
G04 #@! TD*
D13*
G04 #@! TO.C,L2*
G36*
X102465191Y-121826053D02*
X102486426Y-121829203D01*
X102507250Y-121834419D01*
X102527462Y-121841651D01*
X102546868Y-121850830D01*
X102565281Y-121861866D01*
X102582524Y-121874654D01*
X102598430Y-121889070D01*
X102612846Y-121904976D01*
X102625634Y-121922219D01*
X102636670Y-121940632D01*
X102645849Y-121960038D01*
X102653081Y-121980250D01*
X102658297Y-122001074D01*
X102661447Y-122022309D01*
X102662500Y-122043750D01*
X102662500Y-122556250D01*
X102661447Y-122577691D01*
X102658297Y-122598926D01*
X102653081Y-122619750D01*
X102645849Y-122639962D01*
X102636670Y-122659368D01*
X102625634Y-122677781D01*
X102612846Y-122695024D01*
X102598430Y-122710930D01*
X102582524Y-122725346D01*
X102565281Y-122738134D01*
X102546868Y-122749170D01*
X102527462Y-122758349D01*
X102507250Y-122765581D01*
X102486426Y-122770797D01*
X102465191Y-122773947D01*
X102443750Y-122775000D01*
X102006250Y-122775000D01*
X101984809Y-122773947D01*
X101963574Y-122770797D01*
X101942750Y-122765581D01*
X101922538Y-122758349D01*
X101903132Y-122749170D01*
X101884719Y-122738134D01*
X101867476Y-122725346D01*
X101851570Y-122710930D01*
X101837154Y-122695024D01*
X101824366Y-122677781D01*
X101813330Y-122659368D01*
X101804151Y-122639962D01*
X101796919Y-122619750D01*
X101791703Y-122598926D01*
X101788553Y-122577691D01*
X101787500Y-122556250D01*
X101787500Y-122043750D01*
X101788553Y-122022309D01*
X101791703Y-122001074D01*
X101796919Y-121980250D01*
X101804151Y-121960038D01*
X101813330Y-121940632D01*
X101824366Y-121922219D01*
X101837154Y-121904976D01*
X101851570Y-121889070D01*
X101867476Y-121874654D01*
X101884719Y-121861866D01*
X101903132Y-121850830D01*
X101922538Y-121841651D01*
X101942750Y-121834419D01*
X101963574Y-121829203D01*
X101984809Y-121826053D01*
X102006250Y-121825000D01*
X102443750Y-121825000D01*
X102465191Y-121826053D01*
X102465191Y-121826053D01*
G37*
D27*
X102225000Y-122300000D03*
D13*
G36*
X100890191Y-121826053D02*
X100911426Y-121829203D01*
X100932250Y-121834419D01*
X100952462Y-121841651D01*
X100971868Y-121850830D01*
X100990281Y-121861866D01*
X101007524Y-121874654D01*
X101023430Y-121889070D01*
X101037846Y-121904976D01*
X101050634Y-121922219D01*
X101061670Y-121940632D01*
X101070849Y-121960038D01*
X101078081Y-121980250D01*
X101083297Y-122001074D01*
X101086447Y-122022309D01*
X101087500Y-122043750D01*
X101087500Y-122556250D01*
X101086447Y-122577691D01*
X101083297Y-122598926D01*
X101078081Y-122619750D01*
X101070849Y-122639962D01*
X101061670Y-122659368D01*
X101050634Y-122677781D01*
X101037846Y-122695024D01*
X101023430Y-122710930D01*
X101007524Y-122725346D01*
X100990281Y-122738134D01*
X100971868Y-122749170D01*
X100952462Y-122758349D01*
X100932250Y-122765581D01*
X100911426Y-122770797D01*
X100890191Y-122773947D01*
X100868750Y-122775000D01*
X100431250Y-122775000D01*
X100409809Y-122773947D01*
X100388574Y-122770797D01*
X100367750Y-122765581D01*
X100347538Y-122758349D01*
X100328132Y-122749170D01*
X100309719Y-122738134D01*
X100292476Y-122725346D01*
X100276570Y-122710930D01*
X100262154Y-122695024D01*
X100249366Y-122677781D01*
X100238330Y-122659368D01*
X100229151Y-122639962D01*
X100221919Y-122619750D01*
X100216703Y-122598926D01*
X100213553Y-122577691D01*
X100212500Y-122556250D01*
X100212500Y-122043750D01*
X100213553Y-122022309D01*
X100216703Y-122001074D01*
X100221919Y-121980250D01*
X100229151Y-121960038D01*
X100238330Y-121940632D01*
X100249366Y-121922219D01*
X100262154Y-121904976D01*
X100276570Y-121889070D01*
X100292476Y-121874654D01*
X100309719Y-121861866D01*
X100328132Y-121850830D01*
X100347538Y-121841651D01*
X100367750Y-121834419D01*
X100388574Y-121829203D01*
X100409809Y-121826053D01*
X100431250Y-121825000D01*
X100868750Y-121825000D01*
X100890191Y-121826053D01*
X100890191Y-121826053D01*
G37*
D27*
X100650000Y-122300000D03*
G04 #@! TD*
D13*
G04 #@! TO.C,R1*
G36*
X111760779Y-79876144D02*
X111783834Y-79879563D01*
X111806443Y-79885227D01*
X111828387Y-79893079D01*
X111849457Y-79903044D01*
X111869448Y-79915026D01*
X111888168Y-79928910D01*
X111905438Y-79944562D01*
X111921090Y-79961832D01*
X111934974Y-79980552D01*
X111946956Y-80000543D01*
X111956921Y-80021613D01*
X111964773Y-80043557D01*
X111970437Y-80066166D01*
X111973856Y-80089221D01*
X111975000Y-80112500D01*
X111975000Y-80687500D01*
X111973856Y-80710779D01*
X111970437Y-80733834D01*
X111964773Y-80756443D01*
X111956921Y-80778387D01*
X111946956Y-80799457D01*
X111934974Y-80819448D01*
X111921090Y-80838168D01*
X111905438Y-80855438D01*
X111888168Y-80871090D01*
X111869448Y-80884974D01*
X111849457Y-80896956D01*
X111828387Y-80906921D01*
X111806443Y-80914773D01*
X111783834Y-80920437D01*
X111760779Y-80923856D01*
X111737500Y-80925000D01*
X111262500Y-80925000D01*
X111239221Y-80923856D01*
X111216166Y-80920437D01*
X111193557Y-80914773D01*
X111171613Y-80906921D01*
X111150543Y-80896956D01*
X111130552Y-80884974D01*
X111111832Y-80871090D01*
X111094562Y-80855438D01*
X111078910Y-80838168D01*
X111065026Y-80819448D01*
X111053044Y-80799457D01*
X111043079Y-80778387D01*
X111035227Y-80756443D01*
X111029563Y-80733834D01*
X111026144Y-80710779D01*
X111025000Y-80687500D01*
X111025000Y-80112500D01*
X111026144Y-80089221D01*
X111029563Y-80066166D01*
X111035227Y-80043557D01*
X111043079Y-80021613D01*
X111053044Y-80000543D01*
X111065026Y-79980552D01*
X111078910Y-79961832D01*
X111094562Y-79944562D01*
X111111832Y-79928910D01*
X111130552Y-79915026D01*
X111150543Y-79903044D01*
X111171613Y-79893079D01*
X111193557Y-79885227D01*
X111216166Y-79879563D01*
X111239221Y-79876144D01*
X111262500Y-79875000D01*
X111737500Y-79875000D01*
X111760779Y-79876144D01*
X111760779Y-79876144D01*
G37*
D18*
X111500000Y-80400000D03*
D13*
G36*
X111760779Y-81626144D02*
X111783834Y-81629563D01*
X111806443Y-81635227D01*
X111828387Y-81643079D01*
X111849457Y-81653044D01*
X111869448Y-81665026D01*
X111888168Y-81678910D01*
X111905438Y-81694562D01*
X111921090Y-81711832D01*
X111934974Y-81730552D01*
X111946956Y-81750543D01*
X111956921Y-81771613D01*
X111964773Y-81793557D01*
X111970437Y-81816166D01*
X111973856Y-81839221D01*
X111975000Y-81862500D01*
X111975000Y-82437500D01*
X111973856Y-82460779D01*
X111970437Y-82483834D01*
X111964773Y-82506443D01*
X111956921Y-82528387D01*
X111946956Y-82549457D01*
X111934974Y-82569448D01*
X111921090Y-82588168D01*
X111905438Y-82605438D01*
X111888168Y-82621090D01*
X111869448Y-82634974D01*
X111849457Y-82646956D01*
X111828387Y-82656921D01*
X111806443Y-82664773D01*
X111783834Y-82670437D01*
X111760779Y-82673856D01*
X111737500Y-82675000D01*
X111262500Y-82675000D01*
X111239221Y-82673856D01*
X111216166Y-82670437D01*
X111193557Y-82664773D01*
X111171613Y-82656921D01*
X111150543Y-82646956D01*
X111130552Y-82634974D01*
X111111832Y-82621090D01*
X111094562Y-82605438D01*
X111078910Y-82588168D01*
X111065026Y-82569448D01*
X111053044Y-82549457D01*
X111043079Y-82528387D01*
X111035227Y-82506443D01*
X111029563Y-82483834D01*
X111026144Y-82460779D01*
X111025000Y-82437500D01*
X111025000Y-81862500D01*
X111026144Y-81839221D01*
X111029563Y-81816166D01*
X111035227Y-81793557D01*
X111043079Y-81771613D01*
X111053044Y-81750543D01*
X111065026Y-81730552D01*
X111078910Y-81711832D01*
X111094562Y-81694562D01*
X111111832Y-81678910D01*
X111130552Y-81665026D01*
X111150543Y-81653044D01*
X111171613Y-81643079D01*
X111193557Y-81635227D01*
X111216166Y-81629563D01*
X111239221Y-81626144D01*
X111262500Y-81625000D01*
X111737500Y-81625000D01*
X111760779Y-81626144D01*
X111760779Y-81626144D01*
G37*
D18*
X111500000Y-82150000D03*
G04 #@! TD*
D13*
G04 #@! TO.C,R2*
G36*
X113410779Y-81651144D02*
X113433834Y-81654563D01*
X113456443Y-81660227D01*
X113478387Y-81668079D01*
X113499457Y-81678044D01*
X113519448Y-81690026D01*
X113538168Y-81703910D01*
X113555438Y-81719562D01*
X113571090Y-81736832D01*
X113584974Y-81755552D01*
X113596956Y-81775543D01*
X113606921Y-81796613D01*
X113614773Y-81818557D01*
X113620437Y-81841166D01*
X113623856Y-81864221D01*
X113625000Y-81887500D01*
X113625000Y-82462500D01*
X113623856Y-82485779D01*
X113620437Y-82508834D01*
X113614773Y-82531443D01*
X113606921Y-82553387D01*
X113596956Y-82574457D01*
X113584974Y-82594448D01*
X113571090Y-82613168D01*
X113555438Y-82630438D01*
X113538168Y-82646090D01*
X113519448Y-82659974D01*
X113499457Y-82671956D01*
X113478387Y-82681921D01*
X113456443Y-82689773D01*
X113433834Y-82695437D01*
X113410779Y-82698856D01*
X113387500Y-82700000D01*
X112912500Y-82700000D01*
X112889221Y-82698856D01*
X112866166Y-82695437D01*
X112843557Y-82689773D01*
X112821613Y-82681921D01*
X112800543Y-82671956D01*
X112780552Y-82659974D01*
X112761832Y-82646090D01*
X112744562Y-82630438D01*
X112728910Y-82613168D01*
X112715026Y-82594448D01*
X112703044Y-82574457D01*
X112693079Y-82553387D01*
X112685227Y-82531443D01*
X112679563Y-82508834D01*
X112676144Y-82485779D01*
X112675000Y-82462500D01*
X112675000Y-81887500D01*
X112676144Y-81864221D01*
X112679563Y-81841166D01*
X112685227Y-81818557D01*
X112693079Y-81796613D01*
X112703044Y-81775543D01*
X112715026Y-81755552D01*
X112728910Y-81736832D01*
X112744562Y-81719562D01*
X112761832Y-81703910D01*
X112780552Y-81690026D01*
X112800543Y-81678044D01*
X112821613Y-81668079D01*
X112843557Y-81660227D01*
X112866166Y-81654563D01*
X112889221Y-81651144D01*
X112912500Y-81650000D01*
X113387500Y-81650000D01*
X113410779Y-81651144D01*
X113410779Y-81651144D01*
G37*
D18*
X113150000Y-82175000D03*
D13*
G36*
X113410779Y-79901144D02*
X113433834Y-79904563D01*
X113456443Y-79910227D01*
X113478387Y-79918079D01*
X113499457Y-79928044D01*
X113519448Y-79940026D01*
X113538168Y-79953910D01*
X113555438Y-79969562D01*
X113571090Y-79986832D01*
X113584974Y-80005552D01*
X113596956Y-80025543D01*
X113606921Y-80046613D01*
X113614773Y-80068557D01*
X113620437Y-80091166D01*
X113623856Y-80114221D01*
X113625000Y-80137500D01*
X113625000Y-80712500D01*
X113623856Y-80735779D01*
X113620437Y-80758834D01*
X113614773Y-80781443D01*
X113606921Y-80803387D01*
X113596956Y-80824457D01*
X113584974Y-80844448D01*
X113571090Y-80863168D01*
X113555438Y-80880438D01*
X113538168Y-80896090D01*
X113519448Y-80909974D01*
X113499457Y-80921956D01*
X113478387Y-80931921D01*
X113456443Y-80939773D01*
X113433834Y-80945437D01*
X113410779Y-80948856D01*
X113387500Y-80950000D01*
X112912500Y-80950000D01*
X112889221Y-80948856D01*
X112866166Y-80945437D01*
X112843557Y-80939773D01*
X112821613Y-80931921D01*
X112800543Y-80921956D01*
X112780552Y-80909974D01*
X112761832Y-80896090D01*
X112744562Y-80880438D01*
X112728910Y-80863168D01*
X112715026Y-80844448D01*
X112703044Y-80824457D01*
X112693079Y-80803387D01*
X112685227Y-80781443D01*
X112679563Y-80758834D01*
X112676144Y-80735779D01*
X112675000Y-80712500D01*
X112675000Y-80137500D01*
X112676144Y-80114221D01*
X112679563Y-80091166D01*
X112685227Y-80068557D01*
X112693079Y-80046613D01*
X112703044Y-80025543D01*
X112715026Y-80005552D01*
X112728910Y-79986832D01*
X112744562Y-79969562D01*
X112761832Y-79953910D01*
X112780552Y-79940026D01*
X112800543Y-79928044D01*
X112821613Y-79918079D01*
X112843557Y-79910227D01*
X112866166Y-79904563D01*
X112889221Y-79901144D01*
X112912500Y-79900000D01*
X113387500Y-79900000D01*
X113410779Y-79901144D01*
X113410779Y-79901144D01*
G37*
D18*
X113150000Y-80425000D03*
G04 #@! TD*
D13*
G04 #@! TO.C,R3*
G36*
X109385779Y-96876144D02*
X109408834Y-96879563D01*
X109431443Y-96885227D01*
X109453387Y-96893079D01*
X109474457Y-96903044D01*
X109494448Y-96915026D01*
X109513168Y-96928910D01*
X109530438Y-96944562D01*
X109546090Y-96961832D01*
X109559974Y-96980552D01*
X109571956Y-97000543D01*
X109581921Y-97021613D01*
X109589773Y-97043557D01*
X109595437Y-97066166D01*
X109598856Y-97089221D01*
X109600000Y-97112500D01*
X109600000Y-97587500D01*
X109598856Y-97610779D01*
X109595437Y-97633834D01*
X109589773Y-97656443D01*
X109581921Y-97678387D01*
X109571956Y-97699457D01*
X109559974Y-97719448D01*
X109546090Y-97738168D01*
X109530438Y-97755438D01*
X109513168Y-97771090D01*
X109494448Y-97784974D01*
X109474457Y-97796956D01*
X109453387Y-97806921D01*
X109431443Y-97814773D01*
X109408834Y-97820437D01*
X109385779Y-97823856D01*
X109362500Y-97825000D01*
X108787500Y-97825000D01*
X108764221Y-97823856D01*
X108741166Y-97820437D01*
X108718557Y-97814773D01*
X108696613Y-97806921D01*
X108675543Y-97796956D01*
X108655552Y-97784974D01*
X108636832Y-97771090D01*
X108619562Y-97755438D01*
X108603910Y-97738168D01*
X108590026Y-97719448D01*
X108578044Y-97699457D01*
X108568079Y-97678387D01*
X108560227Y-97656443D01*
X108554563Y-97633834D01*
X108551144Y-97610779D01*
X108550000Y-97587500D01*
X108550000Y-97112500D01*
X108551144Y-97089221D01*
X108554563Y-97066166D01*
X108560227Y-97043557D01*
X108568079Y-97021613D01*
X108578044Y-97000543D01*
X108590026Y-96980552D01*
X108603910Y-96961832D01*
X108619562Y-96944562D01*
X108636832Y-96928910D01*
X108655552Y-96915026D01*
X108675543Y-96903044D01*
X108696613Y-96893079D01*
X108718557Y-96885227D01*
X108741166Y-96879563D01*
X108764221Y-96876144D01*
X108787500Y-96875000D01*
X109362500Y-96875000D01*
X109385779Y-96876144D01*
X109385779Y-96876144D01*
G37*
D18*
X109075000Y-97350000D03*
D13*
G36*
X107635779Y-96876144D02*
X107658834Y-96879563D01*
X107681443Y-96885227D01*
X107703387Y-96893079D01*
X107724457Y-96903044D01*
X107744448Y-96915026D01*
X107763168Y-96928910D01*
X107780438Y-96944562D01*
X107796090Y-96961832D01*
X107809974Y-96980552D01*
X107821956Y-97000543D01*
X107831921Y-97021613D01*
X107839773Y-97043557D01*
X107845437Y-97066166D01*
X107848856Y-97089221D01*
X107850000Y-97112500D01*
X107850000Y-97587500D01*
X107848856Y-97610779D01*
X107845437Y-97633834D01*
X107839773Y-97656443D01*
X107831921Y-97678387D01*
X107821956Y-97699457D01*
X107809974Y-97719448D01*
X107796090Y-97738168D01*
X107780438Y-97755438D01*
X107763168Y-97771090D01*
X107744448Y-97784974D01*
X107724457Y-97796956D01*
X107703387Y-97806921D01*
X107681443Y-97814773D01*
X107658834Y-97820437D01*
X107635779Y-97823856D01*
X107612500Y-97825000D01*
X107037500Y-97825000D01*
X107014221Y-97823856D01*
X106991166Y-97820437D01*
X106968557Y-97814773D01*
X106946613Y-97806921D01*
X106925543Y-97796956D01*
X106905552Y-97784974D01*
X106886832Y-97771090D01*
X106869562Y-97755438D01*
X106853910Y-97738168D01*
X106840026Y-97719448D01*
X106828044Y-97699457D01*
X106818079Y-97678387D01*
X106810227Y-97656443D01*
X106804563Y-97633834D01*
X106801144Y-97610779D01*
X106800000Y-97587500D01*
X106800000Y-97112500D01*
X106801144Y-97089221D01*
X106804563Y-97066166D01*
X106810227Y-97043557D01*
X106818079Y-97021613D01*
X106828044Y-97000543D01*
X106840026Y-96980552D01*
X106853910Y-96961832D01*
X106869562Y-96944562D01*
X106886832Y-96928910D01*
X106905552Y-96915026D01*
X106925543Y-96903044D01*
X106946613Y-96893079D01*
X106968557Y-96885227D01*
X106991166Y-96879563D01*
X107014221Y-96876144D01*
X107037500Y-96875000D01*
X107612500Y-96875000D01*
X107635779Y-96876144D01*
X107635779Y-96876144D01*
G37*
D18*
X107325000Y-97350000D03*
G04 #@! TD*
D13*
G04 #@! TO.C,R4*
G36*
X109410779Y-98676144D02*
X109433834Y-98679563D01*
X109456443Y-98685227D01*
X109478387Y-98693079D01*
X109499457Y-98703044D01*
X109519448Y-98715026D01*
X109538168Y-98728910D01*
X109555438Y-98744562D01*
X109571090Y-98761832D01*
X109584974Y-98780552D01*
X109596956Y-98800543D01*
X109606921Y-98821613D01*
X109614773Y-98843557D01*
X109620437Y-98866166D01*
X109623856Y-98889221D01*
X109625000Y-98912500D01*
X109625000Y-99387500D01*
X109623856Y-99410779D01*
X109620437Y-99433834D01*
X109614773Y-99456443D01*
X109606921Y-99478387D01*
X109596956Y-99499457D01*
X109584974Y-99519448D01*
X109571090Y-99538168D01*
X109555438Y-99555438D01*
X109538168Y-99571090D01*
X109519448Y-99584974D01*
X109499457Y-99596956D01*
X109478387Y-99606921D01*
X109456443Y-99614773D01*
X109433834Y-99620437D01*
X109410779Y-99623856D01*
X109387500Y-99625000D01*
X108812500Y-99625000D01*
X108789221Y-99623856D01*
X108766166Y-99620437D01*
X108743557Y-99614773D01*
X108721613Y-99606921D01*
X108700543Y-99596956D01*
X108680552Y-99584974D01*
X108661832Y-99571090D01*
X108644562Y-99555438D01*
X108628910Y-99538168D01*
X108615026Y-99519448D01*
X108603044Y-99499457D01*
X108593079Y-99478387D01*
X108585227Y-99456443D01*
X108579563Y-99433834D01*
X108576144Y-99410779D01*
X108575000Y-99387500D01*
X108575000Y-98912500D01*
X108576144Y-98889221D01*
X108579563Y-98866166D01*
X108585227Y-98843557D01*
X108593079Y-98821613D01*
X108603044Y-98800543D01*
X108615026Y-98780552D01*
X108628910Y-98761832D01*
X108644562Y-98744562D01*
X108661832Y-98728910D01*
X108680552Y-98715026D01*
X108700543Y-98703044D01*
X108721613Y-98693079D01*
X108743557Y-98685227D01*
X108766166Y-98679563D01*
X108789221Y-98676144D01*
X108812500Y-98675000D01*
X109387500Y-98675000D01*
X109410779Y-98676144D01*
X109410779Y-98676144D01*
G37*
D18*
X109100000Y-99150000D03*
D13*
G36*
X107660779Y-98676144D02*
X107683834Y-98679563D01*
X107706443Y-98685227D01*
X107728387Y-98693079D01*
X107749457Y-98703044D01*
X107769448Y-98715026D01*
X107788168Y-98728910D01*
X107805438Y-98744562D01*
X107821090Y-98761832D01*
X107834974Y-98780552D01*
X107846956Y-98800543D01*
X107856921Y-98821613D01*
X107864773Y-98843557D01*
X107870437Y-98866166D01*
X107873856Y-98889221D01*
X107875000Y-98912500D01*
X107875000Y-99387500D01*
X107873856Y-99410779D01*
X107870437Y-99433834D01*
X107864773Y-99456443D01*
X107856921Y-99478387D01*
X107846956Y-99499457D01*
X107834974Y-99519448D01*
X107821090Y-99538168D01*
X107805438Y-99555438D01*
X107788168Y-99571090D01*
X107769448Y-99584974D01*
X107749457Y-99596956D01*
X107728387Y-99606921D01*
X107706443Y-99614773D01*
X107683834Y-99620437D01*
X107660779Y-99623856D01*
X107637500Y-99625000D01*
X107062500Y-99625000D01*
X107039221Y-99623856D01*
X107016166Y-99620437D01*
X106993557Y-99614773D01*
X106971613Y-99606921D01*
X106950543Y-99596956D01*
X106930552Y-99584974D01*
X106911832Y-99571090D01*
X106894562Y-99555438D01*
X106878910Y-99538168D01*
X106865026Y-99519448D01*
X106853044Y-99499457D01*
X106843079Y-99478387D01*
X106835227Y-99456443D01*
X106829563Y-99433834D01*
X106826144Y-99410779D01*
X106825000Y-99387500D01*
X106825000Y-98912500D01*
X106826144Y-98889221D01*
X106829563Y-98866166D01*
X106835227Y-98843557D01*
X106843079Y-98821613D01*
X106853044Y-98800543D01*
X106865026Y-98780552D01*
X106878910Y-98761832D01*
X106894562Y-98744562D01*
X106911832Y-98728910D01*
X106930552Y-98715026D01*
X106950543Y-98703044D01*
X106971613Y-98693079D01*
X106993557Y-98685227D01*
X107016166Y-98679563D01*
X107039221Y-98676144D01*
X107062500Y-98675000D01*
X107637500Y-98675000D01*
X107660779Y-98676144D01*
X107660779Y-98676144D01*
G37*
D18*
X107350000Y-99150000D03*
G04 #@! TD*
D28*
G04 #@! TO.C,RN1*
X106202944Y-104752944D03*
D13*
G36*
X106096878Y-105212563D02*
X105743325Y-104859010D01*
X106309010Y-104293325D01*
X106662563Y-104646878D01*
X106096878Y-105212563D01*
X106096878Y-105212563D01*
G37*
D29*
X107334315Y-105884315D03*
D13*
G36*
X107192894Y-106308579D02*
X106910051Y-106025736D01*
X107475736Y-105460051D01*
X107758579Y-105742894D01*
X107192894Y-106308579D01*
X107192894Y-106308579D01*
G37*
D29*
X106768629Y-105318629D03*
D13*
G36*
X106627208Y-105742893D02*
X106344365Y-105460050D01*
X106910050Y-104894365D01*
X107192893Y-105177208D01*
X106627208Y-105742893D01*
X106627208Y-105742893D01*
G37*
D28*
X107900000Y-106450000D03*
D13*
G36*
X107793934Y-106909619D02*
X107440381Y-106556066D01*
X108006066Y-105990381D01*
X108359619Y-106343934D01*
X107793934Y-106909619D01*
X107793934Y-106909619D01*
G37*
D29*
X108041421Y-104045837D03*
D13*
G36*
X107900000Y-104470101D02*
X107617157Y-104187258D01*
X108182842Y-103621573D01*
X108465685Y-103904416D01*
X107900000Y-104470101D01*
X107900000Y-104470101D01*
G37*
D28*
X107475736Y-103480152D03*
D13*
G36*
X107369670Y-103939771D02*
X107016117Y-103586218D01*
X107581802Y-103020533D01*
X107935355Y-103374086D01*
X107369670Y-103939771D01*
X107369670Y-103939771D01*
G37*
D29*
X108607107Y-104611523D03*
D13*
G36*
X108465686Y-105035787D02*
X108182843Y-104752944D01*
X108748528Y-104187259D01*
X109031371Y-104470102D01*
X108465686Y-105035787D01*
X108465686Y-105035787D01*
G37*
D28*
X109172792Y-105177208D03*
D13*
G36*
X109066726Y-105636827D02*
X108713173Y-105283274D01*
X109278858Y-104717589D01*
X109632411Y-105071142D01*
X109066726Y-105636827D01*
X109066726Y-105636827D01*
G37*
G04 #@! TD*
D30*
G04 #@! TO.C,U1*
X97780025Y-105994365D03*
D13*
G36*
X97408794Y-105835266D02*
X97620926Y-105623134D01*
X98151256Y-106153464D01*
X97939124Y-106365596D01*
X97408794Y-105835266D01*
X97408794Y-105835266D01*
G37*
D30*
X97426472Y-106347918D03*
D13*
G36*
X97055241Y-106188819D02*
X97267373Y-105976687D01*
X97797703Y-106507017D01*
X97585571Y-106719149D01*
X97055241Y-106188819D01*
X97055241Y-106188819D01*
G37*
D30*
X97072918Y-106701472D03*
D13*
G36*
X96701687Y-106542373D02*
X96913819Y-106330241D01*
X97444149Y-106860571D01*
X97232017Y-107072703D01*
X96701687Y-106542373D01*
X96701687Y-106542373D01*
G37*
D30*
X96719365Y-107055025D03*
D13*
G36*
X96348134Y-106895926D02*
X96560266Y-106683794D01*
X97090596Y-107214124D01*
X96878464Y-107426256D01*
X96348134Y-106895926D01*
X96348134Y-106895926D01*
G37*
D30*
X98769975Y-109105635D03*
D13*
G36*
X98398744Y-108946536D02*
X98610876Y-108734404D01*
X99141206Y-109264734D01*
X98929074Y-109476866D01*
X98398744Y-108946536D01*
X98398744Y-108946536D01*
G37*
D30*
X99123528Y-108752082D03*
D13*
G36*
X98752297Y-108592983D02*
X98964429Y-108380851D01*
X99494759Y-108911181D01*
X99282627Y-109123313D01*
X98752297Y-108592983D01*
X98752297Y-108592983D01*
G37*
D30*
X99477082Y-108398528D03*
D13*
G36*
X99105851Y-108239429D02*
X99317983Y-108027297D01*
X99848313Y-108557627D01*
X99636181Y-108769759D01*
X99105851Y-108239429D01*
X99105851Y-108239429D01*
G37*
D30*
X99830635Y-108044975D03*
D13*
G36*
X99459404Y-107885876D02*
X99671536Y-107673744D01*
X100201866Y-108204074D01*
X99989734Y-108416206D01*
X99459404Y-107885876D01*
X99459404Y-107885876D01*
G37*
D31*
X97709315Y-107496967D03*
D13*
G36*
X97253231Y-107451005D02*
X97663353Y-107040883D01*
X98165399Y-107542929D01*
X97755277Y-107953051D01*
X97253231Y-107451005D01*
X97253231Y-107451005D01*
G37*
D31*
X98328033Y-108115685D03*
D13*
G36*
X97871949Y-108069723D02*
X98282071Y-107659601D01*
X98784117Y-108161647D01*
X98373995Y-108571769D01*
X97871949Y-108069723D01*
X97871949Y-108069723D01*
G37*
D31*
X98840685Y-107603033D03*
D13*
G36*
X98384601Y-107557071D02*
X98794723Y-107146949D01*
X99296769Y-107648995D01*
X98886647Y-108059117D01*
X98384601Y-107557071D01*
X98384601Y-107557071D01*
G37*
D31*
X98221967Y-106984315D03*
D13*
G36*
X97765883Y-106938353D02*
X98176005Y-106528231D01*
X98678051Y-107030277D01*
X98267929Y-107440399D01*
X97765883Y-106938353D01*
X97765883Y-106938353D01*
G37*
G04 #@! TD*
D16*
G04 #@! TO.C,U2*
X96950000Y-91800000D03*
X98850000Y-91800000D03*
X97900000Y-89800000D03*
G04 #@! TD*
G04 #@! TO.C,U3*
X107300000Y-89800000D03*
X108250000Y-91800000D03*
X106350000Y-91800000D03*
G04 #@! TD*
M02*
