M48
;DRILL file {KiCad (5.0.0)} date 12/16/20 12:50:04
;FORMAT={-:-/ absolute / inch / decimal}
FMAT,2
INCH,TZ
T1C0.0138
T2C0.0157
T3C0.0197
T4C0.0236
T5C0.0394
%
G90
G05
M72
T1
X3.5315Y-4.6181
X3.561Y-4.6181
X3.5906Y-4.6181
X3.622Y-4.6181
X3.6516Y-4.6181
X3.6791Y-4.6181
X3.6929Y-3.1031
X3.7106Y-4.6181
X3.713Y-4.2295
X3.7205Y-4.1496
X3.7323Y-3.2358
X3.7402Y-4.6181
X3.7457Y-3.9988
X3.75Y-3.4232
X3.7638Y-3.6772
X3.7648Y-3.6191
X3.7697Y-4.1063
X3.7697Y-4.6181
X3.7713Y-3.8469
X3.7717Y-4.1722
X3.7756Y-3.1713
X3.7783Y-3.1008
X3.8012Y-4.6181
X3.8061Y-4.3159
X3.814Y-4.1289
X3.8189Y-4.4744
X3.8307Y-4.6181
X3.8366Y-4.3524
X3.8543Y-4.1201
X3.8563Y-4.4843
X3.8583Y-4.6181
X3.8661Y-4.2402
X3.8878Y-4.6161
X3.8957Y-4.3799
X3.9035Y-4.6417
X3.9035Y-4.6713
X3.9035Y-4.7028
X3.9043Y-4.7398
X3.9051Y-4.7744
X3.9055Y-4.8858
X3.9059Y-4.8531
X3.9075Y-4.0925
X3.9094Y-3.8287
X3.9203Y-4.3533
X3.9354Y-4.6713
X3.937Y-3.9177
X3.9465Y-4.3118
X3.9484Y-3.6142
X3.9577Y-4.6545
X3.9685Y-4.0728
X3.9744Y-4.5984
X3.9774Y-4.6348
X3.9783Y-4.252
X3.9902Y-4.4587
X4.0098Y-4.7077
X4.0181Y-4.8634
X4.0315Y-4.6919
X4.0413Y-4.4587
X4.0433Y-3.685
X4.0453Y-4.4035
X4.0453Y-4.502
X4.0482Y-4.6693
X4.0488Y-4.8598
X4.06Y-4.6447
X4.061Y-4.7087
X4.0697Y-4.8449
X4.0719Y-4.7825
X4.0728Y-4.6268
X4.0744Y-4.813
X4.0764Y-4.7555
X4.0906Y-3.499
X4.1004Y-4.6545
X4.1014Y-4.6821
X4.1014Y-4.7096
X4.1014Y-4.7382
X4.1014Y-4.7677
X4.1024Y-4.4587
X4.1024Y-4.7953
X4.1024Y-4.8228
X4.1024Y-4.8514
X4.1083Y-4.2579
X4.1102Y-3.9114
X4.1102Y-4.2126
X4.1102Y-4.6146
X4.122Y-4.0846
X4.1276Y-4.1244
X4.1299Y-3.313
X4.1309Y-3.4892
X4.1309Y-3.6535
X4.1329Y-3.6152
X4.1368Y-3.0807
X4.1457Y-3.2146
X4.1555Y-4.3248
X4.1575Y-3.9075
X4.1604Y-4.5748
X4.1614Y-4.3799
X4.1693Y-4.076
X4.1693Y-4.5413
X4.1752Y-4.2146
X4.185Y-4.3504
X4.2012Y-4.8618
X4.2031Y-4.7701
X4.2106Y-4.061
X4.2283Y-3.3543
X4.248Y-4.4331
X4.2913Y-4.2047
X4.2982Y-4.7047
X4.3169Y-4.1791
X4.3189Y-4.6772
X4.372Y-4.435
X4.3789Y-3.2963
X4.3976Y-4.3406
X4.4114Y-4.0994
X4.4213Y-4.2126
X4.435Y-4.3465
X4.435Y-4.3819
X4.437Y-4.4154
X4.437Y-4.4488
X4.4469Y-4.6122
X4.4488Y-3.2963
X4.4528Y-4.499
X4.6122Y-4.8508
T2
X3.8583Y-3.8563
X4.0118Y-3.8563
T3
X4.3929Y-4.6709
X4.452Y-4.6709
T5
X4.5748Y-3.1004
X4.5748Y-3.2004
X4.5748Y-3.3004
X4.5748Y-3.4004
X4.5748Y-3.5004
X4.5748Y-3.6004
X4.5748Y-3.7004
X4.5748Y-3.8004
X4.5748Y-3.9004
X4.5748Y-4.0004
X4.5748Y-4.1004
X4.5748Y-4.2004
X4.5748Y-4.3004
X4.5748Y-4.4004
X4.5748Y-4.5004
X4.5748Y-4.6004
X3.5709Y-3.1043
X3.5709Y-3.2043
X3.5709Y-3.3043
X3.5709Y-3.4043
X3.5709Y-3.5043
X3.5709Y-3.6043
X3.5709Y-3.7043
X3.5709Y-3.8043
X3.5709Y-3.9043
X3.5709Y-4.0043
X3.5709Y-4.1043
X3.5709Y-4.2043
X3.5709Y-4.3043
X3.5709Y-4.4043
T4
X3.9665Y-3.1012G85X3.9665Y-3.0579
G05
X3.9665Y-3.2657G85X3.9665Y-3.2224
G05
X4.3071Y-3.1012G85X4.3071Y-3.0579
G05
X4.3071Y-3.2657G85X4.3071Y-3.2224
G05
T0
M30
