M48
;DRILL file {KiCad (5.0.0)} date 02/11/21 08:25:24
;FORMAT={-:-/ absolute / inch / decimal}
FMAT,2
INCH,TZ
T1C0.0138
T2C0.0236
T3C0.0394
T4C0.0906
%
G90
G05
M72
T1
X3.7638Y-3.0551
X3.8386Y-4.3346
X3.878Y-3.937
X3.9094Y-3.9193
X3.9311Y-4.0039
X3.9331Y-3.5787
X3.9331Y-3.878
X3.9331Y-4.3091
X3.9449Y-3.6811
X3.9606Y-4.3091
X3.9882Y-3.8898
X3.9882Y-4.3091
X4.0079Y-3.4213
X4.0118Y-4.0118
X4.0157Y-3.1043
X4.0157Y-4.3091
X4.0197Y-3.4803
X4.0315Y-3.5197
X4.0354Y-3.7402
X4.0394Y-3.5886
X4.0394Y-3.8346
X4.0394Y-3.878
X4.0433Y-3.6358
X4.0433Y-4.3091
X4.0453Y-4.0138
X4.0709Y-4.3091
X4.0787Y-4.0138
X4.0984Y-4.3091
X4.1122Y-4.0118
X4.1181Y-3.1811
X4.126Y-4.3091
X4.1535Y-4.3091
X4.1713Y-3.8839
X4.1732Y-4.0039
X4.1811Y-4.3091
X4.1831Y-3.1024
X4.1969Y-3.311
X4.2047Y-3.5846
X4.2087Y-4.3091
X4.2165Y-3.7362
X4.2224Y-4.0039
X4.2323Y-3.6811
X4.2362Y-4.3091
X4.2382Y-3.4134
X4.2382Y-3.5433
X4.248Y-4.189
X4.2638Y-4.3091
X4.2657Y-3.6122
X4.2756Y-4.0039
X4.2913Y-4.0512
X4.2913Y-4.3091
X4.2953Y-4.1772
X4.3228Y-3.8937
X4.3268Y-3.3898
X4.3268Y-3.5315
X4.374Y-3.3504
X4.378Y-4.3346
X4.4803Y-3.1929
T3
X3.9685Y-3.3465
X4.0685Y-3.3465
X4.1484Y-3.3465
X4.2484Y-3.3465
X3.7539Y-3.3709
X3.7539Y-3.4709
X3.7539Y-3.5709
X3.7539Y-3.6709
X3.7539Y-3.7709
X3.7539Y-3.8709
X3.7539Y-3.9709
X3.7539Y-4.0709
X3.7539Y-4.1709
X3.7539Y-4.2709
X4.4539Y-3.3709
X4.4539Y-3.4709
X4.4539Y-3.5709
X4.4539Y-3.6709
X4.4539Y-3.7709
X4.4539Y-3.8709
X4.4539Y-3.9709
X4.4539Y-4.0709
X4.4539Y-4.1709
X4.4539Y-4.2709
T4
X3.8283Y-3.2413
X4.3685Y-3.2413
T2
X3.9311Y-3.1051G85X3.9311Y-3.0618
G05
X3.9311Y-3.2697G85X3.9311Y-3.2264
G05
X4.2717Y-3.1051G85X4.2717Y-3.0618
G05
X4.2717Y-3.2697G85X4.2717Y-3.2264
G05
T0
M30
