G04 #@! TF.GenerationSoftware,KiCad,Pcbnew,(5.0.0)*
G04 #@! TF.CreationDate,2021-02-11T08:25:18+00:00*
G04 #@! TF.ProjectId,ESP-V,4553502D562E6B696361645F70636200,rev?*
G04 #@! TF.SameCoordinates,Original*
G04 #@! TF.FileFunction,Copper,L2,Bot,Signal*
G04 #@! TF.FilePolarity,Positive*
%FSLAX46Y46*%
G04 Gerber Fmt 4.6, Leading zero omitted, Abs format (unit mm)*
G04 Created by KiCad (PCBNEW (5.0.0)) date 02/11/21 08:25:18*
%MOMM*%
%LPD*%
G01*
G04 APERTURE LIST*
G04 #@! TA.AperFunction,ComponentPad*
%ADD10C,3.000000*%
G04 #@! TD*
G04 #@! TA.AperFunction,ComponentPad*
%ADD11C,1.500000*%
G04 #@! TD*
G04 #@! TA.AperFunction,ComponentPad*
%ADD12O,0.900000X2.000000*%
G04 #@! TD*
G04 #@! TA.AperFunction,SMDPad,CuDef*
%ADD13C,0.500000*%
G04 #@! TD*
G04 #@! TA.AperFunction,Conductor*
%ADD14C,0.100000*%
G04 #@! TD*
G04 #@! TA.AperFunction,SMDPad,CuDef*
%ADD15R,1.500000X1.000000*%
G04 #@! TD*
G04 #@! TA.AperFunction,BGAPad,CuDef*
%ADD16C,1.000000*%
G04 #@! TD*
G04 #@! TA.AperFunction,ComponentPad*
%ADD17R,1.700000X1.700000*%
G04 #@! TD*
G04 #@! TA.AperFunction,ComponentPad*
%ADD18O,1.700000X1.700000*%
G04 #@! TD*
G04 #@! TA.AperFunction,ViaPad*
%ADD19C,0.650000*%
G04 #@! TD*
G04 #@! TA.AperFunction,Conductor*
%ADD20C,0.200000*%
G04 #@! TD*
G04 #@! TA.AperFunction,Conductor*
%ADD21C,0.150000*%
G04 #@! TD*
G04 APERTURE END LIST*
D10*
G04 #@! TO.P,J4,5*
G04 #@! TO.N,GND*
X97240000Y-82330000D03*
X110960000Y-82330000D03*
D11*
G04 #@! TO.P,J4,1*
G04 #@! TO.N,VBUS*
X100800000Y-85000000D03*
G04 #@! TO.P,J4,2*
G04 #@! TO.N,/CHUSB-*
X103340000Y-85000000D03*
G04 #@! TO.P,J4,3*
G04 #@! TO.N,/CHUSB+*
X105370000Y-85000000D03*
G04 #@! TO.P,J4,4*
G04 #@! TO.N,GND*
X107910000Y-85000000D03*
G04 #@! TD*
D12*
G04 #@! TO.P,J1,1*
G04 #@! TO.N,GND*
X99850000Y-82500000D03*
X108500000Y-82500000D03*
X108500000Y-78320000D03*
X99850000Y-78320000D03*
G04 #@! TD*
D13*
G04 #@! TO.P,JP1,1*
G04 #@! TO.N,/ESPUSB-*
X101900000Y-80300000D03*
D14*
G04 #@! TD*
G04 #@! TO.N,/ESPUSB-*
G04 #@! TO.C,JP1*
G36*
X101300000Y-79750000D02*
X101300000Y-79400000D01*
X101700000Y-79400000D01*
X101700000Y-79750000D01*
X102100000Y-79750000D01*
X102100000Y-79400000D01*
X102500000Y-79400000D01*
X102500000Y-79750000D01*
X102650000Y-79750000D01*
X102650000Y-80300000D01*
X102649398Y-80300000D01*
X102649398Y-80324534D01*
X102644588Y-80373365D01*
X102635016Y-80421490D01*
X102620772Y-80468445D01*
X102601995Y-80513778D01*
X102578864Y-80557051D01*
X102551604Y-80597850D01*
X102520476Y-80635779D01*
X102485779Y-80670476D01*
X102447850Y-80701604D01*
X102407051Y-80728864D01*
X102363778Y-80751995D01*
X102318445Y-80770772D01*
X102271490Y-80785016D01*
X102223365Y-80794588D01*
X102174534Y-80799398D01*
X102150000Y-80799398D01*
X102150000Y-80800000D01*
X101650000Y-80800000D01*
X101650000Y-80799398D01*
X101625466Y-80799398D01*
X101576635Y-80794588D01*
X101528510Y-80785016D01*
X101481555Y-80770772D01*
X101436222Y-80751995D01*
X101392949Y-80728864D01*
X101352150Y-80701604D01*
X101314221Y-80670476D01*
X101279524Y-80635779D01*
X101248396Y-80597850D01*
X101221136Y-80557051D01*
X101198005Y-80513778D01*
X101179228Y-80468445D01*
X101164984Y-80421490D01*
X101155412Y-80373365D01*
X101150602Y-80324534D01*
X101150602Y-80300000D01*
X101150000Y-80300000D01*
X101150000Y-79750000D01*
X101300000Y-79750000D01*
X101300000Y-79750000D01*
G37*
D13*
G04 #@! TO.P,JP1,3*
G04 #@! TO.N,/CHUSB-*
X101900000Y-77700000D03*
D14*
G04 #@! TD*
G04 #@! TO.N,/CHUSB-*
G04 #@! TO.C,JP1*
G36*
X101150602Y-77700000D02*
X101150602Y-77675466D01*
X101155412Y-77626635D01*
X101164984Y-77578510D01*
X101179228Y-77531555D01*
X101198005Y-77486222D01*
X101221136Y-77442949D01*
X101248396Y-77402150D01*
X101279524Y-77364221D01*
X101314221Y-77329524D01*
X101352150Y-77298396D01*
X101392949Y-77271136D01*
X101436222Y-77248005D01*
X101481555Y-77229228D01*
X101528510Y-77214984D01*
X101576635Y-77205412D01*
X101625466Y-77200602D01*
X101650000Y-77200602D01*
X101650000Y-77200000D01*
X102150000Y-77200000D01*
X102150000Y-77200602D01*
X102174534Y-77200602D01*
X102223365Y-77205412D01*
X102271490Y-77214984D01*
X102318445Y-77229228D01*
X102363778Y-77248005D01*
X102407051Y-77271136D01*
X102447850Y-77298396D01*
X102485779Y-77329524D01*
X102520476Y-77364221D01*
X102551604Y-77402150D01*
X102578864Y-77442949D01*
X102601995Y-77486222D01*
X102620772Y-77531555D01*
X102635016Y-77578510D01*
X102644588Y-77626635D01*
X102649398Y-77675466D01*
X102649398Y-77700000D01*
X102650000Y-77700000D01*
X102650000Y-78250000D01*
X101150000Y-78250000D01*
X101150000Y-77700000D01*
X101150602Y-77700000D01*
X101150602Y-77700000D01*
G37*
D15*
G04 #@! TO.P,JP1,2*
G04 #@! TO.N,Net-(J1-PadA7)*
X101900000Y-79000000D03*
G04 #@! TD*
G04 #@! TO.P,JP2,2*
G04 #@! TO.N,Net-(J1-PadA6)*
X106500000Y-79000000D03*
D13*
G04 #@! TO.P,JP2,3*
G04 #@! TO.N,/CHUSB+*
X106500000Y-77700000D03*
D14*
G04 #@! TD*
G04 #@! TO.N,/CHUSB+*
G04 #@! TO.C,JP2*
G36*
X105750602Y-77700000D02*
X105750602Y-77675466D01*
X105755412Y-77626635D01*
X105764984Y-77578510D01*
X105779228Y-77531555D01*
X105798005Y-77486222D01*
X105821136Y-77442949D01*
X105848396Y-77402150D01*
X105879524Y-77364221D01*
X105914221Y-77329524D01*
X105952150Y-77298396D01*
X105992949Y-77271136D01*
X106036222Y-77248005D01*
X106081555Y-77229228D01*
X106128510Y-77214984D01*
X106176635Y-77205412D01*
X106225466Y-77200602D01*
X106250000Y-77200602D01*
X106250000Y-77200000D01*
X106750000Y-77200000D01*
X106750000Y-77200602D01*
X106774534Y-77200602D01*
X106823365Y-77205412D01*
X106871490Y-77214984D01*
X106918445Y-77229228D01*
X106963778Y-77248005D01*
X107007051Y-77271136D01*
X107047850Y-77298396D01*
X107085779Y-77329524D01*
X107120476Y-77364221D01*
X107151604Y-77402150D01*
X107178864Y-77442949D01*
X107201995Y-77486222D01*
X107220772Y-77531555D01*
X107235016Y-77578510D01*
X107244588Y-77626635D01*
X107249398Y-77675466D01*
X107249398Y-77700000D01*
X107250000Y-77700000D01*
X107250000Y-78250000D01*
X105750000Y-78250000D01*
X105750000Y-77700000D01*
X105750602Y-77700000D01*
X105750602Y-77700000D01*
G37*
D13*
G04 #@! TO.P,JP2,1*
G04 #@! TO.N,/ESPUSB+*
X106500000Y-80300000D03*
D14*
G04 #@! TD*
G04 #@! TO.N,/ESPUSB+*
G04 #@! TO.C,JP2*
G36*
X105900000Y-79750000D02*
X105900000Y-79400000D01*
X106300000Y-79400000D01*
X106300000Y-79750000D01*
X106700000Y-79750000D01*
X106700000Y-79400000D01*
X107100000Y-79400000D01*
X107100000Y-79750000D01*
X107250000Y-79750000D01*
X107250000Y-80300000D01*
X107249398Y-80300000D01*
X107249398Y-80324534D01*
X107244588Y-80373365D01*
X107235016Y-80421490D01*
X107220772Y-80468445D01*
X107201995Y-80513778D01*
X107178864Y-80557051D01*
X107151604Y-80597850D01*
X107120476Y-80635779D01*
X107085779Y-80670476D01*
X107047850Y-80701604D01*
X107007051Y-80728864D01*
X106963778Y-80751995D01*
X106918445Y-80770772D01*
X106871490Y-80785016D01*
X106823365Y-80794588D01*
X106774534Y-80799398D01*
X106750000Y-80799398D01*
X106750000Y-80800000D01*
X106250000Y-80800000D01*
X106250000Y-80799398D01*
X106225466Y-80799398D01*
X106176635Y-80794588D01*
X106128510Y-80785016D01*
X106081555Y-80770772D01*
X106036222Y-80751995D01*
X105992949Y-80728864D01*
X105952150Y-80701604D01*
X105914221Y-80670476D01*
X105879524Y-80635779D01*
X105848396Y-80597850D01*
X105821136Y-80557051D01*
X105798005Y-80513778D01*
X105779228Y-80468445D01*
X105764984Y-80421490D01*
X105755412Y-80373365D01*
X105750602Y-80324534D01*
X105750602Y-80300000D01*
X105750000Y-80300000D01*
X105750000Y-79750000D01*
X105900000Y-79750000D01*
X105900000Y-79750000D01*
G37*
D16*
G04 #@! TO.P,TP1,1*
G04 #@! TO.N,/CHUSB+*
X109600000Y-85100000D03*
G04 #@! TD*
G04 #@! TO.P,TP2,1*
G04 #@! TO.N,Net-(C26-Pad1)*
X111100000Y-85100000D03*
G04 #@! TD*
D17*
G04 #@! TO.P,J2,1*
G04 #@! TO.N,+3V3*
X113130000Y-85620000D03*
D18*
G04 #@! TO.P,J2,2*
G04 #@! TO.N,/ESP_ENABLE*
X113130000Y-88160000D03*
G04 #@! TO.P,J2,3*
G04 #@! TO.N,/GP00*
X113130000Y-90700000D03*
G04 #@! TO.P,J2,4*
G04 #@! TO.N,/GP01*
X113130000Y-93240000D03*
G04 #@! TO.P,J2,5*
G04 #@! TO.N,/GP02*
X113130000Y-95780000D03*
G04 #@! TO.P,J2,6*
G04 #@! TO.N,/GP03*
X113130000Y-98320000D03*
G04 #@! TO.P,J2,7*
G04 #@! TO.N,/GP04*
X113130000Y-100860000D03*
G04 #@! TO.P,J2,8*
G04 #@! TO.N,/GP05*
X113130000Y-103400000D03*
G04 #@! TO.P,J2,9*
G04 #@! TO.N,/GP06*
X113130000Y-105940000D03*
G04 #@! TO.P,J2,10*
G04 #@! TO.N,/GP07*
X113130000Y-108480000D03*
G04 #@! TD*
G04 #@! TO.P,J3,10*
G04 #@! TO.N,GND*
X95350000Y-108480000D03*
G04 #@! TO.P,J3,9*
G04 #@! TO.N,/ESP_TX*
X95350000Y-105940000D03*
G04 #@! TO.P,J3,8*
G04 #@! TO.N,/ESP_RX*
X95350000Y-103400000D03*
G04 #@! TO.P,J3,7*
G04 #@! TO.N,/ESPUSB+*
X95350000Y-100860000D03*
G04 #@! TO.P,J3,6*
G04 #@! TO.N,/ESPUSB-*
X95350000Y-98320000D03*
G04 #@! TO.P,J3,5*
G04 #@! TO.N,/GP10*
X95350000Y-95780000D03*
G04 #@! TO.P,J3,4*
G04 #@! TO.N,/BLSEL*
X95350000Y-93240000D03*
G04 #@! TO.P,J3,3*
G04 #@! TO.N,/GP08*
X95350000Y-90700000D03*
G04 #@! TO.P,J3,2*
G04 #@! TO.N,VDD*
X95350000Y-88160000D03*
D17*
G04 #@! TO.P,J3,1*
G04 #@! TO.N,VBUS*
X95350000Y-85620000D03*
G04 #@! TD*
D19*
G04 #@! TO.N,GND*
X100600000Y-109450000D03*
X99900000Y-109450000D03*
X101300000Y-109450000D03*
X102000000Y-109450000D03*
X102700000Y-109450000D03*
X103400000Y-109450000D03*
X104100000Y-109450000D03*
X104800000Y-109450000D03*
X105500000Y-109450000D03*
X106200000Y-109450000D03*
X106900000Y-109450000D03*
X107600000Y-109450000D03*
X108300000Y-109450000D03*
X109000000Y-109450000D03*
X109800000Y-98900000D03*
X102600000Y-97400000D03*
X102600000Y-98500000D03*
X102500000Y-95000000D03*
X109900000Y-86100000D03*
X95600000Y-77600000D03*
X113800000Y-81100000D03*
X98500000Y-100000000D03*
X101800000Y-86900000D03*
X107650000Y-86700000D03*
X99850000Y-101700000D03*
X97500000Y-110100000D03*
X111200000Y-110100000D03*
X105950000Y-98650000D03*
X108350000Y-91750000D03*
X99900000Y-90900000D03*
G04 #@! TO.N,+3V3*
X109900000Y-89700000D03*
G04 #@! TO.N,/GP00*
X109000000Y-102900000D03*
G04 #@! TO.N,/GP01*
X108600000Y-101700000D03*
G04 #@! TO.N,Net-(J1-PadA7)*
X102000000Y-78850000D03*
G04 #@! TO.N,Net-(J1-PadA6)*
X104600000Y-80800000D03*
X106250000Y-78800000D03*
G04 #@! TO.N,VBUS*
X106600000Y-84100000D03*
G04 #@! TO.N,/ESP_ENABLE*
X107100000Y-94900000D03*
X107250000Y-101700000D03*
X106800000Y-91050000D03*
X102700000Y-92350000D03*
G04 #@! TO.N,/GP02*
X109100000Y-106100000D03*
G04 #@! TO.N,/GP03*
X107900000Y-106400000D03*
G04 #@! TO.N,/GP04*
X104450000Y-101900000D03*
G04 #@! TO.N,/GP05*
X103600000Y-101950000D03*
G04 #@! TO.N,/GP06*
X102750000Y-101950000D03*
G04 #@! TO.N,/GP07*
X101900000Y-101900000D03*
G04 #@! TO.N,/GP08*
X100200000Y-93500000D03*
X101300000Y-98800000D03*
X107500000Y-93500000D03*
G04 #@! TO.N,/BLSEL*
X99900000Y-98500000D03*
X102600000Y-91150000D03*
X107650000Y-90000000D03*
G04 #@! TO.N,/GP10*
X106000000Y-101700000D03*
X99300000Y-99550000D03*
G04 #@! TO.N,/ESP_RX*
X102100000Y-88400000D03*
G04 #@! TO.N,/ESP_TX*
X102400000Y-89400000D03*
G04 #@! TO.N,Net-(C26-Pad1)*
X111100000Y-85100000D03*
G04 #@! TD*
D20*
G04 #@! TO.N,+3V3*
X109900000Y-89700000D02*
X109900000Y-88250000D01*
X112530000Y-85620000D02*
X113130000Y-85620000D01*
X109900000Y-88250000D02*
X112530000Y-85620000D01*
G04 #@! TO.N,/GP00*
X112400000Y-90700000D02*
X113130000Y-90700000D01*
X107900000Y-95200000D02*
X112400000Y-90700000D01*
X107900000Y-102200000D02*
X107900000Y-95200000D01*
X109000000Y-102900000D02*
X108600000Y-102900000D01*
X108600000Y-102900000D02*
X107900000Y-102200000D01*
G04 #@! TO.N,/GP01*
X108600000Y-95100000D02*
X108600000Y-101700000D01*
X113130000Y-93240000D02*
X110460000Y-93240000D01*
X110460000Y-93240000D02*
X108600000Y-95100000D01*
G04 #@! TO.N,Net-(J1-PadA7)*
X102000000Y-78850000D02*
X101900000Y-78950000D01*
X101900000Y-78950000D02*
X101900000Y-79000000D01*
G04 #@! TO.N,Net-(J1-PadA6)*
X106450000Y-79000000D02*
X106500000Y-79000000D01*
X106250000Y-78800000D02*
X106450000Y-79000000D01*
X104600000Y-80000000D02*
X104600000Y-80800000D01*
X106250000Y-78800000D02*
X105800000Y-78800000D01*
X105800000Y-78800000D02*
X104600000Y-80000000D01*
G04 #@! TO.N,VBUS*
X100800000Y-85000000D02*
X101400000Y-85000000D01*
X101400000Y-85000000D02*
X102800000Y-86400000D01*
X102800000Y-86400000D02*
X106000000Y-86400000D01*
X106600000Y-85800000D02*
X106600000Y-84100000D01*
X106000000Y-86400000D02*
X106600000Y-85800000D01*
G04 #@! TO.N,/ESP_ENABLE*
X107250000Y-101700000D02*
X107100000Y-101550000D01*
X107100000Y-101550000D02*
X107100000Y-94900000D01*
X110190000Y-91100000D02*
X113130000Y-88160000D01*
X106800000Y-91050000D02*
X106850000Y-91100000D01*
X106850000Y-91100000D02*
X110190000Y-91100000D01*
X105550000Y-92300000D02*
X106800000Y-91050000D01*
X102750000Y-92300000D02*
X105550000Y-92300000D01*
X102700000Y-92350000D02*
X102750000Y-92300000D01*
G04 #@! TO.N,/GP02*
X109150000Y-106150000D02*
X109100000Y-106100000D01*
X110100000Y-106150000D02*
X109150000Y-106150000D01*
X110500000Y-105750000D02*
X110100000Y-106150000D01*
X110500000Y-98700000D02*
X110500000Y-105750000D01*
X113130000Y-95780000D02*
X113130000Y-96070000D01*
X113130000Y-96070000D02*
X110500000Y-98700000D01*
G04 #@! TO.N,/GP03*
X108300000Y-106800000D02*
X107900000Y-106400000D01*
X110400000Y-106800000D02*
X108300000Y-106800000D01*
X111100000Y-106100000D02*
X110400000Y-106800000D01*
X111100000Y-100800000D02*
X111100000Y-106100000D01*
X113130000Y-98320000D02*
X113130000Y-98770000D01*
X113130000Y-98770000D02*
X111100000Y-100800000D01*
G04 #@! TO.N,/GP04*
X113130000Y-101070000D02*
X113130000Y-100860000D01*
X111500000Y-102700000D02*
X113130000Y-101070000D01*
X104300000Y-102050000D02*
X104300000Y-104300000D01*
X104450000Y-101900000D02*
X104300000Y-102050000D01*
X104300000Y-104300000D02*
X107200000Y-107200000D01*
X107200000Y-107200000D02*
X110600000Y-107200000D01*
X110600000Y-107200000D02*
X111500000Y-106300000D01*
X111500000Y-106300000D02*
X111500000Y-102700000D01*
G04 #@! TO.N,/GP05*
X112100000Y-104430000D02*
X113130000Y-103400000D01*
X111900000Y-106500000D02*
X111900000Y-104630000D01*
X110800000Y-107600000D02*
X111900000Y-106500000D01*
X111900000Y-104630000D02*
X112100000Y-104430000D01*
X103600000Y-101950000D02*
X103600000Y-104300000D01*
X103600000Y-104300000D02*
X106900000Y-107600000D01*
X106900000Y-107600000D02*
X110800000Y-107600000D01*
G04 #@! TO.N,/GP06*
X102750000Y-101950000D02*
X102750000Y-104084302D01*
X102750000Y-104084302D02*
X106715698Y-108050000D01*
X106715698Y-108050000D02*
X111020000Y-108050000D01*
X111020000Y-108050000D02*
X113130000Y-105940000D01*
G04 #@! TO.N,/GP07*
X106580000Y-108480000D02*
X113130000Y-108480000D01*
X101900000Y-103800000D02*
X106580000Y-108480000D01*
X101900000Y-101900000D02*
X101900000Y-103800000D01*
G04 #@! TO.N,/GP08*
X100200000Y-93500000D02*
X100200000Y-97700000D01*
X100200000Y-97700000D02*
X101300000Y-98800000D01*
X107500000Y-93500000D02*
X100200000Y-93500000D01*
G04 #@! TO.N,/BLSEL*
X99500000Y-98100000D02*
X99900000Y-98500000D01*
X101550000Y-91150000D02*
X99500000Y-93200000D01*
X102600000Y-91150000D02*
X101550000Y-91150000D01*
X99500000Y-93200000D02*
X99500000Y-98100000D01*
X103000000Y-91150000D02*
X102600000Y-91150000D01*
X104450000Y-89700000D02*
X103000000Y-91150000D01*
X107650000Y-90000000D02*
X107350000Y-89700000D01*
X107350000Y-89700000D02*
X104450000Y-89700000D01*
G04 #@! TO.N,/GP10*
X105100000Y-100450000D02*
X106000000Y-101350000D01*
X106000000Y-101350000D02*
X106000000Y-101700000D01*
X100200000Y-100450000D02*
X105100000Y-100450000D01*
X99300000Y-99550000D02*
X100200000Y-100450000D01*
G04 #@! TO.N,/ESPUSB-*
X99800000Y-80300000D02*
X101900000Y-80300000D01*
X99099990Y-81000010D02*
X99800000Y-80300000D01*
X96479990Y-98520000D02*
X96479990Y-98369990D01*
X95350000Y-98520000D02*
X96479990Y-98520000D01*
X96479990Y-98369990D02*
X96549980Y-98300000D01*
X96549980Y-98300000D02*
X96549980Y-89150020D01*
X96549980Y-89150020D02*
X99099990Y-86600010D01*
X99099990Y-86600010D02*
X99099990Y-81000010D01*
G04 #@! TO.N,/ESPUSB+*
X95350000Y-101060000D02*
X95350000Y-101050000D01*
X96239990Y-101060000D02*
X95350000Y-101060000D01*
X96999990Y-100300000D02*
X96239990Y-101060000D01*
X98650000Y-87700000D02*
X96999990Y-89350010D01*
X96999990Y-89350010D02*
X96999990Y-100300000D01*
X109850000Y-87700000D02*
X98650000Y-87700000D01*
X106500000Y-80300000D02*
X112200000Y-80300000D01*
X112900000Y-81000000D02*
X112900000Y-83100000D01*
X112900000Y-83100000D02*
X111979999Y-84020001D01*
X111979999Y-84020001D02*
X111979999Y-85570001D01*
X112200000Y-80300000D02*
X112900000Y-81000000D01*
X111979999Y-85570001D02*
X109850000Y-87700000D01*
G04 #@! TO.N,/ESP_RX*
X97400000Y-101550000D02*
X95350000Y-103600000D01*
X97400000Y-89550000D02*
X97400000Y-101550000D01*
X102100000Y-88400000D02*
X98550000Y-88400000D01*
X98550000Y-88400000D02*
X97400000Y-89550000D01*
G04 #@! TO.N,/ESP_TX*
X97800000Y-103690000D02*
X95350000Y-106140000D01*
X97800000Y-89750000D02*
X97800000Y-103690000D01*
X98700000Y-88850000D02*
X97800000Y-89750000D01*
X101350000Y-88850000D02*
X98700000Y-88850000D01*
X101900000Y-89400000D02*
X101350000Y-88850000D01*
X102400000Y-89400000D02*
X101900000Y-89400000D01*
G04 #@! TO.N,/CHUSB-*
X103340000Y-82040000D02*
X103340000Y-85000000D01*
X103340000Y-78040000D02*
X103340000Y-82040000D01*
X101900000Y-77700000D02*
X103000000Y-77700000D01*
X103000000Y-77700000D02*
X103340000Y-78040000D01*
G04 #@! TO.N,/CHUSB+*
X105370000Y-85000000D02*
X105500000Y-85000000D01*
X109400000Y-85100000D02*
X109600000Y-85100000D01*
X109600000Y-84450000D02*
X109600000Y-85100000D01*
X105370000Y-84130000D02*
X106100000Y-83400000D01*
X105370000Y-85000000D02*
X105370000Y-84130000D01*
X106100000Y-83400000D02*
X107700000Y-83400000D01*
X108300000Y-84000000D02*
X109150000Y-84000000D01*
X107700000Y-83400000D02*
X108300000Y-84000000D01*
X109150000Y-84000000D02*
X109600000Y-84450000D01*
X105370000Y-83270000D02*
X105370000Y-85000000D01*
X103900000Y-81800000D02*
X105370000Y-83270000D01*
X103900000Y-78800000D02*
X103900000Y-81800000D01*
X106500000Y-77700000D02*
X105000000Y-77700000D01*
X105000000Y-77700000D02*
X103900000Y-78800000D01*
G04 #@! TD*
D21*
G04 #@! TO.N,GND*
G36*
X113586611Y-76857446D02*
X113658199Y-76872662D01*
X113663406Y-76873210D01*
X113821045Y-76888667D01*
X113937483Y-76923821D01*
X114044876Y-76980923D01*
X114139128Y-77057793D01*
X114216657Y-77151508D01*
X114274507Y-77258501D01*
X114310472Y-77374688D01*
X114325001Y-77512914D01*
X114325000Y-110281663D01*
X114311333Y-110421044D01*
X114276178Y-110537485D01*
X114219077Y-110644876D01*
X114142207Y-110739128D01*
X114048488Y-110816659D01*
X113941498Y-110874508D01*
X113825316Y-110910472D01*
X113687096Y-110925000D01*
X94818338Y-110925000D01*
X94678956Y-110911333D01*
X94562515Y-110876178D01*
X94455124Y-110819077D01*
X94360872Y-110742207D01*
X94283341Y-110648488D01*
X94225492Y-110541498D01*
X94189528Y-110425316D01*
X94175000Y-110287096D01*
X94175000Y-108680637D01*
X94243036Y-108680637D01*
X94250517Y-108718251D01*
X94318124Y-108928172D01*
X94425385Y-109120870D01*
X94568179Y-109288939D01*
X94741018Y-109425921D01*
X94937259Y-109526552D01*
X95149362Y-109586965D01*
X95325000Y-109535973D01*
X95325000Y-108505000D01*
X95375000Y-108505000D01*
X95375000Y-109535973D01*
X95550638Y-109586965D01*
X95762741Y-109526552D01*
X95958982Y-109425921D01*
X96131821Y-109288939D01*
X96274615Y-109120870D01*
X96381876Y-108928172D01*
X96449483Y-108718251D01*
X96456964Y-108680637D01*
X96405954Y-108505000D01*
X95375000Y-108505000D01*
X95325000Y-108505000D01*
X94294046Y-108505000D01*
X94243036Y-108680637D01*
X94175000Y-108680637D01*
X94175000Y-108279363D01*
X94243036Y-108279363D01*
X94294046Y-108455000D01*
X95325000Y-108455000D01*
X95325000Y-107424027D01*
X95375000Y-107424027D01*
X95375000Y-108455000D01*
X96405954Y-108455000D01*
X96456964Y-108279363D01*
X96449483Y-108241749D01*
X96381876Y-108031828D01*
X96274615Y-107839130D01*
X96131821Y-107671061D01*
X95958982Y-107534079D01*
X95762741Y-107433448D01*
X95550638Y-107373035D01*
X95375000Y-107424027D01*
X95325000Y-107424027D01*
X95149362Y-107373035D01*
X94937259Y-107433448D01*
X94741018Y-107534079D01*
X94568179Y-107671061D01*
X94425385Y-107839130D01*
X94318124Y-108031828D01*
X94250517Y-108241749D01*
X94243036Y-108279363D01*
X94175000Y-108279363D01*
X94175000Y-90700000D01*
X94219557Y-90700000D01*
X94241278Y-90920538D01*
X94305607Y-91132602D01*
X94410071Y-91328040D01*
X94550656Y-91499344D01*
X94721960Y-91639929D01*
X94917398Y-91744393D01*
X95129462Y-91808722D01*
X95294736Y-91825000D01*
X95405264Y-91825000D01*
X95570538Y-91808722D01*
X95782602Y-91744393D01*
X95978040Y-91639929D01*
X96149344Y-91499344D01*
X96174981Y-91468105D01*
X96174981Y-92471894D01*
X96149344Y-92440656D01*
X95978040Y-92300071D01*
X95782602Y-92195607D01*
X95570538Y-92131278D01*
X95405264Y-92115000D01*
X95294736Y-92115000D01*
X95129462Y-92131278D01*
X94917398Y-92195607D01*
X94721960Y-92300071D01*
X94550656Y-92440656D01*
X94410071Y-92611960D01*
X94305607Y-92807398D01*
X94241278Y-93019462D01*
X94219557Y-93240000D01*
X94241278Y-93460538D01*
X94305607Y-93672602D01*
X94410071Y-93868040D01*
X94550656Y-94039344D01*
X94721960Y-94179929D01*
X94917398Y-94284393D01*
X95129462Y-94348722D01*
X95294736Y-94365000D01*
X95405264Y-94365000D01*
X95570538Y-94348722D01*
X95782602Y-94284393D01*
X95978040Y-94179929D01*
X96149344Y-94039344D01*
X96174980Y-94008106D01*
X96174980Y-95011894D01*
X96149344Y-94980656D01*
X95978040Y-94840071D01*
X95782602Y-94735607D01*
X95570538Y-94671278D01*
X95405264Y-94655000D01*
X95294736Y-94655000D01*
X95129462Y-94671278D01*
X94917398Y-94735607D01*
X94721960Y-94840071D01*
X94550656Y-94980656D01*
X94410071Y-95151960D01*
X94305607Y-95347398D01*
X94241278Y-95559462D01*
X94219557Y-95780000D01*
X94241278Y-96000538D01*
X94305607Y-96212602D01*
X94410071Y-96408040D01*
X94550656Y-96579344D01*
X94721960Y-96719929D01*
X94917398Y-96824393D01*
X95129462Y-96888722D01*
X95294736Y-96905000D01*
X95405264Y-96905000D01*
X95570538Y-96888722D01*
X95782602Y-96824393D01*
X95978040Y-96719929D01*
X96149344Y-96579344D01*
X96174980Y-96548106D01*
X96174980Y-97551894D01*
X96149344Y-97520656D01*
X95978040Y-97380071D01*
X95782602Y-97275607D01*
X95570538Y-97211278D01*
X95405264Y-97195000D01*
X95294736Y-97195000D01*
X95129462Y-97211278D01*
X94917398Y-97275607D01*
X94721960Y-97380071D01*
X94550656Y-97520656D01*
X94410071Y-97691960D01*
X94305607Y-97887398D01*
X94241278Y-98099462D01*
X94219557Y-98320000D01*
X94241278Y-98540538D01*
X94305607Y-98752602D01*
X94410071Y-98948040D01*
X94550656Y-99119344D01*
X94721960Y-99259929D01*
X94917398Y-99364393D01*
X95129462Y-99428722D01*
X95294736Y-99445000D01*
X95405264Y-99445000D01*
X95570538Y-99428722D01*
X95782602Y-99364393D01*
X95978040Y-99259929D01*
X96149344Y-99119344D01*
X96289929Y-98948040D01*
X96318280Y-98895000D01*
X96461571Y-98895000D01*
X96479990Y-98896814D01*
X96498409Y-98895000D01*
X96553503Y-98889574D01*
X96624190Y-98868131D01*
X96624991Y-98867703D01*
X96624991Y-100144668D01*
X96376234Y-100393426D01*
X96289929Y-100231960D01*
X96149344Y-100060656D01*
X95978040Y-99920071D01*
X95782602Y-99815607D01*
X95570538Y-99751278D01*
X95405264Y-99735000D01*
X95294736Y-99735000D01*
X95129462Y-99751278D01*
X94917398Y-99815607D01*
X94721960Y-99920071D01*
X94550656Y-100060656D01*
X94410071Y-100231960D01*
X94305607Y-100427398D01*
X94241278Y-100639462D01*
X94219557Y-100860000D01*
X94241278Y-101080538D01*
X94305607Y-101292602D01*
X94410071Y-101488040D01*
X94550656Y-101659344D01*
X94721960Y-101799929D01*
X94917398Y-101904393D01*
X95129462Y-101968722D01*
X95294736Y-101985000D01*
X95405264Y-101985000D01*
X95570538Y-101968722D01*
X95782602Y-101904393D01*
X95978040Y-101799929D01*
X96149344Y-101659344D01*
X96289929Y-101488040D01*
X96322665Y-101426795D01*
X96384190Y-101408131D01*
X96449337Y-101373309D01*
X96506438Y-101326448D01*
X96518185Y-101312134D01*
X97025001Y-100805319D01*
X97025001Y-101394669D01*
X95966023Y-102453648D01*
X95782602Y-102355607D01*
X95570538Y-102291278D01*
X95405264Y-102275000D01*
X95294736Y-102275000D01*
X95129462Y-102291278D01*
X94917398Y-102355607D01*
X94721960Y-102460071D01*
X94550656Y-102600656D01*
X94410071Y-102771960D01*
X94305607Y-102967398D01*
X94241278Y-103179462D01*
X94219557Y-103400000D01*
X94241278Y-103620538D01*
X94305607Y-103832602D01*
X94410071Y-104028040D01*
X94550656Y-104199344D01*
X94721960Y-104339929D01*
X94917398Y-104444393D01*
X95129462Y-104508722D01*
X95294736Y-104525000D01*
X95405264Y-104525000D01*
X95570538Y-104508722D01*
X95782602Y-104444393D01*
X95978040Y-104339929D01*
X96149344Y-104199344D01*
X96289929Y-104028040D01*
X96394393Y-103832602D01*
X96458722Y-103620538D01*
X96480443Y-103400000D01*
X96458722Y-103179462D01*
X96421982Y-103058347D01*
X97425001Y-102055329D01*
X97425001Y-103534668D01*
X95966023Y-104993648D01*
X95782602Y-104895607D01*
X95570538Y-104831278D01*
X95405264Y-104815000D01*
X95294736Y-104815000D01*
X95129462Y-104831278D01*
X94917398Y-104895607D01*
X94721960Y-105000071D01*
X94550656Y-105140656D01*
X94410071Y-105311960D01*
X94305607Y-105507398D01*
X94241278Y-105719462D01*
X94219557Y-105940000D01*
X94241278Y-106160538D01*
X94305607Y-106372602D01*
X94410071Y-106568040D01*
X94550656Y-106739344D01*
X94721960Y-106879929D01*
X94917398Y-106984393D01*
X95129462Y-107048722D01*
X95294736Y-107065000D01*
X95405264Y-107065000D01*
X95570538Y-107048722D01*
X95782602Y-106984393D01*
X95978040Y-106879929D01*
X96149344Y-106739344D01*
X96289929Y-106568040D01*
X96394393Y-106372602D01*
X96458722Y-106160538D01*
X96480443Y-105940000D01*
X96458722Y-105719462D01*
X96421982Y-105598347D01*
X98052145Y-103968186D01*
X98066448Y-103956448D01*
X98078186Y-103942145D01*
X98078189Y-103942142D01*
X98113309Y-103899347D01*
X98148130Y-103834202D01*
X98148131Y-103834200D01*
X98169574Y-103763513D01*
X98175000Y-103708419D01*
X98175000Y-103708417D01*
X98176814Y-103690001D01*
X98175000Y-103671585D01*
X98175000Y-101840905D01*
X101300000Y-101840905D01*
X101300000Y-101959095D01*
X101323058Y-102075014D01*
X101368287Y-102184207D01*
X101433950Y-102282478D01*
X101517522Y-102366050D01*
X101525000Y-102371047D01*
X101525001Y-103781574D01*
X101523186Y-103800000D01*
X101526555Y-103834200D01*
X101530427Y-103873513D01*
X101538264Y-103899347D01*
X101551870Y-103944200D01*
X101583465Y-104003309D01*
X101586692Y-104009347D01*
X101633553Y-104066448D01*
X101647862Y-104078191D01*
X106301809Y-108732139D01*
X106313552Y-108746448D01*
X106343766Y-108771243D01*
X106370652Y-108793309D01*
X106435798Y-108828130D01*
X106435800Y-108828131D01*
X106506487Y-108849574D01*
X106561581Y-108855000D01*
X106561583Y-108855000D01*
X106579999Y-108856814D01*
X106598415Y-108855000D01*
X112068134Y-108855000D01*
X112085607Y-108912602D01*
X112190071Y-109108040D01*
X112330656Y-109279344D01*
X112501960Y-109419929D01*
X112697398Y-109524393D01*
X112909462Y-109588722D01*
X113074736Y-109605000D01*
X113185264Y-109605000D01*
X113350538Y-109588722D01*
X113562602Y-109524393D01*
X113758040Y-109419929D01*
X113929344Y-109279344D01*
X114069929Y-109108040D01*
X114174393Y-108912602D01*
X114238722Y-108700538D01*
X114260443Y-108480000D01*
X114238722Y-108259462D01*
X114174393Y-108047398D01*
X114069929Y-107851960D01*
X113929344Y-107680656D01*
X113758040Y-107540071D01*
X113562602Y-107435607D01*
X113350538Y-107371278D01*
X113185264Y-107355000D01*
X113074736Y-107355000D01*
X112909462Y-107371278D01*
X112697398Y-107435607D01*
X112501960Y-107540071D01*
X112330656Y-107680656D01*
X112190071Y-107851960D01*
X112085607Y-108047398D01*
X112068134Y-108105000D01*
X111495329Y-108105000D01*
X112644312Y-106956018D01*
X112697398Y-106984393D01*
X112909462Y-107048722D01*
X113074736Y-107065000D01*
X113185264Y-107065000D01*
X113350538Y-107048722D01*
X113562602Y-106984393D01*
X113758040Y-106879929D01*
X113929344Y-106739344D01*
X114069929Y-106568040D01*
X114174393Y-106372602D01*
X114238722Y-106160538D01*
X114260443Y-105940000D01*
X114238722Y-105719462D01*
X114174393Y-105507398D01*
X114069929Y-105311960D01*
X113929344Y-105140656D01*
X113758040Y-105000071D01*
X113562602Y-104895607D01*
X113350538Y-104831278D01*
X113185264Y-104815000D01*
X113074736Y-104815000D01*
X112909462Y-104831278D01*
X112697398Y-104895607D01*
X112501960Y-105000071D01*
X112330656Y-105140656D01*
X112275000Y-105208473D01*
X112275000Y-104785329D01*
X112378189Y-104682140D01*
X112644312Y-104416018D01*
X112697398Y-104444393D01*
X112909462Y-104508722D01*
X113074736Y-104525000D01*
X113185264Y-104525000D01*
X113350538Y-104508722D01*
X113562602Y-104444393D01*
X113758040Y-104339929D01*
X113929344Y-104199344D01*
X114069929Y-104028040D01*
X114174393Y-103832602D01*
X114238722Y-103620538D01*
X114260443Y-103400000D01*
X114238722Y-103179462D01*
X114174393Y-102967398D01*
X114069929Y-102771960D01*
X113929344Y-102600656D01*
X113758040Y-102460071D01*
X113562602Y-102355607D01*
X113350538Y-102291278D01*
X113185264Y-102275000D01*
X113074736Y-102275000D01*
X112909462Y-102291278D01*
X112697398Y-102355607D01*
X112501960Y-102460071D01*
X112330656Y-102600656D01*
X112190071Y-102771960D01*
X112085607Y-102967398D01*
X112021278Y-103179462D01*
X111999557Y-103400000D01*
X112021278Y-103620538D01*
X112085607Y-103832602D01*
X112113982Y-103885688D01*
X111875000Y-104124671D01*
X111875000Y-102855329D01*
X112796020Y-101934310D01*
X112909462Y-101968722D01*
X113074736Y-101985000D01*
X113185264Y-101985000D01*
X113350538Y-101968722D01*
X113562602Y-101904393D01*
X113758040Y-101799929D01*
X113929344Y-101659344D01*
X114069929Y-101488040D01*
X114174393Y-101292602D01*
X114238722Y-101080538D01*
X114260443Y-100860000D01*
X114238722Y-100639462D01*
X114174393Y-100427398D01*
X114069929Y-100231960D01*
X113929344Y-100060656D01*
X113758040Y-99920071D01*
X113562602Y-99815607D01*
X113350538Y-99751278D01*
X113185264Y-99735000D01*
X113074736Y-99735000D01*
X112909462Y-99751278D01*
X112697398Y-99815607D01*
X112519788Y-99910542D01*
X112993346Y-99436984D01*
X113074736Y-99445000D01*
X113185264Y-99445000D01*
X113350538Y-99428722D01*
X113562602Y-99364393D01*
X113758040Y-99259929D01*
X113929344Y-99119344D01*
X114069929Y-98948040D01*
X114174393Y-98752602D01*
X114238722Y-98540538D01*
X114260443Y-98320000D01*
X114238722Y-98099462D01*
X114174393Y-97887398D01*
X114069929Y-97691960D01*
X113929344Y-97520656D01*
X113758040Y-97380071D01*
X113562602Y-97275607D01*
X113350538Y-97211278D01*
X113185264Y-97195000D01*
X113074736Y-97195000D01*
X112909462Y-97211278D01*
X112697398Y-97275607D01*
X112501960Y-97380071D01*
X112330656Y-97520656D01*
X112190071Y-97691960D01*
X112085607Y-97887398D01*
X112021278Y-98099462D01*
X111999557Y-98320000D01*
X112021278Y-98540538D01*
X112085607Y-98752602D01*
X112190071Y-98948040D01*
X112294447Y-99075223D01*
X110875000Y-100494671D01*
X110875000Y-98855329D01*
X112857400Y-96872929D01*
X112909462Y-96888722D01*
X113074736Y-96905000D01*
X113185264Y-96905000D01*
X113350538Y-96888722D01*
X113562602Y-96824393D01*
X113758040Y-96719929D01*
X113929344Y-96579344D01*
X114069929Y-96408040D01*
X114174393Y-96212602D01*
X114238722Y-96000538D01*
X114260443Y-95780000D01*
X114238722Y-95559462D01*
X114174393Y-95347398D01*
X114069929Y-95151960D01*
X113929344Y-94980656D01*
X113758040Y-94840071D01*
X113562602Y-94735607D01*
X113350538Y-94671278D01*
X113185264Y-94655000D01*
X113074736Y-94655000D01*
X112909462Y-94671278D01*
X112697398Y-94735607D01*
X112501960Y-94840071D01*
X112330656Y-94980656D01*
X112190071Y-95151960D01*
X112085607Y-95347398D01*
X112021278Y-95559462D01*
X111999557Y-95780000D01*
X112021278Y-96000538D01*
X112085607Y-96212602D01*
X112190071Y-96408040D01*
X112222327Y-96447344D01*
X110247866Y-98421805D01*
X110233552Y-98433552D01*
X110186691Y-98490654D01*
X110151869Y-98555801D01*
X110130426Y-98626488D01*
X110126712Y-98664199D01*
X110123186Y-98700000D01*
X110125000Y-98718416D01*
X110125001Y-105594669D01*
X109944671Y-105775000D01*
X109604456Y-105775000D01*
X109566050Y-105717522D01*
X109482478Y-105633950D01*
X109384207Y-105568287D01*
X109275014Y-105523058D01*
X109159095Y-105500000D01*
X109040905Y-105500000D01*
X108924986Y-105523058D01*
X108815793Y-105568287D01*
X108717522Y-105633950D01*
X108633950Y-105717522D01*
X108568287Y-105815793D01*
X108523058Y-105924986D01*
X108500000Y-106040905D01*
X108500000Y-106159095D01*
X108523058Y-106275014D01*
X108568287Y-106384207D01*
X108595544Y-106425000D01*
X108500000Y-106425000D01*
X108500000Y-106340905D01*
X108476942Y-106224986D01*
X108431713Y-106115793D01*
X108366050Y-106017522D01*
X108282478Y-105933950D01*
X108184207Y-105868287D01*
X108075014Y-105823058D01*
X107959095Y-105800000D01*
X107840905Y-105800000D01*
X107724986Y-105823058D01*
X107615793Y-105868287D01*
X107517522Y-105933950D01*
X107433950Y-106017522D01*
X107368287Y-106115793D01*
X107323058Y-106224986D01*
X107300000Y-106340905D01*
X107300000Y-106459095D01*
X107323058Y-106575014D01*
X107368287Y-106684207D01*
X107433950Y-106782478D01*
X107476472Y-106825000D01*
X107355331Y-106825000D01*
X104675000Y-104144671D01*
X104675000Y-102456237D01*
X104734207Y-102431713D01*
X104832478Y-102366050D01*
X104916050Y-102282478D01*
X104981713Y-102184207D01*
X105026942Y-102075014D01*
X105050000Y-101959095D01*
X105050000Y-101840905D01*
X105026942Y-101724986D01*
X104981713Y-101615793D01*
X104916050Y-101517522D01*
X104832478Y-101433950D01*
X104734207Y-101368287D01*
X104625014Y-101323058D01*
X104509095Y-101300000D01*
X104390905Y-101300000D01*
X104274986Y-101323058D01*
X104165793Y-101368287D01*
X104067522Y-101433950D01*
X104000000Y-101501472D01*
X103982478Y-101483950D01*
X103884207Y-101418287D01*
X103775014Y-101373058D01*
X103659095Y-101350000D01*
X103540905Y-101350000D01*
X103424986Y-101373058D01*
X103315793Y-101418287D01*
X103217522Y-101483950D01*
X103175000Y-101526472D01*
X103132478Y-101483950D01*
X103034207Y-101418287D01*
X102925014Y-101373058D01*
X102809095Y-101350000D01*
X102690905Y-101350000D01*
X102574986Y-101373058D01*
X102465793Y-101418287D01*
X102367522Y-101483950D01*
X102350000Y-101501472D01*
X102282478Y-101433950D01*
X102184207Y-101368287D01*
X102075014Y-101323058D01*
X101959095Y-101300000D01*
X101840905Y-101300000D01*
X101724986Y-101323058D01*
X101615793Y-101368287D01*
X101517522Y-101433950D01*
X101433950Y-101517522D01*
X101368287Y-101615793D01*
X101323058Y-101724986D01*
X101300000Y-101840905D01*
X98175000Y-101840905D01*
X98175000Y-99490905D01*
X98700000Y-99490905D01*
X98700000Y-99609095D01*
X98723058Y-99725014D01*
X98768287Y-99834207D01*
X98833950Y-99932478D01*
X98917522Y-100016050D01*
X99015793Y-100081713D01*
X99124986Y-100126942D01*
X99240905Y-100150000D01*
X99359095Y-100150000D01*
X99367916Y-100148245D01*
X99921809Y-100702139D01*
X99933552Y-100716448D01*
X99990653Y-100763309D01*
X100055800Y-100798131D01*
X100126487Y-100819574D01*
X100181581Y-100825000D01*
X100181583Y-100825000D01*
X100199999Y-100826814D01*
X100218415Y-100825000D01*
X104944671Y-100825000D01*
X105495194Y-101375524D01*
X105468287Y-101415793D01*
X105423058Y-101524986D01*
X105400000Y-101640905D01*
X105400000Y-101759095D01*
X105423058Y-101875014D01*
X105468287Y-101984207D01*
X105533950Y-102082478D01*
X105617522Y-102166050D01*
X105715793Y-102231713D01*
X105824986Y-102276942D01*
X105940905Y-102300000D01*
X106059095Y-102300000D01*
X106175014Y-102276942D01*
X106284207Y-102231713D01*
X106382478Y-102166050D01*
X106466050Y-102082478D01*
X106531713Y-101984207D01*
X106576942Y-101875014D01*
X106600000Y-101759095D01*
X106600000Y-101640905D01*
X106576942Y-101524986D01*
X106531713Y-101415793D01*
X106466050Y-101317522D01*
X106382478Y-101233950D01*
X106350109Y-101212322D01*
X106348131Y-101205800D01*
X106313309Y-101140653D01*
X106266448Y-101083552D01*
X106252140Y-101071810D01*
X105378195Y-100197866D01*
X105366448Y-100183552D01*
X105309347Y-100136691D01*
X105244200Y-100101869D01*
X105173513Y-100080426D01*
X105118419Y-100075000D01*
X105118416Y-100075000D01*
X105100000Y-100073186D01*
X105081584Y-100075000D01*
X100355330Y-100075000D01*
X99898245Y-99617916D01*
X99900000Y-99609095D01*
X99900000Y-99490905D01*
X99876942Y-99374986D01*
X99831713Y-99265793D01*
X99766050Y-99167522D01*
X99682478Y-99083950D01*
X99584207Y-99018287D01*
X99475014Y-98973058D01*
X99359095Y-98950000D01*
X99240905Y-98950000D01*
X99124986Y-98973058D01*
X99015793Y-99018287D01*
X98917522Y-99083950D01*
X98833950Y-99167522D01*
X98768287Y-99265793D01*
X98723058Y-99374986D01*
X98700000Y-99490905D01*
X98175000Y-99490905D01*
X98175000Y-93200000D01*
X99123186Y-93200000D01*
X99125000Y-93218416D01*
X99125001Y-98081574D01*
X99123186Y-98100000D01*
X99130427Y-98173512D01*
X99151870Y-98244200D01*
X99186691Y-98309346D01*
X99198049Y-98323186D01*
X99233553Y-98366448D01*
X99247861Y-98378190D01*
X99301755Y-98432084D01*
X99300000Y-98440905D01*
X99300000Y-98559095D01*
X99323058Y-98675014D01*
X99368287Y-98784207D01*
X99433950Y-98882478D01*
X99517522Y-98966050D01*
X99615793Y-99031713D01*
X99724986Y-99076942D01*
X99840905Y-99100000D01*
X99959095Y-99100000D01*
X100075014Y-99076942D01*
X100184207Y-99031713D01*
X100282478Y-98966050D01*
X100366050Y-98882478D01*
X100431713Y-98784207D01*
X100476942Y-98675014D01*
X100500000Y-98559095D01*
X100500000Y-98530330D01*
X100701755Y-98732084D01*
X100700000Y-98740905D01*
X100700000Y-98859095D01*
X100723058Y-98975014D01*
X100768287Y-99084207D01*
X100833950Y-99182478D01*
X100917522Y-99266050D01*
X101015793Y-99331713D01*
X101124986Y-99376942D01*
X101240905Y-99400000D01*
X101359095Y-99400000D01*
X101475014Y-99376942D01*
X101584207Y-99331713D01*
X101682478Y-99266050D01*
X101766050Y-99182478D01*
X101831713Y-99084207D01*
X101876942Y-98975014D01*
X101900000Y-98859095D01*
X101900000Y-98740905D01*
X101876942Y-98624986D01*
X101831713Y-98515793D01*
X101766050Y-98417522D01*
X101682478Y-98333950D01*
X101584207Y-98268287D01*
X101475014Y-98223058D01*
X101359095Y-98200000D01*
X101240905Y-98200000D01*
X101232084Y-98201755D01*
X100575000Y-97544671D01*
X100575000Y-94840905D01*
X106500000Y-94840905D01*
X106500000Y-94959095D01*
X106523058Y-95075014D01*
X106568287Y-95184207D01*
X106633950Y-95282478D01*
X106717522Y-95366050D01*
X106725001Y-95371047D01*
X106725000Y-101405746D01*
X106718287Y-101415793D01*
X106673058Y-101524986D01*
X106650000Y-101640905D01*
X106650000Y-101759095D01*
X106673058Y-101875014D01*
X106718287Y-101984207D01*
X106783950Y-102082478D01*
X106867522Y-102166050D01*
X106965793Y-102231713D01*
X107074986Y-102276942D01*
X107190905Y-102300000D01*
X107309095Y-102300000D01*
X107425014Y-102276942D01*
X107526619Y-102234856D01*
X107530426Y-102273512D01*
X107551869Y-102344199D01*
X107586691Y-102409346D01*
X107633552Y-102466448D01*
X107647866Y-102478195D01*
X108321809Y-103152139D01*
X108333552Y-103166448D01*
X108349410Y-103179462D01*
X108390652Y-103213309D01*
X108455798Y-103248130D01*
X108455800Y-103248131D01*
X108525033Y-103269133D01*
X108533950Y-103282478D01*
X108617522Y-103366050D01*
X108715793Y-103431713D01*
X108824986Y-103476942D01*
X108940905Y-103500000D01*
X109059095Y-103500000D01*
X109175014Y-103476942D01*
X109284207Y-103431713D01*
X109382478Y-103366050D01*
X109466050Y-103282478D01*
X109531713Y-103184207D01*
X109576942Y-103075014D01*
X109600000Y-102959095D01*
X109600000Y-102840905D01*
X109576942Y-102724986D01*
X109531713Y-102615793D01*
X109466050Y-102517522D01*
X109382478Y-102433950D01*
X109284207Y-102368287D01*
X109175014Y-102323058D01*
X109059095Y-102300000D01*
X108940905Y-102300000D01*
X108824986Y-102323058D01*
X108715793Y-102368287D01*
X108645551Y-102415221D01*
X108527704Y-102297374D01*
X108540905Y-102300000D01*
X108659095Y-102300000D01*
X108775014Y-102276942D01*
X108884207Y-102231713D01*
X108982478Y-102166050D01*
X109066050Y-102082478D01*
X109131713Y-101984207D01*
X109176942Y-101875014D01*
X109200000Y-101759095D01*
X109200000Y-101640905D01*
X109176942Y-101524986D01*
X109131713Y-101415793D01*
X109066050Y-101317522D01*
X108982478Y-101233950D01*
X108975000Y-101228953D01*
X108975000Y-95255329D01*
X110615331Y-93615000D01*
X112068134Y-93615000D01*
X112085607Y-93672602D01*
X112190071Y-93868040D01*
X112330656Y-94039344D01*
X112501960Y-94179929D01*
X112697398Y-94284393D01*
X112909462Y-94348722D01*
X113074736Y-94365000D01*
X113185264Y-94365000D01*
X113350538Y-94348722D01*
X113562602Y-94284393D01*
X113758040Y-94179929D01*
X113929344Y-94039344D01*
X114069929Y-93868040D01*
X114174393Y-93672602D01*
X114238722Y-93460538D01*
X114260443Y-93240000D01*
X114238722Y-93019462D01*
X114174393Y-92807398D01*
X114069929Y-92611960D01*
X113929344Y-92440656D01*
X113758040Y-92300071D01*
X113562602Y-92195607D01*
X113350538Y-92131278D01*
X113185264Y-92115000D01*
X113074736Y-92115000D01*
X112909462Y-92131278D01*
X112697398Y-92195607D01*
X112501960Y-92300071D01*
X112330656Y-92440656D01*
X112190071Y-92611960D01*
X112085607Y-92807398D01*
X112068134Y-92865000D01*
X110765330Y-92865000D01*
X112240654Y-91389676D01*
X112330656Y-91499344D01*
X112501960Y-91639929D01*
X112697398Y-91744393D01*
X112909462Y-91808722D01*
X113074736Y-91825000D01*
X113185264Y-91825000D01*
X113350538Y-91808722D01*
X113562602Y-91744393D01*
X113758040Y-91639929D01*
X113929344Y-91499344D01*
X114069929Y-91328040D01*
X114174393Y-91132602D01*
X114238722Y-90920538D01*
X114260443Y-90700000D01*
X114238722Y-90479462D01*
X114174393Y-90267398D01*
X114069929Y-90071960D01*
X113929344Y-89900656D01*
X113758040Y-89760071D01*
X113562602Y-89655607D01*
X113350538Y-89591278D01*
X113185264Y-89575000D01*
X113074736Y-89575000D01*
X112909462Y-89591278D01*
X112697398Y-89655607D01*
X112501960Y-89760071D01*
X112330656Y-89900656D01*
X112190071Y-90071960D01*
X112085607Y-90267398D01*
X112021278Y-90479462D01*
X112013747Y-90555923D01*
X107700000Y-94869671D01*
X107700000Y-94840905D01*
X107676942Y-94724986D01*
X107631713Y-94615793D01*
X107566050Y-94517522D01*
X107482478Y-94433950D01*
X107384207Y-94368287D01*
X107275014Y-94323058D01*
X107159095Y-94300000D01*
X107040905Y-94300000D01*
X106924986Y-94323058D01*
X106815793Y-94368287D01*
X106717522Y-94433950D01*
X106633950Y-94517522D01*
X106568287Y-94615793D01*
X106523058Y-94724986D01*
X106500000Y-94840905D01*
X100575000Y-94840905D01*
X100575000Y-93971047D01*
X100582478Y-93966050D01*
X100666050Y-93882478D01*
X100671047Y-93875000D01*
X107028953Y-93875000D01*
X107033950Y-93882478D01*
X107117522Y-93966050D01*
X107215793Y-94031713D01*
X107324986Y-94076942D01*
X107440905Y-94100000D01*
X107559095Y-94100000D01*
X107675014Y-94076942D01*
X107784207Y-94031713D01*
X107882478Y-93966050D01*
X107966050Y-93882478D01*
X108031713Y-93784207D01*
X108076942Y-93675014D01*
X108100000Y-93559095D01*
X108100000Y-93440905D01*
X108076942Y-93324986D01*
X108031713Y-93215793D01*
X107966050Y-93117522D01*
X107882478Y-93033950D01*
X107784207Y-92968287D01*
X107675014Y-92923058D01*
X107559095Y-92900000D01*
X107440905Y-92900000D01*
X107324986Y-92923058D01*
X107215793Y-92968287D01*
X107117522Y-93033950D01*
X107033950Y-93117522D01*
X107028953Y-93125000D01*
X100671047Y-93125000D01*
X100666050Y-93117522D01*
X100582478Y-93033950D01*
X100484207Y-92968287D01*
X100375014Y-92923058D01*
X100318511Y-92911819D01*
X101705330Y-91525000D01*
X102128953Y-91525000D01*
X102133950Y-91532478D01*
X102217522Y-91616050D01*
X102315793Y-91681713D01*
X102424986Y-91726942D01*
X102540905Y-91750000D01*
X102640905Y-91750000D01*
X102524986Y-91773058D01*
X102415793Y-91818287D01*
X102317522Y-91883950D01*
X102233950Y-91967522D01*
X102168287Y-92065793D01*
X102123058Y-92174986D01*
X102100000Y-92290905D01*
X102100000Y-92409095D01*
X102123058Y-92525014D01*
X102168287Y-92634207D01*
X102233950Y-92732478D01*
X102317522Y-92816050D01*
X102415793Y-92881713D01*
X102524986Y-92926942D01*
X102640905Y-92950000D01*
X102759095Y-92950000D01*
X102875014Y-92926942D01*
X102984207Y-92881713D01*
X103082478Y-92816050D01*
X103166050Y-92732478D01*
X103204456Y-92675000D01*
X105531584Y-92675000D01*
X105550000Y-92676814D01*
X105568416Y-92675000D01*
X105568419Y-92675000D01*
X105623513Y-92669574D01*
X105694200Y-92648131D01*
X105759347Y-92613309D01*
X105816448Y-92566448D01*
X105828195Y-92552134D01*
X106732084Y-91648245D01*
X106740905Y-91650000D01*
X106859095Y-91650000D01*
X106975014Y-91626942D01*
X107084207Y-91581713D01*
X107182478Y-91516050D01*
X107223528Y-91475000D01*
X110171584Y-91475000D01*
X110190000Y-91476814D01*
X110208416Y-91475000D01*
X110208419Y-91475000D01*
X110263513Y-91469574D01*
X110334200Y-91448131D01*
X110399347Y-91413309D01*
X110456448Y-91366448D01*
X110468195Y-91352134D01*
X112644312Y-89176018D01*
X112697398Y-89204393D01*
X112909462Y-89268722D01*
X113074736Y-89285000D01*
X113185264Y-89285000D01*
X113350538Y-89268722D01*
X113562602Y-89204393D01*
X113758040Y-89099929D01*
X113929344Y-88959344D01*
X114069929Y-88788040D01*
X114174393Y-88592602D01*
X114238722Y-88380538D01*
X114260443Y-88160000D01*
X114238722Y-87939462D01*
X114174393Y-87727398D01*
X114069929Y-87531960D01*
X113929344Y-87360656D01*
X113758040Y-87220071D01*
X113562602Y-87115607D01*
X113350538Y-87051278D01*
X113185264Y-87035000D01*
X113074736Y-87035000D01*
X112909462Y-87051278D01*
X112697398Y-87115607D01*
X112501960Y-87220071D01*
X112330656Y-87360656D01*
X112190071Y-87531960D01*
X112085607Y-87727398D01*
X112021278Y-87939462D01*
X111999557Y-88160000D01*
X112021278Y-88380538D01*
X112085607Y-88592602D01*
X112113982Y-88645688D01*
X110034671Y-90725000D01*
X107304456Y-90725000D01*
X107266050Y-90667522D01*
X107182478Y-90583950D01*
X107084207Y-90518287D01*
X106975014Y-90473058D01*
X106859095Y-90450000D01*
X106740905Y-90450000D01*
X106624986Y-90473058D01*
X106515793Y-90518287D01*
X106417522Y-90583950D01*
X106333950Y-90667522D01*
X106268287Y-90765793D01*
X106223058Y-90874986D01*
X106200000Y-90990905D01*
X106200000Y-91109095D01*
X106201755Y-91117916D01*
X105394671Y-91925000D01*
X103123528Y-91925000D01*
X103082478Y-91883950D01*
X102984207Y-91818287D01*
X102875014Y-91773058D01*
X102759095Y-91750000D01*
X102659095Y-91750000D01*
X102775014Y-91726942D01*
X102884207Y-91681713D01*
X102982478Y-91616050D01*
X103066050Y-91532478D01*
X103074967Y-91519133D01*
X103144200Y-91498131D01*
X103209347Y-91463309D01*
X103266448Y-91416448D01*
X103278195Y-91402134D01*
X104605330Y-90075000D01*
X107053164Y-90075000D01*
X107073058Y-90175014D01*
X107118287Y-90284207D01*
X107183950Y-90382478D01*
X107267522Y-90466050D01*
X107365793Y-90531713D01*
X107474986Y-90576942D01*
X107590905Y-90600000D01*
X107709095Y-90600000D01*
X107825014Y-90576942D01*
X107934207Y-90531713D01*
X108032478Y-90466050D01*
X108116050Y-90382478D01*
X108181713Y-90284207D01*
X108226942Y-90175014D01*
X108250000Y-90059095D01*
X108250000Y-89940905D01*
X108226942Y-89824986D01*
X108181713Y-89715793D01*
X108116050Y-89617522D01*
X108032478Y-89533950D01*
X107934207Y-89468287D01*
X107825014Y-89423058D01*
X107709095Y-89400000D01*
X107590905Y-89400000D01*
X107578557Y-89402456D01*
X107559347Y-89386691D01*
X107494200Y-89351869D01*
X107423513Y-89330426D01*
X107368419Y-89325000D01*
X107368416Y-89325000D01*
X107350000Y-89323186D01*
X107331584Y-89325000D01*
X104468416Y-89325000D01*
X104450000Y-89323186D01*
X104431584Y-89325000D01*
X104431581Y-89325000D01*
X104376487Y-89330426D01*
X104305800Y-89351869D01*
X104291774Y-89359366D01*
X104240653Y-89386690D01*
X104222158Y-89401869D01*
X104183552Y-89433552D01*
X104171809Y-89447861D01*
X102954449Y-90665222D01*
X102884207Y-90618287D01*
X102775014Y-90573058D01*
X102659095Y-90550000D01*
X102540905Y-90550000D01*
X102424986Y-90573058D01*
X102315793Y-90618287D01*
X102217522Y-90683950D01*
X102133950Y-90767522D01*
X102128953Y-90775000D01*
X101568416Y-90775000D01*
X101550000Y-90773186D01*
X101531584Y-90775000D01*
X101531581Y-90775000D01*
X101476487Y-90780426D01*
X101405800Y-90801869D01*
X101340653Y-90836691D01*
X101283552Y-90883552D01*
X101271810Y-90897860D01*
X99247866Y-92921805D01*
X99233552Y-92933552D01*
X99186691Y-92990654D01*
X99151869Y-93055801D01*
X99130426Y-93126488D01*
X99126487Y-93166487D01*
X99123186Y-93200000D01*
X98175000Y-93200000D01*
X98175000Y-89905329D01*
X98855330Y-89225000D01*
X101194671Y-89225000D01*
X101621809Y-89652139D01*
X101633552Y-89666448D01*
X101655192Y-89684207D01*
X101690652Y-89713309D01*
X101724837Y-89731581D01*
X101755800Y-89748131D01*
X101826487Y-89769574D01*
X101881581Y-89775000D01*
X101881583Y-89775000D01*
X101899999Y-89776814D01*
X101918415Y-89775000D01*
X101928953Y-89775000D01*
X101933950Y-89782478D01*
X102017522Y-89866050D01*
X102115793Y-89931713D01*
X102224986Y-89976942D01*
X102340905Y-90000000D01*
X102459095Y-90000000D01*
X102575014Y-89976942D01*
X102684207Y-89931713D01*
X102782478Y-89866050D01*
X102866050Y-89782478D01*
X102931713Y-89684207D01*
X102976942Y-89575014D01*
X103000000Y-89459095D01*
X103000000Y-89340905D01*
X102976942Y-89224986D01*
X102931713Y-89115793D01*
X102866050Y-89017522D01*
X102782478Y-88933950D01*
X102684207Y-88868287D01*
X102575014Y-88823058D01*
X102533690Y-88814838D01*
X102566050Y-88782478D01*
X102631713Y-88684207D01*
X102676942Y-88575014D01*
X102700000Y-88459095D01*
X102700000Y-88340905D01*
X102676942Y-88224986D01*
X102631713Y-88115793D01*
X102604456Y-88075000D01*
X109568333Y-88075000D01*
X109562084Y-88086691D01*
X109551870Y-88105800D01*
X109535429Y-88160000D01*
X109530427Y-88176488D01*
X109523186Y-88250000D01*
X109525001Y-88268426D01*
X109525000Y-89228953D01*
X109517522Y-89233950D01*
X109433950Y-89317522D01*
X109368287Y-89415793D01*
X109323058Y-89524986D01*
X109300000Y-89640905D01*
X109300000Y-89759095D01*
X109323058Y-89875014D01*
X109368287Y-89984207D01*
X109433950Y-90082478D01*
X109517522Y-90166050D01*
X109615793Y-90231713D01*
X109724986Y-90276942D01*
X109840905Y-90300000D01*
X109959095Y-90300000D01*
X110075014Y-90276942D01*
X110184207Y-90231713D01*
X110282478Y-90166050D01*
X110366050Y-90082478D01*
X110431713Y-89984207D01*
X110476942Y-89875014D01*
X110500000Y-89759095D01*
X110500000Y-89640905D01*
X110476942Y-89524986D01*
X110431713Y-89415793D01*
X110366050Y-89317522D01*
X110282478Y-89233950D01*
X110275000Y-89228953D01*
X110275000Y-88405329D01*
X112053201Y-86627129D01*
X112084605Y-86665395D01*
X112126479Y-86699760D01*
X112174253Y-86725296D01*
X112226091Y-86741020D01*
X112280000Y-86746330D01*
X113980000Y-86746330D01*
X114033909Y-86741020D01*
X114085747Y-86725296D01*
X114133521Y-86699760D01*
X114175395Y-86665395D01*
X114209760Y-86623521D01*
X114235296Y-86575747D01*
X114251020Y-86523909D01*
X114256330Y-86470000D01*
X114256330Y-84770000D01*
X114251020Y-84716091D01*
X114235296Y-84664253D01*
X114209760Y-84616479D01*
X114175395Y-84574605D01*
X114133521Y-84540240D01*
X114085747Y-84514704D01*
X114033909Y-84498980D01*
X113980000Y-84493670D01*
X112354999Y-84493670D01*
X112354999Y-84175330D01*
X113152139Y-83378191D01*
X113166448Y-83366448D01*
X113213309Y-83309347D01*
X113248131Y-83244200D01*
X113269574Y-83173513D01*
X113275000Y-83118419D01*
X113275000Y-83118416D01*
X113276814Y-83100000D01*
X113275000Y-83081584D01*
X113275000Y-81018415D01*
X113276814Y-80999999D01*
X113274353Y-80975014D01*
X113269574Y-80926487D01*
X113248131Y-80855800D01*
X113230308Y-80822455D01*
X113213309Y-80790652D01*
X113178188Y-80747858D01*
X113166448Y-80733552D01*
X113152140Y-80721810D01*
X112478195Y-80047866D01*
X112466448Y-80033552D01*
X112409347Y-79986691D01*
X112344200Y-79951869D01*
X112273513Y-79930426D01*
X112218419Y-79925000D01*
X112218416Y-79925000D01*
X112200000Y-79923186D01*
X112181584Y-79925000D01*
X107526331Y-79925000D01*
X107526331Y-79750000D01*
X107521021Y-79696090D01*
X107505297Y-79644253D01*
X107495005Y-79624999D01*
X107505296Y-79605747D01*
X107521020Y-79553909D01*
X107526330Y-79500000D01*
X107526330Y-78500000D01*
X107521020Y-78446091D01*
X107505296Y-78394253D01*
X107495005Y-78375001D01*
X107505297Y-78355747D01*
X107508556Y-78345000D01*
X107775000Y-78345000D01*
X107775000Y-78895000D01*
X107793808Y-79035960D01*
X107839754Y-79170542D01*
X107911073Y-79293575D01*
X108005024Y-79400330D01*
X108117997Y-79486705D01*
X108245650Y-79549380D01*
X108361960Y-79581737D01*
X108475000Y-79525774D01*
X108475000Y-78345000D01*
X108525000Y-78345000D01*
X108525000Y-79525774D01*
X108638040Y-79581737D01*
X108754350Y-79549380D01*
X108882003Y-79486705D01*
X108994976Y-79400330D01*
X109088927Y-79293575D01*
X109160246Y-79170542D01*
X109206192Y-79035960D01*
X109225000Y-78895000D01*
X109225000Y-78345000D01*
X108525000Y-78345000D01*
X108475000Y-78345000D01*
X107775000Y-78345000D01*
X107508556Y-78345000D01*
X107521021Y-78303910D01*
X107526331Y-78250000D01*
X107526331Y-77745000D01*
X107775000Y-77745000D01*
X107775000Y-78295000D01*
X108475000Y-78295000D01*
X108475000Y-77114226D01*
X108525000Y-77114226D01*
X108525000Y-78295000D01*
X109225000Y-78295000D01*
X109225000Y-77745000D01*
X109206192Y-77604040D01*
X109160246Y-77469458D01*
X109088927Y-77346425D01*
X108994976Y-77239670D01*
X108882003Y-77153295D01*
X108754350Y-77090620D01*
X108638040Y-77058263D01*
X108525000Y-77114226D01*
X108475000Y-77114226D01*
X108361960Y-77058263D01*
X108245650Y-77090620D01*
X108117997Y-77153295D01*
X108005024Y-77239670D01*
X107911073Y-77346425D01*
X107839754Y-77469458D01*
X107793808Y-77604040D01*
X107775000Y-77745000D01*
X107526331Y-77745000D01*
X107526331Y-77700000D01*
X107523923Y-77675553D01*
X107523923Y-77650991D01*
X107518613Y-77597082D01*
X107499491Y-77500949D01*
X107483767Y-77449112D01*
X107446258Y-77358556D01*
X107420722Y-77310781D01*
X107366266Y-77229282D01*
X107331901Y-77187407D01*
X107262593Y-77118099D01*
X107220718Y-77083734D01*
X107139219Y-77029278D01*
X107091444Y-77003742D01*
X107000888Y-76966233D01*
X106949051Y-76950509D01*
X106852918Y-76931387D01*
X106799009Y-76926077D01*
X106774447Y-76926077D01*
X106750000Y-76923669D01*
X106250000Y-76923669D01*
X106225553Y-76926077D01*
X106200991Y-76926077D01*
X106147082Y-76931387D01*
X106050949Y-76950509D01*
X105999112Y-76966233D01*
X105908556Y-77003742D01*
X105860781Y-77029278D01*
X105779282Y-77083734D01*
X105737407Y-77118099D01*
X105668099Y-77187407D01*
X105633734Y-77229282D01*
X105579278Y-77310781D01*
X105571678Y-77325000D01*
X105018416Y-77325000D01*
X105000000Y-77323186D01*
X104981584Y-77325000D01*
X104981581Y-77325000D01*
X104926487Y-77330426D01*
X104855800Y-77351869D01*
X104790653Y-77386691D01*
X104733552Y-77433552D01*
X104721809Y-77447861D01*
X103715000Y-78454671D01*
X103715000Y-78058416D01*
X103716814Y-78040000D01*
X103714185Y-78013309D01*
X103709574Y-77966487D01*
X103688131Y-77895800D01*
X103675915Y-77872946D01*
X103653310Y-77830653D01*
X103626423Y-77797892D01*
X103606448Y-77773552D01*
X103592140Y-77761810D01*
X103278195Y-77447866D01*
X103266448Y-77433552D01*
X103209347Y-77386691D01*
X103144200Y-77351869D01*
X103073513Y-77330426D01*
X103018419Y-77325000D01*
X103018416Y-77325000D01*
X103000000Y-77323186D01*
X102981584Y-77325000D01*
X102828322Y-77325000D01*
X102820722Y-77310781D01*
X102766266Y-77229282D01*
X102731901Y-77187407D01*
X102662593Y-77118099D01*
X102620718Y-77083734D01*
X102539219Y-77029278D01*
X102491444Y-77003742D01*
X102400888Y-76966233D01*
X102349051Y-76950509D01*
X102252918Y-76931387D01*
X102199009Y-76926077D01*
X102174447Y-76926077D01*
X102150000Y-76923669D01*
X101650000Y-76923669D01*
X101625553Y-76926077D01*
X101600991Y-76926077D01*
X101547082Y-76931387D01*
X101450949Y-76950509D01*
X101399112Y-76966233D01*
X101308556Y-77003742D01*
X101260781Y-77029278D01*
X101179282Y-77083734D01*
X101137407Y-77118099D01*
X101068099Y-77187407D01*
X101033734Y-77229282D01*
X100979278Y-77310781D01*
X100953742Y-77358556D01*
X100916233Y-77449112D01*
X100900509Y-77500949D01*
X100881387Y-77597082D01*
X100876077Y-77650991D01*
X100876077Y-77675553D01*
X100873669Y-77700000D01*
X100873669Y-78250000D01*
X100878979Y-78303910D01*
X100894703Y-78355747D01*
X100904995Y-78375001D01*
X100894704Y-78394253D01*
X100878980Y-78446091D01*
X100873670Y-78500000D01*
X100873670Y-79500000D01*
X100878980Y-79553909D01*
X100894704Y-79605747D01*
X100904995Y-79624999D01*
X100894703Y-79644253D01*
X100878979Y-79696090D01*
X100873669Y-79750000D01*
X100873669Y-79925000D01*
X99818416Y-79925000D01*
X99800000Y-79923186D01*
X99781584Y-79925000D01*
X99781581Y-79925000D01*
X99726487Y-79930426D01*
X99655800Y-79951869D01*
X99635107Y-79962930D01*
X99590653Y-79986690D01*
X99557892Y-80013577D01*
X99533552Y-80033552D01*
X99521809Y-80047861D01*
X98847852Y-80721819D01*
X98833543Y-80733562D01*
X98821801Y-80747870D01*
X98786681Y-80790664D01*
X98751866Y-80855798D01*
X98751860Y-80855810D01*
X98750864Y-80859095D01*
X98730417Y-80926498D01*
X98723176Y-81000010D01*
X98724991Y-81018436D01*
X98724991Y-81343098D01*
X98697505Y-81301961D01*
X98470123Y-81135233D01*
X97275355Y-82330000D01*
X98470123Y-83524767D01*
X98697505Y-83358039D01*
X98724991Y-83309600D01*
X98724990Y-86444680D01*
X96297842Y-88871829D01*
X96283533Y-88883572D01*
X96271791Y-88897880D01*
X96236671Y-88940674D01*
X96201850Y-89005820D01*
X96180407Y-89076508D01*
X96173166Y-89150020D01*
X96174981Y-89168446D01*
X96174981Y-89931895D01*
X96149344Y-89900656D01*
X95978040Y-89760071D01*
X95782602Y-89655607D01*
X95570538Y-89591278D01*
X95405264Y-89575000D01*
X95294736Y-89575000D01*
X95129462Y-89591278D01*
X94917398Y-89655607D01*
X94721960Y-89760071D01*
X94550656Y-89900656D01*
X94410071Y-90071960D01*
X94305607Y-90267398D01*
X94241278Y-90479462D01*
X94219557Y-90700000D01*
X94175000Y-90700000D01*
X94175000Y-88160000D01*
X94219557Y-88160000D01*
X94241278Y-88380538D01*
X94305607Y-88592602D01*
X94410071Y-88788040D01*
X94550656Y-88959344D01*
X94721960Y-89099929D01*
X94917398Y-89204393D01*
X95129462Y-89268722D01*
X95294736Y-89285000D01*
X95405264Y-89285000D01*
X95570538Y-89268722D01*
X95782602Y-89204393D01*
X95978040Y-89099929D01*
X96149344Y-88959344D01*
X96289929Y-88788040D01*
X96394393Y-88592602D01*
X96458722Y-88380538D01*
X96480443Y-88160000D01*
X96458722Y-87939462D01*
X96394393Y-87727398D01*
X96289929Y-87531960D01*
X96149344Y-87360656D01*
X95978040Y-87220071D01*
X95782602Y-87115607D01*
X95570538Y-87051278D01*
X95405264Y-87035000D01*
X95294736Y-87035000D01*
X95129462Y-87051278D01*
X94917398Y-87115607D01*
X94721960Y-87220071D01*
X94550656Y-87360656D01*
X94410071Y-87531960D01*
X94305607Y-87727398D01*
X94241278Y-87939462D01*
X94219557Y-88160000D01*
X94175000Y-88160000D01*
X94175000Y-84770000D01*
X94223670Y-84770000D01*
X94223670Y-86470000D01*
X94228980Y-86523909D01*
X94244704Y-86575747D01*
X94270240Y-86623521D01*
X94304605Y-86665395D01*
X94346479Y-86699760D01*
X94394253Y-86725296D01*
X94446091Y-86741020D01*
X94500000Y-86746330D01*
X96200000Y-86746330D01*
X96253909Y-86741020D01*
X96305747Y-86725296D01*
X96353521Y-86699760D01*
X96395395Y-86665395D01*
X96429760Y-86623521D01*
X96455296Y-86575747D01*
X96471020Y-86523909D01*
X96476330Y-86470000D01*
X96476330Y-84770000D01*
X96471020Y-84716091D01*
X96455296Y-84664253D01*
X96429760Y-84616479D01*
X96395395Y-84574605D01*
X96353521Y-84540240D01*
X96305747Y-84514704D01*
X96253909Y-84498980D01*
X96200000Y-84493670D01*
X94500000Y-84493670D01*
X94446091Y-84498980D01*
X94394253Y-84514704D01*
X94346479Y-84540240D01*
X94304605Y-84574605D01*
X94270240Y-84616479D01*
X94244704Y-84664253D01*
X94228980Y-84716091D01*
X94223670Y-84770000D01*
X94175000Y-84770000D01*
X94175000Y-83560123D01*
X96045233Y-83560123D01*
X96211961Y-83787505D01*
X96516061Y-83960060D01*
X96847980Y-84069972D01*
X97194964Y-84113018D01*
X97543680Y-84087544D01*
X97880725Y-83994528D01*
X98193147Y-83837545D01*
X98268039Y-83787505D01*
X98434767Y-83560123D01*
X97240000Y-82365355D01*
X96045233Y-83560123D01*
X94175000Y-83560123D01*
X94175000Y-82284964D01*
X95456982Y-82284964D01*
X95482456Y-82633680D01*
X95575472Y-82970725D01*
X95732455Y-83283147D01*
X95782495Y-83358039D01*
X96009877Y-83524767D01*
X97204645Y-82330000D01*
X96009877Y-81135233D01*
X95782495Y-81301961D01*
X95609940Y-81606061D01*
X95500028Y-81937980D01*
X95456982Y-82284964D01*
X94175000Y-82284964D01*
X94175000Y-81099877D01*
X96045233Y-81099877D01*
X97240000Y-82294645D01*
X98434767Y-81099877D01*
X98268039Y-80872495D01*
X97963939Y-80699940D01*
X97632020Y-80590028D01*
X97285036Y-80546982D01*
X96936320Y-80572456D01*
X96599275Y-80665472D01*
X96286853Y-80822455D01*
X96211961Y-80872495D01*
X96045233Y-81099877D01*
X94175000Y-81099877D01*
X94175000Y-78345000D01*
X99125000Y-78345000D01*
X99125000Y-78895000D01*
X99143808Y-79035960D01*
X99189754Y-79170542D01*
X99261073Y-79293575D01*
X99355024Y-79400330D01*
X99467997Y-79486705D01*
X99595650Y-79549380D01*
X99711960Y-79581737D01*
X99825000Y-79525774D01*
X99825000Y-78345000D01*
X99875000Y-78345000D01*
X99875000Y-79525774D01*
X99988040Y-79581737D01*
X100104350Y-79549380D01*
X100232003Y-79486705D01*
X100344976Y-79400330D01*
X100438927Y-79293575D01*
X100510246Y-79170542D01*
X100556192Y-79035960D01*
X100575000Y-78895000D01*
X100575000Y-78345000D01*
X99875000Y-78345000D01*
X99825000Y-78345000D01*
X99125000Y-78345000D01*
X94175000Y-78345000D01*
X94175000Y-77745000D01*
X99125000Y-77745000D01*
X99125000Y-78295000D01*
X99825000Y-78295000D01*
X99825000Y-77114226D01*
X99875000Y-77114226D01*
X99875000Y-78295000D01*
X100575000Y-78295000D01*
X100575000Y-77745000D01*
X100556192Y-77604040D01*
X100510246Y-77469458D01*
X100438927Y-77346425D01*
X100344976Y-77239670D01*
X100232003Y-77153295D01*
X100104350Y-77090620D01*
X99988040Y-77058263D01*
X99875000Y-77114226D01*
X99825000Y-77114226D01*
X99711960Y-77058263D01*
X99595650Y-77090620D01*
X99467997Y-77153295D01*
X99355024Y-77239670D01*
X99261073Y-77346425D01*
X99189754Y-77469458D01*
X99143808Y-77604040D01*
X99125000Y-77745000D01*
X94175000Y-77745000D01*
X94175000Y-77518338D01*
X94188667Y-77378955D01*
X94223821Y-77262517D01*
X94280923Y-77155124D01*
X94357793Y-77060872D01*
X94451508Y-76983343D01*
X94558501Y-76925493D01*
X94674688Y-76889528D01*
X94832218Y-76872970D01*
X94842940Y-76870769D01*
X94874102Y-76867605D01*
X94931699Y-76850000D01*
X113569238Y-76850000D01*
X113586611Y-76857446D01*
X113586611Y-76857446D01*
G37*
X113586611Y-76857446D02*
X113658199Y-76872662D01*
X113663406Y-76873210D01*
X113821045Y-76888667D01*
X113937483Y-76923821D01*
X114044876Y-76980923D01*
X114139128Y-77057793D01*
X114216657Y-77151508D01*
X114274507Y-77258501D01*
X114310472Y-77374688D01*
X114325001Y-77512914D01*
X114325000Y-110281663D01*
X114311333Y-110421044D01*
X114276178Y-110537485D01*
X114219077Y-110644876D01*
X114142207Y-110739128D01*
X114048488Y-110816659D01*
X113941498Y-110874508D01*
X113825316Y-110910472D01*
X113687096Y-110925000D01*
X94818338Y-110925000D01*
X94678956Y-110911333D01*
X94562515Y-110876178D01*
X94455124Y-110819077D01*
X94360872Y-110742207D01*
X94283341Y-110648488D01*
X94225492Y-110541498D01*
X94189528Y-110425316D01*
X94175000Y-110287096D01*
X94175000Y-108680637D01*
X94243036Y-108680637D01*
X94250517Y-108718251D01*
X94318124Y-108928172D01*
X94425385Y-109120870D01*
X94568179Y-109288939D01*
X94741018Y-109425921D01*
X94937259Y-109526552D01*
X95149362Y-109586965D01*
X95325000Y-109535973D01*
X95325000Y-108505000D01*
X95375000Y-108505000D01*
X95375000Y-109535973D01*
X95550638Y-109586965D01*
X95762741Y-109526552D01*
X95958982Y-109425921D01*
X96131821Y-109288939D01*
X96274615Y-109120870D01*
X96381876Y-108928172D01*
X96449483Y-108718251D01*
X96456964Y-108680637D01*
X96405954Y-108505000D01*
X95375000Y-108505000D01*
X95325000Y-108505000D01*
X94294046Y-108505000D01*
X94243036Y-108680637D01*
X94175000Y-108680637D01*
X94175000Y-108279363D01*
X94243036Y-108279363D01*
X94294046Y-108455000D01*
X95325000Y-108455000D01*
X95325000Y-107424027D01*
X95375000Y-107424027D01*
X95375000Y-108455000D01*
X96405954Y-108455000D01*
X96456964Y-108279363D01*
X96449483Y-108241749D01*
X96381876Y-108031828D01*
X96274615Y-107839130D01*
X96131821Y-107671061D01*
X95958982Y-107534079D01*
X95762741Y-107433448D01*
X95550638Y-107373035D01*
X95375000Y-107424027D01*
X95325000Y-107424027D01*
X95149362Y-107373035D01*
X94937259Y-107433448D01*
X94741018Y-107534079D01*
X94568179Y-107671061D01*
X94425385Y-107839130D01*
X94318124Y-108031828D01*
X94250517Y-108241749D01*
X94243036Y-108279363D01*
X94175000Y-108279363D01*
X94175000Y-90700000D01*
X94219557Y-90700000D01*
X94241278Y-90920538D01*
X94305607Y-91132602D01*
X94410071Y-91328040D01*
X94550656Y-91499344D01*
X94721960Y-91639929D01*
X94917398Y-91744393D01*
X95129462Y-91808722D01*
X95294736Y-91825000D01*
X95405264Y-91825000D01*
X95570538Y-91808722D01*
X95782602Y-91744393D01*
X95978040Y-91639929D01*
X96149344Y-91499344D01*
X96174981Y-91468105D01*
X96174981Y-92471894D01*
X96149344Y-92440656D01*
X95978040Y-92300071D01*
X95782602Y-92195607D01*
X95570538Y-92131278D01*
X95405264Y-92115000D01*
X95294736Y-92115000D01*
X95129462Y-92131278D01*
X94917398Y-92195607D01*
X94721960Y-92300071D01*
X94550656Y-92440656D01*
X94410071Y-92611960D01*
X94305607Y-92807398D01*
X94241278Y-93019462D01*
X94219557Y-93240000D01*
X94241278Y-93460538D01*
X94305607Y-93672602D01*
X94410071Y-93868040D01*
X94550656Y-94039344D01*
X94721960Y-94179929D01*
X94917398Y-94284393D01*
X95129462Y-94348722D01*
X95294736Y-94365000D01*
X95405264Y-94365000D01*
X95570538Y-94348722D01*
X95782602Y-94284393D01*
X95978040Y-94179929D01*
X96149344Y-94039344D01*
X96174980Y-94008106D01*
X96174980Y-95011894D01*
X96149344Y-94980656D01*
X95978040Y-94840071D01*
X95782602Y-94735607D01*
X95570538Y-94671278D01*
X95405264Y-94655000D01*
X95294736Y-94655000D01*
X95129462Y-94671278D01*
X94917398Y-94735607D01*
X94721960Y-94840071D01*
X94550656Y-94980656D01*
X94410071Y-95151960D01*
X94305607Y-95347398D01*
X94241278Y-95559462D01*
X94219557Y-95780000D01*
X94241278Y-96000538D01*
X94305607Y-96212602D01*
X94410071Y-96408040D01*
X94550656Y-96579344D01*
X94721960Y-96719929D01*
X94917398Y-96824393D01*
X95129462Y-96888722D01*
X95294736Y-96905000D01*
X95405264Y-96905000D01*
X95570538Y-96888722D01*
X95782602Y-96824393D01*
X95978040Y-96719929D01*
X96149344Y-96579344D01*
X96174980Y-96548106D01*
X96174980Y-97551894D01*
X96149344Y-97520656D01*
X95978040Y-97380071D01*
X95782602Y-97275607D01*
X95570538Y-97211278D01*
X95405264Y-97195000D01*
X95294736Y-97195000D01*
X95129462Y-97211278D01*
X94917398Y-97275607D01*
X94721960Y-97380071D01*
X94550656Y-97520656D01*
X94410071Y-97691960D01*
X94305607Y-97887398D01*
X94241278Y-98099462D01*
X94219557Y-98320000D01*
X94241278Y-98540538D01*
X94305607Y-98752602D01*
X94410071Y-98948040D01*
X94550656Y-99119344D01*
X94721960Y-99259929D01*
X94917398Y-99364393D01*
X95129462Y-99428722D01*
X95294736Y-99445000D01*
X95405264Y-99445000D01*
X95570538Y-99428722D01*
X95782602Y-99364393D01*
X95978040Y-99259929D01*
X96149344Y-99119344D01*
X96289929Y-98948040D01*
X96318280Y-98895000D01*
X96461571Y-98895000D01*
X96479990Y-98896814D01*
X96498409Y-98895000D01*
X96553503Y-98889574D01*
X96624190Y-98868131D01*
X96624991Y-98867703D01*
X96624991Y-100144668D01*
X96376234Y-100393426D01*
X96289929Y-100231960D01*
X96149344Y-100060656D01*
X95978040Y-99920071D01*
X95782602Y-99815607D01*
X95570538Y-99751278D01*
X95405264Y-99735000D01*
X95294736Y-99735000D01*
X95129462Y-99751278D01*
X94917398Y-99815607D01*
X94721960Y-99920071D01*
X94550656Y-100060656D01*
X94410071Y-100231960D01*
X94305607Y-100427398D01*
X94241278Y-100639462D01*
X94219557Y-100860000D01*
X94241278Y-101080538D01*
X94305607Y-101292602D01*
X94410071Y-101488040D01*
X94550656Y-101659344D01*
X94721960Y-101799929D01*
X94917398Y-101904393D01*
X95129462Y-101968722D01*
X95294736Y-101985000D01*
X95405264Y-101985000D01*
X95570538Y-101968722D01*
X95782602Y-101904393D01*
X95978040Y-101799929D01*
X96149344Y-101659344D01*
X96289929Y-101488040D01*
X96322665Y-101426795D01*
X96384190Y-101408131D01*
X96449337Y-101373309D01*
X96506438Y-101326448D01*
X96518185Y-101312134D01*
X97025001Y-100805319D01*
X97025001Y-101394669D01*
X95966023Y-102453648D01*
X95782602Y-102355607D01*
X95570538Y-102291278D01*
X95405264Y-102275000D01*
X95294736Y-102275000D01*
X95129462Y-102291278D01*
X94917398Y-102355607D01*
X94721960Y-102460071D01*
X94550656Y-102600656D01*
X94410071Y-102771960D01*
X94305607Y-102967398D01*
X94241278Y-103179462D01*
X94219557Y-103400000D01*
X94241278Y-103620538D01*
X94305607Y-103832602D01*
X94410071Y-104028040D01*
X94550656Y-104199344D01*
X94721960Y-104339929D01*
X94917398Y-104444393D01*
X95129462Y-104508722D01*
X95294736Y-104525000D01*
X95405264Y-104525000D01*
X95570538Y-104508722D01*
X95782602Y-104444393D01*
X95978040Y-104339929D01*
X96149344Y-104199344D01*
X96289929Y-104028040D01*
X96394393Y-103832602D01*
X96458722Y-103620538D01*
X96480443Y-103400000D01*
X96458722Y-103179462D01*
X96421982Y-103058347D01*
X97425001Y-102055329D01*
X97425001Y-103534668D01*
X95966023Y-104993648D01*
X95782602Y-104895607D01*
X95570538Y-104831278D01*
X95405264Y-104815000D01*
X95294736Y-104815000D01*
X95129462Y-104831278D01*
X94917398Y-104895607D01*
X94721960Y-105000071D01*
X94550656Y-105140656D01*
X94410071Y-105311960D01*
X94305607Y-105507398D01*
X94241278Y-105719462D01*
X94219557Y-105940000D01*
X94241278Y-106160538D01*
X94305607Y-106372602D01*
X94410071Y-106568040D01*
X94550656Y-106739344D01*
X94721960Y-106879929D01*
X94917398Y-106984393D01*
X95129462Y-107048722D01*
X95294736Y-107065000D01*
X95405264Y-107065000D01*
X95570538Y-107048722D01*
X95782602Y-106984393D01*
X95978040Y-106879929D01*
X96149344Y-106739344D01*
X96289929Y-106568040D01*
X96394393Y-106372602D01*
X96458722Y-106160538D01*
X96480443Y-105940000D01*
X96458722Y-105719462D01*
X96421982Y-105598347D01*
X98052145Y-103968186D01*
X98066448Y-103956448D01*
X98078186Y-103942145D01*
X98078189Y-103942142D01*
X98113309Y-103899347D01*
X98148130Y-103834202D01*
X98148131Y-103834200D01*
X98169574Y-103763513D01*
X98175000Y-103708419D01*
X98175000Y-103708417D01*
X98176814Y-103690001D01*
X98175000Y-103671585D01*
X98175000Y-101840905D01*
X101300000Y-101840905D01*
X101300000Y-101959095D01*
X101323058Y-102075014D01*
X101368287Y-102184207D01*
X101433950Y-102282478D01*
X101517522Y-102366050D01*
X101525000Y-102371047D01*
X101525001Y-103781574D01*
X101523186Y-103800000D01*
X101526555Y-103834200D01*
X101530427Y-103873513D01*
X101538264Y-103899347D01*
X101551870Y-103944200D01*
X101583465Y-104003309D01*
X101586692Y-104009347D01*
X101633553Y-104066448D01*
X101647862Y-104078191D01*
X106301809Y-108732139D01*
X106313552Y-108746448D01*
X106343766Y-108771243D01*
X106370652Y-108793309D01*
X106435798Y-108828130D01*
X106435800Y-108828131D01*
X106506487Y-108849574D01*
X106561581Y-108855000D01*
X106561583Y-108855000D01*
X106579999Y-108856814D01*
X106598415Y-108855000D01*
X112068134Y-108855000D01*
X112085607Y-108912602D01*
X112190071Y-109108040D01*
X112330656Y-109279344D01*
X112501960Y-109419929D01*
X112697398Y-109524393D01*
X112909462Y-109588722D01*
X113074736Y-109605000D01*
X113185264Y-109605000D01*
X113350538Y-109588722D01*
X113562602Y-109524393D01*
X113758040Y-109419929D01*
X113929344Y-109279344D01*
X114069929Y-109108040D01*
X114174393Y-108912602D01*
X114238722Y-108700538D01*
X114260443Y-108480000D01*
X114238722Y-108259462D01*
X114174393Y-108047398D01*
X114069929Y-107851960D01*
X113929344Y-107680656D01*
X113758040Y-107540071D01*
X113562602Y-107435607D01*
X113350538Y-107371278D01*
X113185264Y-107355000D01*
X113074736Y-107355000D01*
X112909462Y-107371278D01*
X112697398Y-107435607D01*
X112501960Y-107540071D01*
X112330656Y-107680656D01*
X112190071Y-107851960D01*
X112085607Y-108047398D01*
X112068134Y-108105000D01*
X111495329Y-108105000D01*
X112644312Y-106956018D01*
X112697398Y-106984393D01*
X112909462Y-107048722D01*
X113074736Y-107065000D01*
X113185264Y-107065000D01*
X113350538Y-107048722D01*
X113562602Y-106984393D01*
X113758040Y-106879929D01*
X113929344Y-106739344D01*
X114069929Y-106568040D01*
X114174393Y-106372602D01*
X114238722Y-106160538D01*
X114260443Y-105940000D01*
X114238722Y-105719462D01*
X114174393Y-105507398D01*
X114069929Y-105311960D01*
X113929344Y-105140656D01*
X113758040Y-105000071D01*
X113562602Y-104895607D01*
X113350538Y-104831278D01*
X113185264Y-104815000D01*
X113074736Y-104815000D01*
X112909462Y-104831278D01*
X112697398Y-104895607D01*
X112501960Y-105000071D01*
X112330656Y-105140656D01*
X112275000Y-105208473D01*
X112275000Y-104785329D01*
X112378189Y-104682140D01*
X112644312Y-104416018D01*
X112697398Y-104444393D01*
X112909462Y-104508722D01*
X113074736Y-104525000D01*
X113185264Y-104525000D01*
X113350538Y-104508722D01*
X113562602Y-104444393D01*
X113758040Y-104339929D01*
X113929344Y-104199344D01*
X114069929Y-104028040D01*
X114174393Y-103832602D01*
X114238722Y-103620538D01*
X114260443Y-103400000D01*
X114238722Y-103179462D01*
X114174393Y-102967398D01*
X114069929Y-102771960D01*
X113929344Y-102600656D01*
X113758040Y-102460071D01*
X113562602Y-102355607D01*
X113350538Y-102291278D01*
X113185264Y-102275000D01*
X113074736Y-102275000D01*
X112909462Y-102291278D01*
X112697398Y-102355607D01*
X112501960Y-102460071D01*
X112330656Y-102600656D01*
X112190071Y-102771960D01*
X112085607Y-102967398D01*
X112021278Y-103179462D01*
X111999557Y-103400000D01*
X112021278Y-103620538D01*
X112085607Y-103832602D01*
X112113982Y-103885688D01*
X111875000Y-104124671D01*
X111875000Y-102855329D01*
X112796020Y-101934310D01*
X112909462Y-101968722D01*
X113074736Y-101985000D01*
X113185264Y-101985000D01*
X113350538Y-101968722D01*
X113562602Y-101904393D01*
X113758040Y-101799929D01*
X113929344Y-101659344D01*
X114069929Y-101488040D01*
X114174393Y-101292602D01*
X114238722Y-101080538D01*
X114260443Y-100860000D01*
X114238722Y-100639462D01*
X114174393Y-100427398D01*
X114069929Y-100231960D01*
X113929344Y-100060656D01*
X113758040Y-99920071D01*
X113562602Y-99815607D01*
X113350538Y-99751278D01*
X113185264Y-99735000D01*
X113074736Y-99735000D01*
X112909462Y-99751278D01*
X112697398Y-99815607D01*
X112519788Y-99910542D01*
X112993346Y-99436984D01*
X113074736Y-99445000D01*
X113185264Y-99445000D01*
X113350538Y-99428722D01*
X113562602Y-99364393D01*
X113758040Y-99259929D01*
X113929344Y-99119344D01*
X114069929Y-98948040D01*
X114174393Y-98752602D01*
X114238722Y-98540538D01*
X114260443Y-98320000D01*
X114238722Y-98099462D01*
X114174393Y-97887398D01*
X114069929Y-97691960D01*
X113929344Y-97520656D01*
X113758040Y-97380071D01*
X113562602Y-97275607D01*
X113350538Y-97211278D01*
X113185264Y-97195000D01*
X113074736Y-97195000D01*
X112909462Y-97211278D01*
X112697398Y-97275607D01*
X112501960Y-97380071D01*
X112330656Y-97520656D01*
X112190071Y-97691960D01*
X112085607Y-97887398D01*
X112021278Y-98099462D01*
X111999557Y-98320000D01*
X112021278Y-98540538D01*
X112085607Y-98752602D01*
X112190071Y-98948040D01*
X112294447Y-99075223D01*
X110875000Y-100494671D01*
X110875000Y-98855329D01*
X112857400Y-96872929D01*
X112909462Y-96888722D01*
X113074736Y-96905000D01*
X113185264Y-96905000D01*
X113350538Y-96888722D01*
X113562602Y-96824393D01*
X113758040Y-96719929D01*
X113929344Y-96579344D01*
X114069929Y-96408040D01*
X114174393Y-96212602D01*
X114238722Y-96000538D01*
X114260443Y-95780000D01*
X114238722Y-95559462D01*
X114174393Y-95347398D01*
X114069929Y-95151960D01*
X113929344Y-94980656D01*
X113758040Y-94840071D01*
X113562602Y-94735607D01*
X113350538Y-94671278D01*
X113185264Y-94655000D01*
X113074736Y-94655000D01*
X112909462Y-94671278D01*
X112697398Y-94735607D01*
X112501960Y-94840071D01*
X112330656Y-94980656D01*
X112190071Y-95151960D01*
X112085607Y-95347398D01*
X112021278Y-95559462D01*
X111999557Y-95780000D01*
X112021278Y-96000538D01*
X112085607Y-96212602D01*
X112190071Y-96408040D01*
X112222327Y-96447344D01*
X110247866Y-98421805D01*
X110233552Y-98433552D01*
X110186691Y-98490654D01*
X110151869Y-98555801D01*
X110130426Y-98626488D01*
X110126712Y-98664199D01*
X110123186Y-98700000D01*
X110125000Y-98718416D01*
X110125001Y-105594669D01*
X109944671Y-105775000D01*
X109604456Y-105775000D01*
X109566050Y-105717522D01*
X109482478Y-105633950D01*
X109384207Y-105568287D01*
X109275014Y-105523058D01*
X109159095Y-105500000D01*
X109040905Y-105500000D01*
X108924986Y-105523058D01*
X108815793Y-105568287D01*
X108717522Y-105633950D01*
X108633950Y-105717522D01*
X108568287Y-105815793D01*
X108523058Y-105924986D01*
X108500000Y-106040905D01*
X108500000Y-106159095D01*
X108523058Y-106275014D01*
X108568287Y-106384207D01*
X108595544Y-106425000D01*
X108500000Y-106425000D01*
X108500000Y-106340905D01*
X108476942Y-106224986D01*
X108431713Y-106115793D01*
X108366050Y-106017522D01*
X108282478Y-105933950D01*
X108184207Y-105868287D01*
X108075014Y-105823058D01*
X107959095Y-105800000D01*
X107840905Y-105800000D01*
X107724986Y-105823058D01*
X107615793Y-105868287D01*
X107517522Y-105933950D01*
X107433950Y-106017522D01*
X107368287Y-106115793D01*
X107323058Y-106224986D01*
X107300000Y-106340905D01*
X107300000Y-106459095D01*
X107323058Y-106575014D01*
X107368287Y-106684207D01*
X107433950Y-106782478D01*
X107476472Y-106825000D01*
X107355331Y-106825000D01*
X104675000Y-104144671D01*
X104675000Y-102456237D01*
X104734207Y-102431713D01*
X104832478Y-102366050D01*
X104916050Y-102282478D01*
X104981713Y-102184207D01*
X105026942Y-102075014D01*
X105050000Y-101959095D01*
X105050000Y-101840905D01*
X105026942Y-101724986D01*
X104981713Y-101615793D01*
X104916050Y-101517522D01*
X104832478Y-101433950D01*
X104734207Y-101368287D01*
X104625014Y-101323058D01*
X104509095Y-101300000D01*
X104390905Y-101300000D01*
X104274986Y-101323058D01*
X104165793Y-101368287D01*
X104067522Y-101433950D01*
X104000000Y-101501472D01*
X103982478Y-101483950D01*
X103884207Y-101418287D01*
X103775014Y-101373058D01*
X103659095Y-101350000D01*
X103540905Y-101350000D01*
X103424986Y-101373058D01*
X103315793Y-101418287D01*
X103217522Y-101483950D01*
X103175000Y-101526472D01*
X103132478Y-101483950D01*
X103034207Y-101418287D01*
X102925014Y-101373058D01*
X102809095Y-101350000D01*
X102690905Y-101350000D01*
X102574986Y-101373058D01*
X102465793Y-101418287D01*
X102367522Y-101483950D01*
X102350000Y-101501472D01*
X102282478Y-101433950D01*
X102184207Y-101368287D01*
X102075014Y-101323058D01*
X101959095Y-101300000D01*
X101840905Y-101300000D01*
X101724986Y-101323058D01*
X101615793Y-101368287D01*
X101517522Y-101433950D01*
X101433950Y-101517522D01*
X101368287Y-101615793D01*
X101323058Y-101724986D01*
X101300000Y-101840905D01*
X98175000Y-101840905D01*
X98175000Y-99490905D01*
X98700000Y-99490905D01*
X98700000Y-99609095D01*
X98723058Y-99725014D01*
X98768287Y-99834207D01*
X98833950Y-99932478D01*
X98917522Y-100016050D01*
X99015793Y-100081713D01*
X99124986Y-100126942D01*
X99240905Y-100150000D01*
X99359095Y-100150000D01*
X99367916Y-100148245D01*
X99921809Y-100702139D01*
X99933552Y-100716448D01*
X99990653Y-100763309D01*
X100055800Y-100798131D01*
X100126487Y-100819574D01*
X100181581Y-100825000D01*
X100181583Y-100825000D01*
X100199999Y-100826814D01*
X100218415Y-100825000D01*
X104944671Y-100825000D01*
X105495194Y-101375524D01*
X105468287Y-101415793D01*
X105423058Y-101524986D01*
X105400000Y-101640905D01*
X105400000Y-101759095D01*
X105423058Y-101875014D01*
X105468287Y-101984207D01*
X105533950Y-102082478D01*
X105617522Y-102166050D01*
X105715793Y-102231713D01*
X105824986Y-102276942D01*
X105940905Y-102300000D01*
X106059095Y-102300000D01*
X106175014Y-102276942D01*
X106284207Y-102231713D01*
X106382478Y-102166050D01*
X106466050Y-102082478D01*
X106531713Y-101984207D01*
X106576942Y-101875014D01*
X106600000Y-101759095D01*
X106600000Y-101640905D01*
X106576942Y-101524986D01*
X106531713Y-101415793D01*
X106466050Y-101317522D01*
X106382478Y-101233950D01*
X106350109Y-101212322D01*
X106348131Y-101205800D01*
X106313309Y-101140653D01*
X106266448Y-101083552D01*
X106252140Y-101071810D01*
X105378195Y-100197866D01*
X105366448Y-100183552D01*
X105309347Y-100136691D01*
X105244200Y-100101869D01*
X105173513Y-100080426D01*
X105118419Y-100075000D01*
X105118416Y-100075000D01*
X105100000Y-100073186D01*
X105081584Y-100075000D01*
X100355330Y-100075000D01*
X99898245Y-99617916D01*
X99900000Y-99609095D01*
X99900000Y-99490905D01*
X99876942Y-99374986D01*
X99831713Y-99265793D01*
X99766050Y-99167522D01*
X99682478Y-99083950D01*
X99584207Y-99018287D01*
X99475014Y-98973058D01*
X99359095Y-98950000D01*
X99240905Y-98950000D01*
X99124986Y-98973058D01*
X99015793Y-99018287D01*
X98917522Y-99083950D01*
X98833950Y-99167522D01*
X98768287Y-99265793D01*
X98723058Y-99374986D01*
X98700000Y-99490905D01*
X98175000Y-99490905D01*
X98175000Y-93200000D01*
X99123186Y-93200000D01*
X99125000Y-93218416D01*
X99125001Y-98081574D01*
X99123186Y-98100000D01*
X99130427Y-98173512D01*
X99151870Y-98244200D01*
X99186691Y-98309346D01*
X99198049Y-98323186D01*
X99233553Y-98366448D01*
X99247861Y-98378190D01*
X99301755Y-98432084D01*
X99300000Y-98440905D01*
X99300000Y-98559095D01*
X99323058Y-98675014D01*
X99368287Y-98784207D01*
X99433950Y-98882478D01*
X99517522Y-98966050D01*
X99615793Y-99031713D01*
X99724986Y-99076942D01*
X99840905Y-99100000D01*
X99959095Y-99100000D01*
X100075014Y-99076942D01*
X100184207Y-99031713D01*
X100282478Y-98966050D01*
X100366050Y-98882478D01*
X100431713Y-98784207D01*
X100476942Y-98675014D01*
X100500000Y-98559095D01*
X100500000Y-98530330D01*
X100701755Y-98732084D01*
X100700000Y-98740905D01*
X100700000Y-98859095D01*
X100723058Y-98975014D01*
X100768287Y-99084207D01*
X100833950Y-99182478D01*
X100917522Y-99266050D01*
X101015793Y-99331713D01*
X101124986Y-99376942D01*
X101240905Y-99400000D01*
X101359095Y-99400000D01*
X101475014Y-99376942D01*
X101584207Y-99331713D01*
X101682478Y-99266050D01*
X101766050Y-99182478D01*
X101831713Y-99084207D01*
X101876942Y-98975014D01*
X101900000Y-98859095D01*
X101900000Y-98740905D01*
X101876942Y-98624986D01*
X101831713Y-98515793D01*
X101766050Y-98417522D01*
X101682478Y-98333950D01*
X101584207Y-98268287D01*
X101475014Y-98223058D01*
X101359095Y-98200000D01*
X101240905Y-98200000D01*
X101232084Y-98201755D01*
X100575000Y-97544671D01*
X100575000Y-94840905D01*
X106500000Y-94840905D01*
X106500000Y-94959095D01*
X106523058Y-95075014D01*
X106568287Y-95184207D01*
X106633950Y-95282478D01*
X106717522Y-95366050D01*
X106725001Y-95371047D01*
X106725000Y-101405746D01*
X106718287Y-101415793D01*
X106673058Y-101524986D01*
X106650000Y-101640905D01*
X106650000Y-101759095D01*
X106673058Y-101875014D01*
X106718287Y-101984207D01*
X106783950Y-102082478D01*
X106867522Y-102166050D01*
X106965793Y-102231713D01*
X107074986Y-102276942D01*
X107190905Y-102300000D01*
X107309095Y-102300000D01*
X107425014Y-102276942D01*
X107526619Y-102234856D01*
X107530426Y-102273512D01*
X107551869Y-102344199D01*
X107586691Y-102409346D01*
X107633552Y-102466448D01*
X107647866Y-102478195D01*
X108321809Y-103152139D01*
X108333552Y-103166448D01*
X108349410Y-103179462D01*
X108390652Y-103213309D01*
X108455798Y-103248130D01*
X108455800Y-103248131D01*
X108525033Y-103269133D01*
X108533950Y-103282478D01*
X108617522Y-103366050D01*
X108715793Y-103431713D01*
X108824986Y-103476942D01*
X108940905Y-103500000D01*
X109059095Y-103500000D01*
X109175014Y-103476942D01*
X109284207Y-103431713D01*
X109382478Y-103366050D01*
X109466050Y-103282478D01*
X109531713Y-103184207D01*
X109576942Y-103075014D01*
X109600000Y-102959095D01*
X109600000Y-102840905D01*
X109576942Y-102724986D01*
X109531713Y-102615793D01*
X109466050Y-102517522D01*
X109382478Y-102433950D01*
X109284207Y-102368287D01*
X109175014Y-102323058D01*
X109059095Y-102300000D01*
X108940905Y-102300000D01*
X108824986Y-102323058D01*
X108715793Y-102368287D01*
X108645551Y-102415221D01*
X108527704Y-102297374D01*
X108540905Y-102300000D01*
X108659095Y-102300000D01*
X108775014Y-102276942D01*
X108884207Y-102231713D01*
X108982478Y-102166050D01*
X109066050Y-102082478D01*
X109131713Y-101984207D01*
X109176942Y-101875014D01*
X109200000Y-101759095D01*
X109200000Y-101640905D01*
X109176942Y-101524986D01*
X109131713Y-101415793D01*
X109066050Y-101317522D01*
X108982478Y-101233950D01*
X108975000Y-101228953D01*
X108975000Y-95255329D01*
X110615331Y-93615000D01*
X112068134Y-93615000D01*
X112085607Y-93672602D01*
X112190071Y-93868040D01*
X112330656Y-94039344D01*
X112501960Y-94179929D01*
X112697398Y-94284393D01*
X112909462Y-94348722D01*
X113074736Y-94365000D01*
X113185264Y-94365000D01*
X113350538Y-94348722D01*
X113562602Y-94284393D01*
X113758040Y-94179929D01*
X113929344Y-94039344D01*
X114069929Y-93868040D01*
X114174393Y-93672602D01*
X114238722Y-93460538D01*
X114260443Y-93240000D01*
X114238722Y-93019462D01*
X114174393Y-92807398D01*
X114069929Y-92611960D01*
X113929344Y-92440656D01*
X113758040Y-92300071D01*
X113562602Y-92195607D01*
X113350538Y-92131278D01*
X113185264Y-92115000D01*
X113074736Y-92115000D01*
X112909462Y-92131278D01*
X112697398Y-92195607D01*
X112501960Y-92300071D01*
X112330656Y-92440656D01*
X112190071Y-92611960D01*
X112085607Y-92807398D01*
X112068134Y-92865000D01*
X110765330Y-92865000D01*
X112240654Y-91389676D01*
X112330656Y-91499344D01*
X112501960Y-91639929D01*
X112697398Y-91744393D01*
X112909462Y-91808722D01*
X113074736Y-91825000D01*
X113185264Y-91825000D01*
X113350538Y-91808722D01*
X113562602Y-91744393D01*
X113758040Y-91639929D01*
X113929344Y-91499344D01*
X114069929Y-91328040D01*
X114174393Y-91132602D01*
X114238722Y-90920538D01*
X114260443Y-90700000D01*
X114238722Y-90479462D01*
X114174393Y-90267398D01*
X114069929Y-90071960D01*
X113929344Y-89900656D01*
X113758040Y-89760071D01*
X113562602Y-89655607D01*
X113350538Y-89591278D01*
X113185264Y-89575000D01*
X113074736Y-89575000D01*
X112909462Y-89591278D01*
X112697398Y-89655607D01*
X112501960Y-89760071D01*
X112330656Y-89900656D01*
X112190071Y-90071960D01*
X112085607Y-90267398D01*
X112021278Y-90479462D01*
X112013747Y-90555923D01*
X107700000Y-94869671D01*
X107700000Y-94840905D01*
X107676942Y-94724986D01*
X107631713Y-94615793D01*
X107566050Y-94517522D01*
X107482478Y-94433950D01*
X107384207Y-94368287D01*
X107275014Y-94323058D01*
X107159095Y-94300000D01*
X107040905Y-94300000D01*
X106924986Y-94323058D01*
X106815793Y-94368287D01*
X106717522Y-94433950D01*
X106633950Y-94517522D01*
X106568287Y-94615793D01*
X106523058Y-94724986D01*
X106500000Y-94840905D01*
X100575000Y-94840905D01*
X100575000Y-93971047D01*
X100582478Y-93966050D01*
X100666050Y-93882478D01*
X100671047Y-93875000D01*
X107028953Y-93875000D01*
X107033950Y-93882478D01*
X107117522Y-93966050D01*
X107215793Y-94031713D01*
X107324986Y-94076942D01*
X107440905Y-94100000D01*
X107559095Y-94100000D01*
X107675014Y-94076942D01*
X107784207Y-94031713D01*
X107882478Y-93966050D01*
X107966050Y-93882478D01*
X108031713Y-93784207D01*
X108076942Y-93675014D01*
X108100000Y-93559095D01*
X108100000Y-93440905D01*
X108076942Y-93324986D01*
X108031713Y-93215793D01*
X107966050Y-93117522D01*
X107882478Y-93033950D01*
X107784207Y-92968287D01*
X107675014Y-92923058D01*
X107559095Y-92900000D01*
X107440905Y-92900000D01*
X107324986Y-92923058D01*
X107215793Y-92968287D01*
X107117522Y-93033950D01*
X107033950Y-93117522D01*
X107028953Y-93125000D01*
X100671047Y-93125000D01*
X100666050Y-93117522D01*
X100582478Y-93033950D01*
X100484207Y-92968287D01*
X100375014Y-92923058D01*
X100318511Y-92911819D01*
X101705330Y-91525000D01*
X102128953Y-91525000D01*
X102133950Y-91532478D01*
X102217522Y-91616050D01*
X102315793Y-91681713D01*
X102424986Y-91726942D01*
X102540905Y-91750000D01*
X102640905Y-91750000D01*
X102524986Y-91773058D01*
X102415793Y-91818287D01*
X102317522Y-91883950D01*
X102233950Y-91967522D01*
X102168287Y-92065793D01*
X102123058Y-92174986D01*
X102100000Y-92290905D01*
X102100000Y-92409095D01*
X102123058Y-92525014D01*
X102168287Y-92634207D01*
X102233950Y-92732478D01*
X102317522Y-92816050D01*
X102415793Y-92881713D01*
X102524986Y-92926942D01*
X102640905Y-92950000D01*
X102759095Y-92950000D01*
X102875014Y-92926942D01*
X102984207Y-92881713D01*
X103082478Y-92816050D01*
X103166050Y-92732478D01*
X103204456Y-92675000D01*
X105531584Y-92675000D01*
X105550000Y-92676814D01*
X105568416Y-92675000D01*
X105568419Y-92675000D01*
X105623513Y-92669574D01*
X105694200Y-92648131D01*
X105759347Y-92613309D01*
X105816448Y-92566448D01*
X105828195Y-92552134D01*
X106732084Y-91648245D01*
X106740905Y-91650000D01*
X106859095Y-91650000D01*
X106975014Y-91626942D01*
X107084207Y-91581713D01*
X107182478Y-91516050D01*
X107223528Y-91475000D01*
X110171584Y-91475000D01*
X110190000Y-91476814D01*
X110208416Y-91475000D01*
X110208419Y-91475000D01*
X110263513Y-91469574D01*
X110334200Y-91448131D01*
X110399347Y-91413309D01*
X110456448Y-91366448D01*
X110468195Y-91352134D01*
X112644312Y-89176018D01*
X112697398Y-89204393D01*
X112909462Y-89268722D01*
X113074736Y-89285000D01*
X113185264Y-89285000D01*
X113350538Y-89268722D01*
X113562602Y-89204393D01*
X113758040Y-89099929D01*
X113929344Y-88959344D01*
X114069929Y-88788040D01*
X114174393Y-88592602D01*
X114238722Y-88380538D01*
X114260443Y-88160000D01*
X114238722Y-87939462D01*
X114174393Y-87727398D01*
X114069929Y-87531960D01*
X113929344Y-87360656D01*
X113758040Y-87220071D01*
X113562602Y-87115607D01*
X113350538Y-87051278D01*
X113185264Y-87035000D01*
X113074736Y-87035000D01*
X112909462Y-87051278D01*
X112697398Y-87115607D01*
X112501960Y-87220071D01*
X112330656Y-87360656D01*
X112190071Y-87531960D01*
X112085607Y-87727398D01*
X112021278Y-87939462D01*
X111999557Y-88160000D01*
X112021278Y-88380538D01*
X112085607Y-88592602D01*
X112113982Y-88645688D01*
X110034671Y-90725000D01*
X107304456Y-90725000D01*
X107266050Y-90667522D01*
X107182478Y-90583950D01*
X107084207Y-90518287D01*
X106975014Y-90473058D01*
X106859095Y-90450000D01*
X106740905Y-90450000D01*
X106624986Y-90473058D01*
X106515793Y-90518287D01*
X106417522Y-90583950D01*
X106333950Y-90667522D01*
X106268287Y-90765793D01*
X106223058Y-90874986D01*
X106200000Y-90990905D01*
X106200000Y-91109095D01*
X106201755Y-91117916D01*
X105394671Y-91925000D01*
X103123528Y-91925000D01*
X103082478Y-91883950D01*
X102984207Y-91818287D01*
X102875014Y-91773058D01*
X102759095Y-91750000D01*
X102659095Y-91750000D01*
X102775014Y-91726942D01*
X102884207Y-91681713D01*
X102982478Y-91616050D01*
X103066050Y-91532478D01*
X103074967Y-91519133D01*
X103144200Y-91498131D01*
X103209347Y-91463309D01*
X103266448Y-91416448D01*
X103278195Y-91402134D01*
X104605330Y-90075000D01*
X107053164Y-90075000D01*
X107073058Y-90175014D01*
X107118287Y-90284207D01*
X107183950Y-90382478D01*
X107267522Y-90466050D01*
X107365793Y-90531713D01*
X107474986Y-90576942D01*
X107590905Y-90600000D01*
X107709095Y-90600000D01*
X107825014Y-90576942D01*
X107934207Y-90531713D01*
X108032478Y-90466050D01*
X108116050Y-90382478D01*
X108181713Y-90284207D01*
X108226942Y-90175014D01*
X108250000Y-90059095D01*
X108250000Y-89940905D01*
X108226942Y-89824986D01*
X108181713Y-89715793D01*
X108116050Y-89617522D01*
X108032478Y-89533950D01*
X107934207Y-89468287D01*
X107825014Y-89423058D01*
X107709095Y-89400000D01*
X107590905Y-89400000D01*
X107578557Y-89402456D01*
X107559347Y-89386691D01*
X107494200Y-89351869D01*
X107423513Y-89330426D01*
X107368419Y-89325000D01*
X107368416Y-89325000D01*
X107350000Y-89323186D01*
X107331584Y-89325000D01*
X104468416Y-89325000D01*
X104450000Y-89323186D01*
X104431584Y-89325000D01*
X104431581Y-89325000D01*
X104376487Y-89330426D01*
X104305800Y-89351869D01*
X104291774Y-89359366D01*
X104240653Y-89386690D01*
X104222158Y-89401869D01*
X104183552Y-89433552D01*
X104171809Y-89447861D01*
X102954449Y-90665222D01*
X102884207Y-90618287D01*
X102775014Y-90573058D01*
X102659095Y-90550000D01*
X102540905Y-90550000D01*
X102424986Y-90573058D01*
X102315793Y-90618287D01*
X102217522Y-90683950D01*
X102133950Y-90767522D01*
X102128953Y-90775000D01*
X101568416Y-90775000D01*
X101550000Y-90773186D01*
X101531584Y-90775000D01*
X101531581Y-90775000D01*
X101476487Y-90780426D01*
X101405800Y-90801869D01*
X101340653Y-90836691D01*
X101283552Y-90883552D01*
X101271810Y-90897860D01*
X99247866Y-92921805D01*
X99233552Y-92933552D01*
X99186691Y-92990654D01*
X99151869Y-93055801D01*
X99130426Y-93126488D01*
X99126487Y-93166487D01*
X99123186Y-93200000D01*
X98175000Y-93200000D01*
X98175000Y-89905329D01*
X98855330Y-89225000D01*
X101194671Y-89225000D01*
X101621809Y-89652139D01*
X101633552Y-89666448D01*
X101655192Y-89684207D01*
X101690652Y-89713309D01*
X101724837Y-89731581D01*
X101755800Y-89748131D01*
X101826487Y-89769574D01*
X101881581Y-89775000D01*
X101881583Y-89775000D01*
X101899999Y-89776814D01*
X101918415Y-89775000D01*
X101928953Y-89775000D01*
X101933950Y-89782478D01*
X102017522Y-89866050D01*
X102115793Y-89931713D01*
X102224986Y-89976942D01*
X102340905Y-90000000D01*
X102459095Y-90000000D01*
X102575014Y-89976942D01*
X102684207Y-89931713D01*
X102782478Y-89866050D01*
X102866050Y-89782478D01*
X102931713Y-89684207D01*
X102976942Y-89575014D01*
X103000000Y-89459095D01*
X103000000Y-89340905D01*
X102976942Y-89224986D01*
X102931713Y-89115793D01*
X102866050Y-89017522D01*
X102782478Y-88933950D01*
X102684207Y-88868287D01*
X102575014Y-88823058D01*
X102533690Y-88814838D01*
X102566050Y-88782478D01*
X102631713Y-88684207D01*
X102676942Y-88575014D01*
X102700000Y-88459095D01*
X102700000Y-88340905D01*
X102676942Y-88224986D01*
X102631713Y-88115793D01*
X102604456Y-88075000D01*
X109568333Y-88075000D01*
X109562084Y-88086691D01*
X109551870Y-88105800D01*
X109535429Y-88160000D01*
X109530427Y-88176488D01*
X109523186Y-88250000D01*
X109525001Y-88268426D01*
X109525000Y-89228953D01*
X109517522Y-89233950D01*
X109433950Y-89317522D01*
X109368287Y-89415793D01*
X109323058Y-89524986D01*
X109300000Y-89640905D01*
X109300000Y-89759095D01*
X109323058Y-89875014D01*
X109368287Y-89984207D01*
X109433950Y-90082478D01*
X109517522Y-90166050D01*
X109615793Y-90231713D01*
X109724986Y-90276942D01*
X109840905Y-90300000D01*
X109959095Y-90300000D01*
X110075014Y-90276942D01*
X110184207Y-90231713D01*
X110282478Y-90166050D01*
X110366050Y-90082478D01*
X110431713Y-89984207D01*
X110476942Y-89875014D01*
X110500000Y-89759095D01*
X110500000Y-89640905D01*
X110476942Y-89524986D01*
X110431713Y-89415793D01*
X110366050Y-89317522D01*
X110282478Y-89233950D01*
X110275000Y-89228953D01*
X110275000Y-88405329D01*
X112053201Y-86627129D01*
X112084605Y-86665395D01*
X112126479Y-86699760D01*
X112174253Y-86725296D01*
X112226091Y-86741020D01*
X112280000Y-86746330D01*
X113980000Y-86746330D01*
X114033909Y-86741020D01*
X114085747Y-86725296D01*
X114133521Y-86699760D01*
X114175395Y-86665395D01*
X114209760Y-86623521D01*
X114235296Y-86575747D01*
X114251020Y-86523909D01*
X114256330Y-86470000D01*
X114256330Y-84770000D01*
X114251020Y-84716091D01*
X114235296Y-84664253D01*
X114209760Y-84616479D01*
X114175395Y-84574605D01*
X114133521Y-84540240D01*
X114085747Y-84514704D01*
X114033909Y-84498980D01*
X113980000Y-84493670D01*
X112354999Y-84493670D01*
X112354999Y-84175330D01*
X113152139Y-83378191D01*
X113166448Y-83366448D01*
X113213309Y-83309347D01*
X113248131Y-83244200D01*
X113269574Y-83173513D01*
X113275000Y-83118419D01*
X113275000Y-83118416D01*
X113276814Y-83100000D01*
X113275000Y-83081584D01*
X113275000Y-81018415D01*
X113276814Y-80999999D01*
X113274353Y-80975014D01*
X113269574Y-80926487D01*
X113248131Y-80855800D01*
X113230308Y-80822455D01*
X113213309Y-80790652D01*
X113178188Y-80747858D01*
X113166448Y-80733552D01*
X113152140Y-80721810D01*
X112478195Y-80047866D01*
X112466448Y-80033552D01*
X112409347Y-79986691D01*
X112344200Y-79951869D01*
X112273513Y-79930426D01*
X112218419Y-79925000D01*
X112218416Y-79925000D01*
X112200000Y-79923186D01*
X112181584Y-79925000D01*
X107526331Y-79925000D01*
X107526331Y-79750000D01*
X107521021Y-79696090D01*
X107505297Y-79644253D01*
X107495005Y-79624999D01*
X107505296Y-79605747D01*
X107521020Y-79553909D01*
X107526330Y-79500000D01*
X107526330Y-78500000D01*
X107521020Y-78446091D01*
X107505296Y-78394253D01*
X107495005Y-78375001D01*
X107505297Y-78355747D01*
X107508556Y-78345000D01*
X107775000Y-78345000D01*
X107775000Y-78895000D01*
X107793808Y-79035960D01*
X107839754Y-79170542D01*
X107911073Y-79293575D01*
X108005024Y-79400330D01*
X108117997Y-79486705D01*
X108245650Y-79549380D01*
X108361960Y-79581737D01*
X108475000Y-79525774D01*
X108475000Y-78345000D01*
X108525000Y-78345000D01*
X108525000Y-79525774D01*
X108638040Y-79581737D01*
X108754350Y-79549380D01*
X108882003Y-79486705D01*
X108994976Y-79400330D01*
X109088927Y-79293575D01*
X109160246Y-79170542D01*
X109206192Y-79035960D01*
X109225000Y-78895000D01*
X109225000Y-78345000D01*
X108525000Y-78345000D01*
X108475000Y-78345000D01*
X107775000Y-78345000D01*
X107508556Y-78345000D01*
X107521021Y-78303910D01*
X107526331Y-78250000D01*
X107526331Y-77745000D01*
X107775000Y-77745000D01*
X107775000Y-78295000D01*
X108475000Y-78295000D01*
X108475000Y-77114226D01*
X108525000Y-77114226D01*
X108525000Y-78295000D01*
X109225000Y-78295000D01*
X109225000Y-77745000D01*
X109206192Y-77604040D01*
X109160246Y-77469458D01*
X109088927Y-77346425D01*
X108994976Y-77239670D01*
X108882003Y-77153295D01*
X108754350Y-77090620D01*
X108638040Y-77058263D01*
X108525000Y-77114226D01*
X108475000Y-77114226D01*
X108361960Y-77058263D01*
X108245650Y-77090620D01*
X108117997Y-77153295D01*
X108005024Y-77239670D01*
X107911073Y-77346425D01*
X107839754Y-77469458D01*
X107793808Y-77604040D01*
X107775000Y-77745000D01*
X107526331Y-77745000D01*
X107526331Y-77700000D01*
X107523923Y-77675553D01*
X107523923Y-77650991D01*
X107518613Y-77597082D01*
X107499491Y-77500949D01*
X107483767Y-77449112D01*
X107446258Y-77358556D01*
X107420722Y-77310781D01*
X107366266Y-77229282D01*
X107331901Y-77187407D01*
X107262593Y-77118099D01*
X107220718Y-77083734D01*
X107139219Y-77029278D01*
X107091444Y-77003742D01*
X107000888Y-76966233D01*
X106949051Y-76950509D01*
X106852918Y-76931387D01*
X106799009Y-76926077D01*
X106774447Y-76926077D01*
X106750000Y-76923669D01*
X106250000Y-76923669D01*
X106225553Y-76926077D01*
X106200991Y-76926077D01*
X106147082Y-76931387D01*
X106050949Y-76950509D01*
X105999112Y-76966233D01*
X105908556Y-77003742D01*
X105860781Y-77029278D01*
X105779282Y-77083734D01*
X105737407Y-77118099D01*
X105668099Y-77187407D01*
X105633734Y-77229282D01*
X105579278Y-77310781D01*
X105571678Y-77325000D01*
X105018416Y-77325000D01*
X105000000Y-77323186D01*
X104981584Y-77325000D01*
X104981581Y-77325000D01*
X104926487Y-77330426D01*
X104855800Y-77351869D01*
X104790653Y-77386691D01*
X104733552Y-77433552D01*
X104721809Y-77447861D01*
X103715000Y-78454671D01*
X103715000Y-78058416D01*
X103716814Y-78040000D01*
X103714185Y-78013309D01*
X103709574Y-77966487D01*
X103688131Y-77895800D01*
X103675915Y-77872946D01*
X103653310Y-77830653D01*
X103626423Y-77797892D01*
X103606448Y-77773552D01*
X103592140Y-77761810D01*
X103278195Y-77447866D01*
X103266448Y-77433552D01*
X103209347Y-77386691D01*
X103144200Y-77351869D01*
X103073513Y-77330426D01*
X103018419Y-77325000D01*
X103018416Y-77325000D01*
X103000000Y-77323186D01*
X102981584Y-77325000D01*
X102828322Y-77325000D01*
X102820722Y-77310781D01*
X102766266Y-77229282D01*
X102731901Y-77187407D01*
X102662593Y-77118099D01*
X102620718Y-77083734D01*
X102539219Y-77029278D01*
X102491444Y-77003742D01*
X102400888Y-76966233D01*
X102349051Y-76950509D01*
X102252918Y-76931387D01*
X102199009Y-76926077D01*
X102174447Y-76926077D01*
X102150000Y-76923669D01*
X101650000Y-76923669D01*
X101625553Y-76926077D01*
X101600991Y-76926077D01*
X101547082Y-76931387D01*
X101450949Y-76950509D01*
X101399112Y-76966233D01*
X101308556Y-77003742D01*
X101260781Y-77029278D01*
X101179282Y-77083734D01*
X101137407Y-77118099D01*
X101068099Y-77187407D01*
X101033734Y-77229282D01*
X100979278Y-77310781D01*
X100953742Y-77358556D01*
X100916233Y-77449112D01*
X100900509Y-77500949D01*
X100881387Y-77597082D01*
X100876077Y-77650991D01*
X100876077Y-77675553D01*
X100873669Y-77700000D01*
X100873669Y-78250000D01*
X100878979Y-78303910D01*
X100894703Y-78355747D01*
X100904995Y-78375001D01*
X100894704Y-78394253D01*
X100878980Y-78446091D01*
X100873670Y-78500000D01*
X100873670Y-79500000D01*
X100878980Y-79553909D01*
X100894704Y-79605747D01*
X100904995Y-79624999D01*
X100894703Y-79644253D01*
X100878979Y-79696090D01*
X100873669Y-79750000D01*
X100873669Y-79925000D01*
X99818416Y-79925000D01*
X99800000Y-79923186D01*
X99781584Y-79925000D01*
X99781581Y-79925000D01*
X99726487Y-79930426D01*
X99655800Y-79951869D01*
X99635107Y-79962930D01*
X99590653Y-79986690D01*
X99557892Y-80013577D01*
X99533552Y-80033552D01*
X99521809Y-80047861D01*
X98847852Y-80721819D01*
X98833543Y-80733562D01*
X98821801Y-80747870D01*
X98786681Y-80790664D01*
X98751866Y-80855798D01*
X98751860Y-80855810D01*
X98750864Y-80859095D01*
X98730417Y-80926498D01*
X98723176Y-81000010D01*
X98724991Y-81018436D01*
X98724991Y-81343098D01*
X98697505Y-81301961D01*
X98470123Y-81135233D01*
X97275355Y-82330000D01*
X98470123Y-83524767D01*
X98697505Y-83358039D01*
X98724991Y-83309600D01*
X98724990Y-86444680D01*
X96297842Y-88871829D01*
X96283533Y-88883572D01*
X96271791Y-88897880D01*
X96236671Y-88940674D01*
X96201850Y-89005820D01*
X96180407Y-89076508D01*
X96173166Y-89150020D01*
X96174981Y-89168446D01*
X96174981Y-89931895D01*
X96149344Y-89900656D01*
X95978040Y-89760071D01*
X95782602Y-89655607D01*
X95570538Y-89591278D01*
X95405264Y-89575000D01*
X95294736Y-89575000D01*
X95129462Y-89591278D01*
X94917398Y-89655607D01*
X94721960Y-89760071D01*
X94550656Y-89900656D01*
X94410071Y-90071960D01*
X94305607Y-90267398D01*
X94241278Y-90479462D01*
X94219557Y-90700000D01*
X94175000Y-90700000D01*
X94175000Y-88160000D01*
X94219557Y-88160000D01*
X94241278Y-88380538D01*
X94305607Y-88592602D01*
X94410071Y-88788040D01*
X94550656Y-88959344D01*
X94721960Y-89099929D01*
X94917398Y-89204393D01*
X95129462Y-89268722D01*
X95294736Y-89285000D01*
X95405264Y-89285000D01*
X95570538Y-89268722D01*
X95782602Y-89204393D01*
X95978040Y-89099929D01*
X96149344Y-88959344D01*
X96289929Y-88788040D01*
X96394393Y-88592602D01*
X96458722Y-88380538D01*
X96480443Y-88160000D01*
X96458722Y-87939462D01*
X96394393Y-87727398D01*
X96289929Y-87531960D01*
X96149344Y-87360656D01*
X95978040Y-87220071D01*
X95782602Y-87115607D01*
X95570538Y-87051278D01*
X95405264Y-87035000D01*
X95294736Y-87035000D01*
X95129462Y-87051278D01*
X94917398Y-87115607D01*
X94721960Y-87220071D01*
X94550656Y-87360656D01*
X94410071Y-87531960D01*
X94305607Y-87727398D01*
X94241278Y-87939462D01*
X94219557Y-88160000D01*
X94175000Y-88160000D01*
X94175000Y-84770000D01*
X94223670Y-84770000D01*
X94223670Y-86470000D01*
X94228980Y-86523909D01*
X94244704Y-86575747D01*
X94270240Y-86623521D01*
X94304605Y-86665395D01*
X94346479Y-86699760D01*
X94394253Y-86725296D01*
X94446091Y-86741020D01*
X94500000Y-86746330D01*
X96200000Y-86746330D01*
X96253909Y-86741020D01*
X96305747Y-86725296D01*
X96353521Y-86699760D01*
X96395395Y-86665395D01*
X96429760Y-86623521D01*
X96455296Y-86575747D01*
X96471020Y-86523909D01*
X96476330Y-86470000D01*
X96476330Y-84770000D01*
X96471020Y-84716091D01*
X96455296Y-84664253D01*
X96429760Y-84616479D01*
X96395395Y-84574605D01*
X96353521Y-84540240D01*
X96305747Y-84514704D01*
X96253909Y-84498980D01*
X96200000Y-84493670D01*
X94500000Y-84493670D01*
X94446091Y-84498980D01*
X94394253Y-84514704D01*
X94346479Y-84540240D01*
X94304605Y-84574605D01*
X94270240Y-84616479D01*
X94244704Y-84664253D01*
X94228980Y-84716091D01*
X94223670Y-84770000D01*
X94175000Y-84770000D01*
X94175000Y-83560123D01*
X96045233Y-83560123D01*
X96211961Y-83787505D01*
X96516061Y-83960060D01*
X96847980Y-84069972D01*
X97194964Y-84113018D01*
X97543680Y-84087544D01*
X97880725Y-83994528D01*
X98193147Y-83837545D01*
X98268039Y-83787505D01*
X98434767Y-83560123D01*
X97240000Y-82365355D01*
X96045233Y-83560123D01*
X94175000Y-83560123D01*
X94175000Y-82284964D01*
X95456982Y-82284964D01*
X95482456Y-82633680D01*
X95575472Y-82970725D01*
X95732455Y-83283147D01*
X95782495Y-83358039D01*
X96009877Y-83524767D01*
X97204645Y-82330000D01*
X96009877Y-81135233D01*
X95782495Y-81301961D01*
X95609940Y-81606061D01*
X95500028Y-81937980D01*
X95456982Y-82284964D01*
X94175000Y-82284964D01*
X94175000Y-81099877D01*
X96045233Y-81099877D01*
X97240000Y-82294645D01*
X98434767Y-81099877D01*
X98268039Y-80872495D01*
X97963939Y-80699940D01*
X97632020Y-80590028D01*
X97285036Y-80546982D01*
X96936320Y-80572456D01*
X96599275Y-80665472D01*
X96286853Y-80822455D01*
X96211961Y-80872495D01*
X96045233Y-81099877D01*
X94175000Y-81099877D01*
X94175000Y-78345000D01*
X99125000Y-78345000D01*
X99125000Y-78895000D01*
X99143808Y-79035960D01*
X99189754Y-79170542D01*
X99261073Y-79293575D01*
X99355024Y-79400330D01*
X99467997Y-79486705D01*
X99595650Y-79549380D01*
X99711960Y-79581737D01*
X99825000Y-79525774D01*
X99825000Y-78345000D01*
X99875000Y-78345000D01*
X99875000Y-79525774D01*
X99988040Y-79581737D01*
X100104350Y-79549380D01*
X100232003Y-79486705D01*
X100344976Y-79400330D01*
X100438927Y-79293575D01*
X100510246Y-79170542D01*
X100556192Y-79035960D01*
X100575000Y-78895000D01*
X100575000Y-78345000D01*
X99875000Y-78345000D01*
X99825000Y-78345000D01*
X99125000Y-78345000D01*
X94175000Y-78345000D01*
X94175000Y-77745000D01*
X99125000Y-77745000D01*
X99125000Y-78295000D01*
X99825000Y-78295000D01*
X99825000Y-77114226D01*
X99875000Y-77114226D01*
X99875000Y-78295000D01*
X100575000Y-78295000D01*
X100575000Y-77745000D01*
X100556192Y-77604040D01*
X100510246Y-77469458D01*
X100438927Y-77346425D01*
X100344976Y-77239670D01*
X100232003Y-77153295D01*
X100104350Y-77090620D01*
X99988040Y-77058263D01*
X99875000Y-77114226D01*
X99825000Y-77114226D01*
X99711960Y-77058263D01*
X99595650Y-77090620D01*
X99467997Y-77153295D01*
X99355024Y-77239670D01*
X99261073Y-77346425D01*
X99189754Y-77469458D01*
X99143808Y-77604040D01*
X99125000Y-77745000D01*
X94175000Y-77745000D01*
X94175000Y-77518338D01*
X94188667Y-77378955D01*
X94223821Y-77262517D01*
X94280923Y-77155124D01*
X94357793Y-77060872D01*
X94451508Y-76983343D01*
X94558501Y-76925493D01*
X94674688Y-76889528D01*
X94832218Y-76872970D01*
X94842940Y-76870769D01*
X94874102Y-76867605D01*
X94931699Y-76850000D01*
X113569238Y-76850000D01*
X113586611Y-76857446D01*
G36*
X102965000Y-78195330D02*
X102965001Y-82021572D01*
X102965000Y-82021582D01*
X102965001Y-84045877D01*
X102854480Y-84091656D01*
X102686600Y-84203830D01*
X102543830Y-84346600D01*
X102431656Y-84514480D01*
X102354390Y-84701018D01*
X102315000Y-84899046D01*
X102315000Y-85100954D01*
X102354390Y-85298982D01*
X102431656Y-85485520D01*
X102463485Y-85533156D01*
X101823914Y-84893585D01*
X101785610Y-84701018D01*
X101708344Y-84514480D01*
X101596170Y-84346600D01*
X101453400Y-84203830D01*
X101285520Y-84091656D01*
X101098982Y-84014390D01*
X100900954Y-83975000D01*
X100699046Y-83975000D01*
X100501018Y-84014390D01*
X100314480Y-84091656D01*
X100146600Y-84203830D01*
X100003830Y-84346600D01*
X99891656Y-84514480D01*
X99814390Y-84701018D01*
X99775000Y-84899046D01*
X99775000Y-85100954D01*
X99814390Y-85298982D01*
X99891656Y-85485520D01*
X100003830Y-85653400D01*
X100146600Y-85796170D01*
X100314480Y-85908344D01*
X100501018Y-85985610D01*
X100699046Y-86025000D01*
X100900954Y-86025000D01*
X101098982Y-85985610D01*
X101285520Y-85908344D01*
X101453400Y-85796170D01*
X101559620Y-85689950D01*
X102521809Y-86652139D01*
X102533552Y-86666448D01*
X102590653Y-86713309D01*
X102655800Y-86748131D01*
X102726487Y-86769574D01*
X102781581Y-86775000D01*
X102781584Y-86775000D01*
X102800000Y-86776814D01*
X102818416Y-86775000D01*
X105981584Y-86775000D01*
X106000000Y-86776814D01*
X106018416Y-86775000D01*
X106018419Y-86775000D01*
X106073513Y-86769574D01*
X106144200Y-86748131D01*
X106209347Y-86713309D01*
X106266448Y-86666448D01*
X106278195Y-86652134D01*
X106852140Y-86078190D01*
X106866448Y-86066448D01*
X106913309Y-86009347D01*
X106948131Y-85944200D01*
X106969574Y-85873513D01*
X106975000Y-85818419D01*
X106975000Y-85818417D01*
X106976814Y-85800001D01*
X106975000Y-85781585D01*
X106975000Y-85697126D01*
X107248229Y-85697126D01*
X107325008Y-85847704D01*
X107501628Y-85945542D01*
X107693941Y-86007044D01*
X107894557Y-86029845D01*
X108095768Y-86013070D01*
X108289839Y-85957362D01*
X108469312Y-85864864D01*
X108494992Y-85847704D01*
X108571771Y-85697126D01*
X107910000Y-85035355D01*
X107248229Y-85697126D01*
X106975000Y-85697126D01*
X106975000Y-85423228D01*
X107045136Y-85559312D01*
X107062296Y-85584992D01*
X107212874Y-85661771D01*
X107874645Y-85000000D01*
X107212874Y-84338229D01*
X107134126Y-84378382D01*
X107176942Y-84275014D01*
X107200000Y-84159095D01*
X107200000Y-84040905D01*
X107176942Y-83924986D01*
X107131713Y-83815793D01*
X107104456Y-83775000D01*
X107544671Y-83775000D01*
X107754110Y-83984439D01*
X107724232Y-83986930D01*
X107530161Y-84042638D01*
X107350688Y-84135136D01*
X107325008Y-84152296D01*
X107248229Y-84302874D01*
X107910000Y-84964645D01*
X107924143Y-84950503D01*
X107959498Y-84985858D01*
X107945355Y-85000000D01*
X108607126Y-85661771D01*
X108757704Y-85584992D01*
X108855542Y-85408372D01*
X108870066Y-85362956D01*
X108913204Y-85467100D01*
X108998018Y-85594034D01*
X109105966Y-85701982D01*
X109232900Y-85786796D01*
X109373941Y-85845217D01*
X109523669Y-85875000D01*
X109676331Y-85875000D01*
X109826059Y-85845217D01*
X109967100Y-85786796D01*
X110094034Y-85701982D01*
X110201982Y-85594034D01*
X110286796Y-85467100D01*
X110345217Y-85326059D01*
X110350000Y-85302013D01*
X110354783Y-85326059D01*
X110413204Y-85467100D01*
X110498018Y-85594034D01*
X110605966Y-85701982D01*
X110732900Y-85786796D01*
X110873941Y-85845217D01*
X111023669Y-85875000D01*
X111144670Y-85875000D01*
X109694671Y-87325000D01*
X98905330Y-87325000D01*
X99352130Y-86878200D01*
X99366438Y-86866458D01*
X99386413Y-86842118D01*
X99413300Y-86809357D01*
X99446025Y-86748131D01*
X99448121Y-86744210D01*
X99469564Y-86673523D01*
X99474990Y-86618429D01*
X99474990Y-86618426D01*
X99476804Y-86600010D01*
X99474990Y-86581594D01*
X99474990Y-83670138D01*
X99595650Y-83729380D01*
X99711960Y-83761737D01*
X99825000Y-83705774D01*
X99825000Y-82525000D01*
X99875000Y-82525000D01*
X99875000Y-83705774D01*
X99988040Y-83761737D01*
X100104350Y-83729380D01*
X100232003Y-83666705D01*
X100344976Y-83580330D01*
X100438927Y-83473575D01*
X100510246Y-83350542D01*
X100556192Y-83215960D01*
X100575000Y-83075000D01*
X100575000Y-82525000D01*
X99875000Y-82525000D01*
X99825000Y-82525000D01*
X99805000Y-82525000D01*
X99805000Y-82475000D01*
X99825000Y-82475000D01*
X99825000Y-81294226D01*
X99875000Y-81294226D01*
X99875000Y-82475000D01*
X100575000Y-82475000D01*
X100575000Y-81943367D01*
X100710000Y-81943367D01*
X100710000Y-82056633D01*
X100732097Y-82167721D01*
X100775442Y-82272365D01*
X100838368Y-82366541D01*
X100918459Y-82446632D01*
X101012635Y-82509558D01*
X101117279Y-82552903D01*
X101228367Y-82575000D01*
X101341633Y-82575000D01*
X101452721Y-82552903D01*
X101557365Y-82509558D01*
X101651541Y-82446632D01*
X101731632Y-82366541D01*
X101794558Y-82272365D01*
X101837903Y-82167721D01*
X101860000Y-82056633D01*
X101860000Y-81943367D01*
X101837903Y-81832279D01*
X101794558Y-81727635D01*
X101731632Y-81633459D01*
X101651541Y-81553368D01*
X101557365Y-81490442D01*
X101452721Y-81447097D01*
X101341633Y-81425000D01*
X101228367Y-81425000D01*
X101117279Y-81447097D01*
X101012635Y-81490442D01*
X100918459Y-81553368D01*
X100838368Y-81633459D01*
X100775442Y-81727635D01*
X100732097Y-81832279D01*
X100710000Y-81943367D01*
X100575000Y-81943367D01*
X100575000Y-81925000D01*
X100556192Y-81784040D01*
X100510246Y-81649458D01*
X100438927Y-81526425D01*
X100344976Y-81419670D01*
X100232003Y-81333295D01*
X100104350Y-81270620D01*
X99988040Y-81238263D01*
X99875000Y-81294226D01*
X99825000Y-81294226D01*
X99711960Y-81238263D01*
X99595650Y-81270620D01*
X99474990Y-81329862D01*
X99474990Y-81155339D01*
X99955330Y-80675000D01*
X100971678Y-80675000D01*
X100979278Y-80689219D01*
X101033734Y-80770718D01*
X101068099Y-80812593D01*
X101137407Y-80881901D01*
X101179282Y-80916266D01*
X101260781Y-80970722D01*
X101308556Y-80996258D01*
X101399112Y-81033767D01*
X101450949Y-81049491D01*
X101547082Y-81068613D01*
X101600991Y-81073923D01*
X101625553Y-81073923D01*
X101650000Y-81076331D01*
X102150000Y-81076331D01*
X102174447Y-81073923D01*
X102199009Y-81073923D01*
X102252918Y-81068613D01*
X102349051Y-81049491D01*
X102400888Y-81033767D01*
X102491444Y-80996258D01*
X102539219Y-80970722D01*
X102620718Y-80916266D01*
X102662593Y-80881901D01*
X102731901Y-80812593D01*
X102766266Y-80770718D01*
X102820722Y-80689219D01*
X102846258Y-80641444D01*
X102883767Y-80550888D01*
X102899491Y-80499051D01*
X102918613Y-80402918D01*
X102923923Y-80349009D01*
X102923923Y-80324447D01*
X102926331Y-80300000D01*
X102926331Y-79750000D01*
X102921021Y-79696090D01*
X102905297Y-79644253D01*
X102895005Y-79624999D01*
X102905296Y-79605747D01*
X102921020Y-79553909D01*
X102926330Y-79500000D01*
X102926330Y-78500000D01*
X102921020Y-78446091D01*
X102905296Y-78394253D01*
X102895005Y-78375001D01*
X102905297Y-78355747D01*
X102921021Y-78303910D01*
X102926331Y-78250000D01*
X102926331Y-78156661D01*
X102965000Y-78195330D01*
X102965000Y-78195330D01*
G37*
X102965000Y-78195330D02*
X102965001Y-82021572D01*
X102965000Y-82021582D01*
X102965001Y-84045877D01*
X102854480Y-84091656D01*
X102686600Y-84203830D01*
X102543830Y-84346600D01*
X102431656Y-84514480D01*
X102354390Y-84701018D01*
X102315000Y-84899046D01*
X102315000Y-85100954D01*
X102354390Y-85298982D01*
X102431656Y-85485520D01*
X102463485Y-85533156D01*
X101823914Y-84893585D01*
X101785610Y-84701018D01*
X101708344Y-84514480D01*
X101596170Y-84346600D01*
X101453400Y-84203830D01*
X101285520Y-84091656D01*
X101098982Y-84014390D01*
X100900954Y-83975000D01*
X100699046Y-83975000D01*
X100501018Y-84014390D01*
X100314480Y-84091656D01*
X100146600Y-84203830D01*
X100003830Y-84346600D01*
X99891656Y-84514480D01*
X99814390Y-84701018D01*
X99775000Y-84899046D01*
X99775000Y-85100954D01*
X99814390Y-85298982D01*
X99891656Y-85485520D01*
X100003830Y-85653400D01*
X100146600Y-85796170D01*
X100314480Y-85908344D01*
X100501018Y-85985610D01*
X100699046Y-86025000D01*
X100900954Y-86025000D01*
X101098982Y-85985610D01*
X101285520Y-85908344D01*
X101453400Y-85796170D01*
X101559620Y-85689950D01*
X102521809Y-86652139D01*
X102533552Y-86666448D01*
X102590653Y-86713309D01*
X102655800Y-86748131D01*
X102726487Y-86769574D01*
X102781581Y-86775000D01*
X102781584Y-86775000D01*
X102800000Y-86776814D01*
X102818416Y-86775000D01*
X105981584Y-86775000D01*
X106000000Y-86776814D01*
X106018416Y-86775000D01*
X106018419Y-86775000D01*
X106073513Y-86769574D01*
X106144200Y-86748131D01*
X106209347Y-86713309D01*
X106266448Y-86666448D01*
X106278195Y-86652134D01*
X106852140Y-86078190D01*
X106866448Y-86066448D01*
X106913309Y-86009347D01*
X106948131Y-85944200D01*
X106969574Y-85873513D01*
X106975000Y-85818419D01*
X106975000Y-85818417D01*
X106976814Y-85800001D01*
X106975000Y-85781585D01*
X106975000Y-85697126D01*
X107248229Y-85697126D01*
X107325008Y-85847704D01*
X107501628Y-85945542D01*
X107693941Y-86007044D01*
X107894557Y-86029845D01*
X108095768Y-86013070D01*
X108289839Y-85957362D01*
X108469312Y-85864864D01*
X108494992Y-85847704D01*
X108571771Y-85697126D01*
X107910000Y-85035355D01*
X107248229Y-85697126D01*
X106975000Y-85697126D01*
X106975000Y-85423228D01*
X107045136Y-85559312D01*
X107062296Y-85584992D01*
X107212874Y-85661771D01*
X107874645Y-85000000D01*
X107212874Y-84338229D01*
X107134126Y-84378382D01*
X107176942Y-84275014D01*
X107200000Y-84159095D01*
X107200000Y-84040905D01*
X107176942Y-83924986D01*
X107131713Y-83815793D01*
X107104456Y-83775000D01*
X107544671Y-83775000D01*
X107754110Y-83984439D01*
X107724232Y-83986930D01*
X107530161Y-84042638D01*
X107350688Y-84135136D01*
X107325008Y-84152296D01*
X107248229Y-84302874D01*
X107910000Y-84964645D01*
X107924143Y-84950503D01*
X107959498Y-84985858D01*
X107945355Y-85000000D01*
X108607126Y-85661771D01*
X108757704Y-85584992D01*
X108855542Y-85408372D01*
X108870066Y-85362956D01*
X108913204Y-85467100D01*
X108998018Y-85594034D01*
X109105966Y-85701982D01*
X109232900Y-85786796D01*
X109373941Y-85845217D01*
X109523669Y-85875000D01*
X109676331Y-85875000D01*
X109826059Y-85845217D01*
X109967100Y-85786796D01*
X110094034Y-85701982D01*
X110201982Y-85594034D01*
X110286796Y-85467100D01*
X110345217Y-85326059D01*
X110350000Y-85302013D01*
X110354783Y-85326059D01*
X110413204Y-85467100D01*
X110498018Y-85594034D01*
X110605966Y-85701982D01*
X110732900Y-85786796D01*
X110873941Y-85845217D01*
X111023669Y-85875000D01*
X111144670Y-85875000D01*
X109694671Y-87325000D01*
X98905330Y-87325000D01*
X99352130Y-86878200D01*
X99366438Y-86866458D01*
X99386413Y-86842118D01*
X99413300Y-86809357D01*
X99446025Y-86748131D01*
X99448121Y-86744210D01*
X99469564Y-86673523D01*
X99474990Y-86618429D01*
X99474990Y-86618426D01*
X99476804Y-86600010D01*
X99474990Y-86581594D01*
X99474990Y-83670138D01*
X99595650Y-83729380D01*
X99711960Y-83761737D01*
X99825000Y-83705774D01*
X99825000Y-82525000D01*
X99875000Y-82525000D01*
X99875000Y-83705774D01*
X99988040Y-83761737D01*
X100104350Y-83729380D01*
X100232003Y-83666705D01*
X100344976Y-83580330D01*
X100438927Y-83473575D01*
X100510246Y-83350542D01*
X100556192Y-83215960D01*
X100575000Y-83075000D01*
X100575000Y-82525000D01*
X99875000Y-82525000D01*
X99825000Y-82525000D01*
X99805000Y-82525000D01*
X99805000Y-82475000D01*
X99825000Y-82475000D01*
X99825000Y-81294226D01*
X99875000Y-81294226D01*
X99875000Y-82475000D01*
X100575000Y-82475000D01*
X100575000Y-81943367D01*
X100710000Y-81943367D01*
X100710000Y-82056633D01*
X100732097Y-82167721D01*
X100775442Y-82272365D01*
X100838368Y-82366541D01*
X100918459Y-82446632D01*
X101012635Y-82509558D01*
X101117279Y-82552903D01*
X101228367Y-82575000D01*
X101341633Y-82575000D01*
X101452721Y-82552903D01*
X101557365Y-82509558D01*
X101651541Y-82446632D01*
X101731632Y-82366541D01*
X101794558Y-82272365D01*
X101837903Y-82167721D01*
X101860000Y-82056633D01*
X101860000Y-81943367D01*
X101837903Y-81832279D01*
X101794558Y-81727635D01*
X101731632Y-81633459D01*
X101651541Y-81553368D01*
X101557365Y-81490442D01*
X101452721Y-81447097D01*
X101341633Y-81425000D01*
X101228367Y-81425000D01*
X101117279Y-81447097D01*
X101012635Y-81490442D01*
X100918459Y-81553368D01*
X100838368Y-81633459D01*
X100775442Y-81727635D01*
X100732097Y-81832279D01*
X100710000Y-81943367D01*
X100575000Y-81943367D01*
X100575000Y-81925000D01*
X100556192Y-81784040D01*
X100510246Y-81649458D01*
X100438927Y-81526425D01*
X100344976Y-81419670D01*
X100232003Y-81333295D01*
X100104350Y-81270620D01*
X99988040Y-81238263D01*
X99875000Y-81294226D01*
X99825000Y-81294226D01*
X99711960Y-81238263D01*
X99595650Y-81270620D01*
X99474990Y-81329862D01*
X99474990Y-81155339D01*
X99955330Y-80675000D01*
X100971678Y-80675000D01*
X100979278Y-80689219D01*
X101033734Y-80770718D01*
X101068099Y-80812593D01*
X101137407Y-80881901D01*
X101179282Y-80916266D01*
X101260781Y-80970722D01*
X101308556Y-80996258D01*
X101399112Y-81033767D01*
X101450949Y-81049491D01*
X101547082Y-81068613D01*
X101600991Y-81073923D01*
X101625553Y-81073923D01*
X101650000Y-81076331D01*
X102150000Y-81076331D01*
X102174447Y-81073923D01*
X102199009Y-81073923D01*
X102252918Y-81068613D01*
X102349051Y-81049491D01*
X102400888Y-81033767D01*
X102491444Y-80996258D01*
X102539219Y-80970722D01*
X102620718Y-80916266D01*
X102662593Y-80881901D01*
X102731901Y-80812593D01*
X102766266Y-80770718D01*
X102820722Y-80689219D01*
X102846258Y-80641444D01*
X102883767Y-80550888D01*
X102899491Y-80499051D01*
X102918613Y-80402918D01*
X102923923Y-80349009D01*
X102923923Y-80324447D01*
X102926331Y-80300000D01*
X102926331Y-79750000D01*
X102921021Y-79696090D01*
X102905297Y-79644253D01*
X102895005Y-79624999D01*
X102905296Y-79605747D01*
X102921020Y-79553909D01*
X102926330Y-79500000D01*
X102926330Y-78500000D01*
X102921020Y-78446091D01*
X102905296Y-78394253D01*
X102895005Y-78375001D01*
X102905297Y-78355747D01*
X102921021Y-78303910D01*
X102926331Y-78250000D01*
X102926331Y-78156661D01*
X102965000Y-78195330D01*
G36*
X105494703Y-79644253D02*
X105478979Y-79696090D01*
X105473669Y-79750000D01*
X105473669Y-80300000D01*
X105476077Y-80324447D01*
X105476077Y-80349009D01*
X105481387Y-80402918D01*
X105500509Y-80499051D01*
X105516233Y-80550888D01*
X105553742Y-80641444D01*
X105579278Y-80689219D01*
X105633734Y-80770718D01*
X105668099Y-80812593D01*
X105737407Y-80881901D01*
X105779282Y-80916266D01*
X105860781Y-80970722D01*
X105908556Y-80996258D01*
X105999112Y-81033767D01*
X106050949Y-81049491D01*
X106147082Y-81068613D01*
X106200991Y-81073923D01*
X106225553Y-81073923D01*
X106250000Y-81076331D01*
X106750000Y-81076331D01*
X106774447Y-81073923D01*
X106799009Y-81073923D01*
X106852918Y-81068613D01*
X106949051Y-81049491D01*
X107000888Y-81033767D01*
X107091444Y-80996258D01*
X107139219Y-80970722D01*
X107220718Y-80916266D01*
X107262593Y-80881901D01*
X107331901Y-80812593D01*
X107366266Y-80770718D01*
X107420722Y-80689219D01*
X107428322Y-80675000D01*
X110300313Y-80675000D01*
X110006853Y-80822455D01*
X109931961Y-80872495D01*
X109765233Y-81099877D01*
X110960000Y-82294645D01*
X112154767Y-81099877D01*
X111988039Y-80872495D01*
X111683939Y-80699940D01*
X111608624Y-80675000D01*
X112044671Y-80675000D01*
X112525000Y-81155330D01*
X112525000Y-81491198D01*
X112467545Y-81376853D01*
X112417505Y-81301961D01*
X112190123Y-81135233D01*
X110995355Y-82330000D01*
X111009498Y-82344142D01*
X110974142Y-82379498D01*
X110960000Y-82365355D01*
X109765233Y-83560123D01*
X109931961Y-83787505D01*
X110236061Y-83960060D01*
X110567980Y-84069972D01*
X110914964Y-84113018D01*
X111263680Y-84087544D01*
X111600725Y-83994528D01*
X111605953Y-83991901D01*
X111605849Y-83992956D01*
X111603185Y-84020001D01*
X111604999Y-84038417D01*
X111604999Y-84508983D01*
X111594034Y-84498018D01*
X111467100Y-84413204D01*
X111326059Y-84354783D01*
X111176331Y-84325000D01*
X111023669Y-84325000D01*
X110873941Y-84354783D01*
X110732900Y-84413204D01*
X110605966Y-84498018D01*
X110498018Y-84605966D01*
X110413204Y-84732900D01*
X110354783Y-84873941D01*
X110350000Y-84897987D01*
X110345217Y-84873941D01*
X110286796Y-84732900D01*
X110201982Y-84605966D01*
X110094034Y-84498018D01*
X109973619Y-84417560D01*
X109969574Y-84376487D01*
X109948131Y-84305800D01*
X109913309Y-84240653D01*
X109866448Y-84183552D01*
X109852140Y-84171810D01*
X109428195Y-83747866D01*
X109416448Y-83733552D01*
X109359347Y-83686691D01*
X109294200Y-83651869D01*
X109223513Y-83630426D01*
X109168419Y-83625000D01*
X109168416Y-83625000D01*
X109150000Y-83623186D01*
X109131584Y-83625000D01*
X108936550Y-83625000D01*
X108994976Y-83580330D01*
X109088927Y-83473575D01*
X109160246Y-83350542D01*
X109206192Y-83215960D01*
X109225000Y-83075000D01*
X109225000Y-82715369D01*
X109295472Y-82970725D01*
X109452455Y-83283147D01*
X109502495Y-83358039D01*
X109729877Y-83524767D01*
X110924645Y-82330000D01*
X109729877Y-81135233D01*
X109502495Y-81301961D01*
X109329940Y-81606061D01*
X109224806Y-81923550D01*
X109206192Y-81784040D01*
X109160246Y-81649458D01*
X109088927Y-81526425D01*
X108994976Y-81419670D01*
X108882003Y-81333295D01*
X108754350Y-81270620D01*
X108638040Y-81238263D01*
X108525000Y-81294226D01*
X108525000Y-82475000D01*
X108545000Y-82475000D01*
X108545000Y-82525000D01*
X108525000Y-82525000D01*
X108525000Y-82545000D01*
X108475000Y-82545000D01*
X108475000Y-82525000D01*
X107775000Y-82525000D01*
X107775000Y-83030877D01*
X107773513Y-83030426D01*
X107718419Y-83025000D01*
X107718416Y-83025000D01*
X107700000Y-83023186D01*
X107681584Y-83025000D01*
X106118416Y-83025000D01*
X106100000Y-83023186D01*
X106081584Y-83025000D01*
X106081581Y-83025000D01*
X106026487Y-83030426D01*
X105955800Y-83051869D01*
X105890653Y-83086691D01*
X105833552Y-83133552D01*
X105821809Y-83147861D01*
X105742587Y-83227083D01*
X105739574Y-83196487D01*
X105718131Y-83125800D01*
X105683309Y-83060653D01*
X105636448Y-83003552D01*
X105622140Y-82991810D01*
X104573697Y-81943367D01*
X106490000Y-81943367D01*
X106490000Y-82056633D01*
X106512097Y-82167721D01*
X106555442Y-82272365D01*
X106618368Y-82366541D01*
X106698459Y-82446632D01*
X106792635Y-82509558D01*
X106897279Y-82552903D01*
X107008367Y-82575000D01*
X107121633Y-82575000D01*
X107232721Y-82552903D01*
X107337365Y-82509558D01*
X107431541Y-82446632D01*
X107511632Y-82366541D01*
X107574558Y-82272365D01*
X107617903Y-82167721D01*
X107640000Y-82056633D01*
X107640000Y-81943367D01*
X107636347Y-81925000D01*
X107775000Y-81925000D01*
X107775000Y-82475000D01*
X108475000Y-82475000D01*
X108475000Y-81294226D01*
X108361960Y-81238263D01*
X108245650Y-81270620D01*
X108117997Y-81333295D01*
X108005024Y-81419670D01*
X107911073Y-81526425D01*
X107839754Y-81649458D01*
X107793808Y-81784040D01*
X107775000Y-81925000D01*
X107636347Y-81925000D01*
X107617903Y-81832279D01*
X107574558Y-81727635D01*
X107511632Y-81633459D01*
X107431541Y-81553368D01*
X107337365Y-81490442D01*
X107232721Y-81447097D01*
X107121633Y-81425000D01*
X107008367Y-81425000D01*
X106897279Y-81447097D01*
X106792635Y-81490442D01*
X106698459Y-81553368D01*
X106618368Y-81633459D01*
X106555442Y-81727635D01*
X106512097Y-81832279D01*
X106490000Y-81943367D01*
X104573697Y-81943367D01*
X104275000Y-81644671D01*
X104275000Y-81304456D01*
X104315793Y-81331713D01*
X104424986Y-81376942D01*
X104540905Y-81400000D01*
X104659095Y-81400000D01*
X104775014Y-81376942D01*
X104884207Y-81331713D01*
X104982478Y-81266050D01*
X105066050Y-81182478D01*
X105131713Y-81084207D01*
X105176942Y-80975014D01*
X105200000Y-80859095D01*
X105200000Y-80740905D01*
X105176942Y-80624986D01*
X105131713Y-80515793D01*
X105066050Y-80417522D01*
X104982478Y-80333950D01*
X104975000Y-80328953D01*
X104975000Y-80155329D01*
X105504608Y-79625722D01*
X105494703Y-79644253D01*
X105494703Y-79644253D01*
G37*
X105494703Y-79644253D02*
X105478979Y-79696090D01*
X105473669Y-79750000D01*
X105473669Y-80300000D01*
X105476077Y-80324447D01*
X105476077Y-80349009D01*
X105481387Y-80402918D01*
X105500509Y-80499051D01*
X105516233Y-80550888D01*
X105553742Y-80641444D01*
X105579278Y-80689219D01*
X105633734Y-80770718D01*
X105668099Y-80812593D01*
X105737407Y-80881901D01*
X105779282Y-80916266D01*
X105860781Y-80970722D01*
X105908556Y-80996258D01*
X105999112Y-81033767D01*
X106050949Y-81049491D01*
X106147082Y-81068613D01*
X106200991Y-81073923D01*
X106225553Y-81073923D01*
X106250000Y-81076331D01*
X106750000Y-81076331D01*
X106774447Y-81073923D01*
X106799009Y-81073923D01*
X106852918Y-81068613D01*
X106949051Y-81049491D01*
X107000888Y-81033767D01*
X107091444Y-80996258D01*
X107139219Y-80970722D01*
X107220718Y-80916266D01*
X107262593Y-80881901D01*
X107331901Y-80812593D01*
X107366266Y-80770718D01*
X107420722Y-80689219D01*
X107428322Y-80675000D01*
X110300313Y-80675000D01*
X110006853Y-80822455D01*
X109931961Y-80872495D01*
X109765233Y-81099877D01*
X110960000Y-82294645D01*
X112154767Y-81099877D01*
X111988039Y-80872495D01*
X111683939Y-80699940D01*
X111608624Y-80675000D01*
X112044671Y-80675000D01*
X112525000Y-81155330D01*
X112525000Y-81491198D01*
X112467545Y-81376853D01*
X112417505Y-81301961D01*
X112190123Y-81135233D01*
X110995355Y-82330000D01*
X111009498Y-82344142D01*
X110974142Y-82379498D01*
X110960000Y-82365355D01*
X109765233Y-83560123D01*
X109931961Y-83787505D01*
X110236061Y-83960060D01*
X110567980Y-84069972D01*
X110914964Y-84113018D01*
X111263680Y-84087544D01*
X111600725Y-83994528D01*
X111605953Y-83991901D01*
X111605849Y-83992956D01*
X111603185Y-84020001D01*
X111604999Y-84038417D01*
X111604999Y-84508983D01*
X111594034Y-84498018D01*
X111467100Y-84413204D01*
X111326059Y-84354783D01*
X111176331Y-84325000D01*
X111023669Y-84325000D01*
X110873941Y-84354783D01*
X110732900Y-84413204D01*
X110605966Y-84498018D01*
X110498018Y-84605966D01*
X110413204Y-84732900D01*
X110354783Y-84873941D01*
X110350000Y-84897987D01*
X110345217Y-84873941D01*
X110286796Y-84732900D01*
X110201982Y-84605966D01*
X110094034Y-84498018D01*
X109973619Y-84417560D01*
X109969574Y-84376487D01*
X109948131Y-84305800D01*
X109913309Y-84240653D01*
X109866448Y-84183552D01*
X109852140Y-84171810D01*
X109428195Y-83747866D01*
X109416448Y-83733552D01*
X109359347Y-83686691D01*
X109294200Y-83651869D01*
X109223513Y-83630426D01*
X109168419Y-83625000D01*
X109168416Y-83625000D01*
X109150000Y-83623186D01*
X109131584Y-83625000D01*
X108936550Y-83625000D01*
X108994976Y-83580330D01*
X109088927Y-83473575D01*
X109160246Y-83350542D01*
X109206192Y-83215960D01*
X109225000Y-83075000D01*
X109225000Y-82715369D01*
X109295472Y-82970725D01*
X109452455Y-83283147D01*
X109502495Y-83358039D01*
X109729877Y-83524767D01*
X110924645Y-82330000D01*
X109729877Y-81135233D01*
X109502495Y-81301961D01*
X109329940Y-81606061D01*
X109224806Y-81923550D01*
X109206192Y-81784040D01*
X109160246Y-81649458D01*
X109088927Y-81526425D01*
X108994976Y-81419670D01*
X108882003Y-81333295D01*
X108754350Y-81270620D01*
X108638040Y-81238263D01*
X108525000Y-81294226D01*
X108525000Y-82475000D01*
X108545000Y-82475000D01*
X108545000Y-82525000D01*
X108525000Y-82525000D01*
X108525000Y-82545000D01*
X108475000Y-82545000D01*
X108475000Y-82525000D01*
X107775000Y-82525000D01*
X107775000Y-83030877D01*
X107773513Y-83030426D01*
X107718419Y-83025000D01*
X107718416Y-83025000D01*
X107700000Y-83023186D01*
X107681584Y-83025000D01*
X106118416Y-83025000D01*
X106100000Y-83023186D01*
X106081584Y-83025000D01*
X106081581Y-83025000D01*
X106026487Y-83030426D01*
X105955800Y-83051869D01*
X105890653Y-83086691D01*
X105833552Y-83133552D01*
X105821809Y-83147861D01*
X105742587Y-83227083D01*
X105739574Y-83196487D01*
X105718131Y-83125800D01*
X105683309Y-83060653D01*
X105636448Y-83003552D01*
X105622140Y-82991810D01*
X104573697Y-81943367D01*
X106490000Y-81943367D01*
X106490000Y-82056633D01*
X106512097Y-82167721D01*
X106555442Y-82272365D01*
X106618368Y-82366541D01*
X106698459Y-82446632D01*
X106792635Y-82509558D01*
X106897279Y-82552903D01*
X107008367Y-82575000D01*
X107121633Y-82575000D01*
X107232721Y-82552903D01*
X107337365Y-82509558D01*
X107431541Y-82446632D01*
X107511632Y-82366541D01*
X107574558Y-82272365D01*
X107617903Y-82167721D01*
X107640000Y-82056633D01*
X107640000Y-81943367D01*
X107636347Y-81925000D01*
X107775000Y-81925000D01*
X107775000Y-82475000D01*
X108475000Y-82475000D01*
X108475000Y-81294226D01*
X108361960Y-81238263D01*
X108245650Y-81270620D01*
X108117997Y-81333295D01*
X108005024Y-81419670D01*
X107911073Y-81526425D01*
X107839754Y-81649458D01*
X107793808Y-81784040D01*
X107775000Y-81925000D01*
X107636347Y-81925000D01*
X107617903Y-81832279D01*
X107574558Y-81727635D01*
X107511632Y-81633459D01*
X107431541Y-81553368D01*
X107337365Y-81490442D01*
X107232721Y-81447097D01*
X107121633Y-81425000D01*
X107008367Y-81425000D01*
X106897279Y-81447097D01*
X106792635Y-81490442D01*
X106698459Y-81553368D01*
X106618368Y-81633459D01*
X106555442Y-81727635D01*
X106512097Y-81832279D01*
X106490000Y-81943367D01*
X104573697Y-81943367D01*
X104275000Y-81644671D01*
X104275000Y-81304456D01*
X104315793Y-81331713D01*
X104424986Y-81376942D01*
X104540905Y-81400000D01*
X104659095Y-81400000D01*
X104775014Y-81376942D01*
X104884207Y-81331713D01*
X104982478Y-81266050D01*
X105066050Y-81182478D01*
X105131713Y-81084207D01*
X105176942Y-80975014D01*
X105200000Y-80859095D01*
X105200000Y-80740905D01*
X105176942Y-80624986D01*
X105131713Y-80515793D01*
X105066050Y-80417522D01*
X104982478Y-80333950D01*
X104975000Y-80328953D01*
X104975000Y-80155329D01*
X105504608Y-79625722D01*
X105494703Y-79644253D01*
G04 #@! TD*
M02*
