G04 #@! TF.GenerationSoftware,KiCad,Pcbnew,(5.0.0)*
G04 #@! TF.CreationDate,2021-02-11T08:25:18+00:00*
G04 #@! TF.ProjectId,ESP-V,4553502D562E6B696361645F70636200,rev?*
G04 #@! TF.SameCoordinates,Original*
G04 #@! TF.FileFunction,Soldermask,Top*
G04 #@! TF.FilePolarity,Negative*
%FSLAX46Y46*%
G04 Gerber Fmt 4.6, Leading zero omitted, Abs format (unit mm)*
G04 Created by KiCad (PCBNEW (5.0.0)) date 02/11/21 08:25:18*
%MOMM*%
%LPD*%
G01*
G04 APERTURE LIST*
%ADD10C,3.400000*%
%ADD11C,1.900000*%
%ADD12R,0.700000X1.800000*%
%ADD13O,1.300000X2.400000*%
%ADD14C,1.000000*%
%ADD15R,0.700000X1.540000*%
%ADD16R,0.850000X1.000000*%
%ADD17C,0.100000*%
%ADD18C,1.550000*%
%ADD19C,1.250000*%
%ADD20C,1.350000*%
%ADD21R,1.600000X1.150000*%
%ADD22R,1.150000X1.600000*%
%ADD23R,1.000000X0.850000*%
%ADD24R,1.200000X0.900000*%
%ADD25R,1.200000X0.800000*%
%ADD26R,2.100000X2.100000*%
%ADD27O,2.100000X2.100000*%
%ADD28R,2.400000X4.200000*%
%ADD29R,2.400000X1.900000*%
%ADD30R,0.800000X1.200000*%
%ADD31R,1.100000X1.100000*%
%ADD32R,5.800000X5.800000*%
G04 APERTURE END LIST*
D10*
G04 #@! TO.C,J4*
X97240000Y-82330000D03*
X110960000Y-82330000D03*
D11*
X100800000Y-85000000D03*
X103340000Y-85000000D03*
X105370000Y-85000000D03*
X107910000Y-85000000D03*
G04 #@! TD*
D12*
G04 #@! TO.C,U1*
X103600000Y-91500000D03*
X104100000Y-91500000D03*
X104600000Y-91500000D03*
X105100000Y-91500000D03*
X105600000Y-91500000D03*
X105600000Y-87100000D03*
X105100000Y-87100000D03*
X104600000Y-87100000D03*
X104100000Y-87100000D03*
X103600000Y-87100000D03*
G04 #@! TD*
D13*
G04 #@! TO.C,J1*
X99850000Y-82500000D03*
X108500000Y-82500000D03*
X108500000Y-78320000D03*
X99850000Y-78320000D03*
D14*
X101285000Y-82000000D03*
D15*
X103925000Y-83070000D03*
X104425000Y-83070000D03*
X104925000Y-83070000D03*
X103425000Y-83070000D03*
X105425000Y-83070000D03*
X105925000Y-83070000D03*
X102925000Y-83070000D03*
X102425000Y-83070000D03*
D14*
X107065000Y-82000000D03*
D15*
X106675000Y-83070000D03*
X106425000Y-83070000D03*
X107225000Y-83070000D03*
X107525000Y-83070000D03*
X101925000Y-83070000D03*
X101625000Y-83070000D03*
X101125000Y-83070000D03*
X100825000Y-83070000D03*
G04 #@! TD*
D16*
G04 #@! TO.C,D1*
X100300000Y-89000000D03*
X100300000Y-86900000D03*
G04 #@! TD*
D17*
G04 #@! TO.C,L1*
G36*
X98796071Y-88326623D02*
X98828781Y-88331475D01*
X98860857Y-88339509D01*
X98891991Y-88350649D01*
X98921884Y-88364787D01*
X98950247Y-88381787D01*
X98976807Y-88401485D01*
X99001308Y-88423692D01*
X99023515Y-88448193D01*
X99043213Y-88474753D01*
X99060213Y-88503116D01*
X99074351Y-88533009D01*
X99085491Y-88564143D01*
X99093525Y-88596219D01*
X99098377Y-88628929D01*
X99100000Y-88661956D01*
X99100000Y-89538044D01*
X99098377Y-89571071D01*
X99093525Y-89603781D01*
X99085491Y-89635857D01*
X99074351Y-89666991D01*
X99060213Y-89696884D01*
X99043213Y-89725247D01*
X99023515Y-89751807D01*
X99001308Y-89776308D01*
X98976807Y-89798515D01*
X98950247Y-89818213D01*
X98921884Y-89835213D01*
X98891991Y-89849351D01*
X98860857Y-89860491D01*
X98828781Y-89868525D01*
X98796071Y-89873377D01*
X98763044Y-89875000D01*
X97636956Y-89875000D01*
X97603929Y-89873377D01*
X97571219Y-89868525D01*
X97539143Y-89860491D01*
X97508009Y-89849351D01*
X97478116Y-89835213D01*
X97449753Y-89818213D01*
X97423193Y-89798515D01*
X97398692Y-89776308D01*
X97376485Y-89751807D01*
X97356787Y-89725247D01*
X97339787Y-89696884D01*
X97325649Y-89666991D01*
X97314509Y-89635857D01*
X97306475Y-89603781D01*
X97301623Y-89571071D01*
X97300000Y-89538044D01*
X97300000Y-88661956D01*
X97301623Y-88628929D01*
X97306475Y-88596219D01*
X97314509Y-88564143D01*
X97325649Y-88533009D01*
X97339787Y-88503116D01*
X97356787Y-88474753D01*
X97376485Y-88448193D01*
X97398692Y-88423692D01*
X97423193Y-88401485D01*
X97449753Y-88381787D01*
X97478116Y-88364787D01*
X97508009Y-88350649D01*
X97539143Y-88339509D01*
X97571219Y-88331475D01*
X97603929Y-88326623D01*
X97636956Y-88325000D01*
X98763044Y-88325000D01*
X98796071Y-88326623D01*
X98796071Y-88326623D01*
G37*
D18*
X98200000Y-89100000D03*
D17*
G36*
X98796071Y-86276623D02*
X98828781Y-86281475D01*
X98860857Y-86289509D01*
X98891991Y-86300649D01*
X98921884Y-86314787D01*
X98950247Y-86331787D01*
X98976807Y-86351485D01*
X99001308Y-86373692D01*
X99023515Y-86398193D01*
X99043213Y-86424753D01*
X99060213Y-86453116D01*
X99074351Y-86483009D01*
X99085491Y-86514143D01*
X99093525Y-86546219D01*
X99098377Y-86578929D01*
X99100000Y-86611956D01*
X99100000Y-87488044D01*
X99098377Y-87521071D01*
X99093525Y-87553781D01*
X99085491Y-87585857D01*
X99074351Y-87616991D01*
X99060213Y-87646884D01*
X99043213Y-87675247D01*
X99023515Y-87701807D01*
X99001308Y-87726308D01*
X98976807Y-87748515D01*
X98950247Y-87768213D01*
X98921884Y-87785213D01*
X98891991Y-87799351D01*
X98860857Y-87810491D01*
X98828781Y-87818525D01*
X98796071Y-87823377D01*
X98763044Y-87825000D01*
X97636956Y-87825000D01*
X97603929Y-87823377D01*
X97571219Y-87818525D01*
X97539143Y-87810491D01*
X97508009Y-87799351D01*
X97478116Y-87785213D01*
X97449753Y-87768213D01*
X97423193Y-87748515D01*
X97398692Y-87726308D01*
X97376485Y-87701807D01*
X97356787Y-87675247D01*
X97339787Y-87646884D01*
X97325649Y-87616991D01*
X97314509Y-87585857D01*
X97306475Y-87553781D01*
X97301623Y-87521071D01*
X97300000Y-87488044D01*
X97300000Y-86611956D01*
X97301623Y-86578929D01*
X97306475Y-86546219D01*
X97314509Y-86514143D01*
X97325649Y-86483009D01*
X97339787Y-86453116D01*
X97356787Y-86424753D01*
X97376485Y-86398193D01*
X97398692Y-86373692D01*
X97423193Y-86351485D01*
X97449753Y-86331787D01*
X97478116Y-86314787D01*
X97508009Y-86300649D01*
X97539143Y-86289509D01*
X97571219Y-86281475D01*
X97603929Y-86276623D01*
X97636956Y-86275000D01*
X98763044Y-86275000D01*
X98796071Y-86276623D01*
X98796071Y-86276623D01*
G37*
D18*
X98200000Y-87050000D03*
G04 #@! TD*
D17*
G04 #@! TO.C,D2*
G36*
X113643130Y-76976505D02*
X113673466Y-76981005D01*
X113703214Y-76988456D01*
X113732089Y-76998788D01*
X113759811Y-77011900D01*
X113786116Y-77027666D01*
X113810748Y-77045934D01*
X113833471Y-77066529D01*
X113854066Y-77089252D01*
X113872334Y-77113884D01*
X113888100Y-77140189D01*
X113901212Y-77167911D01*
X113911544Y-77196786D01*
X113918995Y-77226534D01*
X113923495Y-77256870D01*
X113925000Y-77287500D01*
X113925000Y-78287500D01*
X113923495Y-78318130D01*
X113918995Y-78348466D01*
X113911544Y-78378214D01*
X113901212Y-78407089D01*
X113888100Y-78434811D01*
X113872334Y-78461116D01*
X113854066Y-78485748D01*
X113833471Y-78508471D01*
X113810748Y-78529066D01*
X113786116Y-78547334D01*
X113759811Y-78563100D01*
X113732089Y-78576212D01*
X113703214Y-78586544D01*
X113673466Y-78593995D01*
X113643130Y-78598495D01*
X113612500Y-78600000D01*
X112987500Y-78600000D01*
X112956870Y-78598495D01*
X112926534Y-78593995D01*
X112896786Y-78586544D01*
X112867911Y-78576212D01*
X112840189Y-78563100D01*
X112813884Y-78547334D01*
X112789252Y-78529066D01*
X112766529Y-78508471D01*
X112745934Y-78485748D01*
X112727666Y-78461116D01*
X112711900Y-78434811D01*
X112698788Y-78407089D01*
X112688456Y-78378214D01*
X112681005Y-78348466D01*
X112676505Y-78318130D01*
X112675000Y-78287500D01*
X112675000Y-77287500D01*
X112676505Y-77256870D01*
X112681005Y-77226534D01*
X112688456Y-77196786D01*
X112698788Y-77167911D01*
X112711900Y-77140189D01*
X112727666Y-77113884D01*
X112745934Y-77089252D01*
X112766529Y-77066529D01*
X112789252Y-77045934D01*
X112813884Y-77027666D01*
X112840189Y-77011900D01*
X112867911Y-76998788D01*
X112896786Y-76988456D01*
X112926534Y-76981005D01*
X112956870Y-76976505D01*
X112987500Y-76975000D01*
X113612500Y-76975000D01*
X113643130Y-76976505D01*
X113643130Y-76976505D01*
G37*
D19*
X113300000Y-77787500D03*
D17*
G36*
X113643130Y-78601505D02*
X113673466Y-78606005D01*
X113703214Y-78613456D01*
X113732089Y-78623788D01*
X113759811Y-78636900D01*
X113786116Y-78652666D01*
X113810748Y-78670934D01*
X113833471Y-78691529D01*
X113854066Y-78714252D01*
X113872334Y-78738884D01*
X113888100Y-78765189D01*
X113901212Y-78792911D01*
X113911544Y-78821786D01*
X113918995Y-78851534D01*
X113923495Y-78881870D01*
X113925000Y-78912500D01*
X113925000Y-79912500D01*
X113923495Y-79943130D01*
X113918995Y-79973466D01*
X113911544Y-80003214D01*
X113901212Y-80032089D01*
X113888100Y-80059811D01*
X113872334Y-80086116D01*
X113854066Y-80110748D01*
X113833471Y-80133471D01*
X113810748Y-80154066D01*
X113786116Y-80172334D01*
X113759811Y-80188100D01*
X113732089Y-80201212D01*
X113703214Y-80211544D01*
X113673466Y-80218995D01*
X113643130Y-80223495D01*
X113612500Y-80225000D01*
X112987500Y-80225000D01*
X112956870Y-80223495D01*
X112926534Y-80218995D01*
X112896786Y-80211544D01*
X112867911Y-80201212D01*
X112840189Y-80188100D01*
X112813884Y-80172334D01*
X112789252Y-80154066D01*
X112766529Y-80133471D01*
X112745934Y-80110748D01*
X112727666Y-80086116D01*
X112711900Y-80059811D01*
X112698788Y-80032089D01*
X112688456Y-80003214D01*
X112681005Y-79973466D01*
X112676505Y-79943130D01*
X112675000Y-79912500D01*
X112675000Y-78912500D01*
X112676505Y-78881870D01*
X112681005Y-78851534D01*
X112688456Y-78821786D01*
X112698788Y-78792911D01*
X112711900Y-78765189D01*
X112727666Y-78738884D01*
X112745934Y-78714252D01*
X112766529Y-78691529D01*
X112789252Y-78670934D01*
X112813884Y-78652666D01*
X112840189Y-78636900D01*
X112867911Y-78623788D01*
X112896786Y-78613456D01*
X112926534Y-78606005D01*
X112956870Y-78601505D01*
X112987500Y-78600000D01*
X113612500Y-78600000D01*
X113643130Y-78601505D01*
X113643130Y-78601505D01*
G37*
D19*
X113300000Y-79412500D03*
G04 #@! TD*
D17*
G04 #@! TO.C,C26*
G36*
X111170581Y-88076625D02*
X111203343Y-88081485D01*
X111235471Y-88089533D01*
X111266656Y-88100691D01*
X111296596Y-88114852D01*
X111325005Y-88131879D01*
X111351608Y-88151609D01*
X111376149Y-88173851D01*
X111398391Y-88198392D01*
X111418121Y-88224995D01*
X111435148Y-88253404D01*
X111449309Y-88283344D01*
X111460467Y-88314529D01*
X111468515Y-88346657D01*
X111473375Y-88379419D01*
X111475000Y-88412500D01*
X111475000Y-89187500D01*
X111473375Y-89220581D01*
X111468515Y-89253343D01*
X111460467Y-89285471D01*
X111449309Y-89316656D01*
X111435148Y-89346596D01*
X111418121Y-89375005D01*
X111398391Y-89401608D01*
X111376149Y-89426149D01*
X111351608Y-89448391D01*
X111325005Y-89468121D01*
X111296596Y-89485148D01*
X111266656Y-89499309D01*
X111235471Y-89510467D01*
X111203343Y-89518515D01*
X111170581Y-89523375D01*
X111137500Y-89525000D01*
X110462500Y-89525000D01*
X110429419Y-89523375D01*
X110396657Y-89518515D01*
X110364529Y-89510467D01*
X110333344Y-89499309D01*
X110303404Y-89485148D01*
X110274995Y-89468121D01*
X110248392Y-89448391D01*
X110223851Y-89426149D01*
X110201609Y-89401608D01*
X110181879Y-89375005D01*
X110164852Y-89346596D01*
X110150691Y-89316656D01*
X110139533Y-89285471D01*
X110131485Y-89253343D01*
X110126625Y-89220581D01*
X110125000Y-89187500D01*
X110125000Y-88412500D01*
X110126625Y-88379419D01*
X110131485Y-88346657D01*
X110139533Y-88314529D01*
X110150691Y-88283344D01*
X110164852Y-88253404D01*
X110181879Y-88224995D01*
X110201609Y-88198392D01*
X110223851Y-88173851D01*
X110248392Y-88151609D01*
X110274995Y-88131879D01*
X110303404Y-88114852D01*
X110333344Y-88100691D01*
X110364529Y-88089533D01*
X110396657Y-88081485D01*
X110429419Y-88076625D01*
X110462500Y-88075000D01*
X111137500Y-88075000D01*
X111170581Y-88076625D01*
X111170581Y-88076625D01*
G37*
D20*
X110800000Y-88800000D03*
D17*
G36*
X111170581Y-86326625D02*
X111203343Y-86331485D01*
X111235471Y-86339533D01*
X111266656Y-86350691D01*
X111296596Y-86364852D01*
X111325005Y-86381879D01*
X111351608Y-86401609D01*
X111376149Y-86423851D01*
X111398391Y-86448392D01*
X111418121Y-86474995D01*
X111435148Y-86503404D01*
X111449309Y-86533344D01*
X111460467Y-86564529D01*
X111468515Y-86596657D01*
X111473375Y-86629419D01*
X111475000Y-86662500D01*
X111475000Y-87437500D01*
X111473375Y-87470581D01*
X111468515Y-87503343D01*
X111460467Y-87535471D01*
X111449309Y-87566656D01*
X111435148Y-87596596D01*
X111418121Y-87625005D01*
X111398391Y-87651608D01*
X111376149Y-87676149D01*
X111351608Y-87698391D01*
X111325005Y-87718121D01*
X111296596Y-87735148D01*
X111266656Y-87749309D01*
X111235471Y-87760467D01*
X111203343Y-87768515D01*
X111170581Y-87773375D01*
X111137500Y-87775000D01*
X110462500Y-87775000D01*
X110429419Y-87773375D01*
X110396657Y-87768515D01*
X110364529Y-87760467D01*
X110333344Y-87749309D01*
X110303404Y-87735148D01*
X110274995Y-87718121D01*
X110248392Y-87698391D01*
X110223851Y-87676149D01*
X110201609Y-87651608D01*
X110181879Y-87625005D01*
X110164852Y-87596596D01*
X110150691Y-87566656D01*
X110139533Y-87535471D01*
X110131485Y-87503343D01*
X110126625Y-87470581D01*
X110125000Y-87437500D01*
X110125000Y-86662500D01*
X110126625Y-86629419D01*
X110131485Y-86596657D01*
X110139533Y-86564529D01*
X110150691Y-86533344D01*
X110164852Y-86503404D01*
X110181879Y-86474995D01*
X110201609Y-86448392D01*
X110223851Y-86423851D01*
X110248392Y-86401609D01*
X110274995Y-86381879D01*
X110303404Y-86364852D01*
X110333344Y-86350691D01*
X110364529Y-86339533D01*
X110396657Y-86331485D01*
X110429419Y-86326625D01*
X110462500Y-86325000D01*
X111137500Y-86325000D01*
X111170581Y-86326625D01*
X111170581Y-86326625D01*
G37*
D20*
X110800000Y-87050000D03*
G04 #@! TD*
D17*
G04 #@! TO.C,C25*
G36*
X109370581Y-86326625D02*
X109403343Y-86331485D01*
X109435471Y-86339533D01*
X109466656Y-86350691D01*
X109496596Y-86364852D01*
X109525005Y-86381879D01*
X109551608Y-86401609D01*
X109576149Y-86423851D01*
X109598391Y-86448392D01*
X109618121Y-86474995D01*
X109635148Y-86503404D01*
X109649309Y-86533344D01*
X109660467Y-86564529D01*
X109668515Y-86596657D01*
X109673375Y-86629419D01*
X109675000Y-86662500D01*
X109675000Y-87437500D01*
X109673375Y-87470581D01*
X109668515Y-87503343D01*
X109660467Y-87535471D01*
X109649309Y-87566656D01*
X109635148Y-87596596D01*
X109618121Y-87625005D01*
X109598391Y-87651608D01*
X109576149Y-87676149D01*
X109551608Y-87698391D01*
X109525005Y-87718121D01*
X109496596Y-87735148D01*
X109466656Y-87749309D01*
X109435471Y-87760467D01*
X109403343Y-87768515D01*
X109370581Y-87773375D01*
X109337500Y-87775000D01*
X108662500Y-87775000D01*
X108629419Y-87773375D01*
X108596657Y-87768515D01*
X108564529Y-87760467D01*
X108533344Y-87749309D01*
X108503404Y-87735148D01*
X108474995Y-87718121D01*
X108448392Y-87698391D01*
X108423851Y-87676149D01*
X108401609Y-87651608D01*
X108381879Y-87625005D01*
X108364852Y-87596596D01*
X108350691Y-87566656D01*
X108339533Y-87535471D01*
X108331485Y-87503343D01*
X108326625Y-87470581D01*
X108325000Y-87437500D01*
X108325000Y-86662500D01*
X108326625Y-86629419D01*
X108331485Y-86596657D01*
X108339533Y-86564529D01*
X108350691Y-86533344D01*
X108364852Y-86503404D01*
X108381879Y-86474995D01*
X108401609Y-86448392D01*
X108423851Y-86423851D01*
X108448392Y-86401609D01*
X108474995Y-86381879D01*
X108503404Y-86364852D01*
X108533344Y-86350691D01*
X108564529Y-86339533D01*
X108596657Y-86331485D01*
X108629419Y-86326625D01*
X108662500Y-86325000D01*
X109337500Y-86325000D01*
X109370581Y-86326625D01*
X109370581Y-86326625D01*
G37*
D20*
X109000000Y-87050000D03*
D17*
G36*
X109370581Y-88076625D02*
X109403343Y-88081485D01*
X109435471Y-88089533D01*
X109466656Y-88100691D01*
X109496596Y-88114852D01*
X109525005Y-88131879D01*
X109551608Y-88151609D01*
X109576149Y-88173851D01*
X109598391Y-88198392D01*
X109618121Y-88224995D01*
X109635148Y-88253404D01*
X109649309Y-88283344D01*
X109660467Y-88314529D01*
X109668515Y-88346657D01*
X109673375Y-88379419D01*
X109675000Y-88412500D01*
X109675000Y-89187500D01*
X109673375Y-89220581D01*
X109668515Y-89253343D01*
X109660467Y-89285471D01*
X109649309Y-89316656D01*
X109635148Y-89346596D01*
X109618121Y-89375005D01*
X109598391Y-89401608D01*
X109576149Y-89426149D01*
X109551608Y-89448391D01*
X109525005Y-89468121D01*
X109496596Y-89485148D01*
X109466656Y-89499309D01*
X109435471Y-89510467D01*
X109403343Y-89518515D01*
X109370581Y-89523375D01*
X109337500Y-89525000D01*
X108662500Y-89525000D01*
X108629419Y-89523375D01*
X108596657Y-89518515D01*
X108564529Y-89510467D01*
X108533344Y-89499309D01*
X108503404Y-89485148D01*
X108474995Y-89468121D01*
X108448392Y-89448391D01*
X108423851Y-89426149D01*
X108401609Y-89401608D01*
X108381879Y-89375005D01*
X108364852Y-89346596D01*
X108350691Y-89316656D01*
X108339533Y-89285471D01*
X108331485Y-89253343D01*
X108326625Y-89220581D01*
X108325000Y-89187500D01*
X108325000Y-88412500D01*
X108326625Y-88379419D01*
X108331485Y-88346657D01*
X108339533Y-88314529D01*
X108350691Y-88283344D01*
X108364852Y-88253404D01*
X108381879Y-88224995D01*
X108401609Y-88198392D01*
X108423851Y-88173851D01*
X108448392Y-88151609D01*
X108474995Y-88131879D01*
X108503404Y-88114852D01*
X108533344Y-88100691D01*
X108564529Y-88089533D01*
X108596657Y-88081485D01*
X108629419Y-88076625D01*
X108662500Y-88075000D01*
X109337500Y-88075000D01*
X109370581Y-88076625D01*
X109370581Y-88076625D01*
G37*
D20*
X109000000Y-88800000D03*
G04 #@! TD*
D21*
G04 #@! TO.C,C4*
X99200000Y-91400000D03*
X101100000Y-91400000D03*
G04 #@! TD*
D22*
G04 #@! TO.C,C7*
X108100000Y-96900000D03*
X108100000Y-98800000D03*
G04 #@! TD*
G04 #@! TO.C,C23*
X106700000Y-96900000D03*
X106700000Y-98800000D03*
G04 #@! TD*
D23*
G04 #@! TO.C,D4*
X111100000Y-90700000D03*
X109000000Y-90700000D03*
G04 #@! TD*
D17*
G04 #@! TO.C,R1*
G36*
X97770581Y-78676625D02*
X97803343Y-78681485D01*
X97835471Y-78689533D01*
X97866656Y-78700691D01*
X97896596Y-78714852D01*
X97925005Y-78731879D01*
X97951608Y-78751609D01*
X97976149Y-78773851D01*
X97998391Y-78798392D01*
X98018121Y-78824995D01*
X98035148Y-78853404D01*
X98049309Y-78883344D01*
X98060467Y-78914529D01*
X98068515Y-78946657D01*
X98073375Y-78979419D01*
X98075000Y-79012500D01*
X98075000Y-79787500D01*
X98073375Y-79820581D01*
X98068515Y-79853343D01*
X98060467Y-79885471D01*
X98049309Y-79916656D01*
X98035148Y-79946596D01*
X98018121Y-79975005D01*
X97998391Y-80001608D01*
X97976149Y-80026149D01*
X97951608Y-80048391D01*
X97925005Y-80068121D01*
X97896596Y-80085148D01*
X97866656Y-80099309D01*
X97835471Y-80110467D01*
X97803343Y-80118515D01*
X97770581Y-80123375D01*
X97737500Y-80125000D01*
X97062500Y-80125000D01*
X97029419Y-80123375D01*
X96996657Y-80118515D01*
X96964529Y-80110467D01*
X96933344Y-80099309D01*
X96903404Y-80085148D01*
X96874995Y-80068121D01*
X96848392Y-80048391D01*
X96823851Y-80026149D01*
X96801609Y-80001608D01*
X96781879Y-79975005D01*
X96764852Y-79946596D01*
X96750691Y-79916656D01*
X96739533Y-79885471D01*
X96731485Y-79853343D01*
X96726625Y-79820581D01*
X96725000Y-79787500D01*
X96725000Y-79012500D01*
X96726625Y-78979419D01*
X96731485Y-78946657D01*
X96739533Y-78914529D01*
X96750691Y-78883344D01*
X96764852Y-78853404D01*
X96781879Y-78824995D01*
X96801609Y-78798392D01*
X96823851Y-78773851D01*
X96848392Y-78751609D01*
X96874995Y-78731879D01*
X96903404Y-78714852D01*
X96933344Y-78700691D01*
X96964529Y-78689533D01*
X96996657Y-78681485D01*
X97029419Y-78676625D01*
X97062500Y-78675000D01*
X97737500Y-78675000D01*
X97770581Y-78676625D01*
X97770581Y-78676625D01*
G37*
D20*
X97400000Y-79400000D03*
D17*
G36*
X97770581Y-76926625D02*
X97803343Y-76931485D01*
X97835471Y-76939533D01*
X97866656Y-76950691D01*
X97896596Y-76964852D01*
X97925005Y-76981879D01*
X97951608Y-77001609D01*
X97976149Y-77023851D01*
X97998391Y-77048392D01*
X98018121Y-77074995D01*
X98035148Y-77103404D01*
X98049309Y-77133344D01*
X98060467Y-77164529D01*
X98068515Y-77196657D01*
X98073375Y-77229419D01*
X98075000Y-77262500D01*
X98075000Y-78037500D01*
X98073375Y-78070581D01*
X98068515Y-78103343D01*
X98060467Y-78135471D01*
X98049309Y-78166656D01*
X98035148Y-78196596D01*
X98018121Y-78225005D01*
X97998391Y-78251608D01*
X97976149Y-78276149D01*
X97951608Y-78298391D01*
X97925005Y-78318121D01*
X97896596Y-78335148D01*
X97866656Y-78349309D01*
X97835471Y-78360467D01*
X97803343Y-78368515D01*
X97770581Y-78373375D01*
X97737500Y-78375000D01*
X97062500Y-78375000D01*
X97029419Y-78373375D01*
X96996657Y-78368515D01*
X96964529Y-78360467D01*
X96933344Y-78349309D01*
X96903404Y-78335148D01*
X96874995Y-78318121D01*
X96848392Y-78298391D01*
X96823851Y-78276149D01*
X96801609Y-78251608D01*
X96781879Y-78225005D01*
X96764852Y-78196596D01*
X96750691Y-78166656D01*
X96739533Y-78135471D01*
X96731485Y-78103343D01*
X96726625Y-78070581D01*
X96725000Y-78037500D01*
X96725000Y-77262500D01*
X96726625Y-77229419D01*
X96731485Y-77196657D01*
X96739533Y-77164529D01*
X96750691Y-77133344D01*
X96764852Y-77103404D01*
X96781879Y-77074995D01*
X96801609Y-77048392D01*
X96823851Y-77023851D01*
X96848392Y-77001609D01*
X96874995Y-76981879D01*
X96903404Y-76964852D01*
X96933344Y-76950691D01*
X96964529Y-76939533D01*
X96996657Y-76931485D01*
X97029419Y-76926625D01*
X97062500Y-76925000D01*
X97737500Y-76925000D01*
X97770581Y-76926625D01*
X97770581Y-76926625D01*
G37*
D20*
X97400000Y-77650000D03*
G04 #@! TD*
D17*
G04 #@! TO.C,R2*
G36*
X110470581Y-76976625D02*
X110503343Y-76981485D01*
X110535471Y-76989533D01*
X110566656Y-77000691D01*
X110596596Y-77014852D01*
X110625005Y-77031879D01*
X110651608Y-77051609D01*
X110676149Y-77073851D01*
X110698391Y-77098392D01*
X110718121Y-77124995D01*
X110735148Y-77153404D01*
X110749309Y-77183344D01*
X110760467Y-77214529D01*
X110768515Y-77246657D01*
X110773375Y-77279419D01*
X110775000Y-77312500D01*
X110775000Y-78087500D01*
X110773375Y-78120581D01*
X110768515Y-78153343D01*
X110760467Y-78185471D01*
X110749309Y-78216656D01*
X110735148Y-78246596D01*
X110718121Y-78275005D01*
X110698391Y-78301608D01*
X110676149Y-78326149D01*
X110651608Y-78348391D01*
X110625005Y-78368121D01*
X110596596Y-78385148D01*
X110566656Y-78399309D01*
X110535471Y-78410467D01*
X110503343Y-78418515D01*
X110470581Y-78423375D01*
X110437500Y-78425000D01*
X109762500Y-78425000D01*
X109729419Y-78423375D01*
X109696657Y-78418515D01*
X109664529Y-78410467D01*
X109633344Y-78399309D01*
X109603404Y-78385148D01*
X109574995Y-78368121D01*
X109548392Y-78348391D01*
X109523851Y-78326149D01*
X109501609Y-78301608D01*
X109481879Y-78275005D01*
X109464852Y-78246596D01*
X109450691Y-78216656D01*
X109439533Y-78185471D01*
X109431485Y-78153343D01*
X109426625Y-78120581D01*
X109425000Y-78087500D01*
X109425000Y-77312500D01*
X109426625Y-77279419D01*
X109431485Y-77246657D01*
X109439533Y-77214529D01*
X109450691Y-77183344D01*
X109464852Y-77153404D01*
X109481879Y-77124995D01*
X109501609Y-77098392D01*
X109523851Y-77073851D01*
X109548392Y-77051609D01*
X109574995Y-77031879D01*
X109603404Y-77014852D01*
X109633344Y-77000691D01*
X109664529Y-76989533D01*
X109696657Y-76981485D01*
X109729419Y-76976625D01*
X109762500Y-76975000D01*
X110437500Y-76975000D01*
X110470581Y-76976625D01*
X110470581Y-76976625D01*
G37*
D20*
X110100000Y-77700000D03*
D17*
G36*
X110470581Y-78726625D02*
X110503343Y-78731485D01*
X110535471Y-78739533D01*
X110566656Y-78750691D01*
X110596596Y-78764852D01*
X110625005Y-78781879D01*
X110651608Y-78801609D01*
X110676149Y-78823851D01*
X110698391Y-78848392D01*
X110718121Y-78874995D01*
X110735148Y-78903404D01*
X110749309Y-78933344D01*
X110760467Y-78964529D01*
X110768515Y-78996657D01*
X110773375Y-79029419D01*
X110775000Y-79062500D01*
X110775000Y-79837500D01*
X110773375Y-79870581D01*
X110768515Y-79903343D01*
X110760467Y-79935471D01*
X110749309Y-79966656D01*
X110735148Y-79996596D01*
X110718121Y-80025005D01*
X110698391Y-80051608D01*
X110676149Y-80076149D01*
X110651608Y-80098391D01*
X110625005Y-80118121D01*
X110596596Y-80135148D01*
X110566656Y-80149309D01*
X110535471Y-80160467D01*
X110503343Y-80168515D01*
X110470581Y-80173375D01*
X110437500Y-80175000D01*
X109762500Y-80175000D01*
X109729419Y-80173375D01*
X109696657Y-80168515D01*
X109664529Y-80160467D01*
X109633344Y-80149309D01*
X109603404Y-80135148D01*
X109574995Y-80118121D01*
X109548392Y-80098391D01*
X109523851Y-80076149D01*
X109501609Y-80051608D01*
X109481879Y-80025005D01*
X109464852Y-79996596D01*
X109450691Y-79966656D01*
X109439533Y-79935471D01*
X109431485Y-79903343D01*
X109426625Y-79870581D01*
X109425000Y-79837500D01*
X109425000Y-79062500D01*
X109426625Y-79029419D01*
X109431485Y-78996657D01*
X109439533Y-78964529D01*
X109450691Y-78933344D01*
X109464852Y-78903404D01*
X109481879Y-78874995D01*
X109501609Y-78848392D01*
X109523851Y-78823851D01*
X109548392Y-78801609D01*
X109574995Y-78781879D01*
X109603404Y-78764852D01*
X109633344Y-78750691D01*
X109664529Y-78739533D01*
X109696657Y-78731485D01*
X109729419Y-78726625D01*
X109762500Y-78725000D01*
X110437500Y-78725000D01*
X110470581Y-78726625D01*
X110470581Y-78726625D01*
G37*
D20*
X110100000Y-79450000D03*
G04 #@! TD*
D24*
G04 #@! TO.C,RN1*
X108800000Y-92600000D03*
D25*
X108800000Y-94200000D03*
X108800000Y-93400000D03*
D24*
X108800000Y-95000000D03*
D25*
X110600000Y-93400000D03*
D24*
X110600000Y-92600000D03*
D25*
X110600000Y-94200000D03*
D24*
X110600000Y-95000000D03*
G04 #@! TD*
D17*
G04 #@! TO.C,C20*
G36*
X110596071Y-95976623D02*
X110628781Y-95981475D01*
X110660857Y-95989509D01*
X110691991Y-96000649D01*
X110721884Y-96014787D01*
X110750247Y-96031787D01*
X110776807Y-96051485D01*
X110801308Y-96073692D01*
X110823515Y-96098193D01*
X110843213Y-96124753D01*
X110860213Y-96153116D01*
X110874351Y-96183009D01*
X110885491Y-96214143D01*
X110893525Y-96246219D01*
X110898377Y-96278929D01*
X110900000Y-96311956D01*
X110900000Y-97188044D01*
X110898377Y-97221071D01*
X110893525Y-97253781D01*
X110885491Y-97285857D01*
X110874351Y-97316991D01*
X110860213Y-97346884D01*
X110843213Y-97375247D01*
X110823515Y-97401807D01*
X110801308Y-97426308D01*
X110776807Y-97448515D01*
X110750247Y-97468213D01*
X110721884Y-97485213D01*
X110691991Y-97499351D01*
X110660857Y-97510491D01*
X110628781Y-97518525D01*
X110596071Y-97523377D01*
X110563044Y-97525000D01*
X109436956Y-97525000D01*
X109403929Y-97523377D01*
X109371219Y-97518525D01*
X109339143Y-97510491D01*
X109308009Y-97499351D01*
X109278116Y-97485213D01*
X109249753Y-97468213D01*
X109223193Y-97448515D01*
X109198692Y-97426308D01*
X109176485Y-97401807D01*
X109156787Y-97375247D01*
X109139787Y-97346884D01*
X109125649Y-97316991D01*
X109114509Y-97285857D01*
X109106475Y-97253781D01*
X109101623Y-97221071D01*
X109100000Y-97188044D01*
X109100000Y-96311956D01*
X109101623Y-96278929D01*
X109106475Y-96246219D01*
X109114509Y-96214143D01*
X109125649Y-96183009D01*
X109139787Y-96153116D01*
X109156787Y-96124753D01*
X109176485Y-96098193D01*
X109198692Y-96073692D01*
X109223193Y-96051485D01*
X109249753Y-96031787D01*
X109278116Y-96014787D01*
X109308009Y-96000649D01*
X109339143Y-95989509D01*
X109371219Y-95981475D01*
X109403929Y-95976623D01*
X109436956Y-95975000D01*
X110563044Y-95975000D01*
X110596071Y-95976623D01*
X110596071Y-95976623D01*
G37*
D18*
X110000000Y-96750000D03*
D17*
G36*
X110596071Y-98026623D02*
X110628781Y-98031475D01*
X110660857Y-98039509D01*
X110691991Y-98050649D01*
X110721884Y-98064787D01*
X110750247Y-98081787D01*
X110776807Y-98101485D01*
X110801308Y-98123692D01*
X110823515Y-98148193D01*
X110843213Y-98174753D01*
X110860213Y-98203116D01*
X110874351Y-98233009D01*
X110885491Y-98264143D01*
X110893525Y-98296219D01*
X110898377Y-98328929D01*
X110900000Y-98361956D01*
X110900000Y-99238044D01*
X110898377Y-99271071D01*
X110893525Y-99303781D01*
X110885491Y-99335857D01*
X110874351Y-99366991D01*
X110860213Y-99396884D01*
X110843213Y-99425247D01*
X110823515Y-99451807D01*
X110801308Y-99476308D01*
X110776807Y-99498515D01*
X110750247Y-99518213D01*
X110721884Y-99535213D01*
X110691991Y-99549351D01*
X110660857Y-99560491D01*
X110628781Y-99568525D01*
X110596071Y-99573377D01*
X110563044Y-99575000D01*
X109436956Y-99575000D01*
X109403929Y-99573377D01*
X109371219Y-99568525D01*
X109339143Y-99560491D01*
X109308009Y-99549351D01*
X109278116Y-99535213D01*
X109249753Y-99518213D01*
X109223193Y-99498515D01*
X109198692Y-99476308D01*
X109176485Y-99451807D01*
X109156787Y-99425247D01*
X109139787Y-99396884D01*
X109125649Y-99366991D01*
X109114509Y-99335857D01*
X109106475Y-99303781D01*
X109101623Y-99271071D01*
X109100000Y-99238044D01*
X109100000Y-98361956D01*
X109101623Y-98328929D01*
X109106475Y-98296219D01*
X109114509Y-98264143D01*
X109125649Y-98233009D01*
X109139787Y-98203116D01*
X109156787Y-98174753D01*
X109176485Y-98148193D01*
X109198692Y-98123692D01*
X109223193Y-98101485D01*
X109249753Y-98081787D01*
X109278116Y-98064787D01*
X109308009Y-98050649D01*
X109339143Y-98039509D01*
X109371219Y-98031475D01*
X109403929Y-98026623D01*
X109436956Y-98025000D01*
X110563044Y-98025000D01*
X110596071Y-98026623D01*
X110596071Y-98026623D01*
G37*
D18*
X110000000Y-98800000D03*
G04 #@! TD*
D26*
G04 #@! TO.C,J2*
X113130000Y-85620000D03*
D27*
X113130000Y-88160000D03*
X113130000Y-90700000D03*
X113130000Y-93240000D03*
X113130000Y-95780000D03*
X113130000Y-98320000D03*
X113130000Y-100860000D03*
X113130000Y-103400000D03*
X113130000Y-105940000D03*
X113130000Y-108480000D03*
G04 #@! TD*
G04 #@! TO.C,J3*
X95350000Y-108480000D03*
X95350000Y-105940000D03*
X95350000Y-103400000D03*
X95350000Y-100860000D03*
X95350000Y-98320000D03*
X95350000Y-95780000D03*
X95350000Y-93240000D03*
X95350000Y-90700000D03*
X95350000Y-88160000D03*
D26*
X95350000Y-85620000D03*
G04 #@! TD*
D17*
G04 #@! TO.C,R3*
G36*
X112070581Y-78726625D02*
X112103343Y-78731485D01*
X112135471Y-78739533D01*
X112166656Y-78750691D01*
X112196596Y-78764852D01*
X112225005Y-78781879D01*
X112251608Y-78801609D01*
X112276149Y-78823851D01*
X112298391Y-78848392D01*
X112318121Y-78874995D01*
X112335148Y-78903404D01*
X112349309Y-78933344D01*
X112360467Y-78964529D01*
X112368515Y-78996657D01*
X112373375Y-79029419D01*
X112375000Y-79062500D01*
X112375000Y-79837500D01*
X112373375Y-79870581D01*
X112368515Y-79903343D01*
X112360467Y-79935471D01*
X112349309Y-79966656D01*
X112335148Y-79996596D01*
X112318121Y-80025005D01*
X112298391Y-80051608D01*
X112276149Y-80076149D01*
X112251608Y-80098391D01*
X112225005Y-80118121D01*
X112196596Y-80135148D01*
X112166656Y-80149309D01*
X112135471Y-80160467D01*
X112103343Y-80168515D01*
X112070581Y-80173375D01*
X112037500Y-80175000D01*
X111362500Y-80175000D01*
X111329419Y-80173375D01*
X111296657Y-80168515D01*
X111264529Y-80160467D01*
X111233344Y-80149309D01*
X111203404Y-80135148D01*
X111174995Y-80118121D01*
X111148392Y-80098391D01*
X111123851Y-80076149D01*
X111101609Y-80051608D01*
X111081879Y-80025005D01*
X111064852Y-79996596D01*
X111050691Y-79966656D01*
X111039533Y-79935471D01*
X111031485Y-79903343D01*
X111026625Y-79870581D01*
X111025000Y-79837500D01*
X111025000Y-79062500D01*
X111026625Y-79029419D01*
X111031485Y-78996657D01*
X111039533Y-78964529D01*
X111050691Y-78933344D01*
X111064852Y-78903404D01*
X111081879Y-78874995D01*
X111101609Y-78848392D01*
X111123851Y-78823851D01*
X111148392Y-78801609D01*
X111174995Y-78781879D01*
X111203404Y-78764852D01*
X111233344Y-78750691D01*
X111264529Y-78739533D01*
X111296657Y-78731485D01*
X111329419Y-78726625D01*
X111362500Y-78725000D01*
X112037500Y-78725000D01*
X112070581Y-78726625D01*
X112070581Y-78726625D01*
G37*
D20*
X111700000Y-79450000D03*
D17*
G36*
X112070581Y-76976625D02*
X112103343Y-76981485D01*
X112135471Y-76989533D01*
X112166656Y-77000691D01*
X112196596Y-77014852D01*
X112225005Y-77031879D01*
X112251608Y-77051609D01*
X112276149Y-77073851D01*
X112298391Y-77098392D01*
X112318121Y-77124995D01*
X112335148Y-77153404D01*
X112349309Y-77183344D01*
X112360467Y-77214529D01*
X112368515Y-77246657D01*
X112373375Y-77279419D01*
X112375000Y-77312500D01*
X112375000Y-78087500D01*
X112373375Y-78120581D01*
X112368515Y-78153343D01*
X112360467Y-78185471D01*
X112349309Y-78216656D01*
X112335148Y-78246596D01*
X112318121Y-78275005D01*
X112298391Y-78301608D01*
X112276149Y-78326149D01*
X112251608Y-78348391D01*
X112225005Y-78368121D01*
X112196596Y-78385148D01*
X112166656Y-78399309D01*
X112135471Y-78410467D01*
X112103343Y-78418515D01*
X112070581Y-78423375D01*
X112037500Y-78425000D01*
X111362500Y-78425000D01*
X111329419Y-78423375D01*
X111296657Y-78418515D01*
X111264529Y-78410467D01*
X111233344Y-78399309D01*
X111203404Y-78385148D01*
X111174995Y-78368121D01*
X111148392Y-78348391D01*
X111123851Y-78326149D01*
X111101609Y-78301608D01*
X111081879Y-78275005D01*
X111064852Y-78246596D01*
X111050691Y-78216656D01*
X111039533Y-78185471D01*
X111031485Y-78153343D01*
X111026625Y-78120581D01*
X111025000Y-78087500D01*
X111025000Y-77312500D01*
X111026625Y-77279419D01*
X111031485Y-77246657D01*
X111039533Y-77214529D01*
X111050691Y-77183344D01*
X111064852Y-77153404D01*
X111081879Y-77124995D01*
X111101609Y-77098392D01*
X111123851Y-77073851D01*
X111148392Y-77051609D01*
X111174995Y-77031879D01*
X111203404Y-77014852D01*
X111233344Y-77000691D01*
X111264529Y-76989533D01*
X111296657Y-76981485D01*
X111329419Y-76976625D01*
X111362500Y-76975000D01*
X112037500Y-76975000D01*
X112070581Y-76976625D01*
X112070581Y-76976625D01*
G37*
D20*
X111700000Y-77700000D03*
G04 #@! TD*
D28*
G04 #@! TO.C,U2*
X98400000Y-96100000D03*
D29*
X104700000Y-96100000D03*
X104700000Y-93800000D03*
X104700000Y-98400000D03*
G04 #@! TD*
D30*
G04 #@! TO.C,U3*
X104500000Y-110300000D03*
X105300000Y-110300000D03*
X106100000Y-110300000D03*
X106900000Y-110300000D03*
X107700000Y-110300000D03*
X108500000Y-110300000D03*
X109300000Y-110300000D03*
X103700000Y-110300000D03*
X102900000Y-110300000D03*
X102100000Y-110300000D03*
X101300000Y-110300000D03*
X100500000Y-110300000D03*
X99700000Y-110300000D03*
D31*
X98600000Y-110350000D03*
X110400000Y-110350000D03*
X98600000Y-100450000D03*
X110400000Y-100450000D03*
D25*
X110300000Y-103800000D03*
X110300000Y-103000000D03*
X110300000Y-106200000D03*
X110300000Y-107000000D03*
X110300000Y-107800000D03*
X110300000Y-108600000D03*
X110300000Y-109400000D03*
X110300000Y-105400000D03*
X110300000Y-104600000D03*
D30*
X106900000Y-100500000D03*
X107700000Y-100500000D03*
X102900000Y-100500000D03*
X103700000Y-100500000D03*
X100500000Y-100500000D03*
X108500000Y-100500000D03*
X101300000Y-100500000D03*
X99700000Y-100500000D03*
X102100000Y-100500000D03*
X109300000Y-100500000D03*
X104500000Y-100500000D03*
X105300000Y-100500000D03*
X106100000Y-100500000D03*
D32*
X104500000Y-105400000D03*
D25*
X110300000Y-102200000D03*
X110300000Y-101400000D03*
X98700000Y-101400000D03*
X98700000Y-107800000D03*
X98700000Y-102200000D03*
X98700000Y-103800000D03*
X98700000Y-107000000D03*
X98700000Y-109400000D03*
X98700000Y-105400000D03*
X98700000Y-103000000D03*
X98700000Y-106200000D03*
X98700000Y-104600000D03*
X98700000Y-108600000D03*
G04 #@! TD*
M02*
